<svg id="Layer_1" data-name="Layer 1" xmlns="http://www.w3.org/2000/svg" viewBox="0 0 457.07 109.78"><title>codeinwp</title><path d="M12.1,56.2a3.45,3.45,0,0,0-1.6-2.9c-4.9-4.1-1-6.8,1.5-9.7,2.7-3.1,5.2-3.3,8.3-.2,3.3,3.3,11.5.3,11.5-4.3-.1-7.2,4.8-5,8.5-5.4,4.3-.5,4.8,1.9,4.8,5.5-.1,3.3,7.5,7.2,10.3,5.5.9-.6,3.1-1.6,1.7-2.8-2.9-2.5-2.7-5.2-2.2-8.4.2-1.6-.8-2.9-2.6-3.7-3.5-1.6-3.5-4.7,0-6.4,2.9-1.4,3.5-2.9,2.4-5.9s.9-5.2,4.2-4.3,5.2.8,6.5-2.9c.9-2.5,5.1-2.3,6.2.3,1.2,2.9,2.9,3.6,5.8,2.8,4.3-1.2,6,.6,4.4,4.7-1,2.5.2,3.6,2,4.8,3.2,2.2,3.2,4.6,0,7a4.71,4.71,0,0,0-2,5.6c1.2,4-.2,5.6-4.1,4.8-4.5-.8-9.2,3.6-8.3,8.3.3,1.7-.7,2.4-1.5,3.4-4.5,5.6-2.7,11.3,4.2,12.4,6,1,3.4,5.5,3.8,8.6s-.6,5.3-4.4,4.9c-4.8-.6-4.2,3.8-5.7,6.2-1.3,2.2-1.6,4.4.9,6.1,3.9,2.6,2.2,5.1-.3,7.2s-4.5,7.4-9,2.6c-1.8-1.9-3.7-2.6-6.1-1-2.6,1.7-6.9,1.5-6.3,6.4.4,3.4-1.4,4.4-4.4,4.3-4.3-.1-9.2,1.5-8.8-6.1.2-3.6-9-6.4-11.6-3.5-3.5,3.9-5.7,1.6-7.9-1s-6.7-4.7-2-8.7c3-2.6,1.2-5,.2-7.6S8.6,77.7,5.1,78c-6.6.5-4.5-4.4-4.9-7.9-.4-3.7.4-6,4.9-6C8.7,64.1,12.1,60,12.1,56.2Zm48,15.7c1.7-12.1-12.9-22.6-22.2-22.2C26.7,50.3,16,60.8,16.2,71.8c.2,11.9,10.8,22.1,22.7,22A21.75,21.75,0,0,0,60.1,71.9Zm8.1-39.1c4,.3,5.9-2.1,6.5-5.5.5-2.9-3.4-6.7-6.3-6.6-3.9.2-5.8,3-6,6.2C62.1,30.4,64.4,32.7,68.2,32.8Z" transform="translate(-0.11)"/><path d="M378.1,57.6c-2.4,8.2-4.8,16-7,23.8a5.52,5.52,0,0,1-4.8,4.4c-3.4.5-6.1,0-7.2-4.2-2.2-8.4-4.7-16.6-7-25-.7-2.5-1.5-4.8-4.3-5.5-2.2-.6-2.8-2.1-2.4-4.2.4-2.3,2.3-2,3.9-2.2,7.9-.7,8.6-.2,10.7,7.5,1.8,6.8,3.8,13.6,6.1,21.8,3.2-6.3,3.9-11.7,5.7-16.9a56.06,56.06,0,0,0,1.9-6.7c.8-3.2,1.8-5.9,6.1-5.8,4.1.1,5.3,2.4,6.2,5.8,2,7.5,4.2,15,6.9,22.7a68.85,68.85,0,0,0,7.4-19.5c.4-1.7-1.2-2.2-2.4-2.7-1.7-.7-1.9-2-1.7-3.7.3-2,1.7-2.2,3.2-2.5,9.2-1.6,10.7.3,7.8,9.2-2.8,8.5-5.4,17.1-8,25.7-1.1,3.5-2.1,6.4-7,6.1-4.6-.2-5.5-3.1-6.3-6.3-1.4-5.3-2.6-10.6-4.1-15.9C381.1,61.5,381,59.2,378.1,57.6Z" transform="translate(-0.11)"/><path d="M418.8,74.1c0-5,.2-10-.1-15-.2-3.4.9-7.7-4.5-8.6-1.4-.2-1.4-1.8-1.1-2.9.3-1.3,1-2.7,2.6-2.5,3.9.4,8.3-1.8,11.5,2.6,1.7,2.3,3.4,0,4.7-.8,4.1-2.7,8.4-3.9,13.2-2.5,6.8,2,10.6,6.8,11.6,13.6a36.81,36.81,0,0,1-1.1,16.8A17.11,17.11,0,0,1,433.7,86c-6.1-2-6.5-1.8-6.6,4.7-.1,8-1,8.4,6.9,8.3,2,0,3.8.5,3.8,2.9s-1.9,2.9-3.8,2.9c-5.7.1-11.3.1-17,.1-1.5,0-3-.2-3.6-2s.5-3,1.8-3.6c2.7-1.1,3-3.2,3-5.7V74.1Zm29-7.5c0-1.9.1-3.3,0-4.6-.5-6.5-3.8-10.7-8.7-11-6-.4-10,3.1-11.4,10a41.21,41.21,0,0,0-.6,9.9c.4,6.3,3.3,9.1,10.2,9.7,3.8.3,8.6-3.4,10-7.7A20.47,20.47,0,0,0,447.8,66.6Z" transform="translate(-0.11)"/><path d="M219,51.3v20c0,3.5-.9,7.2,3.8,9.1a2.63,2.63,0,0,1-.4,4.8c-3.2,1-7,2.2-9.6-1.3-1.5-2-2.6-2-4.5-.8a25.83,25.83,0,0,1-4.4,2.2c-9.7,4.2-19.1-.2-21.9-10.4a32.25,32.25,0,0,1,.5-19.2c3-9.2,12.6-13.9,22-10.9,5.2,1.7,5.5,1.5,5.5-4,0-4.4,1.4-9.2-4.1-12.2-1.5-.9-2.1-4.4,1.9-4.8h.5c10.5-1.2,10.8-1,10.8,9.6C219,39.3,219,45.3,219,51.3Zm-9.1,12.8h0c.1-1.5-.1-3,.1-4.5.9-5.4-2.3-7.4-6.7-8.6a10,10,0,0,0-12.4,6.4,21.91,21.91,0,0,0,.3,16.5c1.9,4.7,5.4,6.5,10.4,5.6s8.1-4.1,8.3-9C210,68.4,209.9,66.3,209.9,64.1Z" transform="translate(-0.11)"/><path d="M337,65.9v7.5c-.1,3.1-.1,6,4.1,6.5,1.7.2,1.7,1.8,1.8,3.1.1,1.6-1,1.9-2.2,2.2-5.3,1.4-10.6.5-15.9.5-1.6,0-1.6-1.4-1.8-2.6-.2-1.4-.2-2.9,1.4-3.3,3.5-.9,3.4-3.5,3.3-6.3-.1-4.7,0-9.3,0-14,0-3.7-1.4-6.6-5.2-7.5s-7.3-.3-9.8,3.1a14,14,0,0,0-2.7,8.4c0,3.7.2,7.3-.1,11-.2,3,.7,4.9,3.8,5.1,2.8.2,3.1,1.8,3,4.1-.1,2.7-2.1,2.1-3.6,2.1-4.3,0-8.7.1-13-.1-1.7-.1-3.7-.1-4.2-2.6s.9-3.2,3-3.5c1.9-.3,2-1.9,2.2-3.4a94.61,94.61,0,0,0,.4-19.9c-.2-2.5-.5-5-3.9-5.4-1.8-.2-1.6-1.8-1.6-3.1s.7-2.4,1.9-2.5c3.8-.2,8-1.9,11.2,1.8,1.4,1.6,2.9,1.4,4.5.6s3-1.5,4.5-2.2c9.4-4.3,18.3,1,18.8,11.2.2,2.9.1,6,.1,9.2Z" transform="translate(-0.11)"/><path d="M174.1,64.1c.2,13.7-8.3,22.9-20.9,22.7A17.27,17.27,0,0,1,136,70.7c-.3-4.6-.8-9.3.8-13.8,3.3-9.4,12.5-14.7,22.6-13C168.7,45.5,174,52.8,174.1,64.1Zm-29.1.5c0,2.8-.1,5.6.9,8.4,1.4,4.2,5.6,7.5,9.7,7.2,4.5-.3,7.2-3.1,8.3-7.4a28.39,28.39,0,0,0,.1-15.3,9.53,9.53,0,0,0-12-6.8C146.8,52.3,145,55.9,145,64.6Z" transform="translate(-0.11)"/><path d="M265.1,61.3c1,4.3-.9,6.1-6.1,5.6-4.8-.4-9.6,0-14.4,0s-6.5,3-3.9,7c2.2,3.5,5.1,6.2,9.7,5.8,3-.3,5.9-.6,8.9-.8,1.3-.1,3.2-.9,3.5,1.5.2,1.7.2,3.2-1.7,4.2-8.7,4.7-23.1,1.8-27.6-5.6-6.3-10.5-3.6-26.6,5.5-32.4,5.7-3.6,12-4.2,18-1C262.8,48.8,265.4,54,265.1,61.3Zm-18.6.4c2.1,0,3.1.1,4.1,0,2.3-.4,5.5.8,6.1-2.7a6.85,6.85,0,0,0-4-7.4,8.6,8.6,0,0,0-9,.4c-2.4,1.7-4.8,3.8-3.9,7.4s4.1,1.7,6.2,2.3C246.6,61.8,247.1,61.8,246.5,61.7Z" transform="translate(-0.11)"/><path d="M105.1,64.6c-.3,11.6,4.7,16.1,16.2,14.7,2.5-.3,6.3-2.3,7.1,1.8.7,3.8-3.4,3.9-5.8,4.7-8.4,2.6-18.2.1-22.9-5.8s-5.3-19.4-1.3-26.7c3.6-6.5,11.5-10.4,19.5-9.6,6.9.7,11.6,5.4,11.7,11.4,0,1.5.2,3.2-2,3.4-1.6.1-3.6.8-4.3-1.3-2-6-6.5-7.8-11.8-6s-6.4,6.7-6.4,11.9Z" transform="translate(-0.11)"/><path d="M285.1,61.6V72.1c0,3.7-.4,7.6,5.1,7.8,1.5.1,1.6,1.4,1.7,2.6a2.34,2.34,0,0,1-2.2,2.8c-5.6,1-11.2.5-16.9.3-1.5-.1-2.2-1.4-2.4-2.8s.3-2.8,1.9-2.9c3.4-.3,3.6-2.6,4-5.2a89.27,89.27,0,0,0,.3-17.9c-.2-2.5,0-5.5-3.8-6-1.7-.2-1.7-1.9-1.4-3.2a3,3,0,0,1,3.1-2.7c2.5-.1,5,0,7.5-.1,2.1-.1,3,.8,3,2.9-.1,4.6,0,9.3,0,13.9Z" transform="translate(-0.11)"/><path d="M41.9,0c2.5,2.7,6.2,2.5,7.5,3.9,1.5,1.6,3.1,5.2,2.8,7.3-.4,2.3-1.5,6.6-2.9,7-2.6.7-4.8,3.5-6.8,3.1-2.4-.5-5.7-1.7-7-3.3a13.38,13.38,0,0,1-2.8-6.7c-.2-2.3,1.7-4.8,2.8-7S40.7,3.5,41.9,0Zm.5,8.1a3.36,3.36,0,0,0-3.3,3c-.2,2.2,1.5,3.3,3.4,3.4a3.22,3.22,0,0,0,3.4-3C46.1,9.2,44.2,8.7,42.4,8.1Z" transform="translate(-0.11)"/><path d="M286.1,32.1c-.2,3.7-1.6,5.6-4.9,5.6s-5.3-1.7-5.2-5.1c.1-3.2,1.8-4.8,5-4.9A4.82,4.82,0,0,1,286.1,32.1Z" transform="translate(-0.11)"/><path d="M37.1,80.6c-1.1-.3-2.1-.8-1.6-2.3,1.3-3.9,2.6-7.9,3.9-11.7.3-.9.9-2,2.1-1.7a1.66,1.66,0,0,1,1.1,2.4c-1.3,4.1-2.6,8.2-4,12.3A1.4,1.4,0,0,1,37.1,80.6Z" transform="translate(-0.11)"/><path d="M47.2,77.6c-.3.1-.5.2-.7.1-.8-.2-1.8-1.4-1.3-1.5,4.5-1.3-3.5-6.9,2.4-7,2.3-.1,5.6,1.5,5.5,4.1S49.2,76.3,47.2,77.6Z" transform="translate(-0.11)"/><path d="M33.2,75.7c-.4.9-.6,1.7-.8,1.7-2.9.3-5.1-1.1-6.9-3.1s.3-2.9,1.6-3.7a15.11,15.11,0,0,1,3.7-1.5c1.1-.4,2.5.2,1.9,1.2C31.6,72.4,30.1,74.2,33.2,75.7Z" transform="translate(-0.11)"/></svg>