<svg id="Layer_1" data-name="Layer 1" xmlns="http://www.w3.org/2000/svg" viewBox="0 0 1219.01 239.05"><title>kinsta</title><path d="M655.76,238h55c40.3-.05,70.89-29.78,72-70,.56-20.81-7.42-37.94-23.22-51.24-12.94-10.9-28.3-16-45.07-16.31-20.49-.34-41-.07-61.49-.11-6.09,0-10.47-2.88-13.11-8.34s-2.43-10.84,1.38-15.93,9.21-6.07,15-6.07h99c10.49,0,12.7-2.16,12.7-12.48v-31C768,16.18,765.79,14,755.32,14h-102C621.6,14,596,32.55,585.84,62.7c-13.21,39.43,10.55,82.41,51,91.86a78.19,78.19,0,0,0,16.76,2c19.83.23,39.66,0,59.49.12,7.44,0,11.84,3.56,13.73,10.59a11.59,11.59,0,0,1-5.88,12.61,25.2,25.2,0,0,1-10.56,2c-37.83.13-75.66.08-113.49.09-1.83,0-3.67-.06-5.49.1-6.06.54-9,3.66-9,9.7v34c0,9.92,2.28,12.22,12.4,12.24Q625.27,238.07,655.76,238ZM349,125.29V225.76c0,10,2.26,12.24,12.41,12.26s20.32,0,30.49,0c10.36,0,12.74-2.4,12.75-12.56q0-56.73,0-113.46c.05-19.64,8.66-34.44,26.68-42.51,23.48-10.5,51.37,2.4,58.18,27.23,2.45,8.93,2.29,18.73,2.36,28.14.26,33.65.07,67.31.12,101,0,9.84,2.4,12.17,12,12.2h32.49c8.61,0,11.1-2.51,11.1-10.92V104.19a37.36,37.36,0,0,0-.14-4.49c-3.17-26.7-14.52-49.23-34.88-66.93a94,94,0,0,0-53-23.25c-28.1-2.87-53.32,4.83-75.17,22.8-3.27,2.7-4.84,2.08-7.14-.83-3.93-4.94-8.08-9.72-12.33-14.38s-10.15-5.31-13.48-1c-1.72,2.21-2.34,5.79-2.36,8.76C348.92,58.32,349,91.8,349,125.29ZM884,14H809.51c-7.17,0-10.39,2.71-10.48,9.15q-.28,19,0,38c.07,5.21,3.17,8.14,8.38,8.68,1.82.19,3.66.2,5.49.21,10.72.08,14,3.24,14,14,.06,17.5.2,35,0,52.49-.3,23.33,6.6,44.26,20.87,62.57,16.08,20.62,36.9,34.34,63.07,37.42,16.44,1.94,33.21,1.27,49.84,1.36,6.09,0,8.81-3.78,8.87-10.91q.12-16.74,0-33.49c0-7.74-3.4-11.23-11.21-11.4-8.5-.17-17,.09-25.49-.11-5.47-.13-11.09,0-16.36-1.28-20.31-4.79-33.75-22.13-33.87-43.18-.1-17.83,0-35.66,0-53.49,0-10.86,3-13.91,14-13.93H957.1c9.54,0,12.47-3,12.53-12.6.06-10.16,0-20.32,0-30.49s-2.69-13-13.12-13ZM303.63,125.64c0-33.82-.05-67.63.05-101.45,0-4.9-1.61-8.5-6.26-10.23-4.44-1.64-7.52.61-10.33,3.9-9.73,11.36-19.25,22.93-29.49,33.82-7,7.46-10.26,15.25-9.88,25.8.82,22.62.25,45.3.25,68v81c0,9.25,2.38,11.61,11.42,11.63h32.49c9.19,0,11.72-2.6,11.72-11.94Q303.65,175.86,303.63,125.64Z" transform="translate(0.01)"/><path d="M1219,226a7.29,7.29,0,0,0-.86,1.2c-3.79,8.36-11,9.18-16.4,1.79-3.71-5.1-7.28-10.31-10.89-15.49-4.91-7-10.29-7.93-17.24-2.62-16.16,12.34-33.49,22.29-53.83,25.76a108.25,108.25,0,0,1-61.58-7.29c-42.6-18.17-62.9-52.17-67.18-97-2.36-24.72,1.22-48.62,12.91-70.64C1023.83,24.25,1055.31,4,1097.71.94A30.13,30.13,0,0,0,1102,0h4c2.42.45,4.84.91,7.26,1.35,4.72.86,9.52,1.45,14.17,2.6,17.8,4.4,32.87,14,47.12,25.1,6.53,5.1,11.46,4.35,16.69-2,3.58-4.37,7.13-8.78,10.88-13a13.26,13.26,0,0,1,4.7-3.49c5.2-2.12,8.37-.06,12.18,7.49ZM1046.33,119.69c1.88,8.88,3,18,5.79,26.59,10.5,32.13,53.61,45.95,81.3,26.42,34.92-24.63,38.44-70.56,7.67-100.08-20.78-19.94-54.69-20.1-75.6-.24C1052,85.16,1047.73,101.52,1046.33,119.69Z" transform="translate(0.01)"/><path d="M158,239c-8.87-3.85-13.28-12.31-19.2-19.06-19.72-22.48-39-45.34-58.45-68.07-5.4-6.31-10.84-12.59-16.14-19-4.16-5-4.1-8.71.23-13.78q27.65-32.45,55.4-64.79C129.57,43,139.43,31.72,149,20.22c3.7-4.45,7.83-6.52,13.74-6.35,12.48.35,25,.16,37.47.08,4.28,0,8.12.83,10,5.06s.15,7.71-2.64,11l-70,81.12c-2.17,2.51-4.37,5-6.48,7.58-4.15,5.06-4.17,10,0,14.84l75.14,87.26a20.31,20.31,0,0,1,4.3,7.14c1.75,6.28-2.84,8.83-7.49,11.1Z" transform="translate(0.01)"/><path d="M0,22c2.17-7.49,7.61-9,14.65-8.72,10,.37,20,.09,30,.09C54.29,13.38,57,16.09,57,25.91V223.3a60.94,60.94,0,0,1-.26,6.48c-.54,5.25-3.07,8-8.27,8.1-13.16.21-26.32.06-39.48.12-5.46,0-7-4.2-9-8Z" transform="translate(0.01)"/><path d="M655.76,238h-61c-10.12,0-12.39-2.32-12.4-12.24v-34c0-6,2.93-9.16,9-9.7,1.82-.16,3.66-.1,5.49-.1q56.74,0,113.49-.09a25.2,25.2,0,0,0,10.56-2,11.59,11.59,0,0,0,5.88-12.61c-1.89-7-6.29-10.57-13.73-10.59-19.83-.08-39.66.11-59.49-.12a78.19,78.19,0,0,1-16.76-2c-40.43-9.45-64.19-52.43-51-91.86C596,32.55,621.6,14,653.34,14h102C765.81,14,768,16.2,768,26.54s0,20.67,0,31S765.79,70,755.28,70h-99c-5.84,0-11.24.91-15.08,6.06s-4,10.41-1.36,15.94,7,8.33,13.11,8.34c20.5,0,41-.23,61.49.11,16.77.28,32.13,5.41,45.07,16.31,15.8,13.3,23.78,30.43,23.22,51.24-1.09,40.22-31.68,69.95-72,70Q683.25,238.08,655.76,238Z" transform="translate(0.01)"/><path d="M349,125.29c0-33.49-.05-67,.1-100.46,0-3,.64-6.55,2.36-8.76,3.33-4.27,9.26-3.6,13.48,1s8.4,9.44,12.33,14.38c2.3,2.91,3.87,3.53,7.14.83,21.85-18,47.07-25.67,75.17-22.8a94,94,0,0,1,53,23.25c20.36,17.7,31.71,40.19,34.92,66.88a37.36,37.36,0,0,1,.14,4.49v123c0,8.41-2.49,10.89-11.1,10.92q-16.24.07-32.49,0c-9.64,0-12-2.36-12-12.2-.05-33.65.14-67.31-.12-101-.07-9.41.09-19.21-2.36-28.14C482.7,71.89,454.81,59,431.33,69.49c-18,8.07-26.63,22.87-26.68,42.51-.08,37.82,0,75.64,0,113.46,0,10.16-2.39,12.53-12.75,12.56H361.41c-10.15,0-12.4-2.23-12.41-12.26Q349,175.53,349,125.29Z" transform="translate(0.01)"/><path d="M884,14h72.48c10.43,0,13.08,2.64,13.09,12.93s0,20.33,0,30.49c0,9.58-3,12.58-12.51,12.58-20.16.08-40.32,0-60.48,0-10.93,0-14,3.07-14,13.93,0,17.83-.08,35.66,0,53.49.12,21,13.56,38.39,33.87,43.18,5.27,1.23,10.89,1.15,16.36,1.28,8.49.2,17-.06,25.49.11,7.81.17,11.17,3.66,11.21,11.4q.11,16.74,0,33.49c-.06,7.13-2.78,10.94-8.87,10.91-16.63-.09-33.4.58-49.84-1.36-26.17-3.08-47-16.8-63.07-37.42-14.27-18.31-21.17-39.24-20.87-62.57.22-17.5.08-35,0-52.49,0-10.73-3.28-13.89-14-14a47.9,47.9,0,0,1-5.49-.21c-5.21-.54-8.31-3.47-8.38-8.68q-.27-19,0-38c.09-6.44,3.31-9.12,10.48-9.15,18.83-.07,37.66,0,56.49,0Z" transform="translate(0.01)"/><path d="M303.63,125.64V226.08c0,9.34-2.53,11.92-11.72,11.94H259.42c-9,0-11.41-2.38-11.42-11.63q-.06-40.48,0-81c0-22.65.57-45.33-.25-67.95-.38-10.55,2.87-18.34,9.88-25.8,10.24-10.89,19.76-22.46,29.49-33.82,2.81-3.29,5.89-5.54,10.33-3.9,4.65,1.73,6.27,5.33,6.26,10.23C303.58,58,303.63,91.82,303.63,125.64Z" transform="translate(0.01)"/></svg>