<svg id="Layer_1" data-name="Layer 1" xmlns="http://www.w3.org/2000/svg" viewBox="0 0 569.41 72.91"><title>shortpixel</title><path d="M569.4,70.1a10.06,10.06,0,0,1-5.9,2.1c-10-.1-20-.2-29.9,0-3.9.1-5.3-1.5-5.3-5.3.1-20,.2-39.9,0-59.9,0-5,2.6-5.2,6.3-5.2,3.9,0,6.8.2,6.8,5.4-.2,15.8-.1,31.6-.1,47.4,0,6.4,0,6.4,6.6,6.4,5.2,0,10.3.2,15.5-.1a6.16,6.16,0,0,1,6,3.1Z" transform="translate(0.01 0.01)"/><path d="M162.7,72.9c-20-.2-36.4-17.2-36.1-37.5C126.8,16.3,144-.4,163.2,0c21.2.5,36.4,16.2,36.7,36.9C200.1,56.4,182.5,73.1,162.7,72.9ZM139.4,36.7A23.67,23.67,0,0,0,163,60.1a24.16,24.16,0,0,0,24.2-23.9c0-12.7-11.3-23.9-24-23.8C150.1,12.4,139.4,23.4,139.4,36.7Z" transform="translate(0.01 0.01)"/><path d="M56.6,36.1c0-9.8.2-19.7-.1-29.5C56.3,1.5,58.8.9,62.9.9s6.8.3,6.6,5.5c-.3,6.5,0,13-.1,19.5-.1,2.9.7,4.2,3.9,4.1,8.7-.2,17.3-.2,26,0,3.3.1,4.3-1.1,4.2-4.3-.2-6.7.1-13.3-.1-20-.1-3.9,1.8-5,5.3-4.7,3.2.3,7.6-1.3,7.6,4.5V67c0,4.9-3.2,5-6.8,5s-6.2-.6-6.1-5.1c.2-6.7-.1-13.3.1-20,.1-3.6-.8-5.1-4.6-5-8.3.2-16.7.2-25,0-3.4-.1-4.7,1-4.6,4.5.3,6.3.1,12.7.1,19,0,6.1-.4,6.6-6.5,6.5-5.7,0-6.3-.7-6.4-6.8C56.5,55.4,56.6,45.8,56.6,36.1Z" transform="translate(0.01 0.01)"/><path d="M210.5,36c0-10,.1-20-.1-30,0-3.6,1.1-5.1,4.9-5.1,8.8.2,17.6-.1,26.5.1,9.2.1,17.9,6.9,20.6,15.5a20.47,20.47,0,0,1-9,23.3c-4.4,2.7-5,4.9-2.2,9.3,3.5,5.4,6.2,11.3,9.3,17.1,2.2,4.2,1.3,5.3-3.5,5.8-5.6.6-9-1.3-11.2-6.6-2.6-6.3-6-12.2-8.9-18.4-2.7-5.5-7.6-3-11.5-2.9s-2.5,4-2.6,6.4c-.2,5.7-.2,11.3,0,17,.1,4.5-2.8,4.5-6,4.5s-6.1-.1-6.1-4.5C210.5,57,210.5,46.5,210.5,36Zm22.6-2.3c2.3,0,4.7.2,7,0,6.2-.6,10.6-5.4,10.4-11.3-.2-5.6-4.7-9.8-10.9-10.1-2.2-.1-4.3,0-6.5,0-10.5,0-10.5,0-10.5,10.5C222.5,33.7,222.5,33.7,233.1,33.7Z" transform="translate(0.01 0.01)"/><path d="M434.4,47.7c-4.6,7.4-8.5,13.8-12.5,20.1-2.4,3.8-10.2,6-14.2,4-2.6-1.3-1.3-3-.3-4.6,5-8,9.8-16.3,15.3-24,3.6-5.1,3.9-8.9.1-14-5.2-6.9-9.6-14.4-14.2-21.7-2.7-4.3-2-5.1,3-5.7C418,1,422.4,3,425.1,9c1.8,3.9,4.5,7.4,6.6,11.2,1.8,3.1,3.1,3.8,5.2.2,3-5.2,6.3-10.2,9.4-15.3,1.8-2.8,12-4.8,14.5-2.7,2.2,1.9.4,3.6-.6,5.2-5.2,8.1-10.3,16.3-15.8,24.3-2.1,3.1-2.1,5.4,0,8.4,5.6,8.4,11,17.1,16.4,25.7.9,1.5,2.6,3,1.5,4.9s-3,.9-4.6,1.2c-5.6.9-9.3-1.2-12.1-6.4C442.5,59.8,438.5,54.3,434.4,47.7Z" transform="translate(0.01 0.01)"/><path d="M513.4,2.1c4.4,1.5,2.5,5.2,2.4,7.9s-2.7,2.5-4.6,2.6c-7.2.1-14.3.1-21.5,0-4.1-.1-6,1.3-6,5.7.2,14.4-1.1,12.4,12.1,12.6,3.3,0,6.7.2,10,0,4-.2,5.7,1.2,5.6,5.4-.1,3.9-.8,6.4-5.5,6.3-5.8-.2-11.7.1-17.5-.1-3.3-.1-4.2,1.3-4.5,4.3-1.4,13.9-1.1,14.3,12.6,14.3,4.8,0,9.7.2,14.5-.1,4.1-.2,5.2,1.9,5.1,5.5,0,3.4-.6,5.8-4.9,5.7-11.5-.2-23-.1-34.5,0-3.4,0-4.9-1.2-4.9-4.6q0-30.75.1-61.4c0-1.6-.4-4,2.5-4,.4.6.7.5,1-.1h37C512.7,2.6,513,2.7,513.4,2.1Z" transform="translate(0.01 0.01)"/><path d="M332.4,2c8.3-.4,16.7-.4,25,0,.3.5.6.6,1,.1,11.9,2.8,18.8,11.3,18.3,22.6s-8.4,19.7-20,21.3a72.52,72.52,0,0,1-11.4.5c-3.1-.1-4,1-3.9,4.1.2,5.7-.1,11.3.1,17,.1,4.1-2.3,4.7-5.5,4.5s-7.3,1.2-7.3-4.2V6c0-1.7,0-3.9,2.7-3.9C331.8,2.8,332.1,2.7,332.4,2Zm9,21.9c0,11.7,0,11.7,11.5,11,6.6-.4,11.7-5.4,11.6-11.3-.1-5.6-4.7-9.8-11.4-10.3C341.4,12.3,341.4,12.3,341.4,23.9Z" transform="translate(0.01 0.01)"/><path d="M23,0c5.8.5,11.7,1.4,16.9,4.9,2.3,1.5,4.7,3.2,2.5,6.3-1.9,2.7-3.4,6.7-8.1,3.9a33.79,33.79,0,0,0-9.7-3.8c-4.9-1.2-9.8,1-11.4,4.9-1.4,3.5.5,7.8,4.8,10.4A92,92,0,0,0,26.9,31,54.4,54.4,0,0,1,37,36.4c6.6,5,10.6,11.3,8.9,19.8S38.3,69.7,30.1,71.7c-9.5,2.4-18.4.4-26.6-4.9-4-2.6-2.7-5.2-.8-8.4S6.6,55,9.6,57a36.24,36.24,0,0,0,10.5,4.5c4.3,1.1,9.4-.9,11.2-4.4,2.2-4.3.5-7.7-2.8-10.6a25.34,25.34,0,0,0-7.2-4.4c-3.8-1.6-7.7-3.2-11.1-5.7C1.5,29.7-1.9,21.5,1,13.6,4,5.2,12.6-.1,23,0Z" transform="translate(0.01 0.01)"/><path d="M284.6,41.2c0-7.8-.2-15.7.1-23.5.2-4.3-1.4-5.7-5.5-5.2a50.45,50.45,0,0,1-5.5,0c-5.9-.1-6.4-.8-6.5-6.6,0-3.8,1.5-4.9,5.1-4.9,12.7.1,25.3.1,38,0,3.6,0,5.2,1.1,5,4.9-.2,3.4.4,7-4.9,6.6-2.7-.2-5.4.2-8,0-4.1-.4-5.1,1.4-5.1,5.2.1,16,0,32,.1,48,0,4.3-1,6.5-5.8,6.3-6-.2-7.1-.8-7.1-6.3C284.6,57.5,284.6,49.4,284.6,41.2Z" transform="translate(0.01 0.01)"/><path d="M385.4,68.1V5.1a1.42,1.42,0,0,1,.4-.2,1.49,1.49,0,0,0-.3-.7c2.5-4.3,6.5-2.1,9.7-1.9,2.9.2,2.2,3.2,2.2,5.3V66.8c0,2.4.2,5.4-3,5.2s-7.6,2.8-9.1-2.8C386.1,68.7,386,68.4,385.4,68.1Z" transform="translate(0.01 0.01)"/><path d="M332.4,2c-.3.7-.6.8-1,.1A3.75,3.75,0,0,0,332.4,2Z" transform="translate(0.01 0.01)"/><path d="M385.4,68.1c.7.3.7.6,0,1Z" transform="translate(0.01 0.01)"/><path d="M513.4,2.1c-.4.6-.7.5-1-.1A3.08,3.08,0,0,0,513.4,2.1Z" transform="translate(0.01 0.01)"/><path d="M385.5,4.1c.1.2.2.5.3.7s-.2.2-.4.2A2.77,2.77,0,0,1,385.5,4.1Z" transform="translate(0.01 0.01)"/><path d="M475.4,2c-.3.6-.6.6-1,.1A3.75,3.75,0,0,0,475.4,2Z" transform="translate(0.01 0.01)"/><path d="M358.4,2.2c-.4.5-.7.4-1-.1A3.75,3.75,0,0,1,358.4,2.2Z" transform="translate(0.01 0.01)"/></svg>