<svg id="Layer_1" data-name="Layer 1" xmlns="http://www.w3.org/2000/svg" viewBox="0 0 413.03 68.89"><title>themeisle</title><path d="M50.6,27.1c5.9-7.4,12.6-10.3,21-8.7C79.4,19.8,83.7,25.1,84,34c.2,6.9.2,13.9,0,20.8-.1,2.9.7,4.2,3.7,3.7,4.7-.8,3.2,2.8,3.5,5.1.4,2.8-.4,4.1-3.6,3.9a80.11,80.11,0,0,0-12,0c-3.2.2-3.7-1-3.7-3.8.2-8.1.1-16.3,0-24.4,0-3.9,0-7.9-4.5-9.8-3.7-1.5-9.2,0-12.4,3.4a17,17,0,0,0-4.5,11.7c-.1,3.5.1,6.9-.1,10.4-.1,2.7.6,4,3.6,3.5,5-.8,3.3,2.9,3.7,5.3.5,3.2-1,3.7-3.8,3.7-9.5-.2-18.9.1-28.4-.2C13.7,67,7.6,60.5,7.5,48.9c-.1-5.9-.1-11.7,0-17.6.1-2.7-.8-3.7-3.4-3.3C-1,29,.3,25.4,0,22.6c-.4-3.3,1.1-4.3,4-3.8,3.2.5,4.4-.9,3.9-4V14c0-8.7,0-8.6,8.6-8.4,2.2,0,3.1.6,3,2.9s.1,4.8-.1,7.2.9,3.4,3.3,3.1a13.35,13.35,0,0,1,2,0c5.9,0,7.1,1.7,5.8,7.6-.3,1.1-.7,1.6-1.8,1.6H27.5c-8,.3-8,.3-8,8.2,0,3.9-.1,7.7,0,11.6.3,7.3,3.7,10.5,11.1,10.7,7.8.2,7.8.2,7.8-7.9,0-12.5-.1-25,.1-37.6,0-2.9-.4-4.6-3.8-4-4.5.8-3.5-2.4-3.7-4.9-.3-3,.5-4.3,3.8-4.1A109.32,109.32,0,0,0,47.6,0c2.3-.1,3,.6,2.9,2.9C50.5,10.7,50.6,18.4,50.6,27.1Z" transform="translate(0.06 0.02)"/><path d="M158,27.4c12.1-13,24-12.9,29.8.8,2.4-3.7,5.1-6.6,8.9-8.4,11.9-5.7,22.9.8,23.4,13.9.3,7.2.2,14.4.1,21.6-.1,2.7.8,3.7,3.4,3.3,4.8-.9,3.5,2.6,3.8,5.1.4,3.3-1,4-4,3.9q-6-.3-12,0c-2.7.2-3.3-.9-3.3-3.4.1-8.7.1-17.3,0-26,0-3.5-.1-7.1-4.1-8.7-3.5-1.4-8.2.3-11,3.8a15.41,15.41,0,0,0-3.3,8.4c-.3,3.7-.3,7.4-.6,11.2s-.1,6.7,5,5.7c1.5-.3,2.2.4,2.1,2a26.7,26.7,0,0,0,0,4c.2,2.2-.6,3-2.9,3q-6.6-.3-13.2,0c-2.6.1-3.1-1-3.1-3.3q.15-13.2,0-26.4c0-3.5-.1-7.1-4.3-8.6-3.4-1.2-8,.6-10.6,4a18.77,18.77,0,0,0-3.7,10.4c-.2,3.1,0,6.1-.2,9.2-.2,3.6-.2,6.8,4.9,5.8,1.3-.3,2,.5,1.9,1.8a26.7,26.7,0,0,0,0,4c.3,2.5-.7,3.2-3.1,3.1-6.5-.2-13.1-.1-19.6,0-2.3,0-3.3-.4-3.3-3,0-3.7-.4-7.2,5.1-6,1.7.3,1.9-1,1.9-2.3V31.1c0-3-2-3.1-4.1-2.8-4.8.6-3.1-2.9-3.4-5.2-.4-2.9.5-4.2,3.6-3.8a45.57,45.57,0,0,0,6.4,0C156.6,19.2,157.1,19.6,158,27.4Z" transform="translate(0.06 0.02)"/><path d="M302,59.2c-.9,8.2-.9,8.2-8.6,8.2-4.8,0-9.6-.1-14.4.1-2.8.1-3.6-.7-3.7-3.6-.1-3.7.2-6.4,4.9-5.4,1.7.3,2.3-.5,2.3-2.3-.1-8.5-.1-17.1,0-25.6,0-2.8-1.6-2.8-3.3-2.5-4.5.8-4-2-4.2-5-.2-3.6,1.3-4.2,4.4-4q6,.3,12,0c2.5-.1,3.2.7,3.2,3.2-.1,10.8,0,21.6-.1,32.4,0,2.8.5,4,3.7,3.9,3,0,4.2-.8,3.7-3.8-.5-2.8.8-3.9,3.5-3.5a38.44,38.44,0,0,0,4.8,0c1,0,2,0,1.9,1.4-.1,5,3.6,5.7,7.2,6.3a10.86,10.86,0,0,0,4.4,0c2.6-.5,5.6-.9,6-4.2.5-3.6-2.3-4.7-4.9-5.9-5.1-2.2-10.7-3.3-15.4-6.6-5-3.5-6.9-8.6-5.3-14.3a11.8,11.8,0,0,1,6.7-7.6,27.32,27.32,0,0,1,24.3.2,10.24,10.24,0,0,1,5,12.3c-.4,1.2-1.2,1.2-2.2,1.3-1.9,0-3.7-.1-5.6,0s-2.6-.5-2.6-2.5c0-3.7-3.1-4-5.7-4.3-2.9-.4-6.1-.3-7.8,2.7-1.1,1.9-.2,3.9,1.6,5.3a21.42,21.42,0,0,0,6.5,3c4,1.3,8.2,2.5,11.8,4.9a12.67,12.67,0,0,1,.1,21.4c-7.7,5.2-22,5-29.7-.2C304.7,63.4,303.4,61.7,302,59.2Z" transform="translate(0.06 0.02)"/><path d="M119.8,45c-4.7,0-9.3.1-14,0-2.3-.1-2.7.7-2.1,2.8,1.8,7.3,8.7,11.8,16.5,10.6a27.17,27.17,0,0,0,7.9-2.6c1.3-.6,2.7-2.9,4-1.4,1.8,2.1,2.7,4.8,3.9,7.3.1.3-.6,1.1-1.1,1.4-14.7,10.1-37.7,6.7-43.1-12.9-5.2-19,9.6-35.4,28.6-31.8,11.8,2.2,17.5,13.2,16.6,24.7-.2,2.1-1.4,1.9-2.8,1.9Zm-6-7.2h0c2.5,0,5.1-.2,7.6,0,2.8.2,3.1-1.1,2.6-3.3a9.16,9.16,0,0,0-9.7-7.2c-4.9.2-9.6,4.2-10.4,8.5-.3,1.8.5,2,1.9,2Z" transform="translate(0.06 0.02)"/><path d="M395.7,45c-4.5,0-9.1.2-13.6,0-3.2-.1-3.2,1.3-2.5,3.7a14.21,14.21,0,0,0,16.3,9.7,21.17,21.17,0,0,0,8.9-3.2c2-1.3,3-1.3,4.2,1,3.5,6.2,3.4,6.8-3.1,9.7-13.7,6.1-28.7,2.6-35.5-8.6-5.8-9.6-5.6-19.7.6-29,6-8.9,14.9-11.5,25.2-9.6,10.6,2,18.3,13.6,16.5,24.4-.3,1.8-1.2,2.1-2.7,2.1C405.3,44.9,400.5,45,395.7,45Zm-16-7.2c6.1,0,12.2-.1,18.3,0,2.6,0,2.3-1.4,1.9-3.1-1.2-4.9-4.9-7.6-9.9-7.4C384.5,27.6,380.5,31.6,379.7,37.8Z" transform="translate(0.06 0.02)"/><path d="M239.7,45c.9,9.4,8,14.9,17,13.3a20.27,20.27,0,0,0,8.6-3.1c2.5-1.9,3.4-.9,4.6,1.4,3.2,6.1,3.3,6-2.9,9-12,5.7-25.6,3.6-33.5-5.1-7.3-8-8.5-21.2-2.8-31,5.2-8.9,16.1-13.3,27-10.7,10.1,2.4,17.2,13.8,15.4,24.4-.4,2.3-1.7,1.9-3.1,1.9H243.6C242.3,45,241,45,239.7,45Zm10.2-7.2c2.8,0,5.6-.1,8.4,0,2.1.1,2.8-.5,2.2-2.7-1.1-4.3-4-7.3-8-7.8A11.32,11.32,0,0,0,241,34.1c-1.1,2.4-1.4,4,2.2,3.7C245.3,37.7,247.6,37.8,249.9,37.8Z" transform="translate(0.06 0.02)"/><path d="M359,28.2V51.8c0,3.6.7,6.5,5.3,6.1,1.7-.1,1.8.9,2,2.3.7,7.7-.4,8.8-8.3,7.4-6.7-1.2-9.8-4.3-10.7-11-1.2-8.9-.3-17.8-.5-26.7-.1-5.7-.1-11.4,0-17.2.1-2.6-.5-4.2-3.5-3.7-5,.9-3.7-2.7-4-5.4-.4-3.4,1.4-3.6,4-3.5,4.1.2,8.3.2,12.4,0,2.6-.1,3.5.7,3.4,3.4-.2,8.2-.1,16.4-.1,24.7Z" transform="translate(0.06 0.02)"/><path d="M288.6.1c6,0,8,2.4,5.7,8.9-1.4,3.9-6,.9-9.1,1.7-1.6.4-2.9-.1-2.7-2.2a13.35,13.35,0,0,0,0-2C282.4.1,282.4.1,288.6.1Z" transform="translate(0.06 0.02)"/></svg>