<svg id="Layer_1" data-name="Layer 1" xmlns="http://www.w3.org/2000/svg" viewBox="0 0 392.45 233.71"><title>website-planet</title><path d="M78.59,125.69c-13.67,9.43-26.72,17.75-39,27.1A147.58,147.58,0,0,0,17,173.87c-9.69,11.31-6.81,19.08,8,21a127.11,127.11,0,0,0,32.84.13C157.26,181.47,248.62,145.66,334,93.88c11.19-6.79,21.35-15.35,31.57-23.61a66.54,66.54,0,0,0,12.08-13.22c6.43-9.07,3.87-15.37-6.9-17.79A67.27,67.27,0,0,0,357,37.35a275.4,275.4,0,0,0-63.9,7.09,19.47,19.47,0,0,0-3,1.31c1,1.63,1.82,3.07,2.78,4.38,7.95,11,12.7,23.34,15.82,36.42.23,1,.74,2.1.45,2.92-.81,2.28-1.41,5.47-3.12,6.4-3,1.65-5.22-.81-6.38-3.74q-1.27-3.24-2.33-6.59c-8.52-27-25.16-47.39-49.7-61.38-3.44-2-5.71-4.53-3.51-8.48s5.73-3.82,9-1.47c8.23,5.9,16.5,11.79,24.36,18.16,2.77,2.24,4.93,3.05,8.41,2.18A275.17,275.17,0,0,1,351.13,26a87.88,87.88,0,0,1,28.3,4.72c12.43,4.19,16.48,15.16,9.91,26.56A102.71,102.71,0,0,1,371.71,79.4c-15.95,15.4-34.91,26.75-54,37.75-3.23,1.88-4.66,3.94-4.85,7.79-2.75,55.73-49.78,103.82-105.4,108.31q-53.69,4.33-92.69-32.49a7.89,7.89,0,0,0-8-2.18c-23.63,5.17-47.38,9.67-71.73,8.3a76.58,76.58,0,0,1-20-3.75C.33,198.09-4.06,186.94,4,173.63a91.42,91.42,0,0,1,16.89-20.15c16.34-14.82,34.62-27.08,54-37.58,3.24-1.75,4.36-3.85,4.55-7.4C82.23,53.36,127.57,5.74,182.75.45c10.35-1,20.92-.13,31.35.46,6.13.34,8.43,2.86,8,6.74S219,13,212.71,12.08c-23-3.2-44.83,0-65.43,10.81C97.56,49.06,77,108.32,99.81,160l3,6.85c1.67,3.74,1.3,7.11-2.75,8.76s-6.41-.94-7.77-4.28c-2.84-6.93-5.82-13.84-8-21C82.1,142.88,80.76,135.15,78.59,125.69Zm222.11,2.4c-28.8,12.44-57.11,25.73-86.22,36.95s-58.82,20.28-88.22,30.28c22.53,23.11,68,36.61,110.05,19.38C279.52,197,300.05,155.15,300.7,128.09Z" transform="translate(-0.01 0.01)"/><path d="M183.6,141.42c-.38-8.16-.81-15.94-1.1-23.73q-1.11-30.42-2.11-60.83c-.25-7.38,1.3-9.31,9.57-11.61.29,3.48.7,6.84.83,10.22q1.44,37.64,2.78,75.27C193.8,136.81,191.27,139.68,183.6,141.42Z" transform="translate(-0.01 0.01)"/><path d="M141.45,86.6c1.27,2.84,2.07,5,3.2,7,1.57,2.79.83,4.92-1.11,7.2-5.17,6-10.18,12.24-15.9,19.16,4.47.27,8.31.48,12.14.74,2.5.17,5,.48,7.47.62,10.32.61,10.32.59,13.78,11.4-2.39-.12-4.59-.18-6.79-.35-12.94-1-25.89-2-38.83-3.07-4.34-.37-5.86-3.9-3.13-7.26C121.73,110.44,131.3,98.92,141.45,86.6Z" transform="translate(-0.01 0.01)"/><path d="M233.55,102.22c-5.59-10-5.6-10,.81-17.74,4.11-5,8.25-9.86,12.7-15.18-7.88-.66-15.28-1.18-22.65-1.94s-8.95-2.58-10.18-11.06c6.71.45,13.32.88,19.92,1.35q12.47.9,24.92,1.87c4.11.33,6.27,3.82,3.88,6.8C253.38,78.26,243.58,90,233.55,102.22Z" transform="translate(-0.01 0.01)"/></svg>