<svg id="Layer_1" data-name="Layer 1" xmlns="http://www.w3.org/2000/svg" viewBox="0 0 2497.9 475"><title>wp-engine</title><path d="M162.6,475H315.3V359.5L278,322.2H198.8l-36.3,37.3V475ZM360.1,161.1l-36.3,36.3v80.1l36.3,36.3H476.5V161.1ZM315.4,0H162.7V116.4L199,152.7h79.2l37.3-36.3V0ZM476.5,475V359.5l-36.3-37.3H323.8V474.9H476.5ZM37.8,0,1.5,36.3V152.7H154.2V0Zm286,0V116.4l36.3,36.3H476.5V0ZM239,259.8a21.4,21.4,0,1,1,21.4-21.4A21.62,21.62,0,0,1,239,259.8Zm-84.8-98.7H1.5V313.8H117l37.3-36.3V161.1Zm0,198.4-37.3-37.3H1.5V474.9H117l37.3-36.3V359.5Z" transform="translate(-1.5)"/><path d="M803.4,359.5c-2.8,0-3.7-.9-4.7-3.7l-38.2-135h-.9l-38.2,135c-.9,2.8-1.9,3.7-4.7,3.7H672c-2.8,0-3.7-.9-4.7-3.7L602.2,121.1c0-1.9,0-3.7,2.8-3.7h58.7c2.8,0,4.7,1.9,4.7,3.7l30.7,140.6h.9l37.3-140.6c.9-2.8,1.9-3.7,4.7-3.7h36.3c2.8,0,3.7.9,4.7,3.7l39.1,140.6h.9l29.8-140.6c0-1.9,1.9-3.7,4.7-3.7h58.7c1.9,0,2.8,1.9,2.8,3.7L853.8,355.8c-.9,2.8-1.9,3.7-4.7,3.7Zm162.1,0a4,4,0,0,1-3.7-3.7V121.1a4,4,0,0,1,3.7-3.7h96.9c58.7,0,89.4,33.5,89.4,80.1s-30.7,81-89.4,81H1027c-1.9,0-1.9.9-1.9,1.9v74.5a4,4,0,0,1-3.7,3.7H965.5Zm123.8-161.1c0-16.8-11.2-27-30.7-27h-31.7c-1.9,0-1.9.9-1.9,1.9v50.3c0,1.9.9,1.9,1.9,1.9h31.7c19.6-.1,30.7-11.3,30.7-27.1Zm145.3,101.5c-4.7-13-6.5-28.9-6.5-60.5,0-30.7,2.8-47.5,6.5-60.5,12.1-38.2,41.9-57.7,80.1-57.7,39.1,0,68,19.6,80.1,57.7,4.7,13,6.5,27.9,6.5,56.8,0,2.8-1.9,4.7-5.6,4.7H1243.9c-1.9,0-2.8,1.9-2.8,3.7,0,25.1,1.9,39.1,5.6,51.2,11.2,34.5,36.3,49.4,69.9,49.4,31.7,0,55-14,68.9-32.6,1.9-2.8,4.7-2.8,6.5-.9l2.8,2.8c2.8,1.9,2.8,4.7.9,6.5-15.8,22.4-42.8,38.2-78.2,38.2-41.9-.1-69.8-19.7-82.9-58.8Zm150.9-72.7c1.9,0,2.8-.9,2.8-2.8,0-15.8-1.9-28.9-5.6-40-10.2-32.6-34.5-49.4-67.1-49.4s-56.8,15.8-67.1,49.4c-3.7,11.2-5.6,23.3-5.6,40,0,1.9.9,2.8,2.8,2.8Zm231.9,126.7a4.46,4.46,0,0,1-4.7-4.7v-136c0-54-22.4-77.3-66.1-77.3-38.2,0-69.9,26.1-69.9,70.8V350.1a4.46,4.46,0,0,1-4.7,4.7h-4.7a4.46,4.46,0,0,1-4.7-4.7V132.2a4.46,4.46,0,0,1,4.7-4.7h4.7a4.46,4.46,0,0,1,4.7,4.7v31.7h.9c11.2-26.1,37.3-41.9,69.9-41.9,51.2,0,80.1,28.9,80.1,87.5V349.2a4.46,4.46,0,0,1-4.7,4.7Zm78.3,58.7c-1.9-2.8-1.9-5.6.9-6.5l3.7-2.8c2.8-1.9,4.7-.9,6.5,1.9,13,16.8,32.6,27,60.5,27,42.8,0,70.8-21.4,70.8-77.3V316.7h-.9c-11.2,25.1-30.7,42.8-70.8,42.8-38.2,0-64.3-20.5-75.4-54-5.6-15.8-7.5-36.3-7.5-64.3s2.8-48.4,7.5-64.3c11.2-33.5,37.3-54,75.4-54,40,0,59.6,17.7,70.8,42.8h.9V133.1a4.46,4.46,0,0,1,4.7-4.7h4.7a4.46,4.46,0,0,1,4.7,4.7V355.7c0,62.4-33.5,90.3-85.7,90.3C1733.8,445.2,1706.8,430.3,1695.7,412.6Zm135.9-112.7c4.7-14,6.5-30.7,6.5-59.6,0-27.9-1.9-45.6-6.5-59.6-11.2-33.5-35.4-45.6-63.3-45.6-30.7,0-53.1,14.9-62.4,44.7-4.7,14-7.5,33.5-7.5,59.6s2.8,45.6,7.5,59.6c10.2,29.8,31.7,44.7,62.4,44.7C1796.3,345.5,1821.4,333.4,1831.6,299.9Zm98.8-243.1a4.46,4.46,0,0,1-4.7-4.7V33.5a4.46,4.46,0,0,1,4.7-4.7h11.2a4.46,4.46,0,0,1,4.7,4.7V53.1a4.46,4.46,0,0,1-4.7,4.7h-11.2Zm3.7,297.1a4.46,4.46,0,0,1-4.7-4.7v-217a4.46,4.46,0,0,1,4.7-4.7h4.7a4.46,4.46,0,0,1,4.7,4.7v217a4.46,4.46,0,0,1-4.7,4.7Zm241.2,0a4.46,4.46,0,0,1-4.7-4.7v-136c0-54-22.4-77.3-66.1-77.3-38.2,0-69.9,26.1-69.9,70.8V350.1a4.46,4.46,0,0,1-4.7,4.7h-4.7a4.46,4.46,0,0,1-4.7-4.7V132.2a4.46,4.46,0,0,1,4.7-4.7h4.7a4.46,4.46,0,0,1,4.7,4.7v31.7h.9c11.2-26.1,37.3-41.9,69.9-41.9,51.2,0,80.1,28.9,80.1,87.5V349.2a4.46,4.46,0,0,1-4.7,4.7Zm73.6-54c-4.7-13-6.5-28.9-6.5-60.5,0-30.7,2.8-47.5,6.5-60.5,12.1-38.2,41.9-57.7,80.1-57.7,39.1,0,68,19.6,80.1,57.7,4.7,13,6.5,27.9,6.5,56.8,0,2.8-1.9,4.7-5.6,4.7H2258.2c-1.9,0-2.8,1.9-2.8,3.7,0,25.1,1.9,39.1,5.6,51.2,11.2,34.5,36.3,49.4,69.9,49.4,31.7,0,55-14,68.9-32.6,1.9-2.8,4.7-2.8,6.5-.9l2.8,2.8c2.8,1.9,2.8,4.7.9,6.5-15.8,22.4-42.8,38.2-78.2,38.2-41.9-.1-70.8-19.7-82.9-58.8Zm149.9-72.7c1.9,0,2.8-.9,2.8-2.8,0-15.8-1.9-28.9-5.6-40-10.2-32.6-34.5-49.4-67.1-49.4s-56.8,15.8-67.1,49.4c-3.7,11.2-5.6,23.3-5.6,40,0,1.9.9,2.8,2.8,2.8Zm44.8-77.3a27.9,27.9,0,1,1,27.9,27.9C2455.7,177.8,2443.6,165.8,2443.6,149.9Zm51.2,0c0-14-10.2-23.3-23.3-23.3-14,0-23.3,10.2-23.3,23.3,0,14,10.2,23.3,23.3,23.3S2494.8,163.9,2494.8,149.9Zm-32.6,15.9c-.9,0-.9,0-.9-.9V136c0-.9,0-.9.9-.9h11.2c6.5,0,10.2,3.7,10.2,9.3,0,3.7-1.9,7.5-6.5,8.4l6.5,12.1c.9.9,0,1.9-.9,1.9h-2.8c-.9,0-.9-.9-1.9-.9l-6.5-12.1H2465V165a.88.88,0,0,1-.9.9h-1.9Zm16.7-22.4c0-2.8-1.9-4.7-5.6-4.7h-7.5V148h7.5C2477.1,148.1,2478.9,146.2,2478.9,143.4Z" transform="translate(-1.5)"/></svg>