<svg viewBox="0 0 1539.7 244.5" xmlns="http://www.w3.org/2000/svg"><path d="m112.4 46.2v4.2h-3.8v4.2h4.5v4.1c.3 0 .5.1.8.1h141.1c12.5 0 23.6 4 33.1 12 9.7 8.1 15.6 18.4 17.9 30.9.4 1.9.6 3.9.6 5.8 0 2.6.1 5.3-.1 7.9-.2 3.6-1 7.2-2.1 10.6-5.6 17.8-20.4 31.2-38.6 35.1-3.4.7-6.9 1.1-10.5 1.1h-177.1c-.7 0-1.4.1-2.1.4-7.5 2.9-15.4 4.1-23.4 3.6-25.3-1.6-45.8-19.8-51.1-43.6-.6-2.5-1-5.1-1.1-7.6 0-.5-.2-1-.3-1.4v-6.1c.1-.5.2-1.1.3-1.6.3-2.3.5-4.6 1-6.9 2.2-11.1 7.5-20.7 15.7-28.6 10.9-10.4 23.9-15.6 39-15.7 6.9 0 13.7 1.3 20.1 3.8.4.1.8.2 1.2.2h14.1c.2 0 .5 0 .8-.1v-3.8h4.1v3.8h4.1c.1-2.8 0-5.5 0-8.4h4v-4.2c2.6.2 5.2.2 7.8.2zm-27 112.1h169.3c2.7 0 5.3-.2 8-.6 10.1-1.7 18.8-6.1 26-13.4 10.5-10.7 15-23.7 13.6-38.6-.6-5.9-2.3-11.5-5-16.7-8-15.5-24.1-25.9-42.7-25.9h-149.3c-.2 0-.5 0-.8.1v8.6h-3.5v3.3h-2c10.4 13.3 14.7 28.1 12 44.7-2.7 16.5-11.6 29.1-25.6 38.5zm-7.9-78.4c.3-.8-.2-1-.6-1.3-9-5.8-18.8-7.6-29.2-5.3-21.8 4.8-34.7 27.2-28.1 48.5 4.6 14.8 18.1 25.9 34.3 26.8 7.1.4 13.7-1 20-4.4 13.8-7.3 22-22.4 20-38.3-.7-6.1-2.8-11.6-6.2-16.7-.5-.8-.6-.8-1.6-.5v4.6h-3.4v4.1h-3.2v3.9c0 .5-.1.8-.4 1.2-.9 1.3-1.7 2.6-2.5 3.9-4.7 7.6-8.6 15.7-11.7 24.1-.7 2-2.2 3-4.2 3.3-.9.1-1.9.1-2.8 0-2.5-.4-4.4-1.6-5.3-4.1-.6-1.7-1.4-3.4-2.1-5-3.3-8.1-7.6-15.6-13.2-22.3-1.1-1.3-2.3-2.6-3.4-3.9-.9-1.1-1.8-2.2-2.1-3.6-.5-1.9.6-3.6 2.6-3.8.6-.1 1.2 0 1.7.2 1.7.5 3.2 1.3 4.7 2.2 3 1.8 5.6 4.1 8 6.5 3 3.1 5.7 6.4 8.2 9.8.2.2.4.5.6.8.1-.2.2-.3.2-.4 1.8-3.7 3.5-7.4 5.4-11.1 2.6-5 5.3-9.9 8.2-14.6.3-.5.6-.7 1.2-.7h2.2v-4c1 .1 1.8.1 2.7.1zm27.1-21.2c1.1.2 3.3.1 4-.1v-1.9-2h-4zm-8.1 4.3v3.9h3.9c.2-1.1.1-3.3-.1-3.9zm-6.9 0h-4.2c1.4 1 2.7 2 4.2 2.9zm27.2-21.1v-4.4h4.4c0 1.1 0 2.3-.1 3.4v1z"/><path d="m112.4 46.2v-4.4h4.4c0 1.5 0 3-.1 4.5-1.4 0-2.8 0-4.3-.1zm4.4.1c.5 0 .9-.1 1.4-.1h2.9v4.3h-4.3z"/><path d="m104.6 58.7v-3.9h4v3.9c-.7.2-3 .2-4 0zm-8.1 4.3h3.9c.2.6.3 2.8.1 3.9h-3.9c-.1-1.3-.1-2.5-.1-3.9zm-6.9 0v2.9c-1.6-.9-2.8-1.9-4.2-2.9z" fill="#fff"/><path d="m150.3 109.1h-7.9c-4.2-8.2-8.4-16.5-12.6-24.8h-.2v24.6c-.7.2-6.3.2-7.3.1v-36.4h8.8c3.9 7.4 7.8 14.9 11.8 22.4h.2c.1-.9 0-1.8 0-2.7v-2.8-2.8-2.8-2.8-2.8-2.8-2.8h7.2c.2.6.2 35.4 0 36.4zm32.6-.1v-26.7c.7-.2 1.5-.1 2.2-.1h2.3c.7 1.9 1.5 3.7 2.2 5.6.2-.3.3-.5.5-.7.7-1.1 1.4-2.1 2.4-3 1.5-1.3 3.3-1.9 5.3-2h4.8c.5-2.5.9-5 1.4-7.6h6.4v7.5h5.7c.1 1.8 0 3.6 0 5.4h-5.6c0 .3-.1.5-.1.8v12.5c0 2.2.8 3 3 2.8.8-.1 1.7-.3 2.6-.4.3 1.8.6 3.6.9 5.3-1 .5-2.1.6-3.1.8-1.9.3-3.8.4-5.7 0-3.1-.7-5-2.6-5.5-5.8-.1-.9-.2-1.7-.2-2.6v-12.1-.9c-.1-.1-.1-.1-.2-.1-1.6 0-3.2-.1-4.7 0-2.4.2-4.2 1.6-5.4 3.6-1.1 1.8-1.6 3.9-1.6 6v11.6c-2.4.1-4.9.1-7.6.1zm71.7 0h-7.5c-.2-.6-.2-25.7 0-26.7h4.6c.5 1.3 1 2.6 1.6 4.1.3-.4.4-.6.6-.8 1.9-1.9 4-3.3 6.7-3.8 1.5-.3 3.1-.2 4.6.2 3.2.9 5 3.2 5.8 6.2.3.9.4 2 .4 2.9v17.8h-7.8v-.9c0-5.3-.1-10.5 0-15.8.1-3.3-2.6-4.6-5.3-4-1.4.3-2.4 1.2-3.4 2.3-.2.2-.2.5-.2.8v16.7c-.1.4-.1.7-.1 1zm-87.6-27.4c7.7 0 13.9 6.3 13.9 14 0 7.6-6 14-14 14-7.7 0-14-6.4-14-14.1.2-7.7 6.5-13.9 14.1-13.9zm-7.2 14c0 3.9 3.2 7.2 7.1 7.2s7.2-3.2 7.2-7.2c0-3.9-3.2-7.1-7.2-7.2-3.8 0-7 3.3-7.1 7.2zm85.2 0c.1 7-5.5 13.9-13.9 14-8.2 0-14-6.6-14-14 0-7.7 6.3-14 14-14 7.8.1 13.9 6.3 13.9 14zm-6.8 0c0-3.9-3.2-7.1-7.2-7.1-3.9 0-7.1 3.2-7.1 7.2s3.2 7.2 7.2 7.2c4-.2 7.1-3.4 7.1-7.3zm-27.3 24.9h8.3c1.2 0 2.4.2 3.6.6 2.4.9 3.7 2.6 4 5.1.1.7.1 1.5 0 2.2-.3 2-1.3 3.4-3.1 4.3-.4.2-.7.4-1.2.6 1.6 3.4 3.1 6.8 4.8 10.3-.8.1-1.5 0-2.1.1h-2.1c-1.5-3.3-3-6.5-4.4-9.8h-3.6c-.1 1.1 0 2.2 0 3.2v6.5h-3.9c-.3-7.6-.3-15.3-.3-23.1zm3.9 10.4h3.5c.6 0 1.2-.1 1.7-.2.8-.1 1.5-.5 2-1.1 1.7-2.2.4-5.4-2.4-5.7-1.5-.1-3-.1-4.6-.1-.1 0-.2.1-.3.1.1 2.2.1 4.5.1 7zm40.2-10.4c2.9.1 5.7-.2 8.4.2 4.4.6 7.3 3.3 8.2 7.6.6 2.8.5 5.6-.2 8.3-1.1 3.9-3.7 6.2-7.7 6.8-.9.1-1.9.2-2.8.2h-5.9zm3.9 20.1c1.4-.1 2.6-.1 3.9-.3 2.4-.4 3.9-1.8 4.5-4.2.3-1.3.4-2.7.4-4 0-1.6-.1-3.2-.6-4.7-.6-1.8-1.9-3-3.8-3.4-1-.2-2-.2-3-.3h-1.5c.1 5.7.1 11.2.1 16.9zm-59.9-20h4v14.6c0 1.2-.2 2.5-.5 3.7-.7 2.6-2.4 4.3-5.1 4.9-1.9.4-3.7.4-5.6-.1-2.1-.6-3.5-1.9-4.4-3.9-.5-1.2-.7-2.5-.8-3.8v-15.1c0-.1 0-.2.1-.4h3.9v14.2c0 1 .1 2.1.3 3.1.4 1.8 1.5 2.8 3.4 2.8h1.3c1.6-.1 2.6-1 3-2.5.2-.8.3-1.7.3-2.6v-14c.1-.2.1-.5.1-.9zm-41.3 19.9v3.2h-14.3v-23c.6-.2 12.3-.2 13.7-.1v3.1h-9.7v6.3h7.7v3.1h-7.7v7.3c3.4.1 6.8.1 10.3.1zm76.3-19.9h13.7v3.1c-.8.1-1.6 0-2.4 0h-7.5c-.1 2.1 0 4.2 0 6.3h7.7v3.1h-7.6c-.2.8-.2 6.3 0 7.3h10.3v3c-.6.2-12.8.3-14.3.1.1-7.5.1-15.2.1-22.9zm-113.9 20.8c.6-1 1.2-1.9 1.8-2.8.4.2.7.4 1 .6 2.2 1.2 4.5 1.8 7 1.3 1.3-.3 2.3-.9 2.7-2.4.3-1.3 0-2.3-1.1-3.1-.6-.4-1.3-.7-2-1l-3.3-1.2c-.9-.4-1.8-.8-2.5-1.4-2.1-1.5-2.6-3.7-2.3-6.1.3-2.3 1.7-3.8 3.9-4.6 1.4-.5 2.8-.6 4.3-.6 1.7.1 3.3.4 4.9 1.1.3.1.6.3.9.5-.5 1-1 2-1.4 3-.4-.1-.6-.3-.9-.4-1.9-.7-3.8-1.1-5.8-.6-1.8.4-2.6 1.9-2 3.6.2.7.7 1.2 1.4 1.5.8.4 1.7.7 2.5 1 1.3.5 2.7.9 3.9 1.6 3.5 1.8 4.1 5.2 3.3 7.9-.5 1.8-1.7 3.1-3.3 3.8-1 .5-2 .7-3.1.8-3 .2-5.9-.3-8.5-1.8-.2-.1-.4-.3-.7-.4-.4 0-.5-.1-.7-.3zm59.8-18.4c-.8.9-1.5 1.7-2.3 2.6-.3-.2-.5-.4-.7-.6-1.4-1.2-3-1.6-4.8-1.3-1.4.2-2.4 1-3.1 2.2-.6 1.1-1 2.3-1.1 3.5-.3 2.1-.3 4.2.1 6.3.1.5.2 1 .4 1.4 1.1 2.9 4.1 4.3 7 3 .7-.3 1.3-.8 2-1.3l.7-.7c.8.9 1.5 1.7 2.3 2.6-1.3 1.6-2.9 2.7-4.8 3.1s-3.7.4-5.5-.2c-2.4-.7-4.1-2.3-5.2-4.5-.8-1.6-1.2-3.4-1.3-5.2-.2-2.7 0-5.3 1-7.8 1.2-2.9 3.1-4.9 6.2-5.6 2.1-.5 4.2-.4 6.3.4 1 .4 1.9 1.1 2.8 2.1z"/><path d="m1185.8 73.2v66.1c0 .5-.2.7-.6.9-11.6 5.3-23.1 10.7-34.7 16.1-.3.1-.5.3-.8.4h-.3c-.3-.2-.7-.4-1-.6-7.4-3.4-14.8-6.9-22.3-10.3-4.3-2-8.5-3.9-12.8-5.9v-66c0-.2.1-.4.1-.6.2.1.3.2.5.3 11.6 5.4 23.3 10.8 34.9 16.2.5.2.9.2 1.4 0 10-4.6 20-9.3 30-13.9 1.8-.8 3.6-1.7 5.4-2.6.1-.1.2-.1.2-.1zm-57.6 23.3v33.3c0 .5.2.7.6.8 6.7 3.1 13.5 6.2 20.2 9.3.3.2.8.1 1.2 0 6.7-3.1 13.4-6.2 20.2-9.3.5-.3.7-.6.7-1.1v-32.3-.8c-.3.1-.5.2-.7.3l-20.1 9.3c-.4.2-.7.2-1.2 0-6.4-3-12.8-5.9-19.2-8.9-.6-.1-1.1-.4-1.7-.6zm100.6 5.5v38.2h-13.8c-.6 0-.8-.1-.8-.8v-65.2-.8c9.7 7.3 19.2 14.5 28.9 21.8 9.6-7.3 19.2-14.5 28.8-21.8v66.2c0 .4 0 .7-.6.7h-13.5c-.1 0-.3 0-.5-.1v-38.2c-.4.3-.7.5-.9.7-4.2 3.1-8.4 6.3-12.6 9.4-.5.4-.8.4-1.3 0l-12.9-9.6c-.3-.2-.5-.3-.8-.5zm159.9 38.3h-14.7c-.5 0-.7-.2-.9-.6-1.3-3.4-2.7-6.8-4.1-10.2-.2-.4-.4-.6-.9-.6h-21.8c-.5 0-.7.2-.9.6-1.3 3.4-2.7 6.8-4.1 10.1-.1.3-.2.6-.7.6h-14.9c.4-.8.7-1.6 1-2.4 8-18.2 16.1-36.5 24.1-54.8.1-.3.1-.8 0-1.2-1-2.5-2-4.9-3-7.4-.1-.2-.2-.5-.3-.8h12.8c.7 0 .9.2 1.2.8 7.4 17.9 14.8 35.8 22.2 53.6 1.6 3.8 3.2 7.6 4.7 11.5.1.3.1.5.3.8zm-31.4-40.4c-2.2 5.3-4.2 10.5-6.3 15.6h12.5c-2.1-5.1-4.1-10.2-6.2-15.6zm78.5 20.3c.7 2.5 2.1 4.3 4 5.8 5 3.8 11.9 3.5 16.8-.8.2-.1.3-.3.5-.4.4-.4.7-.4 1.2-.2 3.2 1.8 6.4 3.5 9.6 5.3.2.1.4.2.8.5-1.5 1.4-2.9 2.8-4.5 4-5.4 4.3-11.6 6.3-18.5 5.8-13.1-.9-21.8-9.9-23.6-21-2.1-12.5 5.7-25.7 19.7-28.5 9.1-1.8 16.9.5 23.5 7 3.9 3.8 6.1 8.6 6.8 14 .4 2.6.3 5.2.4 7.8 0 .5-.1.6-.6.6h-22.4c-4.4 0-8.8 0-13.1-.1-.2.2-.4.2-.6.2zm21.5-11.1c-1.5-3.8-5.4-7.5-11.4-7.2-4.6.2-8.5 3.1-9.8 7.2zm66.4 21.3c-4.5 5-9.8 8.5-16.4 9.6-6.8 1.2-13.2.1-19.1-3.6-6.4-4.1-10.1-10-11.1-17.5-1.1-8 1.2-15 6.7-20.9 3.5-3.7 7.8-6 12.8-7 8.5-1.8 16 .1 22.5 5.8 4.5 4 7.2 9.1 8 15 .4 2.8.4 5.6.6 8.4h-36.9c1.1 3.5 3.2 5.9 6.4 7.3 5.8 2.6 10.9 1.1 15.5-3.1 3.7 2 7.3 3.9 11 6zm-32.4-21.3h21.2c-1.7-4.1-5.7-7.6-11.9-7.1-5 .3-8.3 3.8-9.3 7.1zm-176.2 11.7c3.7 2.2 7.4 4.4 11.2 6.6-.9 1.3-1.8 2.6-2.8 3.8-4.6 5.4-10.5 8.4-17.6 8.9-6.6.5-12.8-1-18.2-5-5.8-4.4-9.2-10.3-9.8-17.6-.8-10.5 3.4-18.7 12.4-24.1 3.5-2.1 7.3-3 11.3-3.3 4.3-.3 8.4.2 12.4 1.8 4.7 2 8.2 5.3 11.1 9.4.4.5.7 1 1.1 1.6l-11.1 6.6c-.4-.7-.9-1.3-1.3-1.9-1.9-2.7-4.3-4.6-7.6-5.2-7.1-1.2-13.9 3.1-15 10.6-.8 5.5 1.5 10.6 6 13.2 5.2 3 12.6 2.8 17-4 .3-.4.6-.9.9-1.4zm80-10.4h-5.5c-.4 0-.6-.1-.6-.6 0-3.9.1-7.7.1-11.6 0-.1 0-.2.1-.4h5.8v-.9c.1-2.5 0-5 .3-7.4.8-7.9 6.4-13.9 14.2-15.3 4.9-.9 9.7-.6 14.3 1.4.2.1.3.2.6.3-1.9 4.1-3.7 8.1-5.6 12.2-.5-.2-1-.4-1.4-.6-1.4-.6-2.9-.8-4.4-.7-2 .1-4 1.8-4.2 4.1s0 4.6 0 7h8.6v12.6h-8c-.6 0-.7.2-.7.7v29.1h-13.4c-.2-10-.2-19.9-.2-29.9zm141-16.8c.5-1.6 1-3 1.5-4.3s.5-1.3 2.1-1.2v7h-1.1v-5h-.2c-.1.3-.3.7-.4 1-.4 1.2-.8 2.3-1.2 3.5-.1.4-.2.6-.7.6s-.6-.3-.7-.6c-.5-1.3-.9-2.6-1.4-3.9-.1-.2-.1-.4-.4-.5v5h-1.1v-7h1.7c.6 1.6 1.2 3.4 1.9 5.4zm-7.9-4.5h-2.2v-1h5.6v1h-2.2v6h-1.2z"/><circle cx="579.8" cy="114.9" fill="#8165ba" r="50.3"/><path d="m647.6 114.9c0-37.4-30.4-67.8-67.8-67.8-11.6 0-22.6 2.9-32.1 8.1-14.7-7.3-25.4-8.4-30.8-3-5.9 5.9-3.6 17.5 3.1 30.8-5.1 9.5-8 20.4-8 31.9 0 37.4 30.4 67.8 67.8 67.8 11.5 0 22.3-2.9 31.8-8 7.9 3.9 15.4 6.5 21.4 6.5 3.9 0 7.1-1 9.5-3.4 5.4-5.4 4.4-16.1-3-30.8 5.2-9.5 8.1-20.4 8.1-32.1zm-127.6-59.6c3.6-3.6 11.9-2.6 23.2 2.6a69.75 69.75 0 0 0 -20.6 20.6c-5.2-11.4-6-19.7-2.6-23.2zm59.8 123.1c-35 0-63.4-28.5-63.4-63.4 0-9.7 2.2-18.9 6.1-27.1 5.9 10.5 14.1 21.8 23 32.2l-7.7 1.5.9 4.3 12.1-2.4 4.8-12-4.1-1.6-2.9 7.2c-10.8-12.5-18.7-24-23.7-33.7 11-18.9 31.5-31.7 54.9-31.7 35 0 63.4 28.5 63.4 63.4 0 23.4-12.8 43.9-31.7 54.9-7.1-3.7-14.9-8.8-23.1-15.1l-2.7 3.5c6.8 5.2 14 10.1 21.1 14.1-8.1 3.7-17.3 5.9-27 5.9zm59.6-3.6c-3.7 3.7-12.2 2.5-23.2-2.6 8.3-5.3 15.3-12.3 20.7-20.6 5.1 11.2 6.1 19.6 2.5 23.2z" fill="#333"/><path d="m601.7 130.3c0-9.7-7.9-17.5-17.5-17.5h-8.8c-7.2 0-13.1-5.9-13.1-13.1s5.9-13.1 13.1-13.1h8.8c7.2 0 13.1 5.9 13.1 13.1v2.2h4.4v-2.2c0-9.7-7.9-17.5-17.5-17.5h-2.2v-8.8h-4.4v8.8h-2.2c-9.7 0-17.5 7.9-17.5 17.5s7.9 17.5 17.5 17.5h8.8c7.2 0 13.1 5.9 13.1 13.1s-5.9 13.1-13.1 13.1h-8.8c-7.2 0-13.1-5.9-13.1-13.1v-2.2h-4.4v2.2c0 9.7 7.9 17.5 17.5 17.5h2.2v8.8h4.4v-8.8h2.2c9.7 0 17.5-7.9 17.5-17.5z" fill="#333"/><path d="m675.3 85.4h-8v-18.2l-5.3 2.2v-7.7l6.3-3h7.1v26.7zm22.6 0h-7.7v-6h-12.5v-5.7l12.2-15h8.1v14.5h3.5v6.2h-3.5v6zm-7.8-17.8-4.7 5.6h4.7zm34.4 17.8h-11.2v-26.7h11.2c4.3 0 7.9 1.2 10.7 3.7s4.2 5.7 4.2 9.6-1.4 7.1-4.2 9.6c-2.7 2.5-6.3 3.8-10.7 3.8zm-3-19.7v12.6h2.5c2.2 0 3.9-.5 5.1-1.6s1.8-2.6 1.8-4.7c0-2-.6-3.6-1.8-4.7s-2.9-1.6-5.1-1.6zm25.8 19.7h-8.5l11-26.8h7.8l11 26.8h-8.8l-1.9-5h-8.7zm6.3-17.5-2 6.3h3.9zm28.7 17.5h-8.2v-11.7l-9.7-15h9.3l4.7 7.5 4.7-7.5h9l-9.8 14.8zm-111.1 45.7h-7.9v-26.7h8.1l5.8 9.5 5.9-9.5h8.1v26.7h-7.9v-14.9l-3.8 6.4h-4.4l-3.9-6.4zm23.3-13.4c0-3.8 1.3-7.1 4-9.8s6.1-4.1 10.3-4.1c4.1 0 7.5 1.4 10.2 4.1s4 6 4 9.8c0 3.9-1.3 7.1-4 9.8s-6.1 4-10.2 4-7.5-1.4-10.3-4.1c-2.7-2.6-4-5.8-4-9.7zm10 4.7c1.1 1.2 2.5 1.8 4.2 1.8s3.1-.6 4.2-1.8 1.7-2.8 1.7-4.6c0-1.9-.6-3.4-1.7-4.6s-2.5-1.8-4.2-1.8-3.1.6-4.2 1.8-1.7 2.7-1.7 4.6c.1 1.8.6 3.3 1.7 4.6zm29.7 8.7h-7.9v-26.7h7l10.2 12.9v-12.9h7.8v26.7h-6.7l-10.4-13zm42.3 0h-21.2v-26.7h20.9v7.1h-12.7v2.4h10v6.5h-10v3.7h13zm18.6 0h-8.2v-11.7l-9.7-15h9.3l4.7 7.5 4.7-7.5h9l-9.8 14.8zm25.5 0h-14.1v-26.7h13.5c2.5 0 4.5.6 6.1 1.8 1.6 1.1 2.4 2.8 2.4 5.1 0 1.3-.4 2.4-1.1 3.2-.7.9-1.4 1.5-2.1 1.8 1.2.2 2.3 1 3.4 2.3s1.7 2.9 1.7 4.8c0 2.3-.9 4.2-2.7 5.6s-4.2 2.1-7.1 2.1zm-5.9-20.3v3.6h4.2c.6 0 1-.2 1.4-.5s.6-.7.6-1.2c0-.6-.2-1-.6-1.4-.4-.3-.8-.5-1.4-.5zm0 9.3v4.4h4.3c.7 0 1.3-.2 1.8-.6.4-.4.7-.9.7-1.6s-.2-1.2-.7-1.6-1-.6-1.8-.6zm25 11h-8.5l11-26.8h7.8l11 26.8h-8.8l-1.9-5h-8.7zm6.3-17.5-2 6.3h3.9zm29.7 18c-4.4 0-8-1.3-10.9-3.8-2.9-2.6-4.3-5.9-4.3-10s1.4-7.4 4.3-10c2.8-2.6 6.5-3.9 10.9-3.9 2.6 0 4.9.5 6.7 1.4v7.7c-2.2-1.2-4.3-1.8-6.5-1.8-2 0-3.7.6-5 1.9-1.3 1.2-2 2.8-2 4.6 0 1.9.7 3.5 2.1 4.7s3.1 1.8 5.3 1.8c2.6 0 4.8-.6 6.6-1.9v7.9c-2 .9-4.4 1.4-7.2 1.4zm18.8-.5h-8.2v-26.7h8.2v9.9l7.5-9.9h9.6l-9.5 12.4 11.4 14.3h-10.1l-9-11.5v11.5zm-217.1 46.3c-4.2 0-7.7-1.3-10.6-3.9-2.8-2.6-4.3-5.9-4.3-10s1.4-7.4 4.3-10c2.8-2.6 6.5-3.9 10.9-3.9 1.3 0 2.3.1 3.2.3 1 .2 1.8.4 2.2.6.6.2 1.3.5 2.1.8v7.5c-1.8-.9-3.5-1.4-5.3-1.6s-3.3-.1-4.7.4c-1.3.4-2.4 1.2-3.2 2.3s-1.2 2.3-1.1 3.8c0 2.1.6 3.7 1.9 4.9 1.2 1.2 2.8 1.8 4.5 1.8 1.4 0 2.4-.3 3.2-.8v-8.2h8.2v12c-1.1 1.1-2.6 2.1-4.7 2.9-2 .7-4.2 1.1-6.6 1.1zm14.2-11.6v-15.6h8.2v15.7c0 1.4.4 2.4 1.1 3.1s1.7 1 2.9 1 2.2-.3 2.9-1 1.1-1.7 1.1-3.1v-15.7h8.2v15.6c0 3.7-1.2 6.6-3.5 8.6s-5.2 3-8.7 3-6.4-1-8.7-3c-2.3-2.1-3.5-4.9-3.5-8.6zm34.6 11h-8.5l11-26.8h7.8l11 26.8h-8.8l-1.9-5h-8.7zm6.3-17.4-2 6.3h3.9zm35.1 7 8 10.4h-9.6l-7.1-9.5h-1.1v9.5h-8.2v-26.7h12.9c3 0 5.5.8 7.3 2.4s2.7 3.6 2.7 6.1c0 1.7-.4 3.2-1.3 4.5-.9 1.5-2.1 2.5-3.6 3.3zm-9.9-5.1h3.7c.8 0 1.4-.2 1.8-.6.5-.4.7-.9.7-1.6s-.2-1.2-.7-1.6-1.1-.6-1.8-.6h-3.7z"/><path d="m783.7 176.8h-8.5l11-26.8h7.8l11 26.8h-8.8l-1.9-5h-8.7zm6.2-17.4-2 6.3h3.9zm25 17.4h-7.9v-26.7h7l10.2 12.9v-12.9h7.8v26.7h-6.7l-10.4-13zm19.9-19.6v-7.1h23.4v7.1h-7.7v19.6h-8.2v-19.6zm47.5 19.6h-21.2v-26.7h20.9v7.1h-12.7v2.4h10v6.5h-10v3.7h13zm24.2 0h-21.2v-26.7h20.9v7.1h-12.7v2.4h10v6.5h-10v3.7h13z"/></svg>