<svg xmlns="http://www.w3.org/2000/svg" xmlns:xlink="http://www.w3.org/1999/xlink"><linearGradient id="a" gradientUnits="userSpaceOnUse" x1="617.067" x2="617.067" y1="491.3732" y2="125.5732"><stop offset="0" stop-color="#808080" stop-opacity=".25"/><stop offset=".54" stop-color="#808080" stop-opacity=".12"/><stop offset="1" stop-color="#808080" stop-opacity=".1"/></linearGradient><path d="m950.4 449.2h-64.3c1.5-3 2.2-6.2 2.2-9.6v-292.5c0-11.9-9.6-21.5-21.5-21.5h-497.2c-11.9 0-21.5 9.6-21.5 21.5v292.6c0 3.3.8 6.6 2.2 9.6h-66.5c-3.1 0-5.7 2.5-5.7 5.7v4.6c0 17.6 14.2 31.8 31.8 31.8h614.4c17.6 0 31.8-14.2 31.8-31.8v-4.6c0-3.2-2.5-5.7-5.7-5.8zm-395.9 18.2-5.5-6.3h136.8l-6.1 6.3z" fill="url(#a)"/><path d="m377.4 129.7h481.6c12.8 0 23.3 10.4 23.3 23.3v281.5c0 12.8-10.4 23.3-23.3 23.3h-481.6c-12.8 0-23.3-10.4-23.3-23.3v-281.5c.1-12.8 10.5-23.3 23.3-23.3z" fill="#535461"/><path d="m365.3 177.6h504.8v268h-504.8z"/><circle cx="617.7" cy="154.2" fill="#fff" r="4.4"/><path d="m695.6 446.1-17.3 17.8h-122.3l-15.7-17.8h-249c-3.1 0-5.6 2.5-5.6 5.6v4.5c0 17.2 13.9 31.1 31.1 31.1h600.5c17.2 0 31.1-13.9 31.1-31.1v-4.5c0-3.1-2.5-5.6-5.6-5.6z" fill="#535461"/><path d="m187.6 401.2s-61.1 36.9 51.6 93.7c0 0 24.8-46.1-2.6-83.7-11-15.2-31.6-19.7-48-10.5z" fill="#2ebf91"/><path d="m188.3 400.5s52.3 40 50.9 94.5" fill="none" stroke="#535461" stroke-miterlimit="10"/><path d="m253.7 211.7s-26.2 54.2-9 118.4 11.8 141-5.4 160" fill="none" stroke="#535461" stroke-miterlimit="10" stroke-width="2"/><circle cx="253.7" cy="211.7" fill="#2ebf91" r="7.2"/><g fill="none" stroke="#535461" stroke-miterlimit="10" stroke-width="2"><path d="m242.8 246.6s27.2 4.9 34.4-5"/><path d="m240.2 262.4s-16.4-18.1-15.4-28.9"/><path d="m238.8 295.5s14.9 3.9 28.4-25"/><path d="m242.8 319.6s-37-23.8-32.5-39.2"/><path d="m248.6 346.9s25.9-23 23.2-45.6"/><path d="m251.4 362.9s-33-9.2-32-23.7"/><path d="m253.7 382s20.8-19.3 23.5-31"/><path d="m255.1 414.7s-21.3-24.9-22.2-37.5"/><path d="m255.1 435.3s23.9-26.5 25.7-39.2"/></g><g fill="#2ebf91"><circle cx="224.8" cy="235.2" r="7.2"/><circle cx="216.6" cy="339.2" r="7.2"/><circle cx="210.3" cy="280.4" r="7.2"/><circle cx="277.2" cy="241.6" r="7.2"/><circle cx="277.2" cy="352.8" r="7.2"/><circle cx="265.5" cy="270.5" r="7.2"/><circle cx="279.9" cy="400.7" r="7.2"/><circle cx="231.1" cy="381.7" r="7.2"/><circle cx="272.7" cy="301.2" r="7.2"/><path d="m315 363.3s-61.1 36.9 51.6 93.7c0 0 24.8-46.1-2.6-83.7-11-15.2-31.6-19.7-48-10.5z"/></g><path d="m315.7 362.5s52.3 40 50.9 94.4" fill="none" stroke="#535461" stroke-miterlimit="10"/><path d="m1088.2 332.5c12.4 45.3-40.4 174.2-40.4 174.2s-111.1-84.1-123.5-129.4c-13.4-45 12.1-92.3 57.1-105.8s92.3 12.1 105.8 57.1c.3 1.4.6 2.6 1 3.9z" fill="#2ebf91"/><path d="m1088.2 332.5c12.4 45.3-40.4 174.2-40.4 174.2s-111.1-84.1-123.5-129.4c-13.4-45 12.1-92.3 57.1-105.8s92.3 12.1 105.8 57.1c.3 1.4.6 2.6 1 3.9z" opacity=".1"/><path d="m984.2 273.2s69.2 104.4 64 233.8" fill="none" stroke="#535461" stroke-miterlimit="10"/><path d="m1105.8 415.3s-62.7-34.1-54.8 91.8c0 0 52.3-1.9 70.9-44.5 7.5-17.2 1-37.3-15.2-46.8z" fill="#2ebf91"/><path d="m1106.8 415.5s-8.1 65.4-55.8 91.6" fill="none" stroke="#535461" stroke-miterlimit="10"/><path d="m293.002 78.53c-43.356-75.095-139.384-100.826-214.473-57.462-75.095 43.35-100.827 139.374-57.463 214.466 43.35 75.095 139.375 100.83 214.465 57.47 75.096-43.365 100.84-139.384 57.471-214.474zm-73.168 187.271c-60.067 34.692-136.894 14.106-171.576-45.973-34.69-60.067-14.097-136.893 45.972-171.568 60.071-34.69 136.894-14.106 171.578 45.971 34.685 60.076 14.098 136.886-45.974 171.57zm-6.279-115.149-82.214-47.949c-7.492-4.374-13.535-.877-13.493 7.789l.421 95.174c.038 8.664 6.155 12.191 13.669 7.851l81.585-47.103c7.506-4.332 7.522-11.388.032-15.762z" fill="#535461"/></svg>