<svg enable-background="new 0 0 678 378.9" viewBox="0 0 678 378.9" xmlns="http://www.w3.org/2000/svg" xmlns:xlink="http://www.w3.org/1999/xlink"><linearGradient id="a"><stop offset="0" stop-color="#808080" stop-opacity=".25"/><stop offset=".54" stop-color="#808080" stop-opacity=".12"/><stop offset="1" stop-color="#808080" stop-opacity=".1"/></linearGradient><linearGradient id="b" gradientTransform="matrix(1 0 0 -1 -129.1 -423.29)" gradientUnits="userSpaceOnUse" x1="468.1" x2="468.1" xlink:href="#a" y1="-789.11" y2="-423.29"/><linearGradient id="c" gradientTransform="matrix(1 0 0 -1 -125.57 -295.49)" gradientUnits="userSpaceOnUse" x1="668.28" x2="668.28" xlink:href="#a" y1="-674.36" y2="-411.8"/><path d="m672.3 323.6h-64.3c1.5-3 2.2-6.2 2.2-9.6v-292.5c0-11.9-9.6-21.5-21.5-21.5h-497.2c-11.9 0-21.5 9.6-21.5 21.5v292.6c0 3.3.8 6.6 2.2 9.6h-66.5c-3.1 0-5.7 2.5-5.7 5.7v4.6c0 17.6 14.2 31.8 31.8 31.8h614.4c17.6 0 31.8-14.3 31.8-31.8v-4.6c0-3.1-2.5-5.7-5.7-5.8zm-395.9 18.2-5.5-6.3h136.8l-6.1 6.3z" fill="url(#b)"/><path d="m99.3 4.1h481.6c12.8 0 23.3 10.4 23.3 23.3v281.5c0 12.8-10.4 23.3-23.3 23.3h-481.6c-12.8 0-23.3-10.4-23.3-23.3v-281.5c.1-12.8 10.5-23.3 23.3-23.3z" fill="#535461"/><path d="m87.2 52h504.8v268h-504.8z"/><circle cx="339.6" cy="28.6" fill="#fff" r="4.5"/><path d="m417.5 320.5-17.3 17.8h-122.3l-15.7-17.8h-249c-3.1 0-5.6 2.5-5.6 5.5v4.5c0 17.2 13.9 31.1 31.1 31.1h600.5c17.2 0 31.1-13.9 31.1-31.1v-4.5c0-3.1-2.5-5.6-5.6-5.6z" fill="#535461"/><image height="395" opacity=".74" overflow="visible" transform="matrix(.6847 0 0 .6847 87.2996 51.6085)" width="738" xlink:href="hero-21.jpg"/><path d="m626.4 116.3h-167.4c-8.5 0-15.3 6.8-15.4 15.3v231.9c0 8.5 6.9 15.3 15.3 15.3h167.4c8.5 0 15.3-6.8 15.3-15.3v-231.9c.2-8.4-6.7-15.3-15.2-15.3z" fill="url(#c)"/><path d="m453.3 119.4h179c4 0 7.2 3.2 7.2 7.2v242.6c0 4-3.2 7.2-7.2 7.2h-179c-4 0-7.2-3.2-7.2-7.2v-242.5c-.1-4 3.2-7.3 7.2-7.3z" fill="#535461"/><g fill="#fff"><path d="m455.9 143.8h173.7v208.4h-173.7z"/><circle cx="541.9" cy="131.2" r="2.4"/><circle cx="541.9" cy="363.9" r="7.1"/></g><path d="m639.7 336.7s.2.7-2.8 1.6-4 1.9-4 1.9" opacity=".05"/><image height="163" overflow="visible" transform="matrix(.4783 0 0 .4783 462.0987 248.608)" width="341" xlink:href="hero-22.jpg"/><image height="159" overflow="visible" transform="matrix(.4775 0 0 .4775 461.7302 168.8289)" width="216" xlink:href="hero-23.jpg"/><image height="159" overflow="visible" transform="matrix(.478 0 0 .478 568.1232 168.8893)" width="113" xlink:href="hero-24.jpg"/><g fill="#535461"><path d="m153.4 203.2h1.6c.5 0 .9.4.9.9v25.5c0 .5-.4.9-.9.9h-1.6c-.5 0-.9-.4-.9-.9v-25.5c.1-.5.4-.9.9-.9z"/><path d="m43.5 181.9h.2c.5 0 .8.4.8.9v7.3c0 .5-.4.9-.8.9h-.2c-.5 0-.8-.4-.8-.9v-7.3c0-.5.4-.9.8-.9z"/><path d="m43.4 198.3h.4c.5 0 .8.4.8.9v13.9c0 .5-.4.9-.8.9h-.4c-.5 0-.8-.4-.8-.9v-13.9c0-.5.4-.9.8-.9z"/><path d="m43.5 219.4h.3c.5 0 .8.4.8.9v14c0 .5-.4.9-.8.9h-.3c-.5 0-.8-.4-.8-.9v-14c-.1-.5.3-.9.8-.9z"/><path d="m58.3 152.2h81.5c8 0 14.6 6.5 14.6 14.6v195.7c0 8-6.5 14.5-14.6 14.5h-81.5c-8 0-14.5-6.5-14.5-14.5v-195.7c-.1-8.1 6.4-14.6 14.5-14.6z"/></g><path d="m89.8 158.9h12.6c.8 0 1.4.6 1.4 1.4v.3c0 .8-.6 1.4-1.4 1.4h-12.6c-.8 0-1.4-.6-1.4-1.4v-.3c0-.7.6-1.4 1.4-1.4z" fill="#e6e8ec"/><circle cx="107.9" cy="160.5" fill="#e6e8ec" r="1.8"/><path d="m138.7 158.1h-12.7v1.5c0 4-3.2 7.2-7.2 7.2h-40.4c-4 0-7.2-3.2-7.2-7.2v-1.5h-11.9c-4.8 0-8.8 3.9-8.8 8.8v195.5c0 4.8 3.9 8.8 8.8 8.8h79.4c4.9 0 8.8-3.9 8.8-8.8v-195.5c0-4.9-4-8.8-8.8-8.8z" fill="#fff"/><path d="m144 374 5.9-.8s-3.3 3.4-5.9.8z" opacity=".05"/><image height="369" overflow="visible" transform="matrix(.4774 0 0 .4774 58.011 183.3543)" width="176" xlink:href="hero-25.jpg"/><circle cx="338.4" cy="172.4" fill="#fff" r="31.8"/><path d="m348.1 171.5-14-8.5c-.9-.5-2.1-.2-2.6.7-.2.3-.2.6-.2.9v16.5c0 1.1.9 1.9 1.9 1.9.3 0 .6-.1.9-.2l14-8c.9-.5 1.3-1.6.8-2.6-.2-.3-.5-.5-.8-.7zm23.9 1.6c0-18.3-14.7-33.1-33-33.1s-33.1 14.7-33.1 33 14.7 33.1 33 33.1h.1c18.2-.1 33-14.8 33-33zm-59.7 0c0-14.7 11.9-26.7 26.6-26.7s26.6 11.9 26.6 26.6-11.9 26.6-26.6 26.7c-14.6 0-26.5-11.9-26.6-26.6z" fill="#2dbf91"/><path d="m138.7 158.1h-12.7v1.5c0 4-3.3 7.2-7.3 7.2h-40.5c-4 0-7.2-3.2-7.3-7.2v-1.5h-11.9c-4.9 0-8.8 3.9-8.8 8.8v195.5c0 4.9 4 8.8 8.8 8.8h79.7c4.9 0 8.8-3.9 8.8-8.8v-195.5c0-4.9-4-8.8-8.8-8.8z" opacity=".26"/><path d="m455.9 143.8h173.7v208.4h-173.7z" opacity=".26"/></svg>