<svg id="fbbf0112-9f0c-4059-91ae-024eb0aa32cc" xmlns="http://www.w3.org/2000/svg" viewBox="0 0 1046 672.1"><defs><style>.cls-1,.cls-4{fill:#bbb;}.cls-1,.cls-2,.cls-5{opacity:0.1;}.cls-1,.cls-5{isolation:isolate;}.cls-3{fill:#3f3d56;}</style></defs><title>illustration-4</title><path class="cls-1" d="M417.1,93.3A246.67,246.67,0,0,0,120.8,59.9C215.8,93.9,320.6,95.2,417.1,93.3Z" transform="translate(0 -25.2)"/><path class="cls-1" d="M967.6,645.5,863.9,465.8a3.27,3.27,0,0,0-4.5-1.2,3.45,3.45,0,0,0-1.2,1.2L754.5,645.5a3.33,3.33,0,0,0,1.1,4.5,3.37,3.37,0,0,0,1.7.5h30.9a3.33,3.33,0,0,1,3.3,3.3v38.3a3.33,3.33,0,0,0,3.3,3.3h40.4a3.33,3.33,0,0,0,3.3-3.3V673.6a3.33,3.33,0,0,1,3.3-3.3h38.4a3.33,3.33,0,0,1,3.3,3.3v18.5a3.33,3.33,0,0,0,3.3,3.3h40.4a3.33,3.33,0,0,0,3.3-3.3V653.7a3.33,3.33,0,0,1,3.3-3.3h30.9a3.33,3.33,0,0,0,3.3-3.3A2.28,2.28,0,0,0,967.6,645.5ZM823,665.4a3.45,3.45,0,0,1-2.3,1H806.2a3.3,3.3,0,0,1,0-6.6h14.6a3.33,3.33,0,0,1,3.3,3.3,3.57,3.57,0,0,1-1.1,2.3Zm95.3,0a3.45,3.45,0,0,1-2.3,1H901.5a3.3,3.3,0,1,1,0-6.6H916a3.33,3.33,0,0,1,3.3,3.3,3,3,0,0,1-1,2.3Z" transform="translate(0 -25.2)"/><path class="cls-1" d="M326.5,647.1,222.8,467.4a3.27,3.27,0,0,0-4.5-1.2,3.45,3.45,0,0,0-1.2,1.2L127.5,622.6A274.48,274.48,0,0,0,165,661.3h14.6a3.3,3.3,0,0,1,0,6.6h-6.2a152.41,152.41,0,0,0,24,14.9v-7.7a3.33,3.33,0,0,1,3.3-3.3h38.4a3.33,3.33,0,0,1,3.3,3.3v18.5a3.27,3.27,0,0,0,3.3,3.3h40.4a3.32,3.32,0,0,0,2.6-1.3,3.72,3.72,0,0,0,.7-2V655.3a3.33,3.33,0,0,1,3.3-3.3h30.9a3.33,3.33,0,0,0,3.3-3.3A2.4,2.4,0,0,0,326.5,647.1ZM258,662.3a3.45,3.45,0,0,1,2.3-1h14.6a3.3,3.3,0,0,1,0,6.6H260.3a3.33,3.33,0,0,1-3.3-3.3,3.26,3.26,0,0,1,1-2.3Zm-65.1-66.5a3.33,3.33,0,0,1-3.3-3.3V567.4a3.33,3.33,0,0,1,3.3-3.3h54.3a3.33,3.33,0,0,1,3.3,3.3v25.1a3.33,3.33,0,0,1-3.3,3.3Z" transform="translate(0 -25.2)"/><path class="cls-1" d="M736.5,324.3H608.2V296.5a6.59,6.59,0,0,0-6.6-6.6H563.9V260.3a4.23,4.23,0,0,0-4.2-4.2H511.2a4.23,4.23,0,0,0-4.2,4.2v29.6H462.7a6.59,6.59,0,0,0-6.6,6.6h0v27.8H333.6a1.35,1.35,0,0,0-1.3,1.4V694.2a1.32,1.32,0,0,0,1.3,1.3h81.3a1.42,1.42,0,0,0,1.4-1.3V644.6a1.35,1.35,0,0,1,1.4-1.3H452a1.32,1.32,0,0,1,1.3,1.3v49.6a1.32,1.32,0,0,0,1.3,1.3H615.4a1.32,1.32,0,0,0,1.3-1.3V644.6a1.32,1.32,0,0,1,1.3-1.3h34.4a1.32,1.32,0,0,1,1.3,1.3v49.6a1.32,1.32,0,0,0,1.3,1.3h81.3a1.32,1.32,0,0,0,1.3-1.3V325.7C737.9,324.9,737.3,324.3,736.5,324.3ZM401.7,626.1a1.32,1.32,0,0,1-1.3,1.3H350.2a1.32,1.32,0,0,1-1.3-1.3h0V609a1.35,1.35,0,0,1,1.4-1.3h50.2a1.32,1.32,0,0,1,1.3,1.3Zm0-44.4a1.32,1.32,0,0,1-1.3,1.3H350.2a1.49,1.49,0,0,1-1.4-1.3h0V564.6a1.32,1.32,0,0,1,1.3-1.3h50.2a1.32,1.32,0,0,1,1.3,1.3h0Zm0-44.3a1.32,1.32,0,0,1-1.3,1.3H350.2a1.42,1.42,0,0,1-1.4-1.3V520.2a1.35,1.35,0,0,1,1.4-1.3h50.2a1.32,1.32,0,0,1,1.3,1.3Zm0-44.4a1.32,1.32,0,0,1-1.3,1.3H350.2a1.49,1.49,0,0,1-1.4-1.3h0V475.9a1.32,1.32,0,0,1,1.3-1.3h50.2a1.32,1.32,0,0,1,1.3,1.3h0Zm0-44.3a1.32,1.32,0,0,1-1.3,1.3H350.2a1.42,1.42,0,0,1-1.4-1.3V431.5a1.32,1.32,0,0,1,1.3-1.3h50.2a1.32,1.32,0,0,1,1.3,1.3h0Zm0-44.3a1.32,1.32,0,0,1-1.3,1.3H350.2a1.32,1.32,0,0,1-1.3-1.3h0V387.2a1.43,1.43,0,0,1,1.4-1.4h50.2a1.35,1.35,0,0,1,1.3,1.4Zm0-44.4a1.32,1.32,0,0,1-1.3,1.3H350.2a1.49,1.49,0,0,1-1.4-1.3h0V342.9a1.49,1.49,0,0,1,1.3-1.4h50.2a1.32,1.32,0,0,1,1.3,1.3h0ZM520.8,626a1.32,1.32,0,0,1-1.3,1.3H469.3A1.32,1.32,0,0,1,468,626V608.9a1.32,1.32,0,0,1,1.3-1.3h50.2a1.32,1.32,0,0,1,1.3,1.3Zm0-44.3a1.32,1.32,0,0,1-1.3,1.3H469.3a1.32,1.32,0,0,1-1.3-1.3V564.6a1.32,1.32,0,0,1,1.3-1.3h50.2a1.32,1.32,0,0,1,1.3,1.3h0Zm0-44.3a1.32,1.32,0,0,1-1.3,1.3H469.3a1.32,1.32,0,0,1-1.3-1.3V520.3a1.32,1.32,0,0,1,1.3-1.3h50.2a1.32,1.32,0,0,1,1.3,1.3Zm0-44.4a1.32,1.32,0,0,1-1.3,1.3H469.3A1.32,1.32,0,0,1,468,493V475.9a1.32,1.32,0,0,1,1.3-1.3h50.2a1.32,1.32,0,0,1,1.3,1.3h0Zm0-44.3a1.32,1.32,0,0,1-1.3,1.3H469.3a1.32,1.32,0,0,1-1.3-1.3V431.6a1.32,1.32,0,0,1,1.3-1.3h50.2a1.32,1.32,0,0,1,1.3,1.3h0Zm0-44.3a1.32,1.32,0,0,1-1.3,1.3H469.3a1.32,1.32,0,0,1-1.3-1.3V387.3a1.49,1.49,0,0,1,1.3-1.4h50.2a1.35,1.35,0,0,1,1.3,1.4Zm0-44.4a1.49,1.49,0,0,1-1.3,1.4H469.3A1.35,1.35,0,0,1,468,360V342.9a1.42,1.42,0,0,1,1.3-1.4h50.2a1.32,1.32,0,0,1,1.3,1.3h0Zm81.4,266a1.32,1.32,0,0,1-1.3,1.3H550.7a1.32,1.32,0,0,1-1.3-1.3V608.9a1.32,1.32,0,0,1,1.3-1.3h50.2a1.32,1.32,0,0,1,1.3,1.3Zm0-44.3a1.32,1.32,0,0,1-1.3,1.3H550.7a1.32,1.32,0,0,1-1.3-1.3V564.6a1.32,1.32,0,0,1,1.3-1.3h50.2a1.32,1.32,0,0,1,1.3,1.3h0Zm0-44.3a1.32,1.32,0,0,1-1.3,1.3H550.7a1.32,1.32,0,0,1-1.3-1.3V520.3a1.32,1.32,0,0,1,1.3-1.3h50.2a1.32,1.32,0,0,1,1.3,1.3Zm0-44.4a1.32,1.32,0,0,1-1.3,1.3H550.7a1.32,1.32,0,0,1-1.3-1.3V475.9a1.32,1.32,0,0,1,1.3-1.3h50.2a1.32,1.32,0,0,1,1.3,1.3h0Zm0-44.3a1.32,1.32,0,0,1-1.3,1.3H550.7a1.32,1.32,0,0,1-1.3-1.3V431.6a1.32,1.32,0,0,1,1.3-1.3h50.2a1.32,1.32,0,0,1,1.3,1.3h0Zm0-44.3a1.32,1.32,0,0,1-1.3,1.3H550.7a1.32,1.32,0,0,1-1.3-1.3V387.3a1.49,1.49,0,0,1,1.3-1.4h50.2a1.35,1.35,0,0,1,1.3,1.4Zm0-44.4a1.49,1.49,0,0,1-1.3,1.4H550.7a1.35,1.35,0,0,1-1.3-1.4V342.9a1.42,1.42,0,0,1,1.3-1.4h50.2a1.32,1.32,0,0,1,1.3,1.3h0ZM721.3,626a1.32,1.32,0,0,1-1.3,1.3H669.8a1.32,1.32,0,0,1-1.3-1.3h0V608.9a1.32,1.32,0,0,1,1.3-1.3H720a1.32,1.32,0,0,1,1.3,1.3Zm0-44.3A1.32,1.32,0,0,1,720,583H669.8a1.32,1.32,0,0,1-1.3-1.3h0V564.6a1.32,1.32,0,0,1,1.3-1.3H720a1.32,1.32,0,0,1,1.3,1.3Zm0-44.3a1.32,1.32,0,0,1-1.3,1.3H669.8a1.32,1.32,0,0,1-1.3-1.3V520.3a1.32,1.32,0,0,1,1.3-1.3H720a1.32,1.32,0,0,1,1.3,1.3Zm0-44.4a1.32,1.32,0,0,1-1.3,1.3H669.8a1.32,1.32,0,0,1-1.3-1.3h0V475.9a1.32,1.32,0,0,1,1.3-1.3H720a1.32,1.32,0,0,1,1.3,1.3Zm0-44.3A1.32,1.32,0,0,1,720,450H669.8a1.32,1.32,0,0,1-1.3-1.3V431.6a1.32,1.32,0,0,1,1.3-1.3H720a1.32,1.32,0,0,1,1.3,1.3Zm0-44.3a1.42,1.42,0,0,1-1.3,1.4H669.7a1.32,1.32,0,0,1-1.3-1.3h0V387.3a1.42,1.42,0,0,1,1.3-1.4H720a1.35,1.35,0,0,1,1.3,1.4Zm0-44.4a1.42,1.42,0,0,1-1.3,1.4H669.8a1.32,1.32,0,0,1-1.3-1.3h0V343a1.49,1.49,0,0,1,1.3-1.4H720a1.35,1.35,0,0,1,1.3,1.4Z" transform="translate(0 -25.2)"/><path class="cls-1" d="M371,224.5a29.34,29.34,0,0,0-16.8,1.8,24.16,24.16,0,0,1-20.2-.1,28.07,28.07,0,0,0-23.7.5,14.58,14.58,0,0,1-6.8,1.7c-9.6,0-17.6-9.7-19.3-22.4a19.85,19.85,0,0,0,4.8-5.2c5.6-9.1,14.4-14.9,24.1-14.9s18.4,5.8,24,14.7a18.79,18.79,0,0,0,16,8.8h.3C361.1,209.4,367.7,215.5,371,224.5Z" transform="translate(0 -25.2)"/><path class="cls-1" d="M400.2,184.4l-15.5,9.8,9.4-17.1a16.12,16.12,0,0,0-9.4-3.4h-.3c-1.1,0-2.2-.1-3.2-.2l-5.2,3.3,2.3-4.1a19.32,19.32,0,0,1-9.2-7l-9.4,6,5.9-10.8c-5.5-6.6-12.9-10.7-21.1-10.7-9.8,0-18.5,5.8-24.1,14.9a18.17,18.17,0,0,1-16,8.6h-.5c-10.8,0-19.6,12.3-19.6,27.4s8.8,27.4,19.6,27.4a14.58,14.58,0,0,0,6.8-1.7,28.43,28.43,0,0,1,23.7-.5,24.31,24.31,0,0,0,20.1,0,28,28,0,0,1,23.5.5,14.49,14.49,0,0,0,6.7,1.7c10.8,0,19.6-12.3,19.6-27.4A35.86,35.86,0,0,0,400.2,184.4Z" transform="translate(0 -25.2)"/><path class="cls-1" d="M832,406.9a20.35,20.35,0,0,0-11.7,1.3,17.32,17.32,0,0,1-14.1,0,20,20,0,0,0-16.6.3,10.05,10.05,0,0,1-4.8,1.2c-6.7,0-12.3-6.8-13.5-15.7a14.56,14.56,0,0,0,3.4-3.6c3.9-6.4,10-10.4,16.9-10.4s12.9,4,16.8,10.3a12.73,12.73,0,0,0,11.2,6.1h.2C825.1,396.4,829.7,400.7,832,406.9Z" transform="translate(0 -25.2)"/><path class="cls-1" d="M852.4,378.9l-10.9,6.9,6.6-12a10.6,10.6,0,0,0-6.6-2.3h-.2a9,9,0,0,1-2.3-.2l-3.7,2.3,1.6-2.9a12.5,12.5,0,0,1-6.4-4.9L824,370l4.2-7.6c-3.8-4.6-9-7.5-14.8-7.5-6.8,0-13,4.1-16.9,10.4a12.44,12.44,0,0,1-11.2,6H785c-7.6,0-13.7,8.6-13.7,19.1s6.1,19.2,13.7,19.2a10.05,10.05,0,0,0,4.8-1.2,19.67,19.67,0,0,1,16.6-.3,17.32,17.32,0,0,0,14.1,0,19.57,19.57,0,0,1,16.4.3,10,10,0,0,0,4.7,1.2c7.6,0,13.7-8.6,13.7-19.2A24.83,24.83,0,0,0,852.4,378.9Z" transform="translate(0 -25.2)"/><path class="cls-1" d="M238.6,342.9a20.35,20.35,0,0,1,11.7,1.3,17.32,17.32,0,0,0,14.1,0,20,20,0,0,1,16.6.3,10.05,10.05,0,0,0,4.8,1.2c6.7,0,12.3-6.8,13.5-15.7a14.56,14.56,0,0,1-3.4-3.6c-3.9-6.4-10-10.5-16.9-10.5s-12.9,4-16.8,10.3a12.73,12.73,0,0,1-11.2,6.1h-.2C245.5,332.4,240.9,336.7,238.6,342.9Z" transform="translate(0 -25.2)"/><path class="cls-1" d="M218.1,314.9l10.9,6.9-6.6-12a10.6,10.6,0,0,1,6.6-2.3h.2a9,9,0,0,0,2.3-.2l3.7,2.3-1.6-2.9a13.16,13.16,0,0,0,6.5-4.9l6.6,4.2-4.2-7.6c3.9-4.6,9-7.5,14.8-7.5,6.9,0,13,4.1,16.9,10.4a12.44,12.44,0,0,0,11.2,6h.4c7.6,0,13.7,8.6,13.7,19.1s-6.1,19.2-13.7,19.2a10.05,10.05,0,0,1-4.8-1.2,19.67,19.67,0,0,0-16.6-.3,17.32,17.32,0,0,1-14.1,0,19.57,19.57,0,0,0-16.4.3,10,10,0,0,1-4.7,1.2c-7.6,0-13.7-8.6-13.7-19.2A21.36,21.36,0,0,1,218.1,314.9Z" transform="translate(0 -25.2)"/><g class="cls-2"><path class="cls-3" d="M122.4,571.9a25.73,25.73,0,0,1-3.2,12.4,25.45,25.45,0,0,1,0,24.8,22.17,22.17,0,0,1,2.4,6,452,452,0,0,1-30.1-45h0a23.77,23.77,0,0,1,3.2-10.6,23.44,23.44,0,0,1-3.2-12.4,25.53,25.53,0,0,1,1.5-8.6,26.4,26.4,0,0,1,1.8-3.8c2.8-4.8,7.3-7.9,12.2-7.9s9.4,3.1,12.3,7.9a17.64,17.64,0,0,1,1.7,3.7,26.1,26.1,0,0,1,1.5,8.7,25.73,25.73,0,0,1-3.2,12.4A26.2,26.2,0,0,1,122.4,571.9Z" transform="translate(0 -25.2)"/><ellipse class="cls-3" cx="106.9" cy="497.1" rx="15.5" ry="20.3"/><ellipse class="cls-3" cx="106.9" cy="472.4" rx="15.5" ry="20.3"/><path class="cls-4" d="M180.7,373.9a73.85,73.85,0,0,1-15.9,45.8,74.13,74.13,0,0,1-44,118.6c-1.8.4-3.6.6-5.4.9a74.32,74.32,0,0,1-17,.1c-1.9-.2-3.7-.5-5.6-.8a72.28,72.28,0,0,1-23-8.4A747.1,747.1,0,0,1,35,446.3a74.37,74.37,0,0,1,13.3-26.5,74.22,74.22,0,0,1-12-69.6l56.3,18.9L39.8,341.7a78.15,78.15,0,0,1,8.4-13.5,74.2,74.2,0,0,1,116.6-91.8,70.11,70.11,0,0,1,5.9,8.7l-54.4,40,59-30.6a74.38,74.38,0,0,1-1.4,58.7l-44-.3,40.7,6.7a70.76,70.76,0,0,1-5.8,8.5A74.68,74.68,0,0,1,180.7,373.9Z" transform="translate(0 -25.2)"/><path class="cls-5" d="M180.7,465.6a74.12,74.12,0,0,1-59.8,72.7c-1.8.4-3.6.6-5.4.9a74.32,74.32,0,0,1-17,.1c-1.9-.2-3.7-.5-5.6-.8a72.28,72.28,0,0,1-23-8.4A747.73,747.73,0,0,1,35,446.3a74.37,74.37,0,0,1,13.3-26.5,74.13,74.13,0,0,1-15.9-45.9c0-8.3,142.3,33.2,132.4,45.8A74.34,74.34,0,0,1,180.7,465.6Z" transform="translate(0 -25.2)"/></g><g class="cls-2"><path class="cls-3" d="M1014.9,552.6c-2.9,9.3-6,18.5-9.2,27.4a25.14,25.14,0,0,1-1.3-8.2C1004.4,562.9,1008.8,555.3,1014.9,552.6Z" transform="translate(0 -25.2)"/><path class="cls-4" d="M1046,393c0,17.5-3.5,45.3-10,77a840.45,840.45,0,0,1-21.2,82.6c-2.9,9.3-6,18.5-9.2,27.4-3.7,10.2-7.5,20.1-11.5,29.6a74.37,74.37,0,0,1-44.2-95.5,76.37,76.37,0,0,1,11.3-20.3,74.56,74.56,0,0,1-12-69.8l56.3,18.9-52.8-27.5a78.15,78.15,0,0,1,8.4-13.5,74.45,74.45,0,0,1,12.6-104.5,72.61,72.61,0,0,1,16.5-9.8,128.08,128.08,0,0,1,48.8,63.9l-9.7,7.3,10.5-5.4a126.2,126.2,0,0,1,6.1,33.3H1043l3,.5Z" transform="translate(0 -25.2)"/><path class="cls-5" d="M1036.1,470a840.45,840.45,0,0,1-21.2,82.6c-2.9,9.3-6,18.5-9.2,27.4-3.7,10.2-7.5,20.1-11.5,29.6A74.37,74.37,0,0,1,950,514.1a76.37,76.37,0,0,1,11.3-20.3,74.34,74.34,0,0,1-15.9-45.9C945.4,442.9,997.1,456,1036.1,470Z" transform="translate(0 -25.2)"/></g><path class="cls-1" d="M1045.9,387.3v-.5a126.2,126.2,0,0,0-6.1-33.3l-.6-1.8a127.07,127.07,0,0,0-215-43.4,177.25,177.25,0,0,0-10.1-35.5,573.37,573.37,0,0,1-100.6,3.8,412.17,412.17,0,0,0,63.8,23.2l-.8,2.9A410.53,410.53,0,0,1,705.2,276l-6.9-3.4,7.7.5A571.08,571.08,0,0,0,813,270a181.76,181.76,0,0,0-31.5-50.1c-57.6-5.8-114.7-17.9-168-41.8l1.2-2.7c51.9,23.3,107.5,35.3,163.7,41.2-67.7-72.6-181.5-76.5-254.1-8.8A181.68,181.68,0,0,0,492.6,247a246.55,246.55,0,0,0-61.2-138.9,569.16,569.16,0,0,1-94.8,28.7,575.83,575.83,0,0,1-148.1,11.8,412.17,412.17,0,0,0,63.8,23.2l-.8,2.9A413.59,413.59,0,0,1,180.2,148l-6.9-3.4,7.7.5a569.94,569.94,0,0,0,248.4-39.3c-3-3.2-6-6.4-9.2-9.5-98.4,2-205.6,1-302.6-34.3A247,247,0,0,0,0,272.8c0,46.5,12.8,110.4,35,174.5a750.77,750.77,0,0,0,34.9,84c6.8,13.8,14,27.2,21.6,40h0a452,452,0,0,0,30.1,45c2,2.6,3.9,5.1,5.9,7.6A270.48,270.48,0,0,0,165,662.8h0q4.2,3.45,8.4,6.6a160.75,160.75,0,0,0,24,15c14.7,7.3,29.8,11.7,45.3,12.3,1.2,0,2.5.1,3.7.1v.5h672v-.5h.5a34.2,34.2,0,0,0,11.4-2c23.8-8.4,45.6-42.3,63.8-85.1,4-9.5,7.9-19.4,11.5-29.6,3.2-9,6.3-18.2,9.2-27.4,8.4-27.1,15.5-54.7,21.2-82.6,6.4-31.7,10-59.5,10-77C1046,391.1,1046,389.2,1045.9,387.3Z" transform="translate(0 -25.2)"/></svg>