<svg enable-background="new 0 0 1300 929.3" viewBox="0 0 1300 929.3" xmlns="http://www.w3.org/2000/svg" xmlns:xlink="http://www.w3.org/1999/xlink"><linearGradient id="a"><stop offset="0" stop-color="#808080" stop-opacity=".25"/><stop offset=".54" stop-color="#808080" stop-opacity=".12"/><stop offset="1" stop-color="#808080" stop-opacity=".1"/></linearGradient><linearGradient id="b" gradientUnits="userSpaceOnUse" x1="375.0238" x2="375.0238" xlink:href="#a" y1="870.0333" y2="342.5334"/><linearGradient id="c" gradientUnits="userSpaceOnUse" x1="579.5889" x2="695.989" xlink:href="#a" y1="622.9833" y2="622.9833"/><linearGradient id="d" gradientUnits="userSpaceOnUse" x1="579.5889" x2="695.9889" xlink:href="#a" y1="594.5333" y2="594.5333"/><linearGradient id="e" gradientUnits="userSpaceOnUse" x1="579.5888" x2="695.9889" xlink:href="#a" y1="532.5834" y2="532.5834"/><linearGradient id="f" gradientUnits="userSpaceOnUse" x1="623.8589" x2="651.7089" xlink:href="#a" y1="452.1333" y2="452.1333"/><linearGradient id="g" gradientUnits="userSpaceOnUse" x1="579.5889" x2="621.3889" xlink:href="#a" y1="777.3833" y2="777.3833"/><linearGradient id="h" gradientUnits="userSpaceOnUse" x1="654.2389" x2="696.0389" xlink:href="#a" y1="777.3833" y2="777.3833"/><linearGradient id="i" gradientUnits="userSpaceOnUse" x1="623.8589" x2="651.7089" xlink:href="#a" y1="441.3958" y2="441.3958"/><linearGradient id="j" gradientUnits="userSpaceOnUse" x1="576.9889" x2="698.5889" xlink:href="#a" y1="378.7333" y2="378.7333"/><linearGradient id="k" gradientUnits="userSpaceOnUse" x1="579.5889" x2="695.9889" xlink:href="#a" y1="392.6333" y2="392.6333"/><linearGradient id="l" gradientUnits="userSpaceOnUse" x1="593.4314" x2="695.2213" xlink:href="#a" y1="352.4823" y2="352.4823"/><linearGradient id="m" gradientUnits="userSpaceOnUse" x1="593.4314" x2="695.2213" xlink:href="#a" y1="351.1823" y2="351.1823"/><linearGradient id="n" gradientUnits="userSpaceOnUse" x1="690.3089" x2="700.4289" xlink:href="#a" y1="392.6333" y2="392.6333"/><linearGradient id="o" gradientUnits="userSpaceOnUse" x1="575.1289" x2="585.2489" xlink:href="#a" y1="392.6333" y2="392.6333"/><linearGradient id="p" gradientUnits="userSpaceOnUse" x1="779.5489" x2="807.3889" xlink:href="#a" y1="317.9333" y2="317.9333"/><linearGradient id="q" gradientUnits="userSpaceOnUse" x1="580.8889" x2="695.3889" xlink:href="#a" y1="426.2067" y2="426.2067"/><linearGradient id="r" gradientUnits="userSpaceOnUse" x1="668.6889" x2="798.4889" xlink:href="#a" y1="411.6833" y2="411.6833"/><linearGradient id="s" gradientUnits="userSpaceOnUse" x1="468.1889" x2="496.0289" xlink:href="#a" y1="317.9333" y2="317.9333"/><linearGradient id="t" gradientUnits="userSpaceOnUse" x1="476.9889" x2="606.7889" xlink:href="#a" y1="411.6333" y2="411.6333"/><linearGradient id="u" gradientUnits="userSpaceOnUse" x1="582.0889" x2="618.7989" xlink:href="#a" y1="919.1833" y2="919.1833"/><linearGradient id="v" gradientUnits="userSpaceOnUse" x1="656.7888" x2="693.4988" xlink:href="#a" y1="919.1833" y2="919.1833"/><linearGradient id="w" gradientUnits="userSpaceOnUse" x1="510.0889" x2="510.0889" xlink:href="#a" y1="615.8833" y2="607.8734"/><linearGradient id="x" gradientUnits="userSpaceOnUse" x1="521.6889" x2="521.6889" xlink:href="#a" y1="615.8833" y2="607.8734"/><linearGradient id="y" gradientUnits="userSpaceOnUse" x1="488.7889" x2="488.7889" xlink:href="#a" y1="615.8833" y2="607.8734"/><linearGradient id="z" gradientUnits="userSpaceOnUse" x1="503.8889" x2="503.8889" xlink:href="#a" y1="605.7933" y2="597.7933"/><linearGradient id="A" gradientUnits="userSpaceOnUse" x1="527.4889" x2="527.4889" xlink:href="#a" y1="607.4233" y2="599.4233"/><linearGradient id="B" gradientUnits="userSpaceOnUse" x1="521.6889" x2="521.6889" xlink:href="#a" y1="603.8734" y2="595.8633"/><linearGradient id="C" gradientUnits="userSpaceOnUse" x1="524.4889" x2="524.4889" xlink:href="#a" y1="612.3233" y2="604.3134"/><linearGradient id="D" gradientUnits="userSpaceOnUse" x1="514.0889" x2="514.0889" xlink:href="#a" y1="605.7933" y2="597.7933"/><linearGradient id="E" gradientUnits="userSpaceOnUse" x1="513.6889" x2="513.6889" xlink:href="#a" y1="594.5333" y2="586.5233"/><linearGradient id="F" gradientUnits="userSpaceOnUse" x1="533.3889" x2="533.3889" xlink:href="#a" y1="600.3134" y2="592.3033"/><linearGradient id="G" gradientUnits="userSpaceOnUse" x1="531.4889" x2="531.4889" xlink:href="#a" y1="607.8734" y2="599.8633"/><linearGradient id="H" gradientUnits="userSpaceOnUse" x1="540.3889" x2="540.3889" xlink:href="#a" y1="606.3933" y2="598.3833"/><linearGradient id="I" gradientUnits="userSpaceOnUse" x1="536.3889" x2="536.3889" xlink:href="#a" y1="610.0933" y2="602.0933"/><linearGradient id="J" gradientUnits="userSpaceOnUse" x1="509.6889" x2="509.6889" xlink:href="#a" y1="600.3134" y2="592.3033"/><linearGradient id="K" gradientUnits="userSpaceOnUse" x1="503.8889" x2="503.8889" xlink:href="#a" y1="615.4333" y2="607.4233"/><linearGradient id="L" gradientUnits="userSpaceOnUse" x1="494.8889" x2="494.8889" xlink:href="#a" y1="615.8833" y2="607.8734"/><linearGradient id="M" gradientUnits="userSpaceOnUse" x1="499.4889" x2="499.4889" xlink:href="#a" y1="613.3633" y2="605.3533"/><linearGradient id="N" gradientUnits="userSpaceOnUse" x1="518.9889" x2="518.9889" xlink:href="#a" y1="608.9133" y2="600.9033"/><linearGradient id="O" gradientUnits="userSpaceOnUse" x1="518.9889" x2="518.9889" xlink:href="#a" y1="599.4233" y2="591.4133"/><linearGradient id="P" gradientUnits="userSpaceOnUse" x1="523.4889" x2="523.4889" xlink:href="#a" y1="606.9833" y2="598.9733"/><linearGradient id="Q" gradientUnits="userSpaceOnUse" x1="519.4889" x2="519.4889" xlink:href="#a" y1="591.8633" y2="583.8533"/><linearGradient id="R" gradientUnits="userSpaceOnUse" x1="520.3889" x2="520.3889" xlink:href="#a" y1="595.8633" y2="587.8533"/><linearGradient id="S" gradientUnits="userSpaceOnUse" x1="525.0889" x2="525.0889" xlink:href="#a" y1="598.5333" y2="590.5233"/><linearGradient id="T" gradientUnits="userSpaceOnUse" x1="529.9889" x2="529.9889" xlink:href="#a" y1="597.7933" y2="589.7833"/><linearGradient id="U" gradientUnits="userSpaceOnUse" x1="528.6889" x2="528.6889" xlink:href="#a" y1="601.7933" y2="593.7833"/><linearGradient id="V" gradientUnits="userSpaceOnUse" x1="511.8889" x2="511.8889" xlink:href="#a" y1="596.6033" y2="588.6033"/><linearGradient id="W" gradientUnits="userSpaceOnUse" x1="500.3889" x2="500.3889" xlink:href="#a" y1="608.7633" y2="600.7534"/><linearGradient id="X" gradientUnits="userSpaceOnUse" x1="507.2889" x2="507.2889" xlink:href="#a" y1="602.0933" y2="594.0833"/><linearGradient id="Y" gradientUnits="userSpaceOnUse" x1="493.0889" x2="493.0889" xlink:href="#a" y1="613.5034" y2="605.5034"/><linearGradient id="Z" gradientUnits="userSpaceOnUse" x1="531.4889" x2="531.4889" xlink:href="#a" y1="610.3933" y2="602.3833"/><linearGradient id="aa" gradientUnits="userSpaceOnUse" x1="513.4889" x2="513.4889" xlink:href="#a" y1="587.8533" y2="579.8533"/><linearGradient id="ab" gradientUnits="userSpaceOnUse" x1="506.2889" x2="506.2889" xlink:href="#a" y1="597.0533" y2="589.0433"/><linearGradient id="ac" gradientUnits="userSpaceOnUse" x1="500.4889" x2="500.4889" xlink:href="#a" y1="603.8734" y2="595.8633"/><linearGradient id="ad" gradientUnits="userSpaceOnUse" x1="504.6889" x2="504.6889" xlink:href="#a" y1="611.4333" y2="603.4233"/><linearGradient id="ae" gradientUnits="userSpaceOnUse" x1="510.2889" x2="510.2889" xlink:href="#a" y1="606.3933" y2="598.3833"/><linearGradient id="af" gradientUnits="userSpaceOnUse" x1="513.1889" x2="513.1889" xlink:href="#a" y1="611.4333" y2="603.4233"/><linearGradient id="ag" gradientUnits="userSpaceOnUse" x1="543.8889" x2="543.8889" xlink:href="#a" y1="615.8833" y2="607.8734"/><linearGradient id="ah" gradientUnits="userSpaceOnUse" x1="538.2889" x2="538.2889" xlink:href="#a" y1="614.9933" y2="606.9833"/><linearGradient id="ai" gradientUnits="userSpaceOnUse" x1="527.4889" x2="527.4889" xlink:href="#a" y1="615.4333" y2="607.4233"/><linearGradient id="aj" gradientUnits="userSpaceOnUse" x1="515.4889" x2="515.4889" xlink:href="#a" y1="615.8833" y2="607.8734"/><linearGradient id="ak" gradientUnits="userSpaceOnUse" x1="514.2889" x2="514.2889" xlink:href="#a" y1="599.8633" y2="591.8633"/><linearGradient id="al" gradientUnits="userSpaceOnUse" x1="518.2889" x2="518.2889" xlink:href="#a" y1="604.9033" y2="596.9033"/><linearGradient id="am" gradientUnits="userSpaceOnUse" x1="511.5889" x2="511.5889" xlink:href="#a" y1="592.6033" y2="584.5933"/><linearGradient id="an" gradientUnits="userSpaceOnUse" x1="516.0889" x2="516.0889" xlink:href="#a" y1="593.0433" y2="585.0433"/><linearGradient id="ao" gradientUnits="userSpaceOnUse" x1="523.4889" x2="523.4889" xlink:href="#a" y1="595.1234" y2="587.1133"/><linearGradient id="ap" gradientUnits="userSpaceOnUse" x1="503.4889" x2="503.4889" xlink:href="#a" y1="601.6433" y2="593.6433"/><linearGradient id="aq" gradientUnits="userSpaceOnUse" x1="506.2889" x2="506.2889" xlink:href="#a" y1="606.8333" y2="598.8333"/><linearGradient id="ar" gradientUnits="userSpaceOnUse" x1="508.1889" x2="508.1889" xlink:href="#a" y1="612.9133" y2="604.9033"/><linearGradient id="as" gradientUnits="userSpaceOnUse" x1="519.4889" x2="519.4889" xlink:href="#a" y1="610.9833" y2="602.9833"/><linearGradient id="at" gradientUnits="userSpaceOnUse" x1="530.9889" x2="530.9889" xlink:href="#a" y1="607.4233" y2="599.4233"/><linearGradient id="au" gradientUnits="userSpaceOnUse" x1="534.6889" x2="534.6889" xlink:href="#a" y1="604.3134" y2="596.3134"/><linearGradient id="av" gradientUnits="userSpaceOnUse" x1="540.4889" x2="540.4889" xlink:href="#a" y1="611.4333" y2="603.4233"/><linearGradient id="aw" gradientUnits="userSpaceOnUse" x1="521.7889" x2="521.7889" xlink:href="#a" y1="616.3233" y2="608.3134"/><linearGradient id="ax" gradientUnits="userSpaceOnUse" x1="501.1889" x2="501.1889" xlink:href="#a" y1="614.5433" y2="606.5433"/><linearGradient id="ay" gradientUnits="userSpaceOnUse" x1="495.3889" x2="495.3889" xlink:href="#a" y1="609.3533" y2="601.3533"/><linearGradient id="az" gradientUnits="userSpaceOnUse" x1="502.9889" x2="502.9889" xlink:href="#a" y1="606.8333" y2="598.8333"/><linearGradient id="aA" gradientUnits="userSpaceOnUse" x1="498.8889" x2="498.8889" xlink:href="#a" y1="600.7534" y2="592.7534"/><linearGradient id="aB" gradientUnits="userSpaceOnUse" x1="502.3889" x2="502.3889" xlink:href="#a" y1="595.1234" y2="587.1133"/><linearGradient id="aC" gradientUnits="userSpaceOnUse" x1="533.3889" x2="533.3889" xlink:href="#a" y1="615.8833" y2="607.8734"/><linearGradient id="aD" gradientUnits="userSpaceOnUse" x1="516.8389" x2="516.8389" xlink:href="#a" y1="678.0333" y2="611.9034"/><linearGradient id="aE" gradientUnits="userSpaceOnUse" x1="496.7889" x2="496.7889" xlink:href="#a" y1="604.9033" y2="596.9033"/><linearGradient id="aF" gradientUnits="userSpaceOnUse" x1="506.8889" x2="506.8889" xlink:href="#a" y1="593.6433" y2="585.6333"/><linearGradient id="aG" gradientUnits="userSpaceOnUse" x1="492.7889" x2="492.7889" xlink:href="#a" y1="610.9833" y2="602.9833"/><linearGradient id="aH" gradientUnits="userSpaceOnUse" x1="487.9889" x2="487.9889" xlink:href="#a" y1="583.7933" y2="575.7833"/><linearGradient id="aI" gradientUnits="userSpaceOnUse" x1="504.7889" x2="504.7889" xlink:href="#a" y1="560.8533" y2="552.8433"/><linearGradient id="aJ" gradientUnits="userSpaceOnUse" x1="519.3889" x2="519.3889" xlink:href="#a" y1="543.4333" y2="535.4233"/><linearGradient id="aK" gradientUnits="userSpaceOnUse" x1="547.4889" x2="547.4889" xlink:href="#a" y1="580.8933" y2="572.8833"/><linearGradient id="aL" gradientUnits="userSpaceOnUse" x1="569.8889" x2="569.8889" xlink:href="#a" y1="609.3433" y2="601.3433"/><linearGradient id="aM" gradientUnits="userSpaceOnUse" x1="486.7889" x2="486.7889" xlink:href="#a" y1="678.7433" y2="670.7433"/><linearGradient id="aN" gradientUnits="userSpaceOnUse" x1="481.2889" x2="481.2889" xlink:href="#a" y1="671.4833" y2="663.4833"/><linearGradient id="aO" gradientUnits="userSpaceOnUse" x1="477.7889" x2="477.7889" xlink:href="#a" y1="632.2833" y2="624.2833"/><linearGradient id="aP" gradientUnits="userSpaceOnUse" x1="553.2889" x2="553.2889" xlink:href="#a" y1="675.5533" y2="667.5433"/><linearGradient id="aQ" gradientUnits="userSpaceOnUse" x1="560.5889" x2="560.5889" xlink:href="#a" y1="670.9033" y2="662.9033"/><linearGradient id="aR" gradientUnits="userSpaceOnUse" x1="561.3889" x2="561.3889" xlink:href="#a" y1="676.4233" y2="668.4133"/><linearGradient id="aS" gradientUnits="userSpaceOnUse" x1="546.3889" x2="546.3889" xlink:href="#a" y1="676.4233" y2="668.4133"/><linearGradient id="aT" gradientUnits="userSpaceOnUse" x1="836.1389" x2="836.1389" xlink:href="#a" y1="893.8333" y2="357.3637"/><linearGradient id="aU" gradientUnits="userSpaceOnUse" x1="755.3389" x2="755.3389" xlink:href="#a" y1="598.6333" y2="555.0333"/><clipPath id="aV"><path d="m769.6 560.9-1.9-4.5-24.9 10.2c-1.2.5-1.9 1.6-1.9 2.8v26.9h4.9v-25.6z"/></clipPath><linearGradient id="aW" gradientUnits="userSpaceOnUse" x1="744.3889" x2="744.3889" xlink:href="#a" y1="677.2333" y2="591.6333"/><linearGradient id="aX" gradientUnits="userSpaceOnUse" x1="744.2889" x2="744.2889" y1="644.6334" y2="617.3734"><stop offset="0" stop-opacity=".12"/><stop offset=".55" stop-opacity=".09"/><stop offset="1" stop-opacity=".02"/></linearGradient><linearGradient id="aY" gradientUnits="userSpaceOnUse" x1="815.6766" x2="815.6766" xlink:href="#a" y1="341.2964" y2="137.358"/><linearGradient id="aZ" gradientUnits="userSpaceOnUse" x1="1028.7889" x2="1028.7889" xlink:href="#a" y1="866.6807" y2="696.4234"/><path d="m24.9 515.9c20.4 87.2 63.6 162.6 131.9 199.2 141.9 75.9 461.9 36.8 700.7-8.2 120.7-22.7 230.2-85.3 311-177.8z" fill="#2ebf91" opacity=".1"/><path d="m1277.2 105.3h-131c-6.3 0-11.3-5.1-11.3-11.3 0-6.3 5.1-11.3 11.3-11.3h22.7c-6.3-.2-11.2-5.4-11-11.7.2-6 5-10.8 11-11h-16.2c-6.3-.2-11.2-5.4-11-11.7.2-6 5-10.8 11-11h68.4c-15.2-7.1-32.9-12.1-53.4-14.7-186.5-24-253.1-8.1-276.5 8.2-29 20.1-61.3 34.9-95.9 42-115.1 23.8-330.2 52.4-525.3-9-96.9-30.6-169 21.1-212.2 107.3h1242.2c-1.6-25.1-6.5-48.2-15.4-68.5-2.1 1.8-4.7 2.7-7.4 2.7z" fill="#2ebf91" opacity=".1"/><path d="m13.8 333.8c-5 50.7-3.3 101.9 5.1 152.2l1150.4 42.1c32-36.8 58.9-77.8 79.9-121.9zm455 108.6h-22.7c6.3 0 11.3 5.1 11.3 11.3 0 6.3-5.1 11.3-11.3 11.3h-131c-6.3 0-11.3-5.1-11.3-11.3 0-6.3 5.1-11.3 11.3-11.3h22.7c-6.3-.2-11.2-5.4-11-11.7.2-6 5-10.8 11-11h-16.2c-6.3-.2-11.2-5.4-11-11.7.2-6 5-10.8 11-11h131c6.3.2 11.2 5.4 11 11.7-.2 6-5 10.8-11 11h16.2c6.3.2 11.2 5.4 11 11.7-.2 6-5 10.8-11 11z" fill="#2ebf91" opacity=".1"/><path d="m1300 171.8-1256 30.6c-15.3 39.3-25.3 83.7-30 129.7h1264c8.2-27 14.4-54.7 18.3-82.7 3.7-27 5.2-53.2 3.7-77.6zm-1031 100.2h-22.7c6.3 0 11.3 5.1 11.3 11.3 0 6.3-5.1 11.3-11.3 11.3h-131c-6.3 0-11.3-5.1-11.3-11.3s5.1-11.3 11.3-11.3h22.7c-6.3-.2-11.2-5.4-11-11.7.2-6 5-10.8 11-11h-16.2c-6.3-.2-11.2-5.4-11-11.7.2-6 5-10.8 11-11h131c6.3.2 11.2 5.4 11 11.7-.2 6-5 10.8-11 11h16.2c6.3.2 11.2 5.4 11 11.7-.3 6-5.1 10.8-11 11z" fill="#2ebf91" opacity=".1"/><path d="m238.6 487.6h722.1c14.4 0 26.1 11.7 26.1 26.1v259.1h-774.3v-259.1c0-14.4 11.7-26.1 26.1-26.1z" fill="#535461"/><path d="m180.6 630.2h63.8c6.8 0 12.3 5.5 12.3 12.3v130.3h-80.4c-4.4 0-8-3.6-8-8v-122.3c0-6.8 5.5-12.3 12.3-12.3z" opacity=".1"/><path d="m173.2 630.2h63.8c6.8 0 12.3 5.5 12.3 12.3v130.3h-80.4c-4.4 0-8-3.6-8-8v-122.3c0-6.8 5.5-12.3 12.3-12.3z" fill="#535461"/><path d="m1023.1 772.7h-80.5v-130.2c0-6.8 5.5-12.3 12.3-12.3h63.8c6.8 0 12.3 5.5 12.3 12.3v122.2c.1 4.5-3.5 8-7.9 8z" opacity=".1"/><path d="m1030.5 772.7h-80.5v-130.2c0-6.8 5.5-12.3 12.3-12.3h63.8c6.8 0 12.3 5.5 12.3 12.3v122.2c.1 4.5-3.5 8-7.9 8z" fill="#535461"/><path d="m268.2 675.6h662.9c10.4 0 18.8 8.4 18.8 18.8v78.3h-700.5v-78.3c0-10.3 8.4-18.8 18.8-18.8z" fill="#535461"/><path d="m268.2 675.6h662.9c10.4 0 18.8 8.4 18.8 18.8v78.3h-700.5v-78.3c0-10.3 8.4-18.8 18.8-18.8z" opacity=".15"/><path d="m199 772.8h27v28.3h-27z" fill="#535461"/><path d="m199 772.8h27v28.3h-27z" opacity=".15"/><path d="m199 772.8h27v1.2h-27z" opacity=".1"/><path d="m973.3 772.7h27v28.3h-27z" fill="#535461"/><path d="m973.3 772.7h27v28.3h-27z" opacity=".15"/><path d="m973.3 772.7h27v1.2h-27z" opacity=".1"/><text font-family="'Lato-Light'" font-size="38.32" opacity=".7" transform="translate(365.1689 592.1833)">1</text><path d="m443.7 651-4-.8 8-29.3c12.5-93.9-34.8-103.4-52.5-103.7-2-.7-4.1-1.4-6.2-1.9v-11.1c22.8-5.7 40-24.3 43.8-47.5h.2c2.8 0 5.1-4.3 5.1-9.6.1-2.8-.7-5.6-2.2-7.9.2-2 .3-4 .3-6.1 0-16.7-6.8-32.7-18.9-44.3-.8-4.1-2.3-8-4.3-11.7-4.4-7.7-11.6-15.7-8.6-24l-19.1 2-.2-12.6c-6 1.1-8.5 8-12 12.9-8.5 11.9-25.6 13.5-36.9 22.7-3.8 3.1-12.5 12.7-10.9 18.9-7.6 10.5-11.7 23.1-11.7 36 0 2.1.1 4.1.3 6.1-1.6 2.3-2.3 5.1-2.2 7.9 0 5.3 2.3 9.6 5.1 9.6h.1c3.9 23.2 21.1 41.8 43.9 47.4v11.3c-2.1.5-4.2 1.1-6.2 1.9-17.7.3-65.1 9.8-52.5 103.7l8 29.3-1.9.3c-11.8 2.2-19.6 13.6-17.4 25.4l31.4 168c.7 3.6 4.1 5.9 7.7 5.3l5.5-1v3.3c-6.3 3.1-10.2 9.5-10.2 16.4v2.1h37v-2.1c0-6.5-3.4-12.4-8.9-15.7v-7.3l5-.9c3.6-.7 5.9-4.1 5.3-7.7l-29.7-157.9h81.7l-29.5 157.8c-.7 3.6 1.7 7 5.3 7.7l5 .9v7.3c-5.5 3.3-8.9 9.3-8.9 15.7v2.1h37v-2.1c0-7-4-13.3-10.2-16.4v-3.3l5.5 1c3.6.7 7-1.7 7.7-5.3l31.8-170.1c2-10.5-5-20.7-15.6-22.7z" fill="url(#b)" opacity=".7"/><path d="m336.7 826.8h17.2v23.3h-17.2z" fill="#fdb797"/><path d="m395.7 826.8h17.2v23.3h-17.2z" fill="#fdb797"/><path d="m318.2 635.1h113.1v40.6h-113.1z" fill="#4d8af0"/><path d="m318.2 635.1h113.1v40.6h-113.1z" opacity=".05"/><path d="m318.2 642.5s42.2 9.8 56.5 9.8 56.5-9.8 56.5-9.8v-6.2h-113z" opacity=".1"/><path d="m431.3 641.2s-42.2 9.8-56.5 9.8-56.5-9.8-56.5-9.8v-67.6c0-31.2 25.3-56.5 56.5-56.5s56.5 25.3 56.5 56.5z" fill="#8165ba"/><path d="m361.2 488.8h27v33.3c0 6.1-4.9 11-11 11h-5c-6.1 0-11-4.9-11-11z" fill="#fdb797"/><path d="m359.9 834.7-29.7 5.6c-2.8.5-5.5-1.3-6-4.1l-31.1-166.7c-1.7-9.3 4.4-18.2 13.6-19.9l18-3.4c2.8-.5 5.5 1.3 6 4.1l33.3 178.3c.5 2.9-1.3 5.6-4.1 6.1z" fill="#4d8af0"/><path d="m389.6 834.7 29.7 5.6c2.8.5 5.5-1.3 6-4.1l31.4-168.3c1.6-8.3-3.9-16.4-12.3-17.9l-19.7-3.7c-2.8-.5-5.5 1.3-6 4.1l-33.3 178.3c-.4 2.8 1.4 5.5 4.2 6z" fill="#4d8af0"/><path d="m361.2 509.3c8.9 2.2 18.1 2.2 27 0v-19.3h-27z" opacity=".1"/><circle cx="374.8" cy="439.7" fill="#333" r="59"/><circle cx="374.8" cy="453.2" fill="#fdb797" r="56.5"/><path d="m337.4 386.8c10.9-8.9 27.3-10.5 35.5-21.9 3.4-4.7 5.8-11.4 11.6-12.4l.2 12.1 18.4-1.9c-2.8 8 4.1 15.7 8.3 23.1 3.1 5.5 4.8 11.6 4.9 17.9-6.4 3.8-14.3-.4-21.4-2.6-6.9-2.2-14.3-2.4-21.5-2.6-3.7-.3-7.4-.1-11.1.6-3.1.9-6.2 2-9.2 3.4-4.9 2-20.4 9.8-24.9 4.8-5.2-5.6 5-17 9.2-20.5z" fill="#333"/><path d="m340.5 424.8c3.1 1.7 6.5 2.7 10 3 14.5 2 29.2.3 42.9-4.8 2.2 5.7 7.7 9.6 13.5 11.4s12 2 18.1 2c1.3.1 2.7-.1 3.9-.8 2.7-1.8 1.4-6-.2-8.9l-7.9-14.3c-2.3-4.2-4.7-8.5-8.3-11.7-4.5-4-10.5-5.9-16.4-7.1-14-2.8-28.4-2.3-42.2 1.4-14.7 4.2-33.6 17.6-13.4 29.8z" opacity=".1"/><path d="m340.5 423.6c3.1 1.7 6.5 2.7 10 3 14.5 2 29.2.3 42.9-4.8 2.2 5.7 7.7 9.6 13.5 11.4s12 2 18.1 2c1.3.1 2.7-.1 3.9-.8 2.7-1.8 1.4-6-.2-8.9l-7.8-14.2c-2.3-4.2-4.7-8.5-8.3-11.7-4.5-4-10.5-5.9-16.4-7.1-14-2.8-28.4-2.3-42.2 1.4-14.8 4-33.7 17.5-13.5 29.7z" fill="#333"/><ellipse cx="430.7" cy="453.2" fill="#fdb797" rx="4.9" ry="9.2"/><ellipse cx="318.8" cy="453.2" fill="#fdb797" rx="4.9" ry="9.2"/><path d="m361.5 520.9s-71.5-11.1-56.8 99.4l8.6 31.7 24.6-1s-16-36.9-6.1-61.5 29.7-68.6 29.7-68.6z" fill="#8165ba"/><path d="m388.1 520.9s71.5-11.1 56.8 99.5l-8.6 31.7-24.6-1s16-36.9 6.1-61.5-29.7-68.7-29.7-68.7z" fill="#8165ba"/><circle cx="326.8" cy="656" fill="#fdb797" r="13.5"/><ellipse cx="425.2" cy="656" fill="#fdb797" rx="13.5" ry="13.5"/><path d="m341.2 840.3h6.9c7.9 0 14.4 6.4 14.4 14.4v5.3h-35.6v-5.3c-.1-8 6.4-14.4 14.3-14.4z" fill="#333"/><path d="m401.4 840.3h6.9c7.9 0 14.4 6.4 14.4 14.4v5.3h-35.6v-5.3c-.1-8 6.4-14.4 14.3-14.4z" fill="#333"/><path d="m330.5 579.8s-4.9 25.8 3.7 36.9" opacity=".1"/><path d="m419 579.8s4.9 25.8-3.7 36.9" opacity=".1"/><g opacity=".7"><path d="m579.6 579.9h116.4v86.1h-116.4z" fill="url(#c)"/><path d="m579.6 602.7s43.5 5.1 58.2 5.1 58.2-5.1 58.2-5.1v-21.5h-116.4z" fill="url(#d)" opacity=".1"/><path d="m696 601.5s-43.5 5.1-58.2 5.1-58.2-5.1-58.2-5.1v-84.8c0-32.2 26.1-58.2 58.2-58.2 32.2 0 58.2 26.1 58.2 58.2z" fill="url(#e)"/><path d="m640.7 474.9h-5.8c-6.1 0-11-4.9-11-11v-34.6h27.8v34.6c0 6-4.9 11-11 11z" fill="url(#f)"/><path d="m579.6 635.6h41.8v283.5h-41.8z" fill="url(#g)"/><path d="m654.3 635.6h41.8v283.5h-41.8z" fill="url(#h)"/><path d="m623.9 450.4c9.1 2.3 18.7 2.3 27.8 0v-19.8h-27.8z" fill="url(#i)" opacity=".1"/><circle cx="637.8" cy="378.7" fill="url(#j)" r="60.8"/><circle cx="637.8" cy="392.6" fill="url(#k)" r="58.2"/><path d="m602.5 363.4c3.1 1.9 6.7 2.6 10.3 3.1 14.9 2 30.1.3 44.2-5 2.3 5.9 7.9 9.9 13.9 11.8s12.4 2 18.7 2.1c1.4.2 2.8-.1 4-.8 2.8-1.9 1.5-6.2-.2-9.2l-8.1-14.7c-2.4-4.3-4.9-8.8-8.6-12.1-4.7-4.1-10.8-6-16.9-7.3-14.4-2.9-29.3-2.4-43.5 1.4-15.1 4.3-34.6 18.1-13.8 30.7z" fill="url(#l)" opacity=".1"/><path d="m602.5 362.1c3.1 1.9 6.7 2.6 10.3 3.1 14.9 2 30.1.3 44.2-5 2.3 5.9 7.9 9.9 13.9 11.8s12.4 2 18.7 2.1c1.4.2 2.8-.1 4-.8 2.8-1.9 1.5-6.2-.2-9.2l-8.1-14.7c-2.4-4.3-4.9-8.8-8.6-12.1-4.7-4.1-10.8-6-16.9-7.3-14.4-2.9-29.3-2.4-43.5 1.4-15.1 4.3-34.6 18.2-13.8 30.7z" fill="url(#m)"/><ellipse cx="695.4" cy="392.6" fill="url(#n)" rx="5.1" ry="9.5"/><ellipse cx="580.2" cy="392.6" fill="url(#o)" rx="5.1" ry="9.5"/><circle cx="793.5" cy="317.9" fill="url(#p)" r="13.9"/><text font-family="'Lato-Light'" font-size="37.97" transform="translate(615.7589 532.5034)">00</text><path d="m639.1 415.4s-32.9 11.4-58.2-13.9c0 0 2 8.4 5.6 18.5 15.1 28.4 50.4 39.1 78.8 24 16.1-8.6 27.2-24.1 30.1-42.1-6.1 3.3-49.3 24-56.3 13.5zm-1.3 15.2c-6.3 0-11.4-4.8-11.4-7.6s5.1-2.5 11.4-2.5 11.4-.3 11.4 2.5-5.1 7.6-11.4 7.6z" fill="url(#q)"/><path d="m668.7 467.3s67.8-38 109.5-149.4l20.3 12.7s-33.5 142-117.7 174.8z" fill="url(#r)"/><circle cx="482.1" cy="317.9" fill="url(#s)" r="13.9"/><path d="m606.8 467.3s-67.8-38-109.5-149.4l-20.3 12.7s33.5 141.9 117.7 174.7z" fill="url(#t)"/><path d="m618.8 929.3h-36.7v-5.9c0-7.9 6.4-14.4 14.4-14.4h8c7.9 0 14.4 6.4 14.4 14.4z" fill="url(#u)"/><path d="m693.5 929.3h-36.7v-5.9c0-7.9 6.4-14.4 14.4-14.4h8c7.9 0 14.4 6.4 14.4 14.4z" fill="url(#v)"/></g><path d="m581.3 581h113.1v83.6h-113.1z" fill="#4d8af0"/><path d="m581.2 603.1s42.2 4.9 56.5 4.9 56.5-4.9 56.5-4.9v-20.9h-113z" opacity=".1"/><path d="m694.3 601.9s-42.2 4.9-56.5 4.9-56.5-4.9-56.5-4.9v-82.3c0-31.2 25.3-56.5 56.5-56.5s56.5 25.3 56.5 56.5z" fill="#2ebf91"/><path d="m624.3 434.7h27v33.3c0 6.1-4.9 11-11 11h-5c-6.1 0-11-4.9-11-11z" fill="#fdb797"/><path d="m581.3 635.1h40.6v275.3h-40.6z" fill="#4d8af0"/><path d="m653.8 635.1h40.6v275.3h-40.6z" fill="#4d8af0"/><path d="m624.3 455.2c8.9 2.2 18.1 2.2 27 0v-19.3h-27z" opacity=".1"/><ellipse cx="637.8" cy="385.6" fill="#814e4d" rx="59" ry="59" transform="matrix(.1091 -.994 .994 .1091 184.8648 977.5349)"/><ellipse cx="637.8" cy="399.1" fill="#fdb797" rx="56.5" ry="56.5" transform="matrix(.7071 -.7071 .7071 .7071 -95.4169 567.8874)"/><path d="m603.5 370.8c3.1 1.7 6.5 2.7 10 3 14.5 2 29.2.3 42.9-4.8 2.2 5.7 7.7 9.6 13.5 11.4s12 2 18.1 2c1.3.1 2.7-.1 3.9-.8 2.7-1.8 1.4-6-.2-8.9l-7.9-14.3c-2.3-4.2-4.7-8.5-8.3-11.7-4.5-4-10.5-5.9-16.4-7.1-14-2.8-28.4-2.3-42.2 1.4-14.6 4.1-33.6 17.5-13.4 29.8z" opacity=".1"/><path d="m603.5 369.5c3.1 1.7 6.5 2.7 10 3 14.5 2 29.2.3 42.9-4.8 2.2 5.7 7.7 9.6 13.5 11.4s12 2 18.1 2c1.3.1 2.7-.1 3.9-.8 2.7-1.8 1.4-6-.2-8.9l-7.9-14.3c-2.3-4.2-4.7-8.5-8.3-11.7-4.5-4-10.5-5.9-16.4-7.1-14-2.8-28.4-2.3-42.2 1.4-14.6 4.1-33.6 17.6-13.4 29.8z" fill="#814e4d"/><ellipse cx="693.7" cy="399.1" fill="#fdb797" rx="4.9" ry="9.2"/><ellipse cx="581.9" cy="399.1" fill="#fdb797" rx="4.9" ry="9.2"/><circle cx="789" cy="326.6" fill="#fdb797" r="13.5"/><path d="m639 421.2s-32 11.1-56.5-13.5c0 0 2 8.1 5.4 18 14.7 27.6 48.9 38 76.5 23.3 15.6-8.3 26.4-23.4 29.2-40.9-5.7 3.2-47.7 23.4-54.6 13.1zm-1.2 14.8c-6.1 0-11.1-4.7-11.1-7.4s5-2.5 11.1-2.5 11.1-.3 11.1 2.5-5 7.4-11.1 7.4z" fill="#814e4d"/><path d="m667.8 471.7s65.8-36.9 106.4-145.1l19.7 12.3s-32.6 137.8-114.3 169.6z" fill="#2ebf91"/><circle cx="486.6" cy="326.6" fill="#fdb797" r="13.5"/><path d="m607.7 471.7s-65.8-36.9-106.4-145.1l-19.6 12.3s32.6 137.8 114.3 169.6z" fill="#2ebf91"/><path d="m598.1 900.6h6.9c7.9 0 14.4 6.4 14.4 14.4v5.3h-35.6v-5.3c-.1-8 6.3-14.4 14.3-14.4z" fill="#333"/><path d="m670.6 900.6h6.9c7.9 0 14.4 6.4 14.4 14.3v.1 5.3h-35.7v-5.3c0-8 6.5-14.4 14.4-14.4z" fill="#333"/><circle cx="510.1" cy="611.8" fill="url(#w)" r="4"/><circle cx="510.1" cy="611.8" fill="#fdd835" r="3.6"/><path d="m507.5 612.9c0-2 1.6-3.5 3.6-3.5.9 0 1.7.4 2.4 1-.8-1.8-2.9-2.6-4.7-1.7-1.8.8-2.6 2.9-1.7 4.7.2.4.4.8.8 1.1-.3-.6-.5-1.1-.4-1.6z" fill="#fff" opacity=".2"/><circle cx="521.7" cy="611.8" fill="url(#x)" r="4"/><circle cx="521.7" cy="611.8" fill="#fdd835" r="3.6"/><path d="m519 612.9c0-2 1.6-3.5 3.6-3.5.9 0 1.7.4 2.4 1-.8-1.8-2.9-2.6-4.7-1.7-1.8.8-2.6 2.9-1.7 4.7.2.4.4.8.8 1.1-.3-.6-.4-1.1-.4-1.6z" fill="#fff" opacity=".2"/><circle cx="488.8" cy="611.8" fill="url(#y)" r="4"/><circle cx="488.8" cy="611.8" fill="#fdd835" r="3.6"/><path d="m486.1 612.9c0-2 1.6-3.5 3.6-3.5.9 0 1.7.4 2.4 1-.8-1.8-2.9-2.6-4.7-1.7s-2.6 2.9-1.7 4.7c.2.4.4.8.8 1.1-.3-.6-.4-1.1-.4-1.6z" fill="#fff" opacity=".2"/><circle cx="503.9" cy="601.8" fill="url(#z)" r="4"/><circle cx="503.9" cy="601.8" fill="#fdd835" r="3.6"/><path d="m501.2 602.8c0-2 1.6-3.5 3.6-3.5.9 0 1.7.4 2.4 1-.8-1.8-2.9-2.6-4.7-1.7-1.8.8-2.6 2.9-1.7 4.7.2.4.4.8.8 1.1-.3-.6-.4-1.1-.4-1.6z" fill="#fff" opacity=".2"/><circle cx="527.5" cy="603.4" fill="url(#A)" r="4"/><circle cx="527.5" cy="603.4" fill="#fdd835" r="3.6"/><path d="m524.8 604.4c0-2 1.6-3.5 3.6-3.5.9 0 1.7.4 2.4 1-.8-1.8-2.9-2.6-4.7-1.7-1.8.8-2.6 2.9-1.7 4.7.2.4.4.8.8 1.1-.3-.5-.4-1.1-.4-1.6z" fill="#fff" opacity=".2"/><circle cx="521.7" cy="599.8" fill="url(#B)" r="4"/><circle cx="521.7" cy="599.8" fill="#fdd835" r="3.6"/><path d="m519 600.9c0-2 1.6-3.5 3.6-3.5.9 0 1.7.4 2.4 1-.8-1.8-2.9-2.6-4.7-1.7-1.8.8-2.6 2.9-1.7 4.7.2.4.4.8.8 1.1-.3-.6-.4-1.1-.4-1.6z" fill="#fff" opacity=".2"/><circle cx="524.5" cy="608.3" fill="url(#C)" r="4"/><circle cx="524.5" cy="608.3" fill="#fdd835" r="3.6"/><path d="m521.8 609.3c0-2 1.6-3.5 3.6-3.5.9 0 1.7.4 2.4 1-.8-1.8-2.9-2.6-4.7-1.7-1.8.8-2.6 2.9-1.7 4.7.2.4.4.8.8 1.1-.3-.6-.4-1.1-.4-1.6z" fill="#fff" opacity=".2"/><circle cx="514.1" cy="601.8" fill="url(#D)" r="4"/><circle cx="514.1" cy="601.8" fill="#fdd835" r="3.6"/><path d="m511.5 602.8c0-2 1.6-3.5 3.6-3.5.9 0 1.7.4 2.4 1-.8-1.8-2.9-2.6-4.7-1.7-1.8.8-2.6 2.9-1.7 4.7.2.4.4.8.8 1.1-.3-.6-.4-1.1-.4-1.6z" fill="#fff" opacity=".2"/><circle cx="513.7" cy="590.5" fill="url(#E)" r="4"/><circle cx="513.7" cy="590.5" fill="#fdd835" r="3.6"/><path d="m511 591.5c0-2 1.6-3.5 3.6-3.5.9 0 1.7.4 2.4 1-.8-1.8-2.9-2.6-4.7-1.7-1.8.8-2.6 2.9-1.7 4.7.2.4.4.8.8 1.1-.3-.5-.4-1.1-.4-1.6z" fill="#fff" opacity=".2"/><circle cx="533.4" cy="596.3" fill="url(#F)" r="4"/><circle cx="533.4" cy="596.3" fill="#fdd835" r="3.6"/><path d="m530.7 597.3c0-2 1.6-3.5 3.6-3.5.9 0 1.7.4 2.4 1-.8-1.8-2.9-2.6-4.7-1.7-1.8.8-2.6 2.9-1.7 4.7.2.4.4.8.8 1.1-.3-.6-.4-1.1-.4-1.6z" fill="#fff" opacity=".2"/><circle cx="531.5" cy="603.8" fill="url(#G)" r="4"/><circle cx="531.5" cy="603.8" fill="#fdd835" r="3.6"/><path d="m528.8 604.9c0-2 1.6-3.5 3.6-3.5.9 0 1.7.4 2.4 1-.8-1.8-2.9-2.6-4.7-1.7-1.8.8-2.6 2.9-1.7 4.7.2.4.4.8.8 1.1-.3-.6-.4-1.1-.4-1.6z" fill="#fff" opacity=".2"/><circle cx="540.4" cy="602.3" fill="url(#H)" r="4"/><circle cx="540.4" cy="602.3" fill="#fdd835" r="3.6"/><path d="m537.7 603.4c0-2 1.6-3.5 3.6-3.5.9 0 1.7.4 2.4 1-.8-1.8-2.9-2.6-4.7-1.7-1.8.8-2.6 2.9-1.7 4.7.2.4.4.8.8 1.1-.3-.6-.4-1.1-.4-1.6z" fill="#fff" opacity=".2"/><circle cx="536.4" cy="606.1" fill="url(#I)" r="4"/><circle cx="536.4" cy="606.1" fill="#fdd835" r="3.6"/><path d="m533.7 607.1c0-2 1.6-3.5 3.6-3.5.9 0 1.7.4 2.4 1-.8-1.8-2.9-2.6-4.7-1.7-1.8.8-2.6 2.9-1.7 4.7.2.4.4.8.8 1.1-.3-.6-.4-1.1-.4-1.6z" fill="#fff" opacity=".2"/><circle cx="509.7" cy="596.3" fill="url(#J)" r="4"/><circle cx="509.7" cy="596.3" fill="#fdd835" r="3.6"/><path d="m507 597.3c0-2 1.6-3.5 3.6-3.5.9 0 1.7.4 2.4 1-.8-1.8-2.9-2.6-4.7-1.7-1.8.8-2.6 2.9-1.7 4.7.2.4.4.8.8 1.1-.3-.6-.4-1.1-.4-1.6z" fill="#fff" opacity=".2"/><circle cx="503.9" cy="611.4" fill="url(#K)" r="4"/><circle cx="503.9" cy="611.4" fill="#fbc02d" r="3.6"/><path d="m501.2 612.4c0-2 1.6-3.5 3.6-3.5.9 0 1.7.4 2.4 1-.8-1.8-2.9-2.6-4.7-1.7-1.8.8-2.6 2.9-1.7 4.7.2.4.4.8.8 1.1-.3-.5-.4-1-.4-1.6z" fill="#fff" opacity=".2"/><circle cx="494.9" cy="611.8" fill="url(#L)" r="4"/><circle cx="494.9" cy="611.8" fill="#fbc02d" r="3.6"/><path d="m492.2 612.9c0-2 1.6-3.5 3.6-3.5.9 0 1.7.4 2.4 1-.8-1.8-2.9-2.6-4.7-1.7-1.8.8-2.6 2.9-1.7 4.7.2.4.4.8.8 1.1-.3-.6-.4-1.1-.4-1.6z" fill="#fff" opacity=".2"/><circle cx="499.5" cy="609.3" fill="url(#M)" r="4"/><circle cx="499.5" cy="609.3" fill="#fbc02d" r="3.6"/><path d="m496.8 610.4c0-2 1.6-3.5 3.6-3.5.9 0 1.7.4 2.4 1-.8-1.8-2.9-2.6-4.7-1.7s-2.6 2.9-1.7 4.7c.2.4.4.8.8 1.1-.3-.6-.4-1.1-.4-1.6z" fill="#fff" opacity=".2"/><circle cx="519" cy="604.9" fill="url(#N)" r="4"/><circle cx="519" cy="604.9" fill="#fbc02d" r="3.6"/><path d="m516.4 605.9c0-2 1.6-3.5 3.6-3.5.9 0 1.7.4 2.4 1-.8-1.8-2.9-2.6-4.7-1.7-1.8.8-2.6 2.9-1.7 4.7.2.4.4.8.8 1.1-.3-.6-.5-1.1-.4-1.6z" fill="#fff" opacity=".2"/><circle cx="519" cy="595.4" fill="url(#O)" r="4"/><circle cx="519" cy="595.4" fill="#fbc02d" r="3.6"/><path d="m516.4 596.4c0-2 1.6-3.5 3.6-3.5.9 0 1.7.4 2.4 1-.8-1.8-2.9-2.6-4.7-1.7-1.8.8-2.6 2.9-1.7 4.7.2.4.4.8.8 1.1-.3-.5-.5-1.1-.4-1.6z" fill="#fff" opacity=".2"/><circle cx="523.5" cy="602.9" fill="url(#P)" r="4"/><circle cx="523.5" cy="602.9" fill="#fbc02d" r="3.6"/><path d="m520.8 604c0-2 1.6-3.5 3.6-3.5.9 0 1.7.4 2.4 1-.8-1.8-2.9-2.6-4.7-1.7-1.8.8-2.6 2.9-1.7 4.7.2.4.4.8.8 1.1-.3-.6-.4-1.1-.4-1.6z" fill="#fff" opacity=".2"/><circle cx="519.5" cy="587.8" fill="url(#Q)" r="4"/><circle cx="519.5" cy="587.8" fill="#fbc02d" r="3.6"/><path d="m516.8 588.9c0-2 1.6-3.5 3.6-3.5.9 0 1.7.4 2.4 1-.8-1.8-2.9-2.6-4.7-1.7-1.8.8-2.6 2.9-1.7 4.7.2.4.4.8.8 1.1-.3-.6-.4-1.1-.4-1.6z" fill="#fff" opacity=".2"/><circle cx="520.4" cy="591.8" fill="url(#R)" r="4"/><circle cx="520.4" cy="591.8" fill="#fbc02d" r="3.6"/><path d="m517.7 592.9c0-2 1.6-3.5 3.6-3.5.9 0 1.7.4 2.4 1-.8-1.8-2.9-2.6-4.7-1.7-1.8.8-2.6 2.9-1.7 4.7.2.4.4.8.8 1.1-.3-.6-.4-1.1-.4-1.6z" fill="#fff" opacity=".2"/><circle cx="525.1" cy="594.5" fill="url(#S)" r="4"/><circle cx="525.1" cy="594.5" fill="#fbc02d" r="3.6"/><path d="m522.4 595.5c0-2 1.6-3.5 3.6-3.5.9 0 1.7.4 2.4 1-.8-1.8-2.9-2.6-4.7-1.7-1.8.8-2.6 2.9-1.7 4.7.2.4.4.8.8 1.1-.3-.5-.4-1.1-.4-1.6z" fill="#fff" opacity=".2"/><circle cx="530" cy="593.8" fill="url(#T)" r="4"/><circle cx="530" cy="593.8" fill="#fbc02d" r="3.6"/><path d="m527.3 594.8c0-2 1.6-3.5 3.6-3.5.9 0 1.7.4 2.4 1-.8-1.8-2.9-2.6-4.7-1.9s-2.6 2.9-1.9 4.7c.2.5.5.9.9 1.3-.1-.6-.3-1.1-.3-1.6z" fill="#fff" opacity=".2"/><circle cx="528.7" cy="597.8" fill="url(#U)" r="4"/><circle cx="528.7" cy="597.8" fill="#fbc02d" r="3.6"/><path d="m526 598.8c0-2 1.6-3.5 3.6-3.5.9 0 1.7.4 2.4 1-.8-1.8-2.9-2.6-4.7-1.7-1.8.8-2.6 2.9-1.7 4.7.2.4.4.8.8 1.1-.3-.6-.4-1.1-.4-1.6z" fill="#fff" opacity=".2"/><circle cx="511.9" cy="592.6" fill="url(#V)" r="4"/><circle cx="511.9" cy="592.6" fill="#fbc02d" r="3.6"/><path d="m509.2 593.6c0-2 1.6-3.5 3.6-3.5.9 0 1.7.4 2.4 1-.8-1.8-2.9-2.6-4.7-1.7-1.8.8-2.6 2.9-1.7 4.7.2.4.4.8.8 1.1-.3-.6-.4-1.1-.4-1.6z" fill="#fff" opacity=".2"/><circle cx="500.4" cy="604.7" fill="url(#W)" r="4"/><circle cx="500.4" cy="604.7" fill="#fbc02d" r="3.6"/><path d="m497.7 605.8c0-2 1.6-3.5 3.6-3.5.9 0 1.7.4 2.4 1-.8-1.8-2.9-2.6-4.7-1.7-1.8.8-2.6 2.9-1.7 4.7.2.4.4.8.8 1.1-.3-.6-.4-1.1-.4-1.6z" fill="#fff" opacity=".2"/><circle cx="507.3" cy="598.1" fill="url(#X)" r="4"/><circle cx="507.3" cy="598.1" fill="#fbc02d" r="3.6"/><path d="m504.7 599.1c0-2 1.6-3.5 3.6-3.5.9 0 1.7.4 2.4 1-.8-1.8-2.9-2.6-4.7-1.7-1.8.8-2.6 2.9-1.7 4.7.2.4.4.8.8 1.1-.3-.6-.4-1.1-.4-1.6z" fill="#fff" opacity=".2"/><circle cx="493.1" cy="609.5" fill="url(#Y)" r="4"/><circle cx="493.1" cy="609.5" fill="#fbc02d" r="3.6"/><path d="m490.4 610.5c0-2 1.6-3.5 3.6-3.5.9 0 1.7.4 2.4 1-.8-1.8-2.9-2.6-4.7-1.7s-2.6 2.9-1.7 4.7c.2.4.4.8.8 1.1-.3-.6-.4-1.1-.4-1.6z" fill="#fff" opacity=".2"/><circle cx="531.5" cy="606.4" fill="url(#Z)" r="4"/><circle cx="531.5" cy="606.4" fill="#fbc02d" r="3.6"/><path d="m528.8 607.4c0-2 1.6-3.5 3.6-3.5.9 0 1.7.4 2.4 1-.8-1.8-2.9-2.6-4.7-1.7-1.8.8-2.6 2.9-1.7 4.7.2.4.4.8.8 1.1-.3-.6-.4-1.1-.4-1.6z" fill="#fff" opacity=".2"/><circle cx="513.5" cy="583.8" fill="url(#aa)" r="4"/><circle cx="513.5" cy="583.8" fill="#fbc02d" r="3.6"/><path d="m510.9 584.9c0-2 1.6-3.5 3.6-3.5.9 0 1.7.4 2.4 1-.8-1.8-2.9-2.6-4.7-1.7-1.8.8-2.6 2.9-1.7 4.7.2.4.4.8.8 1.1-.3-.6-.4-1.1-.4-1.6z" fill="#fff" opacity=".2"/><circle cx="506.3" cy="593" fill="url(#ab)" r="4"/><circle cx="506.3" cy="593" fill="#fbc02d" r="3.6"/><path d="m503.6 594.1c0-2 1.6-3.5 3.6-3.5.9 0 1.7.4 2.4 1-.8-1.8-2.9-2.6-4.7-1.7-1.8.8-2.6 2.9-1.7 4.7.2.4.4.8.8 1.1-.3-.6-.4-1.1-.4-1.6z" fill="#fff" opacity=".2"/><circle cx="500.5" cy="599.8" fill="url(#ac)" r="4"/><circle cx="500.5" cy="599.8" fill="#fbc02d" r="3.6"/><path d="m497.8 600.9c0-2 1.6-3.5 3.6-3.5.9 0 1.7.4 2.4 1-.8-1.8-2.9-2.6-4.7-1.7-1.8.8-2.6 2.9-1.7 4.7.2.4.4.8.8 1.1-.3-.6-.4-1.1-.4-1.6z" fill="#fff" opacity=".2"/><circle cx="504.7" cy="607.4" fill="url(#ad)" r="4"/><circle cx="504.7" cy="607.4" fill="#fbc02d" r="3.6"/><path d="m502 608.4c0-2 1.6-3.5 3.6-3.5.9 0 1.7.4 2.4 1-.8-1.8-2.9-2.6-4.7-1.7s-2.6 2.9-1.7 4.7c.2.4.4.8.8 1.1-.3-.5-.4-1.1-.4-1.6z" fill="#fff" opacity=".2"/><circle cx="510.3" cy="602.3" fill="url(#ae)" r="4"/><circle cx="510.3" cy="602.3" fill="#fbc02d" r="3.6"/><path d="m507.6 603.4c0-2 1.6-3.5 3.6-3.5.9 0 1.7.4 2.4 1-.8-1.8-2.9-2.6-4.7-1.7-1.8.8-2.6 2.9-1.7 4.7.2.4.4.8.8 1.1-.3-.6-.4-1.1-.4-1.6z" fill="#fff" opacity=".2"/><circle cx="513.2" cy="607.4" fill="url(#af)" r="4"/><circle cx="513.2" cy="607.4" fill="#fbc02d" r="3.6"/><path d="m510.6 608.4c0-2 1.6-3.5 3.6-3.5.9 0 1.7.4 2.4 1-.8-1.8-2.9-2.6-4.7-1.7-1.8.8-2.6 2.9-1.7 4.7.2.4.4.8.8 1.1-.3-.5-.4-1.1-.4-1.6z" fill="#fff" opacity=".2"/><circle cx="543.9" cy="611.8" fill="url(#ag)" r="4"/><circle cx="543.9" cy="611.8" fill="#fbc02d" r="3.6"/><path d="m541.3 612.9c0-2 1.6-3.5 3.6-3.5.9 0 1.7.4 2.4 1-.8-1.8-2.9-2.6-4.7-1.7-1.8.8-2.6 2.9-1.7 4.7.2.4.4.8.8 1.1-.3-.6-.4-1.1-.4-1.6z" fill="#fff" opacity=".2"/><circle cx="538.3" cy="610.9" fill="url(#ah)" r="4"/><circle cx="538.3" cy="610.9" fill="#fbc02d" r="3.6"/><path d="m535.6 612c0-2 1.6-3.5 3.6-3.5.9 0 1.7.4 2.4 1-.8-1.8-2.9-2.6-4.7-1.7-1.8.8-2.6 2.9-1.7 4.7.2.4.4.8.8 1.1-.3-.6-.4-1.1-.4-1.6z" fill="#fff" opacity=".2"/><circle cx="527.5" cy="611.4" fill="url(#ai)" r="4"/><circle cx="527.5" cy="611.4" fill="#fbc02d" r="3.6"/><circle cx="528.2" cy="607.3" fill="#fbc02d" r="3.6"/><path d="m524.8 612.4c0-2 1.6-3.5 3.6-3.5.9 0 1.7.4 2.4 1-.8-1.8-2.9-2.6-4.7-1.7-1.8.8-2.6 2.9-1.7 4.7.2.4.4.8.8 1.1-.3-.5-.4-1-.4-1.6z" fill="#fff" opacity=".2"/><circle cx="515.5" cy="611.8" fill="url(#aj)" r="4"/><circle cx="515.5" cy="611.8" fill="#fbc02d" r="3.6"/><path d="m512.8 612.9c0-2 1.6-3.5 3.6-3.5.9 0 1.7.4 2.4 1-.8-1.8-2.9-2.6-4.7-1.7-1.8.8-2.6 2.9-1.7 4.7.2.4.4.8.8 1.1-.3-.6-.4-1.1-.4-1.6z" fill="#fff" opacity=".2"/><circle cx="514.3" cy="595.8" fill="url(#ak)" r="4"/><circle cx="514.3" cy="595.8" fill="#fdd835" r="3.6"/><path d="m511.6 596.9c0-2 1.6-3.5 3.6-3.5.9 0 1.7.4 2.4 1-.8-1.8-2.9-2.6-4.7-1.7-1.8.8-2.6 2.9-1.7 4.7.2.4.4.8.8 1.1-.3-.6-.4-1.1-.4-1.6z" fill="#fff" opacity=".2"/><circle cx="518.3" cy="600.9" fill="url(#al)" r="4"/><circle cx="518.3" cy="600.9" fill="#fdd835" r="3.6"/><path d="m515.6 601.9c0-2 1.6-3.5 3.6-3.5.9 0 1.7.4 2.4 1-.8-1.8-2.9-2.6-4.7-1.7-1.8.8-2.6 2.9-1.7 4.7.2.4.4.8.8 1.1-.3-.6-.4-1.1-.4-1.6z" fill="#fff" opacity=".2"/><circle cx="511.6" cy="588.6" fill="url(#am)" r="4"/><circle cx="511.6" cy="588.6" fill="#fdd835" r="3.6"/><path d="m508.9 589.6c0-2 1.6-3.5 3.6-3.5.9 0 1.7.4 2.4 1-.8-1.8-2.9-2.6-4.7-1.7-1.8.8-2.6 2.9-1.7 4.7.2.4.4.8.8 1.1-.3-.6-.4-1.1-.4-1.6z" fill="#fff" opacity=".2"/><circle cx="516.1" cy="589" fill="url(#an)" r="4"/><circle cx="516.1" cy="589" fill="#fdd835" r="3.6"/><path d="m513.4 590.1c0-2 1.6-3.5 3.6-3.5.9 0 1.7.4 2.4 1-.8-1.8-2.9-2.6-4.7-1.7-1.8.8-2.6 2.9-1.7 4.7.2.4.4.8.8 1.1-.3-.6-.4-1.1-.4-1.6z" fill="#fff" opacity=".2"/><circle cx="523.5" cy="591.1" fill="url(#ao)" r="4"/><circle cx="523.5" cy="591.1" fill="#fdd835" r="3.6"/><path d="m520.8 592.1c0-2 1.6-3.5 3.6-3.5.9 0 1.7.4 2.4 1-.8-1.8-2.9-2.6-4.7-1.7-1.8.8-2.6 2.9-1.7 4.7.2.4.4.8.8 1.1-.3-.5-.4-1.1-.4-1.6z" fill="#fff" opacity=".2"/><circle cx="503.5" cy="597.6" fill="url(#ap)" r="4"/><circle cx="503.5" cy="597.6" fill="#fdd835" r="3.6"/><path d="m500.8 598.6c0-2 1.6-3.5 3.6-3.5.9 0 1.7.4 2.4 1-.8-1.8-2.9-2.6-4.7-1.7-1.8.8-2.6 2.9-1.7 4.7.2.4.4.8.8 1.1-.3-.5-.4-1-.4-1.6z" fill="#fff" opacity=".2"/><circle cx="506.3" cy="602.8" fill="url(#aq)" r="4"/><circle cx="506.3" cy="602.8" fill="#fdd835" r="3.6"/><path d="m503.6 603.8c0-2 1.6-3.5 3.6-3.5.9 0 1.7.4 2.4 1-.8-1.8-2.9-2.6-4.7-1.7s-2.6 2.9-1.7 4.7c.2.4.4.8.8 1.1-.3-.5-.4-1-.4-1.6z" fill="#fff" opacity=".2"/><circle cx="508.2" cy="608.9" fill="url(#ar)" r="4"/><circle cx="508.2" cy="608.9" fill="#fdd835" r="3.6"/><path d="m505.5 609.9c0-2 1.6-3.5 3.6-3.5.9 0 1.7.4 2.4 1-.8-1.8-2.9-2.6-4.7-1.7s-2.6 2.9-1.7 4.7c.2.4.4.8.8 1.1-.3-.5-.4-1.1-.4-1.6z" fill="#fff" opacity=".2"/><circle cx="519.5" cy="606.9" fill="url(#as)" r="4"/><circle cx="519.5" cy="606.9" fill="#fdd835" r="3.6"/><path d="m516.8 608c0-2 1.6-3.5 3.6-3.5.9 0 1.7.4 2.4 1-.8-1.8-2.9-2.6-4.7-1.7-1.8.8-2.6 2.9-1.7 4.7.2.4.4.8.8 1.1-.3-.6-.4-1.1-.4-1.6z" fill="#fff" opacity=".2"/><circle cx="531" cy="603.4" fill="url(#at)" r="4"/><circle cx="531" cy="603.4" fill="#fdd835" r="3.6"/><path d="m528.4 604.4c0-2 1.6-3.5 3.6-3.5.9 0 1.7.4 2.4 1-.8-1.8-2.9-2.6-4.7-1.7-1.8.8-2.6 2.9-1.7 4.7.2.4.4.8.8 1.1-.3-.5-.4-1.1-.4-1.6z" fill="#fff" opacity=".2"/><circle cx="534.7" cy="600.3" fill="url(#au)" r="4"/><circle cx="534.7" cy="600.3" fill="#fdd835" r="3.6"/><circle cx="525.7" cy="600" fill="#fdd835" r="3.6"/><path d="m532.1 601.3c0-2 1.6-3.5 3.6-3.5.9 0 1.7.4 2.4 1-.8-1.8-2.9-2.6-4.7-1.7-1.8.8-2.6 2.9-1.7 4.7.2.4.4.8.8 1.1-.3-.6-.4-1.1-.4-1.6z" fill="#fff" opacity=".2"/><circle cx="540.5" cy="607.4" fill="url(#av)" r="4"/><circle cx="540.5" cy="607.4" fill="#fdd835" r="3.6"/><path d="m537.9 608.4c0-2 1.6-3.5 3.6-3.5.9 0 1.7.4 2.4 1-.8-1.8-2.9-2.6-4.7-1.7-1.8.8-2.6 2.9-1.7 4.7.2.4.4.8.8 1.1-.3-.5-.5-1.1-.4-1.6z" fill="#fff" opacity=".2"/><circle cx="521.8" cy="612.3" fill="url(#aw)" r="4"/><circle cx="521.8" cy="612.3" fill="#fdd835" r="3.6"/><path d="m519.2 613.3c0-2 1.6-3.5 3.6-3.5.9 0 1.7.4 2.4 1-.8-1.8-2.9-2.6-4.7-1.7-1.8.8-2.6 2.9-1.7 4.7.2.4.4.8.8 1.1-.3-.6-.4-1.1-.4-1.6z" fill="#fff" opacity=".2"/><circle cx="501.2" cy="610.5" fill="url(#ax)" r="4"/><circle cx="501.2" cy="610.5" fill="#fdd835" r="3.6"/><path d="m498.6 611.6c0-2 1.6-3.5 3.6-3.5.9 0 1.7.4 2.4 1-.8-1.8-2.9-2.6-4.7-1.7-1.8.8-2.6 2.9-1.7 4.7.2.4.4.8.8 1.1-.3-.6-.4-1.1-.4-1.6z" fill="#fff" opacity=".2"/><circle cx="495.4" cy="605.3" fill="url(#ay)" r="4"/><circle cx="495.4" cy="605.3" fill="#fdd835" r="3.6"/><path d="m492.8 606.4c0-2 1.6-3.5 3.6-3.5.9 0 1.7.4 2.4 1-.8-1.8-2.9-2.6-4.7-1.7s-2.6 2.9-1.7 4.7c.2.4.4.8.8 1.1-.3-.6-.4-1.1-.4-1.6z" fill="#fff" opacity=".2"/><circle cx="503" cy="602.8" fill="url(#az)" r="4"/><circle cx="503" cy="602.8" fill="#fdd835" r="3.6"/><path d="m500.4 603.8c0-2 1.6-3.5 3.6-3.5.9 0 1.7.4 2.4 1-.7-1.8-2.8-2.7-4.6-1.9-1.8.7-2.7 2.8-1.9 4.6.2.5.5.9.9 1.3-.3-.5-.4-1-.4-1.5z" fill="#fff" opacity=".2"/><circle cx="498.9" cy="596.7" fill="url(#aA)" r="4"/><circle cx="498.9" cy="596.7" fill="#fdd835" r="3.6"/><path d="m496.2 597.8c0-2 1.6-3.5 3.6-3.5.9 0 1.7.4 2.4 1-.8-1.8-2.9-2.6-4.7-1.7-1.8.8-2.6 2.9-1.7 4.7.2.4.4.8.8 1.1-.3-.6-.4-1.1-.4-1.6z" fill="#fff" opacity=".2"/><circle cx="502.4" cy="591.1" fill="url(#aB)" r="4"/><circle cx="502.4" cy="591.1" fill="#fdd835" r="3.6"/><path d="m499.7 592.1c0-2 1.6-3.5 3.6-3.5.9 0 1.7.4 2.4 1-.8-1.8-2.9-2.6-4.7-1.7-1.8.8-2.6 2.9-1.7 4.7.2.4.4.8.8 1.1-.3-.5-.4-1.1-.4-1.6z" fill="#fff" opacity=".2"/><circle cx="533.4" cy="611.8" fill="url(#aC)" r="4"/><circle cx="533.4" cy="611.8" fill="#fdd835" r="3.6"/><path d="m530.7 612.9c0-2 1.6-3.5 3.6-3.5.9 0 1.7.4 2.4 1-.8-1.8-2.9-2.6-4.7-1.7-1.8.8-2.6 2.9-1.7 4.7.2.4.4.8.8 1.1-.3-.6-.4-1.1-.4-1.6z" fill="#fff" opacity=".2"/><path d="m538.9 678h-44.2l-11.3-66.2h66.9z" fill="url(#aD)"/><path d="m538.3 677.1h-42.7l-10.8-64.2h64.5z" fill="#fff"/><path d="m484.8 612.9h11l10.3 64.2h-10.7z" fill="#2ebf91"/><path d="m549.3 612.9h-11.1l-10.7 64.2h10.8z" fill="#2ebf91"/><path d="m511.5 612.9h10.7v64.2h-10.7z" fill="#2ebf91"/><circle cx="496.8" cy="600.9" fill="url(#aE)" r="4"/><circle cx="496.8" cy="600.9" fill="#fbc02d" r="3.6"/><path d="m494.1 601.9c0-2 1.6-3.5 3.6-3.5.9 0 1.7.4 2.4 1-.8-1.8-2.9-2.6-4.7-1.7-1.8.8-2.6 2.9-1.7 4.7.2.4.4.8.8 1.1-.3-.6-.4-1.1-.4-1.6z" fill="#fff" opacity=".2"/><circle cx="506.9" cy="589.6" fill="url(#aF)" r="4"/><circle cx="506.9" cy="589.6" fill="#fbc02d" r="3.6"/><path d="m504.2 590.6c0-2 1.6-3.5 3.6-3.5.9 0 1.7.4 2.4 1-.8-1.8-2.9-2.6-4.7-1.7-1.8.8-2.6 2.9-1.7 4.7.2.4.4.8.8 1.1-.3-.5-.4-1-.4-1.6z" fill="#fff" opacity=".2"/><circle cx="492.8" cy="606.9" fill="url(#aG)" r="4"/><circle cx="492.8" cy="606.9" fill="#fbc02d" r="3.6"/><path d="m490.1 608c0-2 1.6-3.5 3.6-3.5.9 0 1.7.4 2.4 1-.8-1.8-2.9-2.6-4.7-1.7-1.8.8-2.6 2.9-1.7 4.7.2.4.4.8.8 1.1-.3-.6-.4-1.1-.4-1.6z" fill="#fff" opacity=".2"/><circle cx="488" cy="579.8" fill="url(#aH)" r="4"/><circle cx="488" cy="579.8" fill="#fbc02d" r="3.6"/><path d="m485.3 580.8c0-2 1.6-3.5 3.6-3.5.9 0 1.7.4 2.4 1-.8-1.8-2.9-2.7-4.7-1.9s-2.7 2.9-1.9 4.7c.2.5.5.9.9 1.3-.1-.6-.3-1.1-.3-1.6z" fill="#fff" opacity=".2"/><circle cx="504.8" cy="556.8" fill="url(#aI)" r="4"/><circle cx="504.8" cy="556.8" fill="#fbc02d" r="3.6"/><path d="m502.2 557.8c0-2 1.6-3.5 3.6-3.5.9 0 1.7.4 2.4 1-.8-1.8-2.9-2.6-4.7-1.7-1.8.8-2.6 2.9-1.7 4.7.2.4.4.8.8 1.1-.3-.5-.5-1-.4-1.6z" fill="#fff" opacity=".2"/><circle cx="519.4" cy="539.4" fill="url(#aJ)" r="4"/><circle cx="519.4" cy="539.4" fill="#fdd835" r="3.6"/><path d="m516.7 540.4c0-2 1.6-3.5 3.6-3.5.9 0 1.7.4 2.4 1-.8-1.8-2.9-2.6-4.7-1.7-1.8.8-2.6 2.9-1.7 4.7.2.4.4.8.8 1.1-.3-.5-.4-1.1-.4-1.6z" fill="#fff" opacity=".2"/><circle cx="547.5" cy="576.8" fill="url(#aK)" r="4"/><circle cx="547.5" cy="576.8" fill="#fdd835" r="3.6"/><path d="m544.8 577.9c0-2 1.6-3.5 3.6-3.5.9 0 1.7.4 2.4 1-.8-1.8-2.9-2.6-4.7-1.7-1.8.8-2.6 2.9-1.7 4.7.2.4.4.8.8 1.1-.3-.6-.4-1.1-.4-1.6z" fill="#fff" opacity=".2"/><circle cx="569.9" cy="605.3" fill="url(#aL)" r="4"/><circle cx="569.9" cy="605.3" fill="#fdd835" r="3.6"/><path d="m567.2 606.3c0-2 1.6-3.5 3.6-3.5.9 0 1.7.4 2.4 1-.8-1.8-2.9-2.6-4.7-1.7-1.8.8-2.6 2.9-1.7 4.7.2.4.4.8.8 1.1-.3-.6-.4-1.1-.4-1.6z" fill="#fff" opacity=".2"/><circle cx="486.8" cy="674.7" fill="url(#aM)" r="4"/><circle cx="486.8" cy="674.7" fill="#fbc02d" r="3.6"/><path d="m484.2 675.8c0-2 1.6-3.5 3.6-3.5.9 0 1.7.4 2.4 1-.8-1.8-2.9-2.6-4.7-1.7s-2.6 2.9-1.7 4.7c.2.4.4.8.8 1.1-.3-.6-.5-1.1-.4-1.6z" fill="#fff" opacity=".2"/><circle cx="481.3" cy="667.5" fill="url(#aN)" r="4"/><circle cx="481.3" cy="667.5" fill="#fdd835" r="3.6"/><path d="m478.7 668.5c0-2 1.6-3.5 3.6-3.5.9 0 1.7.4 2.4 1-.8-1.8-2.9-2.6-4.7-1.7-1.8.8-2.6 2.9-1.7 4.7.2.4.4.8.8 1.1-.3-.6-.4-1.1-.4-1.6z" fill="#fff" opacity=".2"/><circle cx="477.8" cy="628.3" fill="url(#aO)" r="4"/><circle cx="477.8" cy="628.3" fill="#fbc02d" r="3.6"/><path d="m475.2 629.3c0-2 1.6-3.5 3.6-3.5.9 0 1.7.4 2.4 1-.8-1.8-2.9-2.6-4.7-1.7s-2.6 2.9-1.7 4.7c.2.4.4.8.8 1.1-.3-.6-.5-1.1-.4-1.6z" fill="#fff" opacity=".2"/><circle cx="553.3" cy="671.5" fill="url(#aP)" r="4"/><circle cx="553.3" cy="671.5" fill="#fbc02d" r="3.6"/><path d="m550.7 672.6c0-2 1.6-3.5 3.6-3.5.9 0 1.7.4 2.4 1-.8-1.8-2.9-2.6-4.7-1.7-1.8.8-2.6 2.9-1.7 4.7.2.4.4.8.8 1.1-.3-.6-.4-1.1-.4-1.6z" fill="#fff" opacity=".2"/><circle cx="560.6" cy="666.9" fill="url(#aQ)" r="4"/><circle cx="560.6" cy="666.9" fill="#fbc02d" r="3.6"/><path d="m557.9 667.9c0-2 1.6-3.5 3.6-3.5.9 0 1.7.4 2.4 1-.8-1.8-2.9-2.6-4.7-1.7-1.8.8-2.6 2.9-1.7 4.7.2.4.4.8.8 1.1-.3-.6-.4-1.1-.4-1.6z" fill="#fff" opacity=".2"/><circle cx="561.4" cy="672.4" fill="url(#aR)" r="4"/><circle cx="561.4" cy="672.4" fill="#fdd835" r="3.6"/><path d="m558.8 673.4c0-2 1.6-3.5 3.6-3.5.9 0 1.7.4 2.4 1-.8-1.8-2.9-2.6-4.7-1.7-1.8.8-2.6 2.9-1.7 4.7.2.4.4.8.8 1.1-.3-.5-.4-1.1-.4-1.6z" fill="#fff" opacity=".2"/><circle cx="546.4" cy="672.4" fill="url(#aS)" r="4"/><circle cx="546.4" cy="672.4" fill="#fdd835" r="3.6"/><path d="m543.7 673.4c0-2 1.6-3.5 3.6-3.5.9 0 1.7.4 2.4 1-.8-1.8-2.9-2.6-4.7-1.7-1.8.8-2.6 2.9-1.7 4.7.2.4.4.8.8 1.1-.3-.5-.4-1.1-.4-1.6z" fill="#fff" opacity=".2"/><text font-family="'Lato-Light'" font-size="39.81" opacity=".7" transform="translate(825.7489 610.1533)">9</text><path d="m957.3 524.5c-21.7-18.7-45.3-34.9-63.4-46.5.9-2.8 1.5-5.7 2-8.6h.2c2.9 0 5.3-4.5 5.3-10 .1-2.9-.7-5.7-2.3-8.1.2-2.1.3-4.2.3-6.4 0-5.4-.7-10.7-2-15.9.6-1.9 1-3.9 1.1-5.9 0-1.6.2-3.2.6-4.8.6-1.5 1.4-2.8 2.4-4.1 4.5-7 5.3-15.7 2.3-23.4-1.1-2.6-2.8-5.3-5.5-6.2-.7-.1-1.4-.4-2-.8-.7-.7-1-1.7-1-2.6-.2-3.3.8-6.6.9-9.9s-.9-7-3.8-8.7c-1.8-.8-3.7-1.2-5.6-1-4.1.1-8.3.7-12.3 1.7-6.3 1.6-13.3 4.4-18.9 1-1.5-1.1-2.9-2.2-4.3-3.5-7.3-5.7-19.1-4.2-24.7 3.2-2.8 3.7-4.2 8.6-8.1 11.1-7.2 4.5-17.9-2-24.5 3.4-4.9 4-4 12-8 17s-9.3 7.2-9.8 14.5c-.3 2.7.4 5.4 2 7.6-4.1 8.6-6.2 17.9-6.2 27.4 0 2.2.1 4.3.3 6.4-1.6 2.4-2.4 5.3-2.3 8.2 0 5.5 2.4 10 5.3 10h.2c.5 3.1 1.2 6.1 2.2 9-18 11.6-41.3 27.7-62.7 46.1 6.6 39.8 59.7 65 59.7 65v79.6l-9 1.6c-11.9 2.2-19.8 13.7-17.6 25.7l32.7 175.3c.7 3.6 4.2 6 7.8 5.3l5.9-1.1v3.2c-6.3 3-10.6 4.4-10.6 11.8v2.7h38.5v-2.7c0-6.9-3.7-7.9-9.3-11.1v-7.3l5.4-1c3.6-.7 6-4.2 5.3-7.8l-30.6-164.2h84.9l-30.7 164.2c-.7 3.6 1.7 7.1 5.3 7.8l5.4 1v7.3c-5.5 3.2-9.3 4.3-9.3 11.1v2.7h38.5v-2.7c0-7.4-4.3-8.8-10.6-11.8v-3.2l5.9 1.2c3.6.7 7.1-1.7 7.8-5.3l33.1-177.6c2-10.7-5.1-21.1-15.8-23.1l-11.1-2v-79.7c0-.6 0-1.3 0-1.9l.9 1.9c.2 0 53.2-25.3 59.8-65.1zm-193.3 8 34.9-24.2c6.6 5 14.1 8.6 22.1 10.5v11.5c-9.2 2.3-17.7 6.6-24.8 12.7zm86.3-2.2v-11.5c8.2-2 15.9-5.7 22.5-10.8l35.4 24.5-32.2 10.5.6 1.2c-7.5-6.7-16.5-11.5-26.3-13.9z" fill="url(#aT)" opacity=".7"/><path d="m796.5 852.1h17.7v24h-17.7z" fill="#fdb797"/><path d="m857.2 852.1h17.7v24h-17.7z" fill="#fdb797"/><path d="m777.5 654.6h116.5v41.8h-116.5z" fill="#4d8af0"/><path d="m777.5 654.6h116.5v41.8h-116.5z" opacity=".05"/><path d="m777.5 662.2s43.5 10.1 58.2 10.1 58.2-10.1 58.2-10.1v-6.3h-116.4z" opacity=".1"/><path d="m894 661s-43.5 10.1-58.3 10.1-58.2-10.1-58.2-10.1v-69.7c0-32.1 26.1-58.2 58.2-58.2 32.2 0 58.2 26 58.3 58.2z" fill="#3ad29f"/><path d="m821.8 504h27.8v34.6c0 6.1-4.9 11-11 11h-5.8c-6.1 0-11-4.9-11-11z" fill="#fdb797"/><path d="m820.6 860.2-30.9 5.8c-2.8.5-5.5-1.3-6-4.1l-32.2-172.3c-1.7-9.3 4.4-18.2 13.6-19.9l19.2-3.6c2.8-.5 5.5 1.3 6 4.1l34.3 184c.6 2.8-1.3 5.4-4 6z" fill="#4d8af0"/><path d="m850.9 860.2 30.9 5.8c2.8.5 5.5-1.3 6-4.1l32.5-173.9c1.6-8.3-3.9-16.4-12.3-17.9l-20.9-3.9c-2.8-.5-5.5 1.3-6 4.1l-34.3 184c-.5 2.7 1.3 5.4 4.1 5.9z" fill="#4d8af0"/><path d="m821.8 525.1c9.1 2.3 18.7 2.3 27.8 0v-19.8h-27.8z" opacity=".1"/><circle cx="835.7" cy="453.4" fill="#ffcf51" r="60.8"/><circle cx="835.7" cy="467.3" fill="#fdb797" r="58.2"/><ellipse cx="893.3" cy="467.3" fill="#fdb797" rx="5.1" ry="9.5"/><ellipse cx="778.1" cy="467.3" fill="#fdb797" rx="5.1" ry="9.5"/><path d="m800.7 866h8c7.9 0 14.4 6.4 14.4 14.4v5.9h-36.8v-5.9c0-7.9 6.5-14.4 14.4-14.4z" fill="#333"/><path d="m862.8 866h8c7.9 0 14.4 6.4 14.4 14.4v5.9h-36.8v-5.9c0-7.9 6.4-14.4 14.4-14.4-.1 0-.1 0 0 0z" fill="#333"/><path d="m782.6 435.6s-2.5 16.5 11.4 7.6 62-5.1 77.2 7.6 20.3 2.5 22.8 0-27.4-44.8-44.3-48.1c-45.6-8.8-67.1 32.9-67.1 32.9z" opacity=".1"/><path d="m782.6 434.4s-2.5 16.5 11.4 7.6 62-5.1 77.2 7.6 20.3 2.5 22.8 0-27.4-44.8-44.3-48.1c-45.6-8.9-67.1 32.9-67.1 32.9z" fill="#ffcf51"/><path d="m788.3 406.1c3.8-4.7 3-12.4 7.7-16.2 6.3-5.1 16.6 1.1 23.4-3.2 3.7-2.4 5.1-7 7.8-10.5 5.3-7 16.6-8.5 23.5-3.1 1.3 1.2 2.7 2.3 4.1 3.3 5.3 3.2 12 .6 18-.9 3.8-1 7.8-1.5 11.7-1.6 1.9-.2 3.7.2 5.4 1 2.7 1.6 3.7 5.1 3.6 8.3s-1 6.3-.9 9.4c-.1.9.3 1.8.9 2.5.6.4 1.2.6 1.9.8 2.6.9 4.2 3.4 5.3 5.9 2.9 7.4 2.1 15.7-2.2 22.4-.9 1.2-1.7 2.5-2.3 3.9-.4 1.5-.6 3-.5 4.6-.3 5.4-2.6 11.2-7.5 13.5-6.3 2.9-13.4-1.1-19.7-4.2-14.1-7-30.1-9.5-45.8-11.1-7-.8-14.1-1.3-21.2-1.3-5.3.1-12.4 2.3-17.4.2-4-1.7-5.4-5.5-5.1-9.7.5-7.1 5.4-9.2 9.3-14z" fill="#ffcf51"/><path d="m798.1 546.9-30.7-10 62-43-19-26.6s-48.5 26.5-89.9 62c6.3 38 57 62 57 62z" fill="#3ad29f"/><path d="m874.2 546.9 30.7-10-62-43 19-26.6s48.5 26.5 89.9 62c-6.3 38-57 62-57 62z" fill="#3ad29f"/><path d="m811.7 468.6s31.6-22.8 39.2-8.9-20.2 35.4-20.2 35.4z" opacity=".1"/><path d="m810.4 467.3s31.6-22.8 39.2-8.9-20.3 35.4-20.3 35.4z" fill="#fdb797"/><path d="m810.4 467.3s31.6-22.8 39.2-8.9-20.3 35.4-20.3 35.4z" opacity=".02"/><path d="m859.8 468.6s-31.6-22.8-39.2-8.9 20.3 35.4 20.3 35.4z" opacity=".1"/><path d="m861 467.3s-31.6-22.8-39.2-8.9 20.3 35.4 20.3 35.4z" fill="#fdb797"/><path d="m861 467.3s-31.6-22.8-39.2-8.9 20.3 35.4 20.3 35.4z" opacity=".02"/><path d="m770.9 561-2.5-6-26.6 10.9c-1.2.5-2 1.7-2 3v28.8l7.7.9v-27.4z" fill="url(#aU)"/><path d="m769.6 560.9-1.9-4.5-24.9 10.2c-1.2.5-1.9 1.6-1.9 2.8v26.9h4.9v-25.6z" fill="#f2f2f2"/><g clip-path="url(#aV)" fill="#2ebf91"><path d="m761 551.4h5.4v17h-5.4z"/><path d="m752.5 555h5.4v17h-5.4z"/><path d="m749.6 569.5-3.8 1.1-1.5-18.1h5.3z"/><path d="m735.8 571.5h17v5.4h-17z"/><path d="m735.8 578.9h17v5.4h-17z"/><path d="m735.8 586.3h17v5.4h-17z"/></g><path d="m774.2 591.6h-59.6v9.5h4l8.3 76.1h35.7l7.3-76.6h4.3z" fill="url(#aW)"/><path d="m761 675.7h-32.8l-8.1-80.5h48.1z" fill="#2ebf91"/><path d="m716.8 593.9h55v5.4h-55z" fill="#2ebf91"/><circle cx="744.3" cy="631" fill="url(#aX)" r="13.6"/><circle cx="744.3" cy="631" fill="#fff" r="12.5"/><path d="m885.9 242.6c-3.8-2.1-8.3-2.2-12.2-.3l.5-1c3.5-6.5 1.1-14.6-5.4-18.2-6.5-3.5-14.6-1-18.1 5.5l-4.6 8.4 9.4-17.4c3.2-5.9 1-13.3-4.9-16.4l-2.3-1.2c-5.9-3.2-13.3-1-16.4 4.9l22.1-40.8c5.1-9.4 1.6-21.2-7.8-26.3l-1.5-.8c-6.5-3.6-14.6-1.2-18.2 5.3l-34.4 63.4-53.6 98.8 52.2 28.3c25.7 14 57.9 4.5 71.9-21.2v-.1l19.2-35.4 9.4-17.4c3.6-6.4 1.2-14.6-5.3-18.1z" fill="url(#aY)" opacity=".7"/><g fill="#2ebf91"><path d="m800.1 335.8-58.6-31.8 51.6-95 95.1 51.6-31.8 58.6c-11 20.1-36.2 27.6-56.3 16.6z"/><path d="m879.4 276.7-22.7-12.3 10.2-18.9c2.8-5.1 9.1-7 14.2-4.2l4.2 2.3c5.1 2.8 7 9.1 4.2 14.2z"/><path d="m862.9 258-22.7-12.3 10.2-18.9c2.8-5.1 9.1-7 14.2-4.2l4.2 2.3c5.1 2.8 7 9.1 4.2 14.2z"/><path d="m844.4 238.2-22.7-12.3 10.7-19.7c2.5-4.6 8.3-6.3 12.9-3.8l6 3.2c4.6 2.5 6.3 8.3 3.8 12.9z"/><path d="m821.7 225.9-29.2-15.8 34.9-64.2c2.8-5.1 9.1-7 14.2-4.2l6.6 3.6c7.4 4 10.1 13.2 6.1 20.6z"/><path d="m850.1 306.4-2.4-1.3c-2.9-1.6-4-5.2-2.4-8.1l23.6-43.5c1.6-2.9 5.2-4 8.1-2.4l2.4 1.3c2.9 1.6 4 5.2 2.4 8.1l-23.6 43.5c-1.5 2.9-5.1 3.9-8.1 2.4z" stroke="#fff" stroke-miterlimit="10"/><path d="m834.3 286.6-2.4-1.3c-2.9-1.6-4-5.2-2.4-8.1l23.6-43.5c1.6-2.9 5.2-4 8.1-2.4l2.4 1.3c2.9 1.6 4 5.2 2.4 8.1l-23.6 43.5c-1.5 2.9-5.2 4-8.1 2.4z" stroke="#fff" stroke-miterlimit="10"/><path d="m816.9 264.5-2.4-1.3c-2.9-1.6-4-5.2-2.4-8.1l23.6-43.5c1.6-2.9 5.2-4 8.1-2.4l2.4 1.3c2.9 1.6 4 5.2 2.4 8.1l-23.6 43.5c-1.5 2.9-5.2 4-8.1 2.4z" stroke="#fff" stroke-miterlimit="10"/><path d="m810.9 213.7-2.4-1.3c-2.9-1.6-4-5.2-2.4-8.1l23.6-43.5c1.6-2.9 5.2-4 8.1-2.4l2.4 1.3c2.9 1.6 4 5.2 2.4 8.1l-23.5 43.5c-1.6 2.9-5.3 4-8.2 2.4z" stroke="#fff" stroke-miterlimit="10"/><path d="m784.6 305.7s19.1-12-.5-35.2l39.2-20.7s8.3-17.9-17.7-13.8-24.5 9.1-24.5 9.1" stroke="#fff" stroke-miterlimit="10"/></g><g fill="#fdfffe"><path d="m375.9 549.4 3.9 7.8c2.1 4.1 4.1 8.1 6.1 12.3-6.4-3.6-12.9-7.2-19.3-10.8 0-.3.3-.4.4-.5 2.7-2.7 5.5-5.5 8.2-8.2.2-.2.4-.3.5-.6z"/><path d="m387.3 583.3c1.7-1.1 3.5-2.1 5.2-3.2.8-.5 1.7-1 2.5-1.6.3-.2.4-.2.5.2 1 3.9 2 7.8 3 11.7.1.3.2.6-.4.5-7.2-.3-14.4-.6-21.6-.9 0 0 0 0-.1 0 .1-.3.3-.3.5-.4 3.1-1.9 6.1-3.8 9.2-5.7.5-.3.8-.6.7-1.3-.2-3.3-.3-6.6-.4-9.8-.1-3.7-.3-7.4-.4-11.1 0-.9 0-.9.8-.7 3.7 1 7.3 1.9 11 2.8.6.2.6.3.3.8-3.6 5.9-7.2 11.9-10.8 17.8-.2.3-.3.5-.5.8.4 0 .5.1.5.1z"/><path d="m352 562.3c7.4.4 14.8.8 22.2 1.2-.1.3-.4.4-.6.5-5.9 3.6-11.9 7.1-17.8 10.7-.5.3-.7.4-.8-.3-.9-3.8-1.9-7.7-2.8-11.5-.2-.2-.2-.4-.2-.6z"/><path d="m374.3 604.3c-3.6-6.7-7.1-13.3-10.7-20.1.4.2.5.3.7.4 6.1 3.3 12.2 6.6 18.4 9.9.5.3.6.4.2.9-2.7 2.7-5.4 5.5-8.1 8.3-.2.2-.3.4-.5.6z"/><path d="m350.8 589.7c4.1-6.2 8.2-12.4 12.3-18.7.2.2.1.4.1.6v21.2c0 .5 0 .7-.6.5-3.8-1.2-7.7-2.3-11.5-3.5-.2 0-.2 0-.3-.1z"/><path d="m638.9 493.1c1.3 2.6 2.6 5.2 3.9 7.8 2.1 4.1 4.1 8.1 6.1 12.3-6.4-3.6-12.9-7.2-19.3-10.8 0-.3.3-.4.4-.5 2.7-2.7 5.5-5.5 8.2-8.2.2-.2.4-.3.5-.6z"/><path d="m650.3 527c1.7-1.1 3.5-2.1 5.2-3.2.8-.5 1.7-1 2.5-1.6.3-.2.4-.2.5.2 1 3.9 2 7.8 3 11.7.1.3.2.6-.4.5-7.2-.3-14.4-.6-21.6-.9 0 0 0 0-.1 0 .1-.3.3-.3.5-.4 3.1-1.9 6.1-3.8 9.2-5.7.5-.3.8-.6.7-1.3-.2-3.3-.3-6.6-.4-9.8-.1-3.7-.3-7.4-.4-11.1 0-.9 0-.9.8-.7 3.7 1 7.3 1.9 11 2.8.6.2.6.3.3.8-3.6 5.9-7.2 11.9-10.8 17.8-.2.3-.3.5-.5.8.4 0 .5.1.5.1z"/><path d="m615 506c7.4.4 14.8.8 22.2 1.2-.1.3-.4.4-.6.5-5.9 3.6-11.9 7.1-17.8 10.7-.5.3-.7.4-.8-.3-.9-3.8-1.9-7.7-2.8-11.5-.2-.2-.2-.4-.2-.6z"/><path d="m637.3 548c-3.6-6.7-7.1-13.3-10.7-20.1.4.2.5.3.7.4 6.1 3.3 12.2 6.6 18.4 9.9.5.3.6.4.2.9-2.7 2.7-5.4 5.5-8.1 8.3-.2.2-.3.4-.5.6z"/><path d="m613.8 533.4c4.1-6.2 8.2-12.4 12.3-18.7.2.2.1.4.1.6v21.2c0 .5 0 .7-.6.5-3.8-1.2-7.7-2.3-11.5-3.5-.1 0-.2 0-.3-.1z"/><path d="m837.1 564.8c1.3 2.6 2.6 5.2 3.9 7.8 2.1 4.1 4.1 8.1 6.1 12.3-6.4-3.6-12.9-7.2-19.3-10.8 0-.3.3-.4.4-.5l8.2-8.2c.2-.2.4-.3.5-.6z"/><path d="m848.6 598.7c1.7-1.1 3.5-2.1 5.2-3.2.8-.5 1.7-1 2.5-1.6.3-.2.4-.2.5.2 1 3.9 2 7.8 3 11.7.1.3.2.6-.4.5-7.2-.3-14.4-.6-21.6-.9 0 0 0 0-.1 0 .1-.3.3-.3.5-.4 3.1-1.9 6.1-3.8 9.2-5.7.5-.3.8-.6.7-1.3-.2-3.3-.3-6.6-.4-9.8-.1-3.7-.3-7.4-.4-11.1 0-.9 0-.9.8-.7 3.7 1 7.3 1.9 11 2.8.6.2.6.3.3.8-3.6 5.9-7.2 11.9-10.8 17.8-.2.3-.3.5-.5.8.4 0 .4.1.5.1z"/><path d="m813.2 577.7c7.4.4 14.8.8 22.2 1.2-.1.3-.4.4-.6.5-5.9 3.6-11.9 7.1-17.8 10.7-.5.3-.7.4-.8-.3-.9-3.8-1.9-7.7-2.8-11.5-.1-.2-.2-.4-.2-.6z"/><path d="m835.5 619.7c-3.6-6.7-7.1-13.3-10.7-20.1.4.2.5.3.7.4 6.1 3.3 12.2 6.6 18.4 9.9.5.3.6.4.2.9-2.7 2.7-5.4 5.5-8.1 8.3-.2.2-.3.4-.5.6z"/><path d="m812 605.1c4.1-6.2 8.2-12.4 12.3-18.7.2.2.1.4.1.6v21.2c0 .5 0 .7-.6.5-3.8-1.2-7.7-2.3-11.5-3.5-.1 0-.2 0-.3-.1z"/></g><ellipse cx="1027.7" cy="851.2" fill="#2ebf91" opacity=".1" rx="101.1" ry="20.9"/><path d="m1094.8 731.1c.3-2.5.7-4.9 1.1-7.4 2-10.7-1-20.9-2.5-25.1-.5-1.3-.8-2-.8-2-7.9-2.2-38.9 21.9-50.2 31-3.9 0-8.2.2-12.8.5-2 .1-4.1.2-6.1.2-1.8 0-4.4 0-7.4 0-10.5-8.5-43-33.9-51.1-31.7 0 0-.3.7-.8 2-1.5 4.2-4.5 14.4-2.5 25.1.4 2.5.9 4.9 1.1 7.4.6 5.4 2.9 15.9 11.1 22.9 1.8 12.9 8.4 29.8 13.5 40 .4 1.9 1 3.8 1.7 5.7-2.1 8.1-4.5 18.7-3.8 22.3 0 0-11-2.7-12.1 10.6v.4c-4 1.8-8.9 6-3.4 14.7.7 1.1 1.7 1.9 2.9 2.3 1 .3 2 .3 1.9-1l6.9 7.7s12.4 1.4 12.6-5.8l.7.1c1.7.2 3.4.5 5.2.6l.9 2.9s-9.3-.2-6.8 5.6c0 0 2.3 2.2 3.2 1.4 0 0-1.2 3.8 3.6 3.8 0 0 5.2 2.8 7.3.8 2-2 6.3-4.9 6.7-6.2.1-.3.2-3.3.2-7.3h.8c10.4.2 21.5-.1 31.6-.6h.8c0 4.4.1 7.6.2 8 .4 1.2 4.6 4.2 6.7 6.2s7.3-.8 7.3-.8c4.8 0 3.6-3.8 3.6-3.8.8.8 3.2-1.4 3.2-1.4 2.5-5.7-6.8-5.6-6.8-5.6l1.1-3.7 5.2-.4.8-.1c-.5 7.9 12.6 6.3 12.6 6.3l6.9-7.7c-.1 1.4.9 1.4 1.8 1 1.2-.5 2.1-1.3 2.8-2.4 8.4-13.2-7.1-16-7.1-16-.5-.1-1-.2-1.5-.2 0-.2 0-.5.1-.7.2-1.7.2-3.5.1-5.2-.6-2.4-4.4-6.2-9.3-6.7-3.2-.4-3.2-14.9-2.9-25 .4-1.9.5-3.8.5-5.7.1-3.1-.4-6.2-1.2-9.2 6.2-10.5 11.1-21.5 11.7-24.7 7.9-7.3 10.1-17.7 10.7-23.1z" fill="url(#aZ)"/><path d="m1082.9 831.3c-.5 6.8-1.8 17.8-1.8 17.8s-5.5.7-14 1.4l-5.8.5c-4.4.4-9.4.7-14.7 1-9.7.5-20.4.9-30.4.6-5-.1-9.9-.4-14.4-.8-2-.2-4-.4-5.8-.7-11.5-1.7-19.8-5-20.5-10.8-.4-2.5-.4-4.9-.3-7.4 1.1-13 11.6-10.4 11.6-10.4-.7-3.6 1.9-14.7 4-22.8 1.3-5.1 2.5-8.9 2.5-8.9l74.3-4.9h.2c2 0 3.6 1.6 3.6 3.6v.2c-.4 8.9-1.1 29.3 2.6 29.8 4.7.6 8.4 4.3 8.9 6.6.2 1.8.2 3.5 0 5.2z" fill="#2ebf91"/><path d="m1019.7 733.4s-28 33.7-41.5 24.4c-.3-.2-.6-.4-.9-.7-9.1-6.9-11.5-18-12.1-23.6-.3-2.5-.7-4.9-1.1-7.3-1.9-10.5 1-20.5 2.5-24.6.4-1.2.8-2 .8-2 9.2-2.5 52.3 33.8 52.3 33.8z" fill="#2ebf91"/><path d="m1004.7 736.6s-8.8 6.2-21.3 16.3c-1.9 1.6-4 3-6.2 4.3-9.1-6.9-11.5-18-12.1-23.6-.3-2.5-.7-4.9-1.1-7.3-1.9-10.5 1-20.5 2.5-24.6 17.4 1.2 38.2 34.9 38.2 34.9z" fill="#2ebf91"/><path d="m1004.7 736.6s-8.8 6.2-21.3 16.3c-1.9 1.6-4 3-6.2 4.3-9.1-6.9-11.5-18-12.1-23.6-.3-2.5-.7-4.9-1.1-7.3-1.9-10.5 1-20.5 2.5-24.6 17.4 1.2 38.2 34.9 38.2 34.9z" fill="#fff" opacity=".5"/><path d="m995.1 733.2s-4.7 3.3-11.4 8.7c-1 .8-2.1 1.6-3.3 2.3-4.8-3.7-6.2-9.6-6.5-12.6-.1-1.3-.3-2.6-.6-3.9-.6-4.4-.2-8.9 1.4-13.1 9.3.7 20.4 18.6 20.4 18.6z" opacity=".1"/><path d="m1037.9 733.4s28 33.7 41.5 24.4c.3-.2.6-.4.9-.7 9.1-6.9 11.5-18 12.1-23.6.3-2.5.7-4.9 1.1-7.3 1.9-10.5-1-20.5-2.5-24.6-.4-1.2-.8-2-.8-2-9.2-2.5-52.3 33.8-52.3 33.8z" fill="#2ebf91"/><path d="m1052.9 736.6s8.8 6.2 21.3 16.3c1.9 1.6 4 3 6.1 4.3 9.1-6.9 11.5-18 12.1-23.6.3-2.5.7-4.9 1.1-7.3 1.9-10.5-1-20.5-2.5-24.6-17.3 1.2-38.1 34.9-38.1 34.9z" fill="#2ebf91"/><path d="m1052.9 736.6s8.8 6.2 21.3 16.3c1.9 1.6 4 3 6.1 4.3 9.1-6.9 11.5-18 12.1-23.6.3-2.5.7-4.9 1.1-7.3 1.9-10.5-1-20.5-2.5-24.6-17.3 1.2-38.1 34.9-38.1 34.9z" fill="#fff" opacity=".5"/><path d="m1062.6 733.2s4.7 3.3 11.3 8.7c1 .8 2.1 1.6 3.3 2.3 4.8-3.6 6.1-9.5 6.4-12.5.1-1.2.3-2.6.6-3.9.6-4.4.2-8.9-1.3-13.1-9.3.7-20.3 18.5-20.3 18.5z" opacity=".1"/><path d="m1067.6 786c-3.5 5.6-7.3 10.6-10.7 13.7-11.1 9.9-59.2 6-62.3 5.5-.7-.1-2-2.1-3.7-5.2 1.3-5.1 2.5-8.9 2.5-8.9z" opacity=".1"/><path d="m1029.6 730.6c-2 .1-3.9.2-5.9.1-10-.2-43.8.3-47.6 13.9-4.4 16.1 15.3 59.1 18.4 59.6s51.1 4.4 62.3-5.5 25.7-40.8 24.9-43.6c.1.1 13.9-29.1-52.1-24.5z" fill="#2ebf91"/><path d="m1028.5 756.7s-24.7-3.8-36.3 20.5c-4.7 9.6-3.9 21.1 2.2 29.9 3.9 5.4 9.5 9.5 17.4 6.2 17.5-7.2 16.7-56.6 16.7-56.6z" opacity=".1"/><path d="m1027.7 755.1s-24.7-3.8-36.3 20.5c-4.7 9.6-3.9 21.1 2.2 29.9 3.9 5.4 9.5 9.5 17.4 6.2 17.5-7.2 16.7-56.6 16.7-56.6z" opacity=".1"/><path d="m1027.7 755.9s-24.7-3.8-36.3 20.5c-4.7 9.6-3.9 21.1 2.2 29.9 3.9 5.4 9.5 9.5 17.4 6.2 17.5-7.2 16.7-56.6 16.7-56.6z" fill="#2ebf91"/><path d="m1027.7 755.9s-24.7-3.8-36.3 20.5c-4.7 9.6-3.9 21.1 2.2 29.9 3.9 5.4 9.5 9.5 17.4 6.2 17.5-7.2 16.7-56.6 16.7-56.6z" fill="#fff" opacity=".5"/><path d="m1001 777.2s-3.4 3.1-2.1 3.9 2.1-3.9 2.1-3.9z" fill="#3f2b3b"/><path d="m1004.7 781.2s-1.8 4.1-.5 4.5 2.1-2.9 2.1-2.9z" fill="#3f2b3b"/><path d="m996.5 787.3s-1.8 4.8 0 4.8 0-4.8 0-4.8z" fill="#3f2b3b"/><path d="m994.3 800.2s3.6 9.2 13 8.6" fill="none" stroke="#3f2b3b" stroke-miterlimit="10"/><path d="m1002.7 802.9s3.7 3.6 7.8 1" fill="none" stroke="#3f2b3b" stroke-miterlimit="10"/><path d="m1031.7 756.7s24.7-3.8 36.3 20.5c4.7 9.6 3.9 21.1-2.2 29.9-3.8 5.4-9.5 9.5-17.4 6.2-17.6-7.2-16.7-56.6-16.7-56.6z" opacity=".1"/><path d="m1032.4 755.1s24.7-3.8 36.3 20.5c4.7 9.6 3.9 21.1-2.2 29.9-3.8 5.4-9.5 9.5-17.4 6.2-17.4-7.2-16.7-56.6-16.7-56.6z" opacity=".1"/><path d="m1032.4 755.9s24.7-3.8 36.3 20.5c4.7 9.6 3.9 21.1-2.2 29.9-3.8 5.4-9.5 9.5-17.4 6.2-17.4-7.2-16.7-56.6-16.7-56.6z" fill="#2ebf91"/><path d="m1032.4 755.9s24.7-3.8 36.3 20.5c4.7 9.6 3.9 21.1-2.2 29.9-3.8 5.4-9.5 9.5-17.4 6.2-17.4-7.2-16.7-56.6-16.7-56.6z" fill="#fff" opacity=".5"/><path d="m1059.1 777.2s3.4 3.1 2.1 3.9-2.1-3.9-2.1-3.9z" fill="#3f2b3b"/><path d="m1055.4 781.2s1.8 4.1.5 4.5-2.1-2.9-2.1-2.9z" fill="#3f2b3b"/><path d="m1063.6 787.3s1.8 4.8 0 4.8 0-4.8 0-4.8z" fill="#3f2b3b"/><path d="m1065.8 800.2s-3.6 9.2-13 8.6" fill="none" stroke="#3f2b3b" stroke-miterlimit="10"/><path d="m1057.4 802.9s-3.7 3.6-7.8 1" fill="none" stroke="#3f2b3b" stroke-miterlimit="10"/><path d="m1018.3 826.4c.7-.1 13-5.5 25.7 0z" fill="#3f2b3b"/><path d="m996 851.2c-11.5-1.7-19.8-5-20.5-10.8-.4-2.5-.4-4.9-.3-7.4 1.4-.7 2.9-1.3 4.4-1.6 2.1-.6 4.7-.2 10.1 1.4 5.5 1.6 5.1 8 6.2 16.3.1.7.2 1.4.1 2.1z" opacity=".1"/><path d="m978.8 832.2s-15 2.7-6.9 15.7c.6 1 1.6 1.9 2.8 2.3 1 .3 1.9.3 1.8-1l6.6 7.6s13.2 1.6 12.1-6.8c-1.2-8.4-.8-14.8-6.2-16.3-5.4-1.6-8-2.1-10.2-1.5z" fill="#2ebf91"/><path d="m982.4 840.9s3.2 7.3 7.6 1.2" fill="none" stroke="#3f2b3b" stroke-miterlimit="10"/><path d="m975.1 843.8s1.6 6.9 7.9 1.8" fill="none" stroke="#3f2b3b" stroke-miterlimit="10"/><path d="m1082.9 831.3c-.5 6.8-1.8 17.8-1.8 17.8s-5.5.7-14 1.4c0-.5 0-1 0-1.4 1.2-8.4.8-14.8 6.2-16.3 5-1.4 7.6-1.9 9.6-1.5z" opacity=".1"/><path d="m1084.2 832.2s15 2.7 6.9 15.7c-.6 1-1.6 1.9-2.8 2.3-1 .3-1.9.3-1.8-1l-6.6 7.6s-13.2 1.6-12.1-6.8c1.2-8.4.8-14.8 6.2-16.3 5.5-1.6 8.1-2.1 10.2-1.5z" fill="#2ebf91"/><path d="m1080.7 840.9s-3.2 7.3-7.6 1.2" fill="none" stroke="#3f2b3b" stroke-miterlimit="10"/><path d="m1088 843.8s-1.7 6.9-7.9 1.8" fill="none" stroke="#3f2b3b" stroke-miterlimit="10"/><path d="m1016.2 852.7c-5-.1-9.9-.4-14.4-.8l-4.5-15.1c-.3-.9-.4-1.8-.4-2.8.2-5.3 4.6-9.5 9.9-9.3 5 .2 9.1 4.2 9.3 9.2.1 5.9.1 13.4.1 18.8z" opacity=".1"/><path d="m996.5 836.8 5.3 17.8s-9-.2-6.5 5.5c0 0 2.3 2.1 3 1.4 0 0-1.2 3.7 3.5 3.7 0 0 5 2.7 7 .8s6-4.9 6.4-6c.2-.8.2-15.7.1-26 0-5.3-4.3-9.5-9.6-9.5s-9.6 4.3-9.6 9.6c0 .8.2 1.8.4 2.7z" fill="#2ebf91"/><path d="m1003.7 859.2s-3.9 3.7-1.9 5.9" fill="none" stroke="#3f2b3b" stroke-miterlimit="10"/><path d="m1002 856.8s-3.6 1.2-3.6 4.6" fill="none" stroke="#3f2b3b" stroke-miterlimit="10"/><path d="m1065.9 834c0 .9-.1 1.9-.4 2.8l-4.2 14.3c-4.4.4-9.4.7-14.7 1 0-5.3 0-12.5.1-18.1 0-5.3 4.3-9.6 9.6-9.6 5.4 0 9.7 4.3 9.6 9.6z" opacity=".1"/><path d="m1066.3 836.8-5.3 17.8s9-.2 6.6 5.5c0 0-2.3 2.1-3 1.4 0 0 1.2 3.7-3.5 3.7 0 0-5 2.7-7 .8-2-2-6-4.9-6.4-6-.2-.8-.2-15.7-.1-26 0-5.3 4.3-9.5 9.6-9.5s9.6 4.3 9.6 9.6c-.1.8-.3 1.8-.5 2.7z" fill="#2ebf91"/><path d="m1059.1 859.2s3.9 3.7 1.9 5.9" fill="none" stroke="#3f2b3b" stroke-miterlimit="10"/><path d="m1060.9 856.8s3.6 1.2 3.6 4.6" fill="none" stroke="#3f2b3b" stroke-miterlimit="10"/><path d="m1027.7 752s-18.3-.6-18.9 13.6 28.6 8.2 28.6 8.2 12.3-1.6 10.1-10.3c-2.1-8.6-6.5-10.7-19.8-11.5z" opacity=".1"/><path d="m1027.7 750.4s-18.3-.6-18.9 13.6 28.6 8.2 28.6 8.2 12.3-1.6 10.1-10.3c-2.1-8.6-6.5-10.7-19.8-11.5z" opacity=".1"/><path d="m1027.7 751.2s-18.3-.6-18.9 13.6 28.6 8.2 28.6 8.2 12.3-1.6 10.1-10.3-6.5-10.7-19.8-11.5z" fill="#3f2b3b"/><path d="m986.9 822.7s6.2 2.2 7.4 6.4" opacity=".1"/><path d="m1074 819.6s-4.4 1.8-4.1 9.5" opacity=".1"/><ellipse cx="989.5" cy="854.8" fill="#2ebf91" rx="2.9" ry="4.8" transform="matrix(.867 -.4983 .4983 .867 -294.3492 606.7444)"/><ellipse cx="1076.5" cy="850.6" fill="#2ebf91" rx="4.7" ry="2.9" transform="matrix(.5 -.866 .866 .5 -198.4208 1357.5608)"/><ellipse cx="989.5" cy="854.8" fill="#fff" opacity=".5" rx="2.9" ry="4.8" transform="matrix(.867 -.4983 .4983 .867 -294.3492 606.7444)"/><ellipse cx="1076.5" cy="850.6" fill="#fff" opacity=".5" rx="4.7" ry="2.9" transform="matrix(.5 -.866 .866 .5 -198.4208 1357.5608)"/></svg>