<svg id="ffe6bee8-e793-4e33-a4ab-3e285c6a5a44" xmlns="http://www.w3.org/2000/svg" xmlns:xlink="http://www.w3.org/1999/xlink" viewBox="0 0 999 833.91"><defs><style>.cls-1,.cls-3{fill:#5333ed;}.cls-1,.cls-15,.cls-7{opacity:0.1;}.cls-1,.cls-4,.cls-7{isolation:isolate;}.cls-2{fill:none;stroke:#535461;stroke-miterlimit:10;stroke-width:2px;}.cls-4{opacity:0.25;}.cls-5{fill:#b77b7f;}.cls-6{fill:#dda2a6;}.cls-8{fill:#fff;}.cls-9{fill:url(#linear-gradient);}.cls-10{fill:#67647e;}.cls-11{fill:#444053;}.cls-12{fill:#efb7b9;}.cls-13{fill:#a36468;}.cls-14{fill:#e3787d;}.cls-16{fill:#ffd037;}.cls-17{fill:#65617d;}.cls-18{fill:#9d9cb5;}</style><linearGradient id="linear-gradient" x1="499.01" y1="815.31" x2="499.01" y2="129.44" gradientTransform="translate(-100.52 8.99)" gradientUnits="userSpaceOnUse"><stop offset="0" stop-color="gray" stop-opacity="0.25"/><stop offset="0.54" stop-color="gray" stop-opacity="0.12"/><stop offset="1" stop-color="gray" stop-opacity="0.1"/></linearGradient></defs><title>illustration-5</title><path class="cls-1" d="M323.8,29.7C353,3.7,398.9-1.7,440.6.4,571.7,6.9,690,70.2,792.4,141.8c37.1,25.9,73.5,53.8,97.6,89.5,49,72.6,34.4,173.3-33.6,233.1-23.2,20.4-51.3,36-80.1,49.8-51.3,24.6-106.6,44.3-164.8,50-41.5,4-83.5.8-124.7-4.8-115.2-15.7-228.3-50.2-323.1-109.3C122.1,424.2,82.9,391.9,65.8,350s-6.2-95.1,36.3-120c17.6-10.3,38.6-14.9,59.1-19.3,30.3-6.4,61-12.7,88.3-25.8,28.2-13.5,61.6-39.5,56-69.3C299.5,83.7,294.7,55.7,323.8,29.7Z" transform="translate(0 0.01)"/><path class="cls-2" d="M684.9,668.9s25.1-44.4,62.8-57.2a76.79,76.79,0,0,0,39.1-29.3,127.82,127.82,0,0,0,11.5-20.8" transform="translate(0 0.01)"/><path class="cls-3" d="M822.1,553.5c-4.3,4.2-24.3,8.5-24.3,8.5s4.9-19.9,9.2-24.1a10.77,10.77,0,0,1,15.3.2,10.9,10.9,0,0,1-.2,15.4Z" transform="translate(0 0.01)"/><path class="cls-3" d="M810.8,589.5c-5.9,1.2-25-6.1-25-6.1s14.9-14,20.8-15.2a10.86,10.86,0,1,1,4.2,21.3Z" transform="translate(0 0.01)"/><path class="cls-3" d="M769.6,628.4c-5.7-2-18.5-17.9-18.5-17.9s20-4.6,25.6-2.6a10.88,10.88,0,1,1-6.7,20.7c-.1-.1-.3-.1-.4-.2Z" transform="translate(0 0.01)"/><path class="cls-3" d="M731.7,650.8c-5.9-1-21.3-14.5-21.3-14.5s18.9-7.9,24.8-6.9a10.88,10.88,0,0,1-3.3,21.5c-.1,0-.1,0-.2-.1Z" transform="translate(0 0.01)"/><path class="cls-3" d="M769.1,567.8c0,6,10.8,23.4,10.8,23.4s10.9-17.4,10.9-23.4a10.85,10.85,0,0,0-21.7,0Z" transform="translate(0 0.01)"/><path class="cls-3" d="M725.1,594.6c1.8,5.7,17.3,19.1,17.3,19.1s5.2-19.8,3.4-25.5a10.87,10.87,0,0,0-13.6-7.1,10.72,10.72,0,0,0-7.1,13.5Z" transform="translate(0 0.01)"/><path class="cls-3" d="M686,626.5c.8,5.9,13.9,21.7,13.9,21.7s8.4-18.7,7.6-24.6a10.85,10.85,0,0,0-21.5,2.9Z" transform="translate(0 0.01)"/><path class="cls-4" d="M822.1,553.5c-4.3,4.2-24.3,8.5-24.3,8.5s4.9-19.9,9.2-24.1a10.77,10.77,0,0,1,15.3.2,10.9,10.9,0,0,1-.2,15.4Z" transform="translate(0 0.01)"/><path class="cls-4" d="M810.8,589.5c-5.9,1.2-25-6.1-25-6.1s14.9-14,20.8-15.2a10.86,10.86,0,1,1,4.2,21.3Z" transform="translate(0 0.01)"/><path class="cls-4" d="M769.6,628.4c-5.7-2-18.5-17.9-18.5-17.9s20-4.6,25.6-2.6a10.88,10.88,0,1,1-6.7,20.7c-.1-.1-.3-.1-.4-.2Z" transform="translate(0 0.01)"/><path class="cls-4" d="M731.7,650.8c-5.9-1-21.3-14.5-21.3-14.5s18.9-7.9,24.8-6.9a10.88,10.88,0,0,1-3.3,21.5c-.1,0-.1,0-.2-.1Z" transform="translate(0 0.01)"/><path class="cls-4" d="M769.1,567.8c0,6,10.8,23.4,10.8,23.4s10.9-17.4,10.9-23.4a10.85,10.85,0,0,0-21.7,0Z" transform="translate(0 0.01)"/><path class="cls-4" d="M725.1,594.6c1.8,5.7,17.3,19.1,17.3,19.1s5.2-19.8,3.4-25.5a10.87,10.87,0,0,0-13.6-7.1,10.72,10.72,0,0,0-7.1,13.5Z" transform="translate(0 0.01)"/><path class="cls-4" d="M686,626.5c.8,5.9,13.9,21.7,13.9,21.7s8.4-18.7,7.6-24.6a10.85,10.85,0,0,0-21.5,2.9Z" transform="translate(0 0.01)"/><path class="cls-2" d="M686.4,668s4.9-50.7,34.2-77.7a76.64,76.64,0,0,0,23.9-42.6,125.1,125.1,0,0,0,2.1-23.7" transform="translate(0 0.01)"/><path class="cls-3" d="M765,506.9c-2.2,5.6-18.8,17.6-18.8,17.6s-3.6-20.2-1.3-25.7a10.88,10.88,0,0,1,20.4,7.6C765.2,506.6,765.1,506.7,765,506.9Z" transform="translate(0 0.01)"/><path class="cls-3" d="M769.3,544.4c-4.9,3.5-25.4,4.6-25.4,4.6s8-18.9,12.9-22.3a10.83,10.83,0,1,1,12.5,17.7Z" transform="translate(0 0.01)"/><path class="cls-3" d="M747.3,596.7c-6,.5-24.2-8.9-24.2-8.9s16.4-12.3,22.3-12.8a10.79,10.79,0,0,1,11.7,9.9,10.68,10.68,0,0,1-9.8,11.8Z" transform="translate(0 0.01)"/><path class="cls-3" d="M721.8,632.6c-5.8,1.5-25.3-4.6-25.3-4.6s14.1-14.9,19.9-16.4a10.86,10.86,0,1,1,5.9,20.9.9.9,0,0,0-.5.1Z" transform="translate(0 0.01)"/><path class="cls-3" d="M722.3,541.5c2.4,5.5,19.4,17,19.4,17s2.9-20.3.5-25.8a10.9,10.9,0,0,0-14.4-5.3,11.08,11.08,0,0,0-5.5,14.1Z" transform="translate(0 0.01)"/><path class="cls-3" d="M693,583.8c4,4.5,23.6,10.4,23.6,10.4s-3.3-20.2-7.3-24.7a10.86,10.86,0,0,0-16.6,14c.2.2.3.2.3.3Z" transform="translate(0 0.01)"/><path class="cls-3" d="M670.2,628.9c3.1,5.1,21.5,14.2,21.5,14.2s.2-20.5-3-25.6a10.86,10.86,0,0,0-14.9-3.6,11,11,0,0,0-3.6,15Z" transform="translate(0 0.01)"/><ellipse class="cls-1" cx="374.2" cy="814.01" rx="118.9" ry="19.9"/><ellipse class="cls-1" cx="608.2" cy="661.11" rx="118.9" ry="19.9"/><polygon class="cls-5" points="616 398.01 615.9 401.91 609.2 640.41 597.8 640.41 603.4 401.91 603.5 397.41 616 398.01"/><polygon class="cls-6" points="681.8 600.11 673.3 600.11 546.9 599.81 540.1 599.81 543.7 588.71 680.9 588.71 681.8 600.11"/><polygon class="cls-7" points="616 398.01 615.9 401.91 603.4 401.91 603.5 397.41 616 398.01"/><rect class="cls-5" x="599.8" y="392.21" width="21.1" height="7.9"/><polygon class="cls-7" points="548 588.71 546.9 599.81 540.1 599.81 543.7 588.71 548 588.71"/><polygon class="cls-6" points="566.1 392.01 565.8 395.51 537.7 672.11 524.9 671.51 554.5 395.51 554.8 392.41 566.1 392.01"/><polygon class="cls-7" points="681.8 600.11 673.3 600.11 672.2 588.71 680.9 588.71 681.8 600.11"/><polygon class="cls-6" points="695.3 671.51 682.4 672.11 654.4 395.51 654 392.01 665.4 392.41 665.7 395.51 695.3 671.51"/><rect class="cls-8" x="466.6" y="119.31" width="283.4" height="271.7"/><path class="cls-6" d="M613.8,28.4V94h-11V28.4a5.56,5.56,0,1,1,11.1-.5A1.09,1.09,0,0,0,613.8,28.4Z" transform="translate(0 0.01)"/><rect class="cls-7" x="602.8" y="88.11" width="11.1" height="6"/><path class="cls-6" d="M618.1,92.6v21.7H598.4V92.6a2.69,2.69,0,0,1,2.7-2.7h14.3A2.57,2.57,0,0,1,618.1,92.6Z" transform="translate(0 0.01)"/><circle class="cls-7" cx="608.3" cy="103.61" r="4.2"/><circle class="cls-5" cx="608.3" cy="102.71" r="4.2"/><rect class="cls-7" x="598.4" y="111.51" width="19.7" height="2.7"/><rect class="cls-7" x="590.3" y="115.11" width="35.9" height="6"/><rect class="cls-6" x="590.3" y="113.31" width="35.9" height="6"/><path class="cls-7" d="M535.7,384H686.4a6.49,6.49,0,0,1,6.5,6.5v1.4H529.2v-1.4A6.49,6.49,0,0,1,535.7,384Z" transform="translate(0 0.01)"/><polygon class="cls-7" points="554.8 392.41 566.1 392.01 565.8 395.51 554.5 395.51 554.8 392.41"/><rect class="cls-7" x="599.8" y="392.21" width="21.1" height="3.3"/><polygon class="cls-7" points="665.7 395.51 654.4 395.51 654 392.01 665.4 392.41 665.7 395.51"/><path class="cls-6" d="M535.7,385.8H686.4a6.49,6.49,0,0,1,6.5,6.5v1.4H529.2v-1.4A6.49,6.49,0,0,1,535.7,385.8Z" transform="translate(0 0.01)"/><path class="cls-9" d="M502.7,259.6c-2.3-1.2-27-19.9-27-19.9l-39.9-25.3s-.2-.6-.6-1.6c11-12.4,8.6-30.5-2.6-43.1-13.5-15.4-74.5-48.5-92.9-20.2-2.6,4-2.7,8.5-3.3,12.9A53.55,53.55,0,0,1,321.8,191c-6.1,6.5-14.1,12.4-17.7,19.8,0-.1-.1-.2-.1-.3a18.76,18.76,0,0,0-1.8,5c-1.8,8.9,4.3,17.5,7.4,26.2a46.68,46.68,0,0,1,2.3,9.1c.1-.6.1-1.2.2-1.9a60,60,0,0,1,.8,13.4c-22.1,4.5-22.2,42.4-22.2,42.4s-2.7,15.1-2.3,20.5.5,17.2.5,20-2.7,20.5-3,22.6v.1c-.4,2.3-4.5,13.5,5.5,16,.7.2,1.4.3,2.2.5.4,9,1.2,28,.5,32.2,0,0,3.6,25.5,6.7,31.9a74.84,74.84,0,0,0,6.7,10.8,11.51,11.51,0,0,1-1.5,4.4c-1.5,2.2-.8,4.1,1.8,4.9-.1.8-.2,1.6-.3,2.6-1.1,9.8-2.8,29.3,0,39.2,3.9,13.6,4.1,18.1,4.1,18.1s0,4.1,1.6,6.3,4.5,23.3,4.5,26.7,7.7,33.9,5.5,41.1-.5,17.4-.5,17.4-1.4,17.8-3,21.7-2.3,65.8.2,81.8,4.1,29.4,4.1,29.4-1.6,14.7-.2,16.7,3.9,14.2,2,14.9-2.7,5.7-2.7,5.7a45.62,45.62,0,0,0,3.1,4.2,7.22,7.22,0,0,1-2-.9c.7,1,1.8,2.4,3.1,4L326,813.8a2.62,2.62,0,0,0,2,2.8,22.75,22.75,0,0,0,22.6-6.4c11.4-11.5,15.3-9.9,17.3-16.9.2-.8.4-1.5.6-2.2,1.5-6.2-5.2-10.9-10.5-8.2.7-4.9,1.3-10.5.8-13.7-1.1-6.5-.9-23.7-.9-23.7l-1.6-82.3s3-16.3,6.4-22.6,3-28.5,3-28.5l3.9-72.8,3.6-35.5s3.6-12.2,8.2,1.4c0,0-2.5,27.3-1.4,33.9s2.7,38.4,1.6,45.4-6.1,45.4-3,55.1,6.6,21.5,5.9,25.3-3,87.2-3,87.2,6.1,16,1.6,21.2-.2,26-.2,26a9.2,9.2,0,0,0,1.5.9l-.1,1.7-1.4,18.7a2.8,2.8,0,0,0,2,2.9,22.75,22.75,0,0,0,22.6-6.4c11.4-11.5,15.3-9.9,17.3-17,.2-.8.4-1.5.6-2.2a7.38,7.38,0,0,0-11.9-7.3l-.3.2c-.3.2-.6.5-.9.7a2.19,2.19,0,0,1-.5.3c1.1-5.2,2.8-14,2-18.1-1.1-6.1,1.1-24.6,1.1-24.6s6.6-22.2,6.8-31l1.8-70.5s-.2-28.7.7-35.7,8.2-67.6,15.5-85.6c5.6-13.8,8.1-49.2,6.6-67.1-.1-.9-.2-1.7-.3-2.5,8.9-6.6,9.8-17.5,9.8-17.5s-8.2-15.7-16.1-22.3-9.6-18-9.3-22.9a11.7,11.7,0,0,0-2.7-8.1s-3.6-11.8-6.1-13a1,1,0,0,1-.5-.4c-1.7-1.8-.4-6.8-.4-6.8v-.2c.3-1.2,2-8.8,1.5-10.7-.6-2.1.3-12,.3-12s5.8-17.2,4.9-30.7,11.8-12.4,11.8-12.4l39.4-.4h4.5a26.27,26.27,0,0,0,4.3-4.5c7.5-.9,22.7-3.7,24.4-12C514.4,272,505,260.8,502.7,259.6ZM320.3,385l.3-6.9c.9.8,1.5,1.3,1.5,1.3a11.38,11.38,0,0,1,.1,5.5,6.11,6.11,0,0,1-3.4,3.8,2.19,2.19,0,0,0-.5.3l-.4-3.9ZM463.1,264c-1.7-.8-7.3-.6-10.2-.6s-7.6-2.4-7.6-2.4c-1-2-6.5-3.1-11.5-3.8-3.7-9.2-9-18.2-9.7-27.8v-1l.6,1s22.9,14.6,25.5,19c2,3.3,11.6,10.8,16.1,14.1a4.21,4.21,0,0,1-2.5,1.6A1.7,1.7,0,0,1,463.1,264Z" transform="translate(0 0.01)"/><path class="cls-10" d="M425.2,798.2c-.2.7-.3,1.4-.6,2.2-2,7-5.8,5.4-17,16.8a22.34,22.34,0,0,1-22.3,6.3,2.62,2.62,0,0,1-2-2.8l1.4-18.5.7-8.9s17.8,5,26.9-1.3a5.5,5.5,0,0,0,.9-.7l.2-.2a7.31,7.31,0,0,1,10.3,1A6.7,6.7,0,0,1,425.2,798.2Z" transform="translate(0 0.01)"/><path class="cls-10" d="M369.2,791.2c-.2.7-.4,1.4-.6,2.2-2,7-5.8,5.4-17,16.8a22.34,22.34,0,0,1-22.3,6.3,2.62,2.62,0,0,1-2-2.8l1.4-18.5.7-8.9s17.8,5,26.9-1.3a5.5,5.5,0,0,0,.9-.7l.2-.2a7.31,7.31,0,0,1,10.3,1A6.7,6.7,0,0,1,369.2,791.2Z" transform="translate(0 0.01)"/><path class="cls-7" d="M350.8,794l.7,9.6c-10.2,10.2-22.4-5-26-10C334.9,798.5,350.8,794,350.8,794Z" transform="translate(0 0.01)"/><path class="cls-7" d="M411,797.9l1.3-.9c-9.4,14.2-23.2,7.7-27.6,5.1l.7-8.9s17.8,5,26.9-1.3C411.6,795.3,411,797.9,411,797.9Z" transform="translate(0 0.01)"/><path class="cls-11" d="M439.5,528.7c-7.2,17.9-14.3,78-15.3,85s-.7,35.4-.7,35.4L421.7,719c-.2,8.8-6.7,30.7-6.7,30.7s-2.2,18.4-1.1,24.4-2.9,22-2.9,22l1.3-.9c-11.2,17-28.9,4.3-28.9,4.3s-4.3-20.6.2-25.8-1.6-21.1-1.6-21.1,2.2-82.7,2.9-86.5-2.7-15.5-5.8-25.1,1.8-47.8,2.9-54.7-.5-38.6-1.6-45.1,1.3-33.6,1.3-33.6c-4.5-13.5-8.1-1.3-8.1-1.3L370,541.5l-3.8,72.2s.5,22-2.9,28.3-6.3,22.4-6.3,22.4l1.6,81.6s-.2,17,.9,23.5-2.5,23.3-2.5,23.3c-12.6,29.6-32.7-2.5-32.7-2.5s.9-4.9,2.7-5.6-.7-12.8-2-14.8.2-16.6.2-16.6-1.6-13.2-4-29.1-1.8-77.3-.2-81.2,2.9-21.5,2.9-21.5-1.8-10.1.5-17.3-5.4-37.4-5.4-40.8-2.9-24.2-4.5-26.5-1.6-6.3-1.6-6.3-.2-4.5-4-17.9c-2.8-9.8-1.1-29.2,0-38.9.4-3.6.7-5.9.7-5.9s128.6-20.8,133.7-16.1c1.2,1.1,2,4.9,2.5,10.4C447.5,479.9,445,515,439.5,528.7Z" transform="translate(0 0.01)"/><path class="cls-7" d="M390.8,629.5c.6,0,14.8,1.2,20,.2S390.8,629.5,390.8,629.5Z" transform="translate(0 0.01)"/><path class="cls-7" d="M391.9,637.8s19.6,3.4,20.6,1.7S391.9,637.8,391.9,637.8Z" transform="translate(0 0.01)"/><path class="cls-7" d="M331.9,634.3s10.2.5,15.7,3S331.9,634.3,331.9,634.3Z" transform="translate(0 0.01)"/><path class="cls-12" d="M295,382.9s1.6,31.2.8,36.8c0,0,3.6,25.3,6.6,31.7s9.4,14.5,9.4,14.5l8.8-62-2.1-21.2Z" transform="translate(0 0.01)"/><circle class="cls-12" cx="387.7" cy="206.11" r="34.5"/><path class="cls-12" d="M369.8,222.2s-10.8,21.1-21.5,30.9,64.6,21.1,66.3,21.1-13.4-44.8-10.8-50.2S369.8,222.2,369.8,222.2Z" transform="translate(0 0.01)"/><path class="cls-7" d="M446,462.1a25,25,0,0,1-5.5,3.1c-13.7,5.4-28.7,12.9-38.9,9.9s-31.7,0-31.7,0-43.4-3.6-52-1.5c-3.9,1-7,.9-9,.2.4-3.6.7-5.9.7-5.9S438.3,447,443.4,451.8C444.7,452.9,445.5,456.7,446,462.1Z" transform="translate(0 0.01)"/><path class="cls-13" d="M455.4,442.2s-1.2,15-15,20.3-28.7,12.9-38.9,9.9-31.7,0-31.7,0-43.4-3.6-52-1.5-13.2-.6-10.5-4.5,2.4-16.7,2.4-22.1-3-27.2-.3-31.1,5.1-18.8,10.5-21.2a6.11,6.11,0,0,0,3.4-3.8,11.38,11.38,0,0,0-.1-5.5s-.9-.8-2.2-1.9c-3.2-2.8-8.5-8.1-6.8-9.8,2.4-2.4,0-17.9,0-17.9s-5.7-12-3.6-16.4-18.2-28.1-18.2-28.1,0-40.6,24.5-42.4c0,0,17.3.6,19.4-7.2s15.8-12.3,15.8-12.3l31.4,6.9s27.8,6,32.9,2.4,9,4.8,9,4.8,17.3.9,19.1,4.5-5.7,38.5-5.7,38.5-12.6-1.2-11.7,12.3-4.8,30.5-4.8,30.5-.9,9.9-.3,12c.6,1.9-1.2,9.5-1.5,10.6v.1s-1.3,5,.4,6.8a1.76,1.76,0,0,0,.5.4c2.4,1.2,6,12.9,6,12.9a11.87,11.87,0,0,1,2.7,8.1c-.3,4.8,1.5,16.1,9.3,22.7S455.4,442.2,455.4,442.2Z" transform="translate(0 0.01)"/><path class="cls-13" d="M322.1,373v1.3l-.5,14s-18.4,1.5-28.4-1-5.8-13.6-5.4-15.9v-.1c.3-2.1,3-19.6,3-22.4s0-14.5-.5-19.9,2.2-20.4,2.2-20.4l1.9-2.4,21.1,8.1Z" transform="translate(0 0.01)"/><path class="cls-7" d="M322,374.3l-.5,14s-18.4,1.5-28.4-1-5.8-13.6-5.4-15.9Z" transform="translate(0 0.01)"/><path class="cls-7" d="M323.3,388.2a11.38,11.38,0,0,0-.1-5.5s-.9-.8-2.2-1.9c15.8-2.2,78.5-10.8,99.6-11.8v.1s-1.3,5,.4,6.8Z" transform="translate(0 0.01)"/><path class="cls-7" d="M423.1,399s3.9,22-10.6,29.7C412.5,428.8,420.7,417.9,423.1,399Z" transform="translate(0 0.01)"/><path class="cls-7" d="M328.2,429.4s35-6,41.9-1.3S328.2,429.4,328.2,429.4Z" transform="translate(0 0.01)"/><path class="cls-7" d="M411,293.2s-5.4,22.1-1.4,27.2S411,293.2,411,293.2Z" transform="translate(0 0.01)"/><path class="cls-7" d="M309.7,275.1s4.9,8.2,1.9,16.7S309.7,275.1,309.7,275.1Z" transform="translate(0 0.01)"/><path class="cls-7" d="M299.5,347.2s6.3,3.7,4.2,9.6S299.5,347.2,299.5,347.2Z" transform="translate(0 0.01)"/><path class="cls-7" d="M298.9,330.1s5.8,3.1,6.6,7.8S298.9,330.1,298.9,330.1Z" transform="translate(0 0.01)"/><path class="cls-7" d="M385.3,508.9s36.6,3.7,43.9-4.9C429.2,504,396.2,510.5,385.3,508.9Z" transform="translate(0 0.01)"/><path class="cls-7" d="M322.1,506.8s39.3,9.3,47.1,1.9C369.2,508.7,335.4,511.3,322.1,506.8Z" transform="translate(0 0.01)"/><path class="cls-7" d="M388.1,521s16.4,0,24.1.5S388.1,521,388.1,521Z" transform="translate(0 0.01)"/><path class="cls-7" d="M324.8,528s8.1,9.1,17.2,7.5S324.8,528,324.8,528Z" transform="translate(0 0.01)"/><path class="cls-14" d="M340.6,154.6c-2.5,3.9-2.6,8.5-3.3,12.8-1.5,10.2-6.5,20.1-14.3,28.4-7.2,7.6-17,14.5-18.9,23.8-1.8,8.8,4.2,17.4,7.3,26,8.3,22.7-3.3,46.5-6.6,69.9-.9,6.5.2,14.7,8.2,16.9,2.5.7,5.3.6,7.6,1.7,3,1.4,3.9,4.4,4.5,7.1a110.79,110.79,0,0,1,2.1,29.3c-.4,5.5-.8,11.8,4.4,15.6,2.4,1.7,5.5,2.6,8.6,3.4,8.2,2.2,18.8,4,24.3-1.2,2.3-2.2,3.2-5.2,6.1-7,4.3-2.6,10.5-.8,15.9-.6,11.2.6,21.5-6,25.9-13.9s4-17,2.4-25.5-4.5-17-4.7-25.7a14.84,14.84,0,0,1,1.9-8.7c3.3-5.1,11.1-7.5,16.4-11.5,9.9-7.6,9.9-20,6.3-30.5s-10.1-20.4-10.9-31.2a11.5,11.5,0,0,1,1.5-7.5c1.4-2.2,3.9-3.8,6-5.6,14.5-12.2,12.8-32.3.8-46.1C418.8,159.4,358.7,126.6,340.6,154.6Z" transform="translate(0 0.01)"/><g class="cls-15"><path d="M313.3,255.1c1.1-9.1.9-18.1-2.3-27-1.6-4.3-3.9-8.6-5.5-13a23,23,0,0,0-1.8,5c-1.8,8.8,4.2,17.4,7.3,26A49.58,49.58,0,0,1,313.3,255.1Z" transform="translate(0 0.01)"/><path d="M326.7,353a115.11,115.11,0,0,0-2-29.3c-.6-2.7-1.5-5.7-4.5-7.1-2.2-1.1-5.1-1-7.6-1.7a10.22,10.22,0,0,1-7-5.8c-.5,2.3-.9,4.5-1.2,6.8-.9,6.5.2,14.7,8.2,16.9,2.5.7,5.3.6,7.6,1.7,3,1.4,3.9,4.4,4.5,7.1a104.38,104.38,0,0,1,1.9,13.5A16.23,16.23,0,0,1,326.7,353Z" transform="translate(0 0.01)"/><path d="M411.9,349.5c-4.4,7.9-14.7,14.5-25.9,13.9-5.5-.3-11.6-2-15.9.6-2.9,1.7-3.8,4.8-6.1,7-5.5,5.1-16.1,3.4-24.3,1.2-3.1-.8-6.2-1.7-8.6-3.4a10.84,10.84,0,0,1-4.3-6.9c.1,3.1,0,6.1-.2,9.2-.4,5.5-.8,11.8,4.4,15.6,2.4,1.7,5.5,2.6,8.6,3.4,8.2,2.2,18.8,4,24.3-1.2,2.3-2.2,3.2-5.2,6.1-7,4.3-2.6,10.5-.8,15.9-.6,11.2.6,21.5-6,25.9-13.9,4.2-7.6,4-16.3,2.6-24.5A26.39,26.39,0,0,1,411.9,349.5Z" transform="translate(0 0.01)"/><path d="M430.8,203.3c-2.1,1.8-4.6,3.4-6,5.6a12.28,12.28,0,0,0-1.5,7.5,39.21,39.21,0,0,0,2.1,9.6,35.72,35.72,0,0,1,5.5-4.8c9.8-8.3,12.2-20.1,9-31.2A28.46,28.46,0,0,1,430.8,203.3Z" transform="translate(0 0.01)"/><path d="M427.9,278c-5.3,4-13,6.4-16.4,11.5a14.84,14.84,0,0,0-1.9,8.7,60.36,60.36,0,0,0,1.3,10.4l.6-1.2c3.3-5.1,11.1-7.5,16.4-11.5,9.1-6.9,9.8-17.9,7.2-27.7A20.35,20.35,0,0,1,427.9,278Z" transform="translate(0 0.01)"/></g><path class="cls-12" d="M482.3,299.3s25.9-1.3,28.1-12.3-7-22-9.3-23.2-26.6-19.7-26.6-19.7L435.2,219s-18.8-54-23-33.3,12.1,48.1,12.1,48.1,22.6,14.5,25.1,18.8,18.1,15.7,18.1,15.7Z" transform="translate(0 0.01)"/><path class="cls-13" d="M496.2,281.7c-6.1,15.5-14,21.7-14,21.7h-4.4l-38.8.4-4.5-12.2,6.3-26.5,3.9.2s4.6,2.4,7.5,2.4,8.4-.1,10,.6a1.7,1.7,0,0,0,.7.1c1.5-.1,3-2.4,3-2.4S502.3,266.2,496.2,281.7Z" transform="translate(0 0.01)"/><path class="cls-7" d="M496.2,281.7c-6.1,15.5-14,21.7-14,21.7h-4.4c2.3-6.2,7.2-18.8,9-21.7s-14.4-9.6-23.9-13.3c1.5-.1,3-2.4,3-2.4S502.3,266.2,496.2,281.7Z" transform="translate(0 0.01)"/><ellipse class="cls-1" cx="90.8" cy="763.11" rx="44.2" ry="8.6"/><ellipse class="cls-1" cx="827.3" cy="706.21" rx="32.2" ry="6.3"/><ellipse class="cls-1" cx="966.8" cy="731.61" rx="32.2" ry="6.3"/><ellipse class="cls-1" cx="750.8" cy="784.11" rx="32.2" ry="6.3"/><path class="cls-3" d="M132.6,523.3s7.2,9.5-3.3,23.8-19.3,26.3-15.8,35.3c0,0,15.9-26.5,28.9-26.9S146.9,539.3,132.6,523.3Z" transform="translate(0 0.01)"/><path class="cls-7" d="M132.6,523.3a14,14,0,0,1,1.5,3c12.7,14.9,19.4,28.8,7.2,29.1-11.3.3-25,20.6-28.2,25.7a5.64,5.64,0,0,0,.4,1.2s16-26.5,28.9-26.9S146.9,539.3,132.6,523.3Z" transform="translate(0 0.01)"/><path class="cls-16" d="M146,535.4c0,3.3-.4,6-.8,6s-.8-2.7-.8-6,.5-1.8.9-1.8S146,532,146,535.4Z" transform="translate(0 0.01)"/><path class="cls-16" d="M150.6,539.3c-2.9,1.6-5.5,2.6-5.7,2.2s2-2,4.9-3.6,1.8-.4,2,0S153.6,537.7,150.6,539.3Z" transform="translate(0 0.01)"/><path class="cls-3" d="M94.4,523.3s-7.2,9.5,3.3,23.8,19.3,26.3,15.8,35.3c0,0-16-26.5-29-26.9S80.1,539.3,94.4,523.3Z" transform="translate(0 0.01)"/><path class="cls-7" d="M94.4,523.3a14,14,0,0,0-1.5,3c-12.7,14.9-19.4,28.8-7.2,29.1,11.3.3,25,20.6,28.2,25.7a5.64,5.64,0,0,1-.4,1.2s-16-26.5-29-26.9S80.1,539.3,94.4,523.3Z" transform="translate(0 0.01)"/><path class="cls-16" d="M80.9,535.4c0,3.3.4,6,.8,6s.8-2.7.8-6-.5-1.8-.9-1.8S80.9,532,80.9,535.4Z" transform="translate(0 0.01)"/><path class="cls-16" d="M76.3,539.3c2.9,1.6,5.5,2.6,5.7,2.2s-2-2-4.9-3.6-1.8-.4-2,0S73.4,537.7,76.3,539.3Z" transform="translate(0 0.01)"/><ellipse class="cls-1" cx="113.5" cy="643.11" rx="75.7" ry="11.6"/><path class="cls-17" d="M152.4,569.5l-.4,3-.5,4.2-.2,1.7-.5,4.2-.2,1.7-.5,4.2-5.8,47.4c-.5,4.2-7.4,7.5-15.8,7.5h-30c-8.4,0-15.3-3.3-15.8-7.5l-5.8-47.5-.5-4.2-.2-1.7-.5-4.2-.2-1.7-.5-4.2-.4-3c-.3-2.4,3.4-4.4,8.2-4.4h61.5C149,565.1,152.7,567.1,152.4,569.5Z" transform="translate(0 0.01)"/><polygon class="cls-18" points="152 572.51 151.5 576.71 75.4 576.71 74.9 572.51 152 572.51"/><polygon class="cls-18" points="151.3 578.41 150.8 582.61 76.1 582.61 75.6 578.41 151.3 578.41"/><polygon class="cls-18" points="150.6 584.31 150.1 588.51 76.8 588.51 76.3 584.31 150.6 584.31"/><circle class="cls-1" cx="180" cy="124.51" r="31.5"/><circle class="cls-1" cx="114" cy="49.51" r="19.5"/><circle class="cls-1" cx="12" cy="93.01" r="12"/></svg>