<svg id="_5697373c-b41a-41d7-99c7-222dbdce0794" data-name=" 5697373c-b41a-41d7-99c7-222dbdce0794" xmlns="http://www.w3.org/2000/svg" xmlns:xlink="http://www.w3.org/1999/xlink" viewBox="0 0 1132.9 839.2"><defs><style>.cls-1,.cls-22,.cls-23,.cls-24{fill:#5333ed;}.cls-1,.cls-11,.cls-26{opacity:0.1;}.cls-1,.cls-11,.cls-23,.cls-24,.cls-26,.cls-28,.cls-6{isolation:isolate;}.cls-2{fill:url(#linear-gradient);}.cls-3{fill:url(#linear-gradient-2);}.cls-4{fill:#f6bac2;}.cls-5{fill:#b77983;}.cls-13,.cls-6{opacity:0.05;}.cls-7{fill:#d39999;}.cls-38,.cls-8{fill:none;}.cls-9{fill:#4b4442;}.cls-10{fill:#8499f0;}.cls-11,.cls-21{fill:#fff;}.cls-12{fill:#7e646b;}.cls-14{fill:#b7b6cc;}.cls-15,.cls-23{opacity:0.5;}.cls-16{fill:url(#linear-gradient-3);}.cls-17{fill:#f9fafb;}.cls-18{fill:url(#linear-gradient-4);}.cls-19{fill:url(#linear-gradient-5);}.cls-20{fill:url(#linear-gradient-6);}.cls-24{opacity:0.3;}.cls-25{fill:#e6ecf8;}.cls-27{fill:#a8a8a8;}.cls-28,.cls-31{opacity:0.2;}.cls-29{fill:url(#linear-gradient-7);}.cls-30{fill:#f6f7f9;}.cls-32{fill:url(#linear-gradient-8);}.cls-33{fill:#ae6e79;}.cls-34{fill:#bebed0;}.cls-35{fill:#5c5c8e;}.cls-36{fill:#42383c;}.cls-37{fill:#e6e8ee;}.cls-38{stroke:#565987;stroke-miterlimit:10;}.cls-39{fill:#ffd037;}</style><linearGradient id="linear-gradient" x1="819.9" y1="289.46" x2="819.9" y2="755.65" gradientTransform="matrix(1, 0, 0, -1, -33.54, 857.57)" gradientUnits="userSpaceOnUse"><stop offset="0" stop-color="gray" stop-opacity="0.25"/><stop offset="0.54" stop-color="gray" stop-opacity="0.12"/><stop offset="1" stop-color="gray" stop-opacity="0.1"/></linearGradient><linearGradient id="linear-gradient-2" x1="855.74" y1="669.31" x2="855.74" y2="671.76" xlink:href="#linear-gradient"/><linearGradient id="linear-gradient-3" x1="576.54" y1="-226.74" x2="576.54" y2="36.18" gradientTransform="matrix(0.82, 0.57, 0.57, -0.82, 210.95, -29.14)" xlink:href="#linear-gradient"/><linearGradient id="linear-gradient-4" x1="487.64" y1="-59.55" x2="487.64" y2="202.38" gradientTransform="matrix(0.96, 0.28, 0.28, -0.96, 95.18, 302.29)" xlink:href="#linear-gradient"/><linearGradient id="linear-gradient-5" x1="453.47" y1="106.02" x2="453.47" y2="367.92" gradientTransform="matrix(1, 0.08, 0.08, -1, 87.64, 571.49)" xlink:href="#linear-gradient"/><linearGradient id="linear-gradient-6" x1="454.56" y1="197.1" x2="454.56" y2="459.03" gradientTransform="matrix(1, -0.05, -0.05, -1, 101.54, 726.02)" xlink:href="#linear-gradient"/><linearGradient id="linear-gradient-7" x1="1019.53" y1="397.79" x2="1019.53" y2="568.48" gradientTransform="matrix(0.95, 0.31, 0.31, -0.95, -157.62, 272.6)" xlink:href="#linear-gradient"/><linearGradient id="linear-gradient-8" x1="864.76" y1="38.39" x2="864.76" y2="460.62" xlink:href="#linear-gradient"/></defs><title>illustration-1</title><path class="cls-1" d="M481.3,56.3c-37.2-15.1-76.5-27.8-116.6-26.2-59,2.3-115.5,37.8-143.3,89.8C197.9,164,195,215.7,184.8,264.7c-12.5,60.3-36.4,117.6-61.9,173.7-13.7,30.1-28.2,60.9-30.4,93.9-3.1,45.8,18.8,91.5,53.1,122s80,46.6,125.8,50.1c24.4,1.9,49.8.1,71.5-11.2,22.9-12,39.6-33.7,62.6-45.5,21.3-11,46.2-12.5,70.1-11.1a312.89,312.89,0,0,1,91.6,19.5c33.4,12.6,64.5,30.7,97.9,43.5s70.6,19.8,104.7,9.2c32-10,57.3-34.2,80.2-58.8A1027.42,1027.42,0,0,0,952.2,520.7c20.6-30.8,39.8-63.4,48.9-99.3,17.4-68.7-6.6-146.3-59.7-193.2-44-38.9-103.1-55.8-160.9-66-52.7-9.3-113.7-9.9-162.2-34.3C572,104.7,529.9,76.1,481.3,56.3Z"/><path class="cls-2" d="M871.2,120.3c-14.3.6-15,37.4-14.1,39.1s-3.2,18.3-3.2,18.3-6.5,25.2-5.7,29.9-3.5,7.8-3.5,7.8c-6.3,2.5-14.3,10.6-16.4,12.8l-.5.6s-6.1,4-7.2,5.6-4,.3-4,.3-8.3-.8-9.4-.5c-.7.2-1.9-1.1-2.6-2-.3-.4-.5-.7-.5-.7l-.3-7.4a9.12,9.12,0,0,0-1-.6c.2-.8.4-1.7.6-2.6a21.84,21.84,0,0,0,9.1-8.2c.2-.4.5-.8.7-1.2a2.59,2.59,0,0,0,1.9.5,2.74,2.74,0,0,0,.9-.1,9.06,9.06,0,0,0,2.6-1.3,13.71,13.71,0,0,0,4.8-5.6c.2-.4.3-.9.5-1.3a4.25,4.25,0,0,1-.5.7,7.79,7.79,0,0,0-.5-6.5c-.8-1.3-2-2.3-2.5-3.7-.8-2.4.8-4.9,1.7-7.3a12.11,12.11,0,0,0,.9-6.8,9,9,0,0,0-3.7-5.8c-3.9-2.6-9.3-1.1-13.8-2.4a48.36,48.36,0,0,1-4.8-1.9,36.63,36.63,0,0,0-7.3-2.3c-2.5-.5-5.5-.5-7,1.4a19.94,19.94,0,0,0-1.1,1.9,7.06,7.06,0,0,1-4.5,3.2,13.19,13.19,0,0,1-2.8.3,2.05,2.05,0,0,0,0-1.1c-1.2-3.8,2.2-6.6,6.5-8.3s20.8-14.6,22.7-17.7,15.3-12.7,15.3-12.7,20-5.7,26.6-26.3-31.4,14.4-35.2,15.4-9.3,5-9.3,5l-24.3,14.1a82.81,82.81,0,0,0-13.1,9.1c-5.9,5.1-9.6,13.7-9.6,13.7s-2.3,3.8-5.7,9.3a26.69,26.69,0,0,1-7.4,7.9l.1-.2c-.3.3-8.6,10.9-9.4,15.5s-4.2,23.5-4.2,23.5-3,14.8-5.1,17.7c0,0-1.7,8.5-2.7,9.6s-5,13.2-4.3,14.4c0,0-3.8,8.3-3.2,11.5l-6.9,16.5s-3.7,8.2-3.5,12.9c.1,2.3.2,5,.3,7.2v1h0v1c-.4.6-1.3,2.2-2.3,4.1-1.4,2.8-2.9,6.3-2.8,8.4.2,3.8.2,12.9-1.6,16.3l-.5-.2a6.35,6.35,0,0,0-1,3.3l.1.1c0,.3-.1.6-.1.9-.4,3.8.2,9.2-.8,10.3-1.3,1.6-.7,37.5-.7,37.5s-2.2,22.5,2.2,36.7l-.3,11.1s-.2,10.5.3,12,.7,12.1.7,12.1l2.5,17.8s-3.3,27.5-.5,34.3a36.57,36.57,0,0,1,3,11.8,18.56,18.56,0,0,0,4.6,1.8v1l-.7,16.7v.9a5.41,5.41,0,0,0-.1,1.2h0v2.8h0V556a.87.87,0,0,0,.1.5v.1a4,4,0,0,0,.1.5h0a4,4,0,0,0,.1.5v.1h0a.37.37,0,0,0,.1.3v.1c0,.1.1.2.1.3v.1a6,6,0,0,0,.3.8v.1c0,.1.1.2.1.3l.1.1.1.3.1.2.1.3.1.2a.35.35,0,0,0,.1.2.35.35,0,0,1,.1.2l.2.2.1.2.2.2.1.2.2.2.1.1.2.2.1.1.3.3.1.1c.1.1.2.2.3.2l.2.1.2.2.2.1.2.2.2.1.2.1.2.1.2.1.2.1.3.1.3.1.3.1.3.1.3.1.3.1.3.1.5.1.4.1.3.1.3.1h5.7l.9-.1s11.3,1.7,11.7-2.8v-6.8c-.1-2.2-.2-4.3-.3-5.4a4.78,4.78,0,0,0-.1-1s-3.9-5.8-3.2-8,.5-9.6.5-9.6-1.5-3.5-2.5-6.7a1.94,1.94,0,0,1-.2-.7l2.4-3a38.82,38.82,0,0,0-2.8-22.8,1.44,1.44,0,0,1-.6-1.2v-.1l1.9-23.6-1.2-13.7s-.8-9.4,1-13.4l3.7-35.6,5.2-20.7s1.7-.8,3,3.1,4.6,21.5,4.6,21.5l8,29.1s1.3,10.4,2.5,11.8,1.2,7.9,1.2,7.9,2.5,5.2,2.2,7.4,0,8.4.8,10.5,1.2,17,1.2,17a34.7,34.7,0,0,0,.3,14.7c2,7.4.8,16.8.8,16.8a6,6,0,0,0,.7.9l-.3.6c-.5,1.3-.9,2.3-.9,2.3s-.1,7.4.5,9.6-3.2,8-3.2,8a6.78,6.78,0,0,1-.1,1c-.1,1.2-.2,3.2-.3,5.4V565c.4,4.5,11.7,2.8,11.7,2.8l.9.1h5.1l.3-.1h.3l.3-.1.3-.1.4-.1.5-.1.3-.1.3-.1c.1,0,.2-.1.3-.1l.3-.1.3-.1.3-.1.3-.1.2-.1.2-.1.2-.1.2-.1.2-.1.2-.2c.1,0,.1-.1.2-.1a.22.22,0,0,0,.2-.2l.2-.1.3-.2.1-.1.3-.3.1-.1.2-.2.1-.2.2-.2.1-.2.2-.2.1-.2.2-.2c0-.1.1-.1.1-.2a.35.35,0,0,1,.1-.2l.1-.2c0-.1.1-.2.1-.3a.35.35,0,0,0,.1-.2c0-.1.1-.2.1-.3l.1-.1c0-.1.1-.2.1-.3v-.1a6,6,0,0,1,.3-.8v-.1c0-.1.1-.2.1-.3v-.1a.37.37,0,0,1,.1-.3h0v-.1a4.42,4.42,0,0,1,.1-.5h0a4.42,4.42,0,0,1,.1-.5v-.1c0-.2.1-.3.1-.5v-1.6h0v-2.8h0a9.71,9.71,0,0,1-.1-1.2v-.9l-.6-16.2v-1a33.32,33.32,0,0,0,2.9-1.8s-.2-9.2,2.5-12.9-1.3-13.4-1.3-13.4l-1.7-34.8.7-16a16.22,16.22,0,0,1-2-7.8,28.53,28.53,0,0,0-2.7-10s-1.7-5.5.3-7.1-2.2-37-2.2-37,1-25.9-.9-41.2v-.3l.5-.2c-.2-1.2-.3-2.4-.5-3.5l-.6.2a26.29,26.29,0,0,0-1-4l-2.7-12.2a10.66,10.66,0,0,1-.1-1.6c-.1-1.1-.2-2.6-.2-3.9a7.87,7.87,0,0,1,.2-1.6l-.1-.1c0-.3.1-.6.1-.9l-.6-.5a7.27,7.27,0,0,1-.1-1.4c-.1-1.9-.2-5.1.7-6.9,1.3-2.7,15-12.8,15-12.8l7.7-15.3s7.6-10.8,13.5-12.9,23.9-14.1,23.9-14.1,6.3-6.5,6.8-8l.2-.3h.1V252l17-25.5c6.8-5.5,7-17.2,7-17.2l1.8-26.8-.6-15.8.8-9S885.5,119.7,871.2,120.3Zm-97.4,69.3a21.89,21.89,0,0,0-2.8,10.6v.9a21.51,21.51,0,0,0,2.3,9.6,7.8,7.8,0,0,0-1.7,2.9c-.8-1.1-3.3-4.3-3.4-6.5-.2-2.6-2.7-4.4-2.7-4.4s-.5-4.9.2-5.7l.1-.1a1.21,1.21,0,0,0,.2-.3h0c.7-1.1,3.1-4.7,5.6-8.8a4.9,4.9,0,0,0,1.3.4l1.5.4Z"/><path class="cls-3" d="M822.3,186.9a3.54,3.54,0,0,0,.4-1.1,18.62,18.62,0,0,0-1,2.5C821.9,187.8,822.1,187.3,822.3,186.9Z"/><path class="cls-4" d="M778.3,210.6s-3.1,14.9-8.9,16.9,7,19,7,19l26.5-1.5.5-5.5s-5-11.1,3.4-24.5S778.3,210.6,778.3,210.6Z"/><path class="cls-5" d="M736.7,562.9c-.4,4.5-11.3,2.8-11.3,2.8-18.2,2.5-15.2-15.3-15.2-15.3v-.9l.6-16.6.2-4.6s20-9.1,19.5-7.2c-.2.7.2,2.5.8,4.3,1,3.1,2.4,6.6,2.4,6.6s.1,7.3-.5,9.5,3.1,7.9,3.1,7.9a6.64,6.64,0,0,0,.1,1A86.92,86.92,0,0,1,736.7,562.9Z"/><path class="cls-5" d="M771.8,567.7s-11,1.7-11.3-2.8a104.27,104.27,0,0,1,.2-12.5v-1s3.7-5.8,3.1-7.9-.5-9.5-.5-9.5.4-.9.9-2.3c1.1-2.8,2.7-7.4,2.3-8.7-.5-1.9,19.5,7.2,19.5,7.2l.2,5.2.6,16v.9C786.9,552.4,789.9,570.3,771.8,567.7Z"/><path class="cls-4" d="M846.8,111.9c-6.4,20.4-25.7,26.1-25.7,26.1s-12.9,9.6-14.8,12.6-17.7,15.9-21.9,17.6-7.4,4.5-6.3,8.3c1,3.5-9.9,20.6-11.6,23.1h0l-.2.3-3.5,3.6-11.7,5.9-9.5-3.1-1.2-11.5,5.1-9h0a25.55,25.55,0,0,0,7.2-7.8c3.3-5.5,5.5-9.2,5.5-9.2s3.6-8.6,9.3-13.6a81.26,81.26,0,0,1,12.7-9l23.5-14s5.3-3.9,9-5S853.2,91.5,846.8,111.9Z"/><path class="cls-6" d="M751.3,202l15.6-3.1a.83.83,0,0,0-.3.6h0l-.2.3-3.5,3.6-11.7,5.9-9.5-3.1-1.2-11.5,5.1-9h0c-4.8,10-.1,17.1-.1,17.1Z"/><path class="cls-6" d="M842.8,253.6c0,.1-.1.2-.1.3a2.11,2.11,0,0,1-.6,1l-6.3,3.1-9.6,1-5-12.1,3.3-13.3,1.8-2.5.5-.6c.2,2.4,1.2,14.9,1.1,18.7-.1,4.2,3,4.5,3,4.5Z"/><path class="cls-7" d="M842.3,254.6c0,.1-.1.2-.1.3-.5,1.5-6.6,7.9-6.6,7.9s-17.5,12-23.1,14-13,12.8-13,12.8l-7.4,15.2s-13.2,10-14.5,12.7c-.9,1.8-.8,5-.7,6.9a9.32,9.32,0,0,0,.1,1.4l-3.9,4.1-3.1,3.2-4.4,4.6-7.1-1-22.2-3.5-4.3-2.4-23.7-13.3s0-.8-.1-2.1a13.44,13.44,0,0,0-.1-1.9c-.1-2.2-.2-4.9-.3-7.1-.2-4.7,3.4-12.8,3.4-12.8L718,277c-.6-3.1,3-11.4,3-11.4-.6-1.2,3.2-13.1,4.2-14.3s2.6-9.5,2.6-9.5c2-2.9,4.9-17.6,4.9-17.6s3.3-18.6,4-23.3,8.8-15.1,9.1-15.4c-5.8,10.6-.7,18.3-.7,18.3l5.8-1,15.6-3.1c-.7.5-.2,5.8-.2,5.8a7,7,0,0,1,2.6,4.3c.2,2.4,3,6,3.5,6.6l.1.1a7.84,7.84,0,0,1,3.8-5.4l3.6,4.8,1.2,5.8s-.3.8-2.4,2.4.9,5.8.9,5.8c1,1.7,1.3,7.9,1.3,7.9h0c2.7-2.3,6.8-2.3,6.8-2.3a20.11,20.11,0,0,0,4.1-5.9,2.41,2.41,0,0,1,2.89-1.8h0a.72.72,0,0,1,.5.2,20.55,20.55,0,0,1,3.9-2.7c1.9-1,4.2,1,4.2,1l.2,7.4s.2.3.5.7c.6.9,1.8,2.2,2.5,2,1-.3,9.1.5,9.1.5s2.8,1.2,3.8-.3,7-5.5,7-5.5,1.1,14.9,1.1,19.1,3,4.5,3,4.5Z"/><path class="cls-8" d="M842.5,254.6h-.2C842.6,253.6,842.5,254.6,842.5,254.6Z"/><circle class="cls-9" cx="776.7" cy="244.8" r="1.4"/><circle class="cls-9" cx="766.1" cy="265.8" r="1.4"/><circle class="cls-9" cx="745.5" cy="310.6" r="1.4"/><circle class="cls-9" cx="755.2" cy="288" r="1.4"/><path class="cls-6" d="M731.5,525.4c-7.5,8.9-15.6,8.8-20.5,7.5l.2-4.6s20-9.1,19.5-7.2A9.21,9.21,0,0,0,731.5,525.4Z"/><path class="cls-6" d="M786.3,535.5c-12.8,7.4-20.3-1.3-22-3.7,1.1-2.8,2.7-7.4,2.3-8.7-.5-1.9,19.5,7.2,19.5,7.2Z"/><path class="cls-10" d="M791.4,519.9c-2.6,3.7-2.4,12.8-2.4,12.8-16.5,11.9-25.2-2.6-25.2-2.6s1.1-9.3-.8-16.7a35.91,35.91,0,0,1-.3-14.6s-.3-14.8-1.1-16.8-1.1-8.2-.8-10.4-2.1-7.4-2.1-7.4,0-6.4-1.1-7.9-2.4-11.7-2.4-11.7l-7.7-28.9s-3.2-17.5-4.5-21.3-2.9-3-2.9-3l-4.6,20.7L732,447.4c-1.8,4-1,13.3-1,13.3l1.1,13.6-1.9,23.4v.1a1.44,1.44,0,0,0,.6,1.2,38.14,38.14,0,0,1,2.7,22.6c-12.2,17.7-27,8.5-27,8.5a36.43,36.43,0,0,0-2.9-11.7c-2.7-6.7.5-34,.5-34l-2.4-17.6s-.2-10.6-.6-12-.3-11.9-.3-11.9l.3-11.1c-4.2-14.1-2.1-36.4-2.1-36.4s-.6-35.6.7-37.2c.9-1.2.3-6.4.7-10.3a7.44,7.44,0,0,1,.9-3.3l.2-.2c2.1-2.6,2.1-12.8,1.9-16.9-.1-2.1,1.4-5.6,2.8-8.3,1-1.9,1.9-3.5,2.3-4.1l.1-.2s9.1,2.3,33.4,13.8a47.43,47.43,0,0,0,13.8,4.3,28.92,28.92,0,0,0,7.2.1,24.67,24.67,0,0,0,10.3-3.4,19.8,19.8,0,0,0,4.5-3.6c-.3,1-.1,4.4,0,6.5.1.9.1,1.6.1,1.6l2.7,11.9a33.5,33.5,0,0,1,1,4.3c.2,1.1.3,2.2.5,3.4,1.9,15.2.9,40.9.9,40.9s4,35.1,2.1,36.7-.3,7.1-.3,7.1a28.41,28.41,0,0,1,2.6,9.9,17.05,17.05,0,0,0,1.9,7.7l-.7,15.9,1.7,34.4C790.1,506.6,794,516.2,791.4,519.9Z"/><path class="cls-6" d="M772.6,461.9s12.2-7,14.8-3.9S772.6,461.9,772.6,461.9Z"/><path class="cls-6" d="M779.9,465.7s-2,1,2.4,2.3S779.9,465.7,779.9,465.7Z"/><path class="cls-6" d="M706.5,446.5c-.4.1,10.1,7.1,19.6,1.3C726,447.8,708.8,445.7,706.5,446.5Z"/><path class="cls-6" d="M725.6,459.8s-2.9,5.7-8.8,6.5S725.6,459.8,725.6,459.8Z"/><path class="cls-6" d="M764.2,472.1s13.8,22,11.2,27.2S764.2,472.1,764.2,472.1Z"/><path class="cls-6" d="M740.8,338.7l-1.4,43.1s8.5-.4,10-14.5,2.5-25.8,2.5-25.8Z"/><path class="cls-10" d="M740.4,337.7,739,380.8s8.5-.4,10-14.6,2.5-25.7,2.5-25.7Z"/><path class="cls-6" d="M723,339.6s-6.7,18.1-22.2,9.3a7.44,7.44,0,0,1,.9-3.3c4.2,1.8,14,4.4,18-7.4Z"/><path class="cls-6" d="M722.6,337.7s-6.7,18.1-22.2,9.3a7.44,7.44,0,0,1,.9-3.3c4.2,1.8,14,4.4,18-7.4Z"/><path class="cls-10" d="M722.6,338.7s-6.7,18.1-22.2,9.3a7.44,7.44,0,0,1,.9-3.3c4.2,1.8,14,4.4,18-7.4Z"/><path class="cls-6" d="M781.6,354.9C764.7,363,758.4,344,758.4,344l4,.1c.7,12.1,14.1,8.9,18.7,7.4C781.2,352.6,781.4,353.7,781.6,354.9Z"/><path class="cls-6" d="M782.5,353.5c-16.9,8-23.2-11-23.2-11l4,.1c.7,12.1,14.1,8.9,18.7,7.4A32,32,0,0,1,782.5,353.5Z"/><path class="cls-10" d="M782,353.9c-16.9,8-23.2-11-23.2-11l4,.1c.7,12.2,14.1,8.9,18.7,7.4C781.7,351.6,781.9,352.7,782,353.9Z"/><path class="cls-11" d="M722.6,338.7s-6.7,18.1-22.2,9.3a7.44,7.44,0,0,1,.9-3.3c4.2,1.8,14,4.4,18-7.4Z"/><path class="cls-11" d="M782,353.9c-16.9,8-23.2-11-23.2-11l4,.1c.7,12.2,14.1,8.9,18.7,7.4C781.7,351.6,781.9,352.7,782,353.9Z"/><path class="cls-6" d="M736.9,559.6c0,1.2,0,2.4-.1,3.3-.4,4.5-11.3,2.8-11.3,2.8-10,1.4-13.6-3.4-14.8-8a14,14,0,0,1-.5-4.6,24.52,24.52,0,0,1,.2-2.7v-.9a6.61,6.61,0,0,1,6.2,1.3c4.5,3.6,10.3.8,10.3.8s4.3.4,6,1.8c.9.8,2.5-1.1,3.7-3,.1,1.2.2,3.4.3,5.7C736.8,557.3,736.9,558.5,736.9,559.6Z"/><path class="cls-6" d="M719.3,559.3s-3,2.9-8.7-1.6a14,14,0,0,1-.5-4.6C713,555.4,718.3,559.3,719.3,559.3Z"/><path class="cls-6" d="M736.9,559.6a2.24,2.24,0,0,1-3.16-.35l0,0-.1-.1a22.7,22.7,0,0,0,3.2-3C736.8,557.3,736.9,558.5,736.9,559.6Z"/><path class="cls-6" d="M760.3,561.6c0,1.2,0,2.4.1,3.3.4,4.5,11.3,2.8,11.3,2.8,10,1.4,13.6-3.4,14.8-8a19.93,19.93,0,0,0,.4-7.3v-.9a6.61,6.61,0,0,0-6.2,1.3c-4.5,3.6-10.3.8-10.3.8s-4.3.4-6,1.8c-.9.8-2.5-1.1-3.7-3-.1,1.2-.2,3.4-.3,5.7C760.3,559.3,760.3,560.5,760.3,561.6Z"/><path class="cls-6" d="M777.9,561.4s3,2.9,8.7-1.6a17.12,17.12,0,0,0,.6-4.5C784.2,557.4,778.8,561.4,777.9,561.4Z"/><path class="cls-6" d="M760.3,561.6a2.24,2.24,0,0,0,3.16-.35l0,0,.1-.1a22.7,22.7,0,0,1-3.2-3C760.3,559.3,760.3,560.5,760.3,561.6Z"/><path class="cls-6" d="M747.1,254.6s-15.4,42.5-9.5,46.2S747.1,254.6,747.1,254.6Z"/><path class="cls-6" d="M758.4,241.5s-2.9,14.1-1.5,15.4S758.4,241.5,758.4,241.5Z"/><path class="cls-6" d="M789.5,274.3s-18.9,17.6-17.7,19.1S789.5,274.3,789.5,274.3Z"/><path class="cls-6" d="M803.9,235.5c-7.2,2.2-23.9,7.3-24.1,7.3l.9-3.8c2.7-2.3,6.8-2.3,6.8-2.3a20.11,20.11,0,0,0,4.1-5.9,2.41,2.41,0,0,1,2.89-1.8h0a.72.72,0,0,1,.5.2,20.55,20.55,0,0,1,3.9-2.7c1.9-1,4.2,1,4.2,1l.2,7.4C803.4,234.8,803.6,235.1,803.9,235.5Z"/><path class="cls-7" d="M803.9,234.6c-7.2,2.2-23.9,7.3-24.1,7.3l.9-3.8c2.7-2.3,6.8-2.3,6.8-2.3a20.11,20.11,0,0,0,4.1-5.9,2.41,2.41,0,0,1,2.89-1.8h0a.72.72,0,0,1,.5.2,20.55,20.55,0,0,1,3.9-2.7c1.9-1,4.2,1,4.2,1l.2,7.4Q803.45,233.85,803.9,234.6Z"/><path class="cls-6" d="M779,230.6c1,1.7,1.3,7.9,1.3,7.9l-2.8,2.2-5.3-15.3-.2-7.9-.1-.5.1.1a7.84,7.84,0,0,1,3.8-5.4l3.6,4.8,1.2,5.8s-.3.8-2.4,2.4S779,230.6,779,230.6Z"/><path class="cls-7" d="M779.5,230.1c1,1.7,1.3,7.9,1.3,7.9l-2.8,2.3L772.7,225l-.2-7.9-.1-.5.1.1a7.84,7.84,0,0,1,3.8-5.4l3.6,4.8,1.2,5.8s-.3.8-2.4,2.4S779.5,230.1,779.5,230.1Z"/><path class="cls-6" d="M814.8,203.9a21.5,21.5,0,1,1,0-.4Z"/><path class="cls-4" d="M814.8,203a21.65,21.65,0,1,1-21.7-21.6h.1a21.55,21.55,0,0,1,21.7,21.4h0C814.8,202.8,814.8,202.9,814.8,203Z"/><path class="cls-6" d="M814.8,203a21.49,21.49,0,0,1-3.2,11.3c-.3-.6-.5-1.2-.8-1.8-.5-.8-1.5-1.5-2.3-1a2.28,2.28,0,0,0-.7,1c-.6,1.3-1.8,2.7-3.2,2.6a3.11,3.11,0,0,1-2.7-2.3,9.54,9.54,0,0,1-.2-3.8c.2-2.6.3-5.6-1.7-7.4a12.28,12.28,0,0,0-4.2-1.9c-1.5-.5-3-1.2-3.6-2.7-.4-1-.3-2.1-.7-3a5.5,5.5,0,0,0-3.9-2.9,9.92,9.92,0,0,1-6.8,2.3,25,25,0,0,1-6.7-1.1A21.73,21.73,0,0,1,814.8,203Z"/><path class="cls-12" d="M791.6,193c.4,1,.3,2.1.7,3a5.61,5.61,0,0,0,3.6,2.7,11.5,11.5,0,0,1,4.2,1.9c1.9,1.8,1.9,4.8,1.7,7.4a9.54,9.54,0,0,0,.2,3.8,3,3,0,0,0,2.7,2.3c1.5,0,2.6-1.3,3.2-2.6a2.28,2.28,0,0,1,.7-1c.8-.5,1.8.2,2.3,1a6.92,6.92,0,0,0,1.3,2.4,3,3,0,0,0,2.6.6,6.58,6.58,0,0,0,2.5-1.3,13.57,13.57,0,0,0,4.6-5.5,7.81,7.81,0,0,0-.3-7c-.8-1.3-1.9-2.3-2.4-3.7-.8-2.4.7-4.9,1.7-7.2a12.18,12.18,0,0,0,.8-6.8,8.76,8.76,0,0,0-3.6-5.7c-3.8-2.5-8.9-1.1-13.3-2.4a26.37,26.37,0,0,1-4.6-1.9,33.09,33.09,0,0,0-7-2.2c-2.4-.5-5.3-.5-6.8,1.4a19.94,19.94,0,0,0-1.1,1.9,7.31,7.31,0,0,1-4.3,3.2c-1.3.3-2.6.2-4,.4a4.34,4.34,0,0,0-3.3,1.9c-.7,1.2-.4,2.7-.2,4s.1,2.9-1,3.8c-.5.4-1.2.6-1.5,1.1a1.57,1.57,0,0,0,.5,1.9,4.52,4.52,0,0,0,1.9.8,28.82,28.82,0,0,0,7.7,1.3,10.25,10.25,0,0,0,7.1-2.6c-.2.2-1.3.1-1.5.1C788.5,190.2,790.9,191.1,791.6,193Z"/><g class="cls-13"><path d="M818.5,210.8a7.37,7.37,0,0,1-2.5,1.3,3,3,0,0,1-2.6-.6,10.92,10.92,0,0,1-1.3-2.4c-.5-.8-1.5-1.5-2.3-1a2.28,2.28,0,0,0-.7,1c-.6,1.3-1.8,2.7-3.2,2.6a3.11,3.11,0,0,1-2.7-2.3,9.54,9.54,0,0,1-.2-3.8c.2-2.6.3-5.6-1.7-7.4a12.28,12.28,0,0,0-4.2-1.9c-1.5-.5-3-1.2-3.6-2.7-.4-1-.3-2.1-.7-3a5.32,5.32,0,0,0-3.9-2.9,9.92,9.92,0,0,1-6.8,2.3,28.82,28.82,0,0,1-7.7-1.3,4.52,4.52,0,0,1-1.9-.8,1.31,1.31,0,0,1-.3-.4,3.1,3.1,0,0,0-1.1.9,1.57,1.57,0,0,0,.5,1.9,4.52,4.52,0,0,0,1.9.8,28.82,28.82,0,0,0,7.7,1.3,10.36,10.36,0,0,0,6.8-2.3,5.32,5.32,0,0,1,3.9,2.9c.4,1,.3,2.1.7,3a5.61,5.61,0,0,0,3.6,2.7,11.5,11.5,0,0,1,4.2,1.9c1.9,1.8,1.9,4.8,1.7,7.4a9.54,9.54,0,0,0,.2,3.8,3,3,0,0,0,2.7,2.3c1.5,0,2.6-1.3,3.2-2.6a2.28,2.28,0,0,1,.7-1c.8-.5,1.8.2,2.3,1a9.15,9.15,0,0,0,1.3,2.4,3,3,0,0,0,2.6.6,6.58,6.58,0,0,0,2.5-1.3,13.57,13.57,0,0,0,4.6-5.5,6.52,6.52,0,0,0,.4-1.3A17.18,17.18,0,0,1,818.5,210.8Z"/><path d="M820.5,191.1c.2-.5.4-.9.6-1.4a4.83,4.83,0,0,0,.4-1.1A15.9,15.9,0,0,0,820.5,191.1Z"/><path d="M773.7,184.9a4.08,4.08,0,0,0,.9-3.7,17.7,17.7,0,0,1-.2-2.3,1.84,1.84,0,0,0-.5.7c-.7,1.2-.4,2.7-.2,4Z"/></g><path class="cls-6" d="M777.6,333.7c-1.9.1-4.5.3-7.6.4-2.2.1-4.6.1-7.2.1-2.3,0-4.7,0-7.2-.1a155.63,155.63,0,0,1-23.6-2.4c-10.4-2-20-5.5-26-11.3,1-1.9,1.9-3.5,2.3-4.1a13.44,13.44,0,0,0-.1-1.9c10.5,5,43.4,18.9,68.7,11a9.32,9.32,0,0,0,.1,1.4l.6.5C777.3,328.3,777.5,331.7,777.6,333.7Z"/><path class="cls-9" d="M777.6,332.8c-1.9.1-4.5.3-7.6.4-2.2.1-4.6.1-7.2.1-2.3,0-4.7,0-7.2-.1a155.63,155.63,0,0,1-23.6-2.4c-10.4-2-20-5.5-26-11.3,1-1.9,1.9-3.5,2.3-4.1a13.44,13.44,0,0,0-.1-1.9c10.5,5,43.4,18.9,68.7,11a9.32,9.32,0,0,0,.1,1.4l.6.5C777.3,327.3,777.5,330.7,777.6,332.8Z"/><path class="cls-14" d="M278.5,770.4a14.14,14.14,0,0,1-3.1-10.5l44.1-361.2,3.7-30a13.88,13.88,0,0,1,13.6-12.2l129.3-.9a13.76,13.76,0,0,0,13.7-13.82V340a13.85,13.85,0,0,1,13.39-14.3H629.6a13.84,13.84,0,0,1,13.8,13.8,13.44,13.44,0,0,1-.1,1.9,13.77,13.77,0,0,0,11.81,15.49h.09a7.57,7.57,0,0,0,1.5.1l130.5,3.3a13.84,13.84,0,0,1,13.5,14.19h0a13.42,13.42,0,0,1-.2,2l-65.2,381-1.2,7.2a14.35,14.35,0,0,1-2,5.2Z"/><g class="cls-15"><polygon class="cls-16" points="521.8 462.7 671.2 246.4 737.3 292.1 587.9 508.4 521.8 462.7"/></g><rect class="cls-17" x="500.54" y="341.95" width="258.94" height="76.3" transform="translate(-41.69 680.45) rotate(-55.2)"/><g class="cls-15"><polygon class="cls-18" points="508 484.9 581.4 233.6 658.6 256.1 585.1 507.5 508 484.9"/></g><rect class="cls-17" x="454.76" y="332.55" width="258.31" height="76.4" transform="translate(64.26 827.22) rotate(-73.71)"/><g class="cls-15"><polygon class="cls-19" points="508.1 498.9 529.1 237.9 609.2 244.4 588.2 505.4 508.1 498.9"/></g><rect class="cls-17" x="430.07" y="333.52" width="258.31" height="76.4" transform="translate(143.85 899.33) rotate(-85.4)"/><g class="cls-15"><polygon class="cls-20" points="494.6 248.6 574.8 245 586.8 506.6 506.5 510.2 494.6 248.6"/></g><rect class="cls-21" x="503.12" y="248.41" width="76.4" height="258.31" transform="translate(-16.63 25.04) rotate(-2.61)"/><rect class="cls-22" x="509.92" y="252.71" width="54" height="54" transform="translate(-12.18 24.74) rotate(-2.61)"/><rect class="cls-23" x="515.11" y="315.63" width="54.1" height="54.1" transform="translate(-16.42 27.48) rotate(-2.86)"/><rect class="cls-24" x="515.82" y="382.91" width="54" height="54" transform="translate(-18.1 25.14) rotate(-2.61)"/><path class="cls-25" d="M529.7,590.7,461.8,617l-99.2,38.3c-3.8-7-9.3-16.5-16.1-27.8-23.5-38.9-62.4-99.5-97-152.7-39-60-72.6-110.6-72.6-110.6l24.3-7,198.5-57.6Z"/><path class="cls-26" d="M529.7,590.7,461.8,617a507.34,507.34,0,0,1-115.3,10.6c-23.5-38.9-62.4-99.5-97-152.7L201.3,357.2l198.5-57.6Z"/><path class="cls-22" d="M580.2,574.4s-105.5,62.4-262.9,48.3l-125.5-306,60.1-10.3,207.9-35.7,118,297.8Z"/><path class="cls-26" d="M577.8,568.5c-24.8,1.2-53.6,1.1-82.5-2.3-31.3-3.7-62.7-11.3-89.7-25.2-22.5-11.6-41.8-24.2-58.6-39.4-43.7-39.3-70.8-95.6-95.1-195.2l207.9-35.7Z"/><path class="cls-17" d="M655.2,551.4s-77.7,15.2-156.9,5.8c-31.3-3.7-62.7-11.3-89.7-25.2-22.5-11.6-41.8-24.2-58.6-39.4-54.1-48.7-82.7-123.3-112.2-274,0,0,129.2,31.2,257-37.1C494.8,181.6,537.9,450.4,655.2,551.4Z"/><path class="cls-26" d="M498.3,557.2c-31.3-3.7-62.7-11.3-89.7-25.2-22.5-11.6-41.8-24.2-58.6-39.4,46.1-3.7,52.7-28.9,52.7-28.9C436.9,517.9,498.3,557.2,498.3,557.2Z"/><path class="cls-24" d="M341.3,270.3s105.1-5.9,134.4-28.6l4.5,14.3s-69.4,30.6-138.9,31Z"/><path class="cls-24" d="M304.7,344.6s101.7-5.6,178.6-42.7l2.6,5.9s-61,35.6-181.2,44.9Z"/><path class="cls-24" d="M312.9,372.1s101.7-5.6,178.6-42.7l2.6,5.9s-61,35.6-181.2,44.9Z"/><path class="cls-24" d="M321,399.6s101.7-5.6,178.6-42.7l2.6,5.9s-61,35.6-181.2,44.9Z"/><path class="cls-24" d="M329.2,427.2s101.7-5.6,178.6-42.7l2.6,5.9s-61,35.6-181.2,44.9Z"/><path class="cls-24" d="M337.4,454.7S439.1,449.1,516,412l2.6,5.9s-61,35.6-181.2,44.9v-8.1Z"/><path class="cls-22" d="M1052.8,796.8s-42.3-2.5-37.3,27.1c0,0-1,5.2,3.8,7.6,0,0,.1-2.2,4.3-1.5a17.72,17.72,0,0,0,4.6.2,9.64,9.64,0,0,0,5.6-2.3h0s11.9-4.9,16.5-24.3c0,0,3.4-4.2,3.3-5.3l-7.1,3s2.4,5.2.5,9.4c0,0-.2-9.2-1.6-9-.3,0-3.7,1.8-3.7,1.8s4.2,9,1,15.5c0,0,1.2-11-2.3-14.8l-5,2.9s4.9,9.3,1.6,16.8c0,0,.8-11.6-2.6-16.1l-4.6,3.5s4.6,9.1,1.8,15.4c0,0-.4-13.5-2.8-14.5,0,0-4,3.5-4.6,5,0,0,3.2,6.6,1.2,10.1,0,0-1.2-9-2.2-9,0,0-4,6-4.4,10,0,0,.2-6.1,3.4-10.6a11.35,11.35,0,0,0-6.1,3.2s.6-4.2,7.1-4.6c0,0,3.3-4.5,4.1-4.8,0,0-6.4-.5-10.3,1.2,0,0,3.4-4,11.5-2.2l4.5-3.7s-8.4-1.2-12,.1c0,0,4.1-3.5,13.2-1l4.9-2.9s-7.2-1.5-11.5-1c0,0,4.5-2.4,12.9.2l3.5-1.6s-5.3-1-6.8-1.2-1.6-.6-1.6-.6a17.66,17.66,0,0,1,9.9,1.1C1045.5,800,1052.9,797.3,1052.8,796.8Z"/><ellipse class="cls-1" cx="1023.7" cy="834.1" rx="29.9" ry="5.1"/><ellipse class="cls-1" cx="813.8" cy="815.2" rx="102" ry="9.2"/><path class="cls-22" d="M1072.5,699s-23.8-1.4-21,15.3a4.19,4.19,0,0,0,2.1,4.3s.1-1.2,2.4-.8a11.31,11.31,0,0,0,2.6.1,5.39,5.39,0,0,0,3.2-1.3h0s6.7-2.8,9.3-13.7c0,0,1.9-2.4,1.8-3l-4,1.7s1.4,2.9.3,5.3c0,0-.1-5.2-.9-5.1a20.18,20.18,0,0,0-2.1,1s2.4,5,.6,8.7c0,0,.7-6.2-1.3-8.4l-2.8,1.7s2.8,5.2.9,9.5c0,0,.5-6.5-1.5-9.1l-2.6,2s2.6,5.2,1,8.7c0,0-.2-7.6-1.6-8.2a16.84,16.84,0,0,0-2.6,2.8s1.8,3.7.7,5.7c0,0-.7-5.1-1.2-5.1,0,0-2.2,3.3-2.5,5.7a12.89,12.89,0,0,1,1.9-6,6.31,6.31,0,0,0-3.4,1.8s.3-2.4,4-2.6a16.93,16.93,0,0,1,2.3-2.7s-3.6-.3-5.8.7c0,0,1.9-2.2,6.5-1.2l2.5-2.1s-4.8-.7-6.8.1c0,0,2.3-2,7.4-.5l2.8-1.7a23.26,23.26,0,0,0-6.5-.5s2.6-1.4,7.3.1l2-.9s-3-.6-3.8-.7-.9-.3-.9-.3a10.7,10.7,0,0,1,5.6.6C1068.4,700.8,1072.5,699.3,1072.5,699Z"/><ellipse class="cls-1" cx="1056.1" cy="720" rx="16.9" ry="2.8"/><path class="cls-22" d="M931.8,713.5s-28.8-1.7-25.4,18.4a5,5,0,0,0,2.5,5.2s0-1.5,3-1a16.05,16.05,0,0,0,3.1.2,5.93,5.93,0,0,0,3.8-1.6h0s8.1-3.3,11.2-16.6c0,0,2.3-2.9,2.2-3.6l-4.9,2.1s1.7,3.5.3,6.4c0,0-.2-6.3-1.1-6.1-.2,0-2.5,1.2-2.5,1.2s2.8,6.1.7,10.5c0,0,.8-7.5-1.6-10.1l-3.4,2s3.3,6.3,1.1,11.5c0,0,.6-7.9-1.8-11l-3.1,2.4s3.1,6.2,1.2,10.5c0,0-.2-9.2-1.9-9.9,0,0-2.7,2.4-3.1,3.4,0,0,2.1,4.5.8,6.9,0,0-.8-6.1-1.5-6.2,0,0-2.7,4.1-3,6.8a14,14,0,0,1,2.3-7.2,7.21,7.21,0,0,0-4.1,2.2s.4-2.9,4.8-3.1c0,0,2.2-3.1,2.8-3.3,0,0-4.4-.4-7,.8,0,0,2.3-2.7,7.8-1.5l3.1-2.5s-5.7-.8-8.2.1c0,0,2.8-2.4,9-.6l3.3-2a34,34,0,0,0-7.8-.7s3.1-1.7,8.8.1l2.4-1.1s-3.6-.7-4.6-.8-1.1-.4-1.1-.4a12.76,12.76,0,0,1,6.7.7C926.8,715.7,931.9,713.8,931.8,713.5Z"/><ellipse class="cls-1" cx="912" cy="738.9" rx="20.4" ry="3.4"/><ellipse class="cls-1" cx="54.7" cy="819" rx="29.9" ry="5.1"/><path class="cls-27" d="M34.6,795.5s17.1-.5,22.2-4.2,26.3-8,27.5-2.2,25.6,29.2,6.4,29.4-44.8-3-49.9-6.1S34.6,795.5,34.6,795.5Z"/><path class="cls-28" d="M91,816.5c-19.3.2-44.8-3-49.9-6.1-3.9-2.4-5.5-10.9-6-14.9h-.6s1.1,13.8,6.2,16.9,30.7,6.3,49.9,6.2c5.6,0,7.5-2,7.4-5C97.3,815.3,95.2,816.4,91,816.5Z"/><polygon class="cls-29" points="789.7 162.3 842.5 0 1132.9 94.4 1080.2 256.7 789.7 162.3"/><rect class="cls-30" x="877.21" y="-22.25" width="168.3" height="301.2" transform="translate(542.06 1002.92) rotate(-71.99)"/><g class="cls-31"><circle class="cls-22" cx="306.2" cy="291.4" r="19.4"/></g><g class="cls-31"><rect class="cls-22" x="1011.93" y="33.4" width="8.6" height="136.6" transform="translate(605.31 1036.7) rotate(-71.99)"/></g><g class="cls-31"><rect class="cls-22" x="973.29" y="77.43" width="8.6" height="69.6" transform="translate(568.6 1007.22) rotate(-71.99)"/></g><g class="cls-31"><rect class="cls-22" x="986.97" y="83.38" width="8.6" height="112.6" transform="translate(551.95 1039.19) rotate(-71.99)"/></g><g class="cls-31"><rect class="cls-22" x="991.57" y="95.97" width="8.6" height="136.6" transform="translate(531.74 1060.56) rotate(-71.99)"/></g><g class="cls-15"><rect class="cls-22" x="1023.57" y="194.54" width="16.6" height="37.8" transform="translate(509.85 1128.76) rotate(-71.99)"/></g><path class="cls-32" d="M935,483a3.37,3.37,0,0,0-.1-1,3.78,3.78,0,0,0-.2-1c-.1-.7-.3-1.4-.4-2l-.3-.9a26.39,26.39,0,0,0-5-9.7c-.1-.2-.3-.3-.4-.5a5.26,5.26,0,0,0-.8-.9,4.84,4.84,0,0,0-.8-.7,4.44,4.44,0,0,1-.7-.6c-.5-.4-.9-.7-1.3-1a5.1,5.1,0,0,0-.8-.5,4.28,4.28,0,0,0-1.9-.6l-4.2-.4h0l-5.7-.6-20.3-7.9-.8.3a39.39,39.39,0,0,1-1.5-5,4.72,4.72,0,0,0,1.6-1.2,3.58,3.58,0,0,0,1.1-1.4c.5-1.2-.5-3.7-.3-5.1.3-2.3,1.5-4.5,2.5-6.6,2.1-4.5,3.6-9.4,3.3-14.3s-2.5-9.9-6.7-12.7c-2.2-1.4-4.7-2.2-6.9-3.5a54.48,54.48,0,0,1-4.9-3.5,28.39,28.39,0,0,0-27.9-2c-4.2,2.1-7.8,5.2-11.8,7.7s-8.7,4.4-13.3,3.7a1.23,1.23,0,0,0-.1.6H826c-.8,2.2,1.2,4.3,3,5.8,3.4,2.8,7.3,5.6,11.8,5.8,1.7,0,3.6-.3,5.1.4a9.12,9.12,0,0,1,1,.6,22.38,22.38,0,0,0,7,22.2l-10.3-3.7s-.4.2-1.1.6l-14.4-9.6s-28.8-10.4-36.8,5.8,34.7,7.9,34.7,7.9l9.1,5a8.2,8.2,0,0,0,1,5.5L861,473.4c-5,1.5-13.3,4-14.8,4-2.1,0-8,2.1-11.7,10.5s-17.1,49.3-28.8,56.1S763,596.5,763,596.5l.1.4c-.5.2-1.1.3-1.6.5a33.47,33.47,0,0,0-16.1,12.1,5.15,5.15,0,0,0,1.18,7.19h0a5.36,5.36,0,0,0,2.4.9c12.2,1.5,18.9-4.1,22.1-8.3.2-.3.4-.5.6-.8a3.9,3.9,0,0,0,3,.1l14.9-12.1s-11.7,11.5-4.8,22l-.5.7a168.12,168.12,0,0,0-25,54.4s-6.4,4.7-6.9,23.6-6.9,49.3-6.9,49.3-4.3,36.2-1.6,47.2c0,0,.3.4.9,1.1-.2.2-.4.5-.7.8-2.3,2.5-6.5,6-11.4,5-7.5-1.6-7.5,11.5,3.2,12.6,6.9.7,20.4,3.7,29.1,5.8a6.11,6.11,0,0,0,7.4-4.4,7.42,7.42,0,0,0,.2-2.1c-.5-4.7-1.5-10.4-3.2-14.4a4.76,4.76,0,0,0-.3-.7l.9-.9s0-23.1,3.7-29.4c0,0,10.1-47.8,9.6-59.8-.4-9.4,26.3-46.2,37.9-61.7l-.1-.6c3-4,4.9-6.4,4.9-6.4l9,57.2s4.3,12.6,9.6,19.4c0,0,22.9,43.5,25.6,57.2,2,10.3,6.2,16.5,8.1,18.8l-.7.7c-2.4,2.2-6,4.5-10.1,3.6-7.5-1.6-7.5,11.5,3.2,12.6,6.9.7,20.4,3.8,29.1,5.8a6.26,6.26,0,0,0,7.5-4.5,7.42,7.42,0,0,0,.2-2.1c-.6-5.5-1.8-12.3-4.1-16.3-.2-.3-.4-.7-.6-1a5.08,5.08,0,0,0,2.1-1.5s-13.9-33.1-13.9-42c0,0-5.9-34.1-25.6-46.7,0,0,1.9-42.7,7.5-66.4.1-.6.3-1.2.4-1.7,5.2-.8,10.4-1.9,15.6-3.2l.5-15.7,2.7,12.6L922,607s-.3-3.3-.8-8.4c-.3-2.5-.6-5.5-.9-8.8-.3-2.6-.6-5.3-1-8.1l-.3-2.1c-.4-2.8-.8-5.7-1.3-8.5-.2-1.1-.4-2.1-.5-3.1-.3-1.4-.5-2.7-.8-4-.1-.7-.3-1.3-.4-1.9s-.3-1.3-.4-1.9-.3-1.2-.4-1.8a3.09,3.09,0,0,1-.2-.9c-.2-.6-.3-1.1-.5-1.7a31.62,31.62,0,0,1-1.1-6.9v-2.8a13.19,13.19,0,0,1,.3-2.8c.1-.5.1-.9.2-1.4a27.2,27.2,0,0,1,1.5-5.4c.3-.9.7-1.7,1.1-2.6,1-2,2-4.1,3.1-6.4.5-1.1,1.1-2.3,1.6-3.5s1.1-2.4,1.6-3.6c5.2-11.6,10.3-24.5,11.7-32.9.14-.83.24-1.66.3-2.5A6.42,6.42,0,0,0,935,483Z"/><path class="cls-33" d="M845.9,451.6l-17.6-11.9s-27.9-10.4-35.7,5.7,33.6,7.8,33.6,7.8l17.6,9.8Z"/><rect class="cls-17" x="726.64" y="419.38" width="168.21" height="261.91" transform="translate(-90.63 934.65) rotate(-57.26)"/><rect class="cls-14" x="716.47" y="513.77" width="104.5" height="10.3" transform="translate(-81.51 889.48) rotate(-57.57)"/><rect class="cls-14" x="735.01" y="525.57" width="104.5" height="10.3" transform="translate(-82.87 910.6) rotate(-57.57)"/><rect class="cls-14" x="754.55" y="542.82" width="104.4" height="10.3" transform="translate(-90.48 930.19) rotate(-57.26)"/><rect class="cls-21" x="772.06" y="549.02" width="104.5" height="10.3" transform="translate(-85.49 952.74) rotate(-57.57)"/><rect class="cls-21" x="790.59" y="560.81" width="104.5" height="10.3" transform="translate(-86.85 973.85) rotate(-57.57)"/><rect class="cls-14" x="893.4" y="539.47" width="27.1" height="27.1" transform="translate(-46.19 1021.96) rotate(-57.57)"/><path class="cls-34" d="M897.9,814.2c-8.5-2.1-21.6-5.1-28.2-5.8-10.3-1-10.3-14-3.1-12.4,3.9.8,7.4-1.4,9.8-3.5a19.85,19.85,0,0,0,2-2.2,5.75,5.75,0,0,1,3.3-2c3.9-.8,12-2.1,16.9.5a7.6,7.6,0,0,1,2.7,2.9c2.2,4,3.4,10.7,4,16a5.9,5.9,0,0,1-5.15,6.58l-.15,0A5,5,0,0,1,897.9,814.2Z"/><path class="cls-34" d="M767.1,819.4c-8.5-2.1-21.6-5.1-28.2-5.8-10.3-1-10.3-14-3.1-12.4,4.7,1,8.8-2.4,11.1-4.9a5.57,5.57,0,0,0,.7-.9,6.36,6.36,0,0,1,3.3-2c3.9-.8,12-2.1,16.9.5,1.5.8,2.6,2.5,3.5,4.7,1.7,4,2.6,9.6,3.1,14.2a6,6,0,0,1-5.4,6.5A3.09,3.09,0,0,1,767.1,819.4Z"/><path class="cls-26" d="M771.3,798.7c-12.3,12.7-22.9-.2-24.5-2.4a5.57,5.57,0,0,0,.7-.9,6.36,6.36,0,0,1,3.3-2c3.9-.8,12-2.1,16.9.5A8.67,8.67,0,0,1,771.3,798.7Z"/><path class="cls-26" d="M901.3,791.7c-5.3,3.7-23.4,2.8-23.4,2.8a15.41,15.41,0,0,1-1.6-2,19.85,19.85,0,0,0,2-2.2,5.75,5.75,0,0,1,3.3-2c3.9-.8,12-2.1,16.9.5A6.49,6.49,0,0,1,901.3,791.7Z"/><path class="cls-35" d="M902.3,789.3c-3.6,4.7-24.3,3.6-24.3,3.6s-6.2-6.2-8.8-19.7-24.8-56.4-24.8-56.4c-5.2-6.7-9.3-19.1-9.3-19.1l-8.8-56.4s-42.4,55.9-41.9,67.8-9.3,59-9.3,59c-3.6,6.2-3.6,29-3.6,29-13.4,14-24.8-2.6-24.8-2.6-2.6-10.9,1.5-46.5,1.5-46.5s6.2-30,6.7-48.6,6.7-23.3,6.7-23.3a165.92,165.92,0,0,1,24.3-53.7,83,83,0,0,1,5.2-6.9l83.8,9.8a55.36,55.36,0,0,0-3.6,11.1c-5.5,23.4-7.3,65.5-7.3,65.5,19.1,12.4,24.8,46,24.8,46C888.8,756.7,902.3,789.3,902.3,789.3Z"/><g class="cls-13"><path d="M821.6,648.3l-1.1-6.9s-42.4,55.9-41.9,67.8-9.3,59-9.3,59c-3.6,6.2-3.6,29-3.6,29a18.93,18.93,0,0,1-8.1,5.2c4.1,1.1,9,.3,14.3-5.2,0,0,0-22.8,3.6-29,0,0,9.8-47.1,9.3-59C784.5,699.8,810.4,663.6,821.6,648.3Z"/><path d="M889.3,747.9s-5.7-33.6-24.8-46c0,0,1.8-42,7.3-65.5a55.36,55.36,0,0,1,3.6-11.1l-83.8-9.8s-.2.2-.6.7l78.1,9.2a55.36,55.36,0,0,0-3.6,11.1c-5.5,23.4-7.3,65.5-7.3,65.5,19.1,12.4,24.8,46,24.8,46,0,8.8,13.5,41.4,13.5,41.4-2.1,2.7-10.2,3.5-16.5,3.7,5,.1,19.7.2,22.7-3.7C902.8,789.3,889.3,756.7,889.3,747.9Z"/></g><path class="cls-33" d="M775.6,608.3a15.56,15.56,0,0,1-2.5,4.3c-3.1,4.2-9.6,9.7-21.4,8.2a5.09,5.09,0,0,1-4.4-5.7,4.94,4.94,0,0,1,.9-2.3,32.58,32.58,0,0,1,15.6-12,24.77,24.77,0,0,1,6.6-1.3Z"/><path class="cls-36" d="M884.8,463.6l-41.5-15.2s-11.9,6.2-7.2,15l40.4,25.4Z"/><path class="cls-26" d="M885,463.8l-41.5-15.2s-11.9,6.2-7.2,15l40.3,25.3Z"/><path class="cls-33" d="M886.2,438.6s-.5,24.3,10.3,32.6S865,484.1,865,484.1s6.7-24.8,0-37.8S886.2,438.6,886.2,438.6Z"/><path class="cls-26" d="M874.9,625.4a55.36,55.36,0,0,0-3.6,11.1c-50,7.6-84.8-13.2-84.8-13.2a4.4,4.4,0,0,1-.5-.9,83,83,0,0,1,5.2-6.9Z"/><path class="cls-26" d="M775.6,608.3a15.56,15.56,0,0,1-2.5,4.3c-4.8-.8-8.6-10-9.3-11.7a24.77,24.77,0,0,1,6.6-1.3Z"/><path class="cls-36" d="M890.4,460.4l-18.6,6.7L864,477.5s-16,5.2-18.1,5.2-7.8,2.1-11.4,10.3-16.5,48.6-27.9,55.3S765.2,600,765.2,600s5.2,14,11.4,11.9L791.1,600s-11.4,11.4-4.7,21.7c0,0,42.4,25.3,100.9,9.8l.5-15.5,2.6,12.4,29-18.1s-2.6-33.4-7.3-50.4a31.08,31.08,0,0,1,2-21.4c7.5-15.7,19.1-41.8,17.7-51.3-1.7-11.2-8-16.1-10.4-17.6a6.36,6.36,0,0,0-1.8-.6l-9.5-.9Z"/><path class="cls-6" d="M858.6,512.3s-10.3,48.1-21.7,55.9S795,600.8,794,604.9"/><path class="cls-36" d="M853.9,510.8s-10.3,48.1-21.7,55.9-41.9,32.6-42.9,36.7"/><path class="cls-26" d="M863.7,477.2s35.7-11.9,46-8.8"/><g class="cls-13"><path d="M914.1,538.6c7.5-15.7,19.1-41.8,17.7-51.3-1.7-11.2-8-16.1-10.4-17.6a6.36,6.36,0,0,0-1.8-.6l-4-.4a5.74,5.74,0,0,1,1.2.5c2.4,1.5,8.8,6.4,10.4,17.6,1.4,9.5-10.2,35.7-17.7,51.3a31.08,31.08,0,0,0-2,21.4c4.7,17,7.3,50.4,7.3,50.4l-24.9,15.6.6,3,29-18.1s-2.6-33.4-7.3-50.4A30.39,30.39,0,0,1,914.1,538.6Z"/><polygon points="905.4 467.6 909.9 468 890.4 460.4 888.6 461 905.4 467.6"/></g><path class="cls-6" d="M853.9,561s16-8.8,21.2-6.7,24.3-.5,24.3-.5"/><path class="cls-6" d="M884.5,445.1c-.6-5.2,1.8-4.4,1.8-4.4s-27.9-5.2-21.2,7.8a28.2,28.2,0,0,1,2.8,11.4h.3C875.9,459.8,880.5,451.1,884.5,445.1Z"/><circle class="cls-33" cx="868.1" cy="435.5" r="22.2"/><path class="cls-26" d="M892.5,442.1c2-4.4,3.5-9.2,3.3-14.1s-2.4-9.8-6.5-12.5c-2.1-1.4-4.5-2.1-6.7-3.4-1.7-1-3.2-2.3-4.8-3.4a27.11,27.11,0,0,0-27.1-2c-4.1,2-7.6,5.1-11.4,7.6s-8.4,4.3-12.9,3.6c-.8,2.1,1.1,4.3,2.9,5.8,3.3,2.8,7.1,5.6,11.4,5.7,1.7,0,3.5-.3,5,.4a7.1,7.1,0,0,1,2.5,2.4,45.26,45.26,0,0,1,5.3,9,7.17,7.17,0,0,0,2.4,3.5c2,1.3,4.6.2,7,.1,3.7-.1,7,2.2,9.7,4.6s5.3,5.3,8.8,6.6c2.6,1,7.7.9,9-2.1.5-1.2-.5-3.6-.3-5.1A23.25,23.25,0,0,1,892.5,442.1Z"/><path class="cls-36" d="M892.9,441.6c2-4.4,3.5-9.2,3.3-14.1s-2.4-9.8-6.5-12.5c-2.1-1.4-4.5-2.2-6.7-3.4-1.7-1-3.2-2.3-4.8-3.4a27.11,27.11,0,0,0-27.1-2c-4.1,2-7.6,5.1-11.4,7.5s-8.4,4.3-12.9,3.6c-.8,2.2,1.1,4.3,2.9,5.8,3.3,2.8,7.1,5.6,11.4,5.7,1.7,0,3.5-.3,5,.4a7.1,7.1,0,0,1,2.5,2.4,47.33,47.33,0,0,1,5.3,8.9,7.17,7.17,0,0,0,2.4,3.5c2,1.3,4.6.2,7,.1,3.7-.1,7,2.2,9.7,4.7s5.3,5.3,8.8,6.6c2.6,1,7.7.9,9-2.1.5-1.2-.5-3.6-.3-5.1A23.86,23.86,0,0,1,892.9,441.6Z"/><path class="cls-26" d="M731.9,770a10,10,0,0,1-6.6,2.3l-446.8-1.9a14.14,14.14,0,0,1-3.1-10.5l44.1-361.2,27.7-.3a10.42,10.42,0,0,1,10.2,7.7l5.2,19.1a10.51,10.51,0,0,0,10.3,7.7l110.5-2.7a10.44,10.44,0,0,0,10.2-10.5V407.1a10.52,10.52,0,0,1,10.3-10.5L657,395a10.51,10.51,0,0,1,10.4,8.5l67.7,354,.4,2.3A10.32,10.32,0,0,1,731.9,770Z"/><path class="cls-37" d="M652.1,400.2,499,401.8a10.46,10.46,0,0,0-10.3,10.5v12.6a10.34,10.34,0,0,1-10.2,10.4L368,438a10.61,10.61,0,0,1-10.4-7.7l-5.2-19.1a10.32,10.32,0,0,0-10.2-7.7l-147.5,1.6a10.41,10.41,0,0,0-10.3,10.52v.08c0,.6.1,1.1.1,1.6l59.4,349.4a10.5,10.5,0,0,0,10.3,8.7l466.1,2a10.41,10.41,0,0,0,10.5-10.32V767a13.42,13.42,0,0,0-.2-2L662.5,408.7A10.49,10.49,0,0,0,652.1,400.2Z"/><path class="cls-4" d="M867.7,160.9l-.8,8.9.6,15.7L865.8,212s-.2,11.6-6.8,17.1L842.2,255h-.1l-6.3,3.1-9.6,1-5-12.1,3.3-13.3,1.8-2.5.5-.6c2-2.2,9.7-10.2,15.8-12.7,0,0,4.1-3,3.4-7.7s5.5-29.7,5.5-29.7,4-16.5,3.1-18.1-.2-38.2,13.6-38.7S867.7,160.9,867.7,160.9Z"/><ellipse class="cls-1" cx="151.4" cy="700.9" rx="16.2" ry="2.2"/><ellipse class="cls-1" cx="89.3" cy="707.2" rx="16.2" ry="2.2"/><ellipse class="cls-1" cx="16.2" cy="698.7" rx="16.2" ry="2.2"/><ellipse class="cls-1" cx="114.2" cy="725.1" rx="11.5" ry="1.6"/><ellipse class="cls-1" cx="49.8" cy="723.5" rx="11.5" ry="1.6"/><path class="cls-22" d="M89,706.7s22.7-74.5-3.6-104.4c-19.7-22.3-42-19.7-52-16.9a18.4,18.4,0,0,0-11.9,9.9c-3.5,7.5-2.9,19.8,21.8,34.1,41.3,23.9,43.9,56.7,43.9,56.7Z"/><path class="cls-38" d="M37,596s67,21,52,110.7"/><path class="cls-38" d="M76.1,603.5s-9.2,6.2-6.3,15.6"/><path class="cls-38" d="M43.7,609s5.6-5.7,12.5-2.6"/><path class="cls-38" d="M70.2,637.9s9.9-5,12.5,1.3"/><path class="cls-38" d="M94.7,648.4s-7.4-.6-7.6,3"/><path class="cls-22" d="M89.9,707.3s-26.6-54.2-33.9-53c-3.5.6-5.1,4-5.8,7.4a22.22,22.22,0,0,0,1.4,13.2C55.4,683.6,65.5,700,89.9,707.3Z"/><path class="cls-38" d="M56.2,664.6s27.9,40.5,33.3,42.3"/><line class="cls-38" x1="53.6" y1="670.9" x2="60.1" y2="670.9"/><line class="cls-38" x1="61.4" y1="685.7" x2="71.6" y2="686.2"/><line class="cls-38" x1="67.6" y1="673.9" x2="66.5" y2="679.2"/><line class="cls-38" x1="78.5" y1="690.1" x2="78.3" y2="694.9"/><path class="cls-22" d="M89.1,707.3s26.6-54.2,33.9-53c3.5.6,5.1,4,5.8,7.4a21.48,21.48,0,0,1-1.5,13.2C123.6,683.6,113.5,700,89.1,707.3Z"/><path class="cls-38" d="M122.9,664.6s-28,40.5-33.3,42.3"/><line class="cls-38" x1="125.4" y1="670.9" x2="118.9" y2="670.9"/><line class="cls-38" x1="117.6" y1="685.7" x2="107.4" y2="686.2"/><line class="cls-38" x1="111.4" y1="673.9" x2="112.5" y2="679.2"/><line class="cls-38" x1="100.5" y1="690.1" x2="100.7" y2="694.9"/><path class="cls-22" d="M43.4,719.9a4.4,4.4,0,0,1-1.5-2.3,1.91,1.91,0,0,1,1.1-2.3c1-.4,2,.3,2.8,1a3.85,3.85,0,0,0,2.7,1.3,4.15,4.15,0,0,1-1.3-3.9,1.9,1.9,0,0,1,.3-.8c.5-.6,1.5-.3,2.2.1,2,1.4,2.6,4.2,2.6,6.8a13.1,13.1,0,0,0,0-2.8,2.78,2.78,0,0,1,1.1-2.4,3,3,0,0,1,1.6-.4,3.47,3.47,0,0,1,2.6.7,2.56,2.56,0,0,1-.1,3.2,8.91,8.91,0,0,1-2.7,2.1,6.65,6.65,0,0,0-1.9,1.8.37.37,0,0,0-.1.3H47A14.06,14.06,0,0,1,43.4,719.9Z"/><path class="cls-22" d="M144.9,698.1a4.4,4.4,0,0,1-1.5-2.3,1.91,1.91,0,0,1,1.1-2.3c1-.4,2,.3,2.8,1s1.7,1.5,2.7,1.3a4.07,4.07,0,0,1-1.3-3.9,1.23,1.23,0,0,1,.4-.8c.5-.6,1.5-.3,2.2.1,2.1,1.5,2.6,4.2,2.6,6.8a13.1,13.1,0,0,0,0-2.8,2.4,2.4,0,0,1,2.6-2.9,3.47,3.47,0,0,1,2.6.7,2.56,2.56,0,0,1-.1,3.2,8.91,8.91,0,0,1-2.7,2.1,6.65,6.65,0,0,0-1.9,1.8.37.37,0,0,0-.1.3h-5.7A9.22,9.22,0,0,1,144.9,698.1Z"/><path class="cls-22" d="M111,719.9a4.4,4.4,0,0,1-1.5-2.3,1.91,1.91,0,0,1,1.1-2.3c1-.4,2,.3,2.8,1s1.7,1.5,2.7,1.3a4.15,4.15,0,0,1-1.3-3.9,1.23,1.23,0,0,1,.4-.8c.5-.6,1.5-.3,2.2.1,2.1,1.4,2.6,4.2,2.6,6.8a13.1,13.1,0,0,0,0-2.8,2.82,2.82,0,0,1,1.1-2.5,3,3,0,0,1,1.6-.4,3.47,3.47,0,0,1,2.6.7,2.56,2.56,0,0,1-.1,3.2,8.91,8.91,0,0,1-2.7,2.1,6.65,6.65,0,0,0-1.9,1.8.37.37,0,0,0-.1.3h-5.8A11,11,0,0,1,111,719.9Z"/><path class="cls-22" d="M15.1,675.8s-2.2,2.8,1,7.1,5.8,7.9,4.7,10.6c0,0-4.8-8-8.7-8.1S10.9,680.6,15.1,675.8Z"/><path class="cls-26" d="M15.1,675.8a3.64,3.64,0,0,0-.4.9c-3.8,4.5-5.8,8.6-2.2,8.8,3.4.1,7.5,6.2,8.5,7.7,0,.1-.1.2-.1.3s-4.8-8-8.7-8.1S10.9,680.6,15.1,675.8Z"/><path class="cls-39" d="M11.1,679.4c0,1,.1,1.8.3,1.8s.3-.8.3-1.8-.1-.5-.3-.5S11.1,678.4,11.1,679.4Z"/><path class="cls-39" d="M9.7,680.6c.9.5,1.6.8,1.7.6s-.6-.6-1.5-1.1-.5-.1-.6,0S8.8,680.2,9.7,680.6Z"/><path class="cls-22" d="M26.6,675.8s2.2,2.8-1,7.1-5.8,7.9-4.7,10.6c0,0,4.8-8,8.7-8.1S30.9,680.6,26.6,675.8Z"/><path class="cls-26" d="M26.6,675.8c.2.3.3.6.5.9,3.8,4.5,5.8,8.6,2.2,8.8-3.4.1-7.5,6.2-8.5,7.7,0,.1.1.2.1.3s4.8-8,8.7-8.1S30.9,680.6,26.6,675.8Z"/><path class="cls-39" d="M30.7,679.4c0,1-.1,1.8-.3,1.8s-.3-.8-.3-1.8.1-.5.3-.5S30.7,678.4,30.7,679.4Z"/><path class="cls-39" d="M32,680.6c-.9.5-1.7.8-1.7.6s.6-.6,1.5-1.1.5-.1.6,0S32.9,680.2,32,680.6Z"/><path class="cls-27" d="M30,693.2s-6.1-.2-7.9-1.5-9.3-2.9-9.8-.8S3.2,701.3,10,701.4s15.9-1.1,17.8-2.2S30,693.2,30,693.2Z"/><path class="cls-28" d="M9.9,700.6c6.9.1,15.9-1.1,17.8-2.2,1.4-.8,1.9-3.9,2.1-5.3H30s-.4,4.9-2.2,6-10.9,2.2-17.8,2.2c-2,0-2.7-.7-2.6-1.8C7.6,700.2,8.5,700.6,9.9,700.6Z"/><circle class="cls-1" cx="33.9" cy="126.7" r="21.6"/><circle class="cls-1" cx="1074" cy="299.6" r="21.6"/><circle class="cls-1" cx="685.2" cy="58" r="21.6"/><circle class="cls-1" cx="77.2" cy="246.01" r="36.2" transform="translate(-174.79 300.61) rotate(-84.8)"/><path class="cls-30" d="M430.2,588.6l-1.3-1.3a1.3,1.3,0,0,1-.16-1.83l.06-.07.1-.1,11.2-11.2a1.3,1.3,0,0,1,1.83-.16l.07.06.1.1,11.2,11.2a1.34,1.34,0,0,1,.11,1.89l-.11.11h0l-1.3,1.3a1.34,1.34,0,0,1-1.89.11l-.11-.11h0l-6.6-7v16.6a1.37,1.37,0,0,1-1.34,1.4h-2a1.37,1.37,0,0,1-1.4-1.34v-.06h0V581.6l-6.6,7a1.22,1.22,0,0,1-1.72.18,1,1,0,0,1-.18-.18Z"/><path class="cls-30" d="M441.1,563.9a22.8,22.8,0,1,1-22.8,22.8h0a22.85,22.85,0,0,1,22.8-22.8m0-3a25.8,25.8,0,1,0,25.8,25.8h0A25.8,25.8,0,0,0,441.1,560.9Z"/><path class="cls-22" d="M857.7,77.5A16,16,0,1,1,838,88.59l0-.09.6-2.2a31.82,31.82,0,0,1,39.28-22l.22.06-2.5,8.8a22.25,22.25,0,0,0-17.3,2,28.91,28.91,0,0,0-2.9,1.9A11.91,11.91,0,0,1,857.7,77.5Zm39.4,11.3a16,16,0,1,1-19.72,11.09l0-.09.6-2.2a31.82,31.82,0,0,1,39.28-22l.22.06L915,84.5a22.25,22.25,0,0,0-17.3,2,28.91,28.91,0,0,0-2.9,1.9,10,10,0,0,1,2.3.4Z"/><path class="cls-22" d="M718.8,506.1a12,12,0,1,1,3.8,16.6l-1.5-.9a24.11,24.11,0,0,1-7.6-33.1l5.8,3.6a17.41,17.41,0,0,0-2.2,13,18.18,18.18,0,0,0,.8,2.5A6.75,6.75,0,0,1,718.8,506.1Zm16.4-26.2a12,12,0,1,1,3.8,16.6l-1.5-.9a24.11,24.11,0,0,1-7.6-33.1l5.8,3.6a17.41,17.41,0,0,0-2.2,13,18.18,18.18,0,0,0,.8,2.5C734.6,481,734.9,480.5,735.2,479.9Z"/></svg>