<svg id="be9f6829-3224-4753-912f-7f507815f1bf" xmlns="http://www.w3.org/2000/svg" xmlns:xlink="http://www.w3.org/1999/xlink" viewBox="0 0 1167.19 778.93"><defs><style>.cls-1,.cls-4{fill:#6c63ff;}.cls-1,.cls-5{opacity:0.1;}.cls-1,.cls-10,.cls-11,.cls-12,.cls-17,.cls-5{isolation:isolate;}.cls-2{opacity:0.2;}.cls-3{fill:#3f3d56;}.cls-6{fill:url(#linear-gradient);}.cls-7{fill:#fff;}.cls-8{fill:#d7d9e1;}.cls-9{fill:#ededf4;}.cls-10{fill:#fa5959;}.cls-10,.cls-11,.cls-12{opacity:0.8;}.cls-11{fill:#fed253;}.cls-12{fill:#8ccf4d;}.cls-13{fill:url(#linear-gradient-2);}.cls-14{fill:url(#linear-gradient-3);}.cls-15{fill:#fabdbd;}.cls-16,.cls-17{fill:#5333ed;}.cls-17{opacity:0.5;}</style><linearGradient id="linear-gradient" x1="588.24" y1="803.19" x2="588.24" y2="184.19" gradientTransform="translate(-16.24 -70.49)" gradientUnits="userSpaceOnUse"><stop offset="0" stop-color="gray" stop-opacity="0.25"/><stop offset="0.54" stop-color="gray" stop-opacity="0.12"/><stop offset="1" stop-color="gray" stop-opacity="0.1"/></linearGradient><linearGradient id="linear-gradient-2" x1="1123.18" y1="1734.83" x2="1123.18" y2="1728.83" gradientTransform="translate(2357.73 -1022.55) rotate(90)" xlink:href="#linear-gradient"/><linearGradient id="linear-gradient-3" x1="194.47" y1="651.66" x2="372.03" y2="651.66" xlink:href="#linear-gradient"/></defs><title>illustration-2</title><ellipse class="cls-1" cx="223.47" cy="747.93" rx="122.6" ry="31"/><g class="cls-2"><path class="cls-3" d="M1007.3,726.4c-.5.9-1.1,1.8-1.7,2.7-5.8-4.1-11.6-8-17.6-11.9.1-.3.3-.5.4-.8a17.07,17.07,0,0,1,6-6.5c3.3-2,7-2.5,10-.9s4.8,4.9,4.9,8.8A17,17,0,0,1,1007.3,726.4Z" transform="translate(-0.03 -0.07)"/><ellipse class="cls-3" cx="1005.95" cy="706.33" rx="14" ry="10.7" transform="translate(-89.13 1264.57) rotate(-62.09)"/><ellipse class="cls-3" cx="1013.89" cy="691.17" rx="14" ry="10.7" transform="translate(-71.5 1263.53) rotate(-62.09)"/><ellipse class="cls-3" cx="1021.94" cy="676.07" rx="14" ry="10.7" transform="translate(-53.88 1262.61) rotate(-62.09)"/><ellipse class="cls-3" cx="1029.91" cy="660.92" rx="14" ry="10.7" transform="translate(-36.26 1261.59) rotate(-62.09)"/><path class="cls-4" d="M1049.3,538.5a55.57,55.57,0,0,1-.8-7l27,9.1-27-14a51.47,51.47,0,0,1,18.2-36.4l26.2,37.8-20.3-42.1a51.3,51.3,0,0,1,54.4,87,47.65,47.65,0,0,1-6.3,3.4,50.51,50.51,0,0,1,.8,11l-41.2-.3,40.5,6.7a51.56,51.56,0,0,1-29.8,38.7,51.27,51.27,0,1,1-71.2-37.7,51.45,51.45,0,0,1,29.5-56.2Z" transform="translate(-0.03 -0.07)"/><path class="cls-5" d="M1115.4,609.4a51.39,51.39,0,0,1-24.5,22.9,51.27,51.27,0,1,1-71.2-37.7C1017.7,583.6,1118.1,604.3,1115.4,609.4Z" transform="translate(-0.03 -0.07)"/></g><g class="cls-2"><path class="cls-3" d="M975.1,424a24.71,24.71,0,0,1-2.3,4.6c-10.1-5.4-20.3-10.6-30.6-15.7a6.94,6.94,0,0,1,.5-1.3,27.06,27.06,0,0,1,8.3-11.7c4.9-3.9,10.7-5.4,16-3.4s8.6,7,9.7,13.1A27.23,27.23,0,0,1,975.1,424Z" transform="translate(-0.03 -0.07)"/><ellipse class="cls-3" cx="968.86" cy="391.91" rx="22.7" ry="17.3" transform="translate(257.85 1157.87) rotate(-69.16)"/><ellipse class="cls-3" cx="978.75" cy="365.98" rx="22.7" ry="17.3" transform="translate(288.46 1150.41) rotate(-69.16)"/><ellipse class="cls-3" cx="988.61" cy="340.11" rx="22.7" ry="17.3" transform="translate(318.99 1142.97) rotate(-69.16)"/><ellipse class="cls-3" cx="998.5" cy="314.19" rx="22.7" ry="17.3" transform="translate(349.59 1135.5) rotate(-69.16)"/><path class="cls-4" d="M1005.3,113.7a107.39,107.39,0,0,1-2.7-11.2l45.2,9.2-46.2-17.2a83.32,83.32,0,0,1,21.9-62L1073.1,88l-41-63.5a83,83,0,0,1,104.3,129.1,84.72,84.72,0,0,1-9.2,6.5,87.54,87.54,0,0,1,3.5,17.5l-66.2,7.7,66.4,2.6a83.4,83.4,0,0,1-40.2,68.1,83,83,0,1,1-121.9-46.4,82.78,82.78,0,0,1,36.5-95.9Z" transform="translate(-0.03 -0.07)"/><path class="cls-5" d="M1125.6,214.4a83,83,0,0,1-34.9,41.7,83,83,0,1,1-121.9-46.4C963.4,192.5,1128.9,205.7,1125.6,214.4Z" transform="translate(-0.03 -0.07)"/></g><g class="cls-2"><path class="cls-3" d="M178.4,510.2a39.74,39.74,0,0,0,2,5.8c12.7-4.9,25.5-9.5,38.4-14a9.36,9.36,0,0,0-.4-1.6,32.43,32.43,0,0,0-8.1-15c-5.2-5.3-11.9-7.9-18.3-6.3s-11.2,7-13.4,14A33,33,0,0,0,178.4,510.2Z" transform="translate(-0.03 -0.07)"/><ellipse class="cls-3" cx="190.61" cy="473.22" rx="20.6" ry="27" transform="translate(-106.83 58.65) rotate(-13.72)"/><ellipse class="cls-3" cx="182.82" cy="441.21" rx="20.6" ry="27" transform="translate(-99.46 55.89) rotate(-13.72)"/><ellipse class="cls-3" cx="175.03" cy="409.21" rx="20.6" ry="27" transform="translate(-92.1 53.13) rotate(-13.72)"/><ellipse class="cls-3" cx="167.21" cy="377.1" rx="20.6" ry="27" transform="translate(-84.7 50.36) rotate(-13.72)"/><path class="cls-4" d="M188.6,139.6a98.68,98.68,0,0,0,4.8-12.8L138.7,131l57-13.5A98.86,98.86,0,0,0,179,41.1L112.3,99.3,170,30.4a98.73,98.73,0,1,0-132.2,146,101.86,101.86,0,0,0-6.7,20.2L108,215.4l-78.8-6.7A99,99,0,0,0,66.8,295a98.7,98.7,0,1,0,150.8-36.9,98.82,98.82,0,0,0-29-118.5Z" transform="translate(-0.03 -0.07)"/><path class="cls-5" d="M31.8,240.7a98.44,98.44,0,0,0,35,54.3,98.7,98.7,0,1,0,150.8-36.9C226.4,238.8,29.1,230,31.8,240.7Z" transform="translate(-0.03 -0.07)"/></g><path class="cls-6" d="M1056.3,113.7H87.6a8.6,8.6,0,0,0-8.6,8.6h0V715.2a17.56,17.56,0,0,0,17.4,17.5h951.2a17.43,17.43,0,0,0,17.4-17.5h0V122.4A8.77,8.77,0,0,0,1056.3,113.7Z" transform="translate(-0.03 -0.07)"/><path class="cls-7" d="M1061,150.5V711.8a17.31,17.31,0,0,1-17.3,17.3H100.3A17.31,17.31,0,0,1,83,711.8h0V150.5Z" transform="translate(-0.03 -0.07)"/><path class="cls-8" d="M211.9,143.7V729H100.3A17.31,17.31,0,0,1,83,711.7h0v-568Z" transform="translate(-0.03 -0.07)"/><path class="cls-9" d="M1061,125.6v24.9H83V125.6a8.6,8.6,0,0,1,8.6-8.6h960.9a8.58,8.58,0,0,1,8.5,8.6Z" transform="translate(-0.03 -0.07)"/><circle class="cls-10" cx="98.47" cy="133.43" r="4"/><circle class="cls-11" cx="109.47" cy="133.43" r="4"/><circle class="cls-12" cx="120.47" cy="133.43" r="4"/><rect class="cls-9" x="95.87" y="279.63" width="94" height="10"/><rect class="cls-9" x="95.87" y="308.63" width="94" height="10"/><rect class="cls-9" x="95.87" y="337.63" width="94" height="10"/><rect class="cls-9" x="95.87" y="366.63" width="94" height="10"/><rect class="cls-9" x="95.87" y="395.63" width="94" height="10"/><rect class="cls-13" x="622.87" y="98.63" width="6" height="4"/><rect class="cls-1" x="358.77" y="216.93" width="552" height="344"/><rect class="cls-4" x="834.77" y="599.93" width="76" height="24"/><rect class="cls-8" x="315.77" y="243.23" width="557" height="351.5"/><rect class="cls-7" x="318.77" y="246.93" width="552" height="344"/><path class="cls-14" d="M354.3,678.3c-2.4-4.6-7.5-6.8-12.4-8.6s-10-3.5-15.1-5c6.2-5.6,11.1-12.5,15.6-19.5,2.5-4,5-8.2,6.2-12.8s1.1-9.7-1.3-13.8c-2.9-4.9-8.5-7.6-14.2-8.3s-11.4.4-16.9,1.5c-4,.8-8,1.6-12,2.5a65.16,65.16,0,0,0,6.8-3.8c8.2-5.1,15.5-11.7,22.4-18.5,2.2-2.2,4.5-4.7,4.4-7.8a7.47,7.47,0,0,0-4.9-6.3,15,15,0,0,0-8.4-.3,28.52,28.52,0,0,0-18.3,12.9c-1.4,2.3-2.5,4.8-4.4,6.8-2.3,2.3-5.9,3.1-8.4.8a8.79,8.79,0,0,1-1.9-3.4l.1-.2c5-7.3,5.4-17.1,2.1-25.3-2.5-6.3-6.9-11.5-11.2-16.7a56.13,56.13,0,0,1,12.6-6.6,15.76,15.76,0,0,0,3.5-1.6c2.1-1.6,2.8-4.5,2.8-7.2s-.4-5.3.2-7.9a29.35,29.35,0,0,0,8.3,1.3,27.3,27.3,0,0,0,25-16.2c5-1.3,9.8-3.4,13.4-7,4.4-4.5,7.1-13.1,2.4-18.3-1.5-1.7-3.9-2.5-5.8-3.7a29,29,0,0,1-7.1-7.3c-9.3-12.5-22.6-14.8-37.6-13.2-6.7.8-13.5,2-19.7,4.7a92.81,92.81,0,0,0-13.5,8.1c-.7.5-1.4,1-2,1.5-1.2-3.7-2.8-7.4-3.8-10.3a8.22,8.22,0,0,1-.6-3.8c.3-2.2,2.2-3.8,4-5.2L290,439.9a72.29,72.29,0,0,1,8.5-6c8.8-4.7,19.8-5.3,27.2-12a20.21,20.21,0,0,0,6.6-15.3c-.1-4.1-2-8.8-6-9.9-4.2-1.2-8.3,1.9-11.5,4.8-10.6,9.5-21.2,19.1-33.1,27-11.2,7.5-23.6,13.4-33.6,22.5a20,20,0,0,0-4.6,5.4,25.76,25.76,0,0,0-2.5,7.7l-2.1,9.7c-1.7,7.8-3,16.9,1.8,23.2a13.36,13.36,0,0,0-.7,1.8c-.7,2.4.6,5,0,7.1-.7,2.4-4.3,5-5.9,6.9-2.2,2.6-4.4,5.3-6.5,8a196.83,196.83,0,0,0-20.4,34.5c-8.6,18.3-15,37.4-21.5,56.5-1.1,3.4-2.3,6.8-2.3,10.4a17.28,17.28,0,0,0,2.7,9.1c-1.7,10.1-6.1,19.8-6.2,30.2l-1.6.7c-.7,9.6,4,19.2,8,28,2.3,5,5.1,10.4,10.2,12.4a21.36,21.36,0,0,0,8.4,1c3.3,0,6.3.1,9.3.1H214c-3.6.6-7.6,2-9,5.3a11.78,11.78,0,0,0-.4,5.6c1.2,13.1,2.3,26.3,3.5,39.4.3,2.9.6,6,2.6,8.2,1.8,2,4.6,2.7,7.3,3.1a51,51,0,0,0,15.1.1,11.58,11.58,0,0,0,5.9-2c1.7-1.3,2.7-3.6,1.9-5.5-1.2-2.8-5.1-3.1-7-5.4-2.5-2.9-.9-7.4.9-10.8.3-.5.6-1.1.9-1.7a42.11,42.11,0,0,0,6.2,7.1c2,1.7,4.7,2.9,7,1.7,5.5-2.9,11.1-5.7,16.7-8.5l1.3.2a199.86,199.86,0,0,0,32.8,1.8,14.07,14.07,0,0,0,6.1-1.1c1.9-.9,3.4-2.9,3.1-4.9-.3-2.5-3-3.9-5.3-4.8a49.94,49.94,0,0,0-13.8-2.9c6.1-2.9,12.3-5.8,18.4-8.7s12.4-5.8,19-7.5c8.5-2.1,18.5-2.7,24-9.4,3.3-4.1,4.1-9.6,4.5-14.8C355.9,685.2,355.9,681.5,354.3,678.3Zm-86.4-55.2c-3,.8-6.4,1.6-9.8,2.6-.3-2.6-.8-5.2-1.1-7.8a4,4,0,0,1,.2-2.4,4.47,4.47,0,0,1,2-1.6l11.4-5.6a7.57,7.57,0,0,0-2.4-5.6,21.36,21.36,0,0,0,3.4.9,38.27,38.27,0,0,0,6.4,13.9,6.67,6.67,0,0,0,2.7,2.3h.2C276.6,620.8,272.2,621.9,267.9,623.1Z" transform="translate(-0.03 -0.07)"/><path class="cls-15" d="M278.8,512c-5.7,1.7-12,.3-17-2.7a9.88,9.88,0,0,0-3.3-1.5c-2.1-.4-4.1.8-5.6,2.3-4.9,4.8-5.4,12.8-2.9,19.2s7.6,11.4,12.9,15.8a127,127,0,0,0,13.5,9.6,24.9,24.9,0,0,1,13.9-13.5c5.6-2.2,9.6-7.9,12.8-13,2.4-3.7,4.5-3.6,2.3-7.4s-5.5-6.9-8.4-10.2a30.06,30.06,0,0,1-4.5-6.1c-1.4-2.5-1.1-4.2-3.3-2.2-1.5,1.3-2.1,4.2-3.7,5.8A18.16,18.16,0,0,1,278.8,512Z" transform="translate(-0.03 -0.07)"/><path class="cls-15" d="M261.4,472.4a8.22,8.22,0,0,1-.6-3.8c.3-2.2,2.1-3.7,3.9-5.1l24.8-19.7a69.25,69.25,0,0,1,8.3-5.9c8.6-4.7,19.4-5.2,26.5-11.9a20.57,20.57,0,0,0,6.5-15.1c-.1-4.1-2-8.6-5.9-9.8-4.1-1.2-8.1,1.9-11.3,4.7-10.4,9.3-20.7,18.8-32.3,26.6-11,7.4-23,13.3-32.8,22.2a20.78,20.78,0,0,0-4.5,5.3,29,29,0,0,0-2.5,7.7l-2,9.6c-1.7,8.1-3.1,17.5,2.4,23.8a8.86,8.86,0,0,0,6.6,3.3,12.83,12.83,0,0,0,5.1-1.7c4.1-2.1,11.4-4.1,12.6-9.1C267.9,487.1,263.3,478.3,261.4,472.4Z" transform="translate(-0.03 -0.07)"/><path class="cls-15" d="M301,599.2c1.9-1.9,2.9-4.4,4.3-6.7a28.09,28.09,0,0,1,17.8-12.8,14.3,14.3,0,0,1,8.2.3,7.41,7.41,0,0,1,4.8,6.3c0,3-2.2,5.5-4.3,7.7-6.7,6.7-13.8,13.2-21.8,18.2s-17.2,8.6-26.6,9.3a6.55,6.55,0,0,1-2.8-.3A6.27,6.27,0,0,1,278,619c-5-6.5-6.8-14.8-8.1-22.9.5,2.9,16.8-3.9,18.7-3,2.7,1.3,2.4,5.1,4.4,6.9C295.3,602.3,298.8,601.4,301,599.2Z" transform="translate(-0.03 -0.07)"/><path class="cls-15" d="M182,662.9a4.92,4.92,0,0,0,.6,2.9c1.1,1.8,3.6,1.8,5.7,1.5a98.43,98.43,0,0,0,14-3.4l41.6-12a3.1,3.1,0,0,0,1.8-.9,4.17,4.17,0,0,0,.8-1.8,47,47,0,0,0,.9-18.3,4.63,4.63,0,0,0-.8-2.5,4.91,4.91,0,0,0-3.5-1.3,160.72,160.72,0,0,0-19.6-.9,91.21,91.21,0,0,1-12.8-.3c-5.5-.7-11.8-3.8-17.3-3.3-4.8.4-4.6,4.1-5.1,8.1C187,641.6,182.1,651.9,182,662.9Z" transform="translate(-0.03 -0.07)"/><path class="cls-3" d="M315,613.5c5.5-1.1,11-2.2,16.5-1.5s11.1,3.4,13.9,8.2c2.4,4,2.5,9.1,1.3,13.6s-3.6,8.6-6.1,12.6c-5,7.9-10.5,15.6-17.8,21.4-3.5,2.8-7.5,5.2-10.9,8.1-7.3,6.3-11.8,15.2-16.1,23.8-4.1,8.1-8.2,16.4-9.9,25.3a2.62,2.62,0,0,1-.9,1.8,2.26,2.26,0,0,1-1.8.1l-20-3.7a4.59,4.59,0,0,1-2.5-1c-.9-1-.6-2.4-.3-3.7a139.67,139.67,0,0,1,23.8-51.6A46,46,0,0,1,244,678.6a15.31,15.31,0,0,1-7.6-3.3c-4.5-4-4.3-11-3.3-16.9a118,118,0,0,1,3.7-15.6c3.8-12.2,20-15.5,30.9-18.5C283.5,620.4,299.2,616.7,315,613.5Z" transform="translate(-0.03 -0.07)"/><path class="cls-5" d="M300.2,656.6c-2.8,1.3-5.6,2.7-7.6,5,3.6-4.1,13.9-6.1,18.9-8,6.2-2.3,13-4.7,18.3-8.8A228.11,228.11,0,0,0,300.2,656.6Z" transform="translate(-0.03 -0.07)"/><path class="cls-4" d="M235.5,742.2c-1.7,3.4-3.4,7.8-.9,10.7,1.9,2.2,5.7,2.6,6.9,5.3a4.7,4.7,0,0,1-1.9,5.4,11.86,11.86,0,0,1-5.8,2,52.42,52.42,0,0,1-14.8-.1c-2.6-.4-5.4-1.1-7.1-3.1-1.9-2.1-2.3-5.2-2.5-8.1-1.1-13-2.3-25.9-3.4-38.9a11.28,11.28,0,0,1,.4-5.5c1.4-3.3,5.3-4.7,8.8-5.3a47.52,47.52,0,0,1,11.9-.5c2.7.2,5.5.8,7.5,2.6,2.2,2,2.9,5.2,3.5,8.2.9,4.6,3.5,11,2.9,15.7C240.6,734.4,237.2,738.7,235.5,742.2Z" transform="translate(-0.03 -0.07)"/><path class="cls-4" d="M280.3,729.6a47.84,47.84,0,0,1,22.5,2.5c2.3.9,4.9,2.3,5.2,4.7.3,2-1.2,4-3,4.9a13.64,13.64,0,0,1-6,1.1,202.58,202.58,0,0,1-32.1-1.7c-2.7-.4-5.6-.8-7.8-2.5s-3.6-4.7-2.5-7.2c1.3-2.7,4.8-3.5,6.5-5.9,1.2-1.8,1.5-4.3,3.4-5.2,1.4-.7,3-.2,4.4.3,2,.7,6.9,1.4,8.3,3.1C279.8,724.4,280.3,729.6,280.3,729.6Z" transform="translate(-0.03 -0.07)"/><circle class="cls-15" cx="308.97" cy="506.53" r="26.6"/><path class="cls-4" d="M245.8,494.8c4.3-3.1,9.7-4.2,14.9-5.2,1.8-.3,3.8-.7,5.4.3a8.19,8.19,0,0,1,2.6,3.2,31.35,31.35,0,0,1,3.6,8.4,9.81,9.81,0,0,1-2.1,8.6c-1.6,1.6-3.9,2.5-5.5,4-2.2,2.2-2.9,5.7-2.4,8.8a25.28,25.28,0,0,0,3.5,8.7,153.45,153.45,0,0,0,13.3,19.6c5.2,6.4,11,12.6,14,20.3,3.2,8.1,2.9,17.8-2,25s-14.7,11-22.9,7.9a7.47,7.47,0,0,1,2.3,5.5l-11.2,5.6a4.47,4.47,0,0,0-2,1.6,4,4,0,0,0-.2,2.4c.5,4.5,1.7,9.1,1.4,13.6s-2.4,9.4-6.5,11.4c-3.8,1.8-8.3.9-12.4,0a152.84,152.84,0,0,0-29.4-3.1c-4.9,0-10,.1-14.5-1.8A17.23,17.23,0,0,1,185.4,624c0-3.5,1.1-6.9,2.3-10.3,6.3-18.9,12.6-37.8,21-55.8a197.19,197.19,0,0,1,19.9-34.1c2-2.7,4.1-5.3,6.3-7.9,1.6-1.8,5.1-4.5,5.8-6.8.6-2.1-.7-4.6,0-7A13.44,13.44,0,0,1,245.8,494.8Z" transform="translate(-0.03 -0.07)"/><path class="cls-3" d="M180.4,663.5c11.7-5.4,23.4-10.8,35.5-15,9-3.1,18.9-5.5,27.7-2,2.6,1,5,2.6,7.6,3.8,8.5,4.1,18.2,4.7,27.7,5.8a259.34,259.34,0,0,1,61.3,14.5c4.7,1.8,9.8,4,12.1,8.5,1.6,3.1,1.5,6.8,1.3,10.2-.4,5.2-1.1,10.6-4.4,14.7-5.4,6.7-15.1,7.2-23.4,9.3-6.5,1.6-12.5,4.5-18.5,7.4-19.5,9.3-38.9,18.5-58,28.6-2.3,1.2-5,0-6.9-1.7-5.8-5.2-9.7-12.3-12-19.7s-2.9-15.3-3.1-23.1c-7.5,0-13.5-.3-21-.3-2.8,0-5.6,0-8.2-1-5-2-7.7-7.4-10-12.3C184.3,682.5,179.8,673,180.4,663.5Z" transform="translate(-0.03 -0.07)"/><path class="cls-5" d="M316.1,691.2c-5.3-2.6-11.4-2.6-17.2-2.6a55.11,55.11,0,0,0-10.7.8c-5.5,1.1-10.5,3.7-15.6,5.9a99.78,99.78,0,0,1-39.3,7.7" transform="translate(-0.03 -0.07)"/><path class="cls-3" d="M346.4,510.4c-3.8,3.9-9.1,6-14.4,7.2s-10.7,1.7-16,2.9c-6.5,1.4-13.7,4.9-15.2,11.4-.6,2.6-.2,5.3-.2,7.9s-.7,5.5-2.8,7.1a13.26,13.26,0,0,1-3.4,1.6c-21.3,7.7-36.6,29.7-36.5,52.4a25.35,25.35,0,0,1-12.5-18.5c0,7.1-6,14.3-2.6,20.5a32.2,32.2,0,0,1-9.5-44.7c.5-.8,1.1-1.6,1.7-2.4,2.7-3.4,6-6.3,8.9-9.5a44.46,44.46,0,0,0,10.5-33.7c-.6-5.1-2.1-10.3-1-15.4,1.6-7,7.7-11.9,13.6-16a76.54,76.54,0,0,1,13.1-8,64.3,64.3,0,0,1,19.2-4.7c14.6-1.7,27.6.6,36.7,13,2.1,2.8,4,5.3,6.9,7.2,1.9,1.2,4.1,2,5.7,3.6C353.4,497.4,350.8,506,346.4,510.4Z" transform="translate(-0.03 -0.07)"/><ellipse class="cls-4" cx="141.37" cy="738.63" rx="26.1" ry="5"/><ellipse class="cls-3" cx="140.97" cy="736.43" rx="3" ry="4"/><ellipse class="cls-3" cx="140.97" cy="731.63" rx="3" ry="4"/><ellipse class="cls-3" cx="140.97" cy="726.73" rx="3" ry="4"/><ellipse class="cls-3" cx="140.97" cy="721.93" rx="3" ry="4"/><ellipse class="cls-3" cx="140.97" cy="717.03" rx="3" ry="4"/><ellipse class="cls-3" cx="140.97" cy="712.23" rx="3" ry="4"/><ellipse class="cls-3" cx="140.97" cy="707.33" rx="3" ry="4"/><path class="cls-4" d="M152.3,674.2a15.26,15.26,0,0,0,1.1-1.6l-8-1.3,8.6.1a14.38,14.38,0,0,0,.3-11.5l-11.6,6,10.7-7.8a14.51,14.51,0,1,0-25.2,14.4c.4.6.8,1.3,1.2,1.8a17.77,17.77,0,0,0-1.7,2.7l10.4,5.4-11-3.7a14.65,14.65,0,0,0,2.3,13.7,14.52,14.52,0,0,0,22.8,18,14.71,14.71,0,0,0,0-18,14.58,14.58,0,0,0,.1-18.2Z" transform="translate(-0.03 -0.07)"/><path class="cls-5" d="M126.4,683.2a14.65,14.65,0,0,0,3.1,9,14.52,14.52,0,0,0,22.8,18,14.71,14.71,0,0,0,0-18C154.3,689.7,126.4,681.5,126.4,683.2Z" transform="translate(-0.03 -0.07)"/><path id="WordPress" class="cls-9" d="M99.5,213.1a41.4,41.4,0,1,0,41.4-41.4A41.42,41.42,0,0,0,99.5,213.1Zm3.2,0a38.11,38.11,0,0,1,3.3-15.5l18.2,49.9A38.32,38.32,0,0,1,102.7,213.1Zm38.2,38.2a38.6,38.6,0,0,1-10.8-1.5l11.5-33.3,11.7,32.1a2.19,2.19,0,0,0,.3.5A38.52,38.52,0,0,1,140.9,251.3Zm30.8-38.9a35.47,35.47,0,0,0,2.9-13.7,23.76,23.76,0,0,0-.3-3.9A38.1,38.1,0,0,1,160,246.1Zm-8.2-11.7a20.42,20.42,0,0,1,3.1,10.5c0,3.3-1,7.4-2.9,12.3l-3.8,12.7-13.8-41c2.3-.1,4.4-.4,4.4-.4a1.55,1.55,0,0,0-.2-3.1s-6.2.5-10.2.5c-3.8,0-10.1-.5-10.1-.5a1.55,1.55,0,1,0-.2,3.1l4,.4,5.9,16.3-8.4,25-13.9-41.3c2.3-.1,4.4-.4,4.4-.4a1.55,1.55,0,0,0-.2-3.1s-6.2.5-10.2.5h-2.5a38.22,38.22,0,0,1,57.7-7.2h-.5a6.6,6.6,0,0,0-6.4,6.8C159.8,194.9,161.6,197.5,163.5,200.7Z" transform="translate(-0.03 -0.07)"/><path class="cls-16" d="M370.5,297.2a14.6,14.6,0,1,1-14.6,14.6l-.1-2.1A29.23,29.23,0,0,1,385,280.5v8.4a21.05,21.05,0,0,0-14.8,6.1,22.53,22.53,0,0,0-2.1,2.4A19.42,19.42,0,0,1,370.5,297.2Zm37.5,0a14.6,14.6,0,1,1-14.6,14.6l-.1-2.1a29.23,29.23,0,0,1,29.2-29.2v8.4a21.05,21.05,0,0,0-14.8,6.1,22.53,22.53,0,0,0-2.1,2.4A23.2,23.2,0,0,1,408,297.2Z" transform="translate(-0.03 -0.07)"/><rect class="cls-17" x="347.57" y="375.43" width="206.4" height="10.7"/><rect class="cls-17" x="347.57" y="418.23" width="212.4" height="10.7"/><rect class="cls-17" x="346.57" y="456.23" width="192.4" height="10.7"/><rect class="cls-17" x="346.57" y="496.23" width="202.4" height="10.7"/><path class="cls-16" d="M633,300a16.2,16.2,0,1,1-16.2,16.2l-.1-2.3A32.29,32.29,0,0,1,649,281.6v9.2a22.59,22.59,0,0,0-16.3,6.8,20.41,20.41,0,0,0-2.3,2.7A11.53,11.53,0,0,1,633,300Zm41.6,0a16.2,16.2,0,1,1-16.2,16.2l-.1-2.3a32.29,32.29,0,0,1,32.3-32.3v9.2a22.59,22.59,0,0,0-16.3,6.8,20.41,20.41,0,0,0-2.3,2.7A11.53,11.53,0,0,1,674.6,300Z" transform="translate(-0.03 -0.07)"/><rect class="cls-17" x="608.57" y="376.43" width="206.4" height="10.7"/><rect class="cls-17" x="608.57" y="419.23" width="212.4" height="10.7"/><rect class="cls-17" x="607.57" y="457.23" width="192.4" height="10.7"/><rect class="cls-17" x="607.57" y="497.23" width="202.4" height="10.7"/><path class="cls-3" d="M364.7,542.5h76.8A13.51,13.51,0,0,1,455,556h0a13.51,13.51,0,0,1-13.5,13.5H364.7A13.51,13.51,0,0,1,351.2,556h0A13.51,13.51,0,0,1,364.7,542.5Z" transform="translate(-0.03 -0.07)"/><path class="cls-5" d="M367,547h72.3a9,9,0,0,1,9,9h0a9,9,0,0,1-9,9H367a9,9,0,0,1-9-9h0A9,9,0,0,1,367,547Z" transform="translate(-0.03 -0.07)"/><path class="cls-16" d="M421.4,548H438a8,8,0,0,1,8,8h0a8,8,0,0,1-8,8H421.4a8,8,0,0,1-8-8h0A8,8,0,0,1,421.4,548Z" transform="translate(-0.03 -0.07)"/><circle class="cls-7" cx="429.47" cy="555.93" r="5"/><path class="cls-3" d="M619.9,542.5h76.8A13.51,13.51,0,0,1,710.2,556h0a13.51,13.51,0,0,1-13.5,13.5H619.9A13.51,13.51,0,0,1,606.4,556h0A13.44,13.44,0,0,1,619.9,542.5Z" transform="translate(-0.03 -0.07)"/><path class="cls-5" d="M622.1,547h72.3a9,9,0,0,1,9,9h0a9,9,0,0,1-9,9H622.1a9,9,0,0,1-9-9h0A9,9,0,0,1,622.1,547Z" transform="translate(-0.03 -0.07)"/><path class="cls-16" d="M676.6,548h16.6a8,8,0,0,1,8,8h0a8,8,0,0,1-8,8H676.6a8,8,0,0,1-8-8h0A8,8,0,0,1,676.6,548Z" transform="translate(-0.03 -0.07)"/><circle class="cls-7" cx="684.57" cy="555.93" r="5"/></svg>