<svg id="Layer_1" data-name="Layer 1" xmlns="http://www.w3.org/2000/svg" viewBox="0 0 193.71 30.89"><title>logo2</title><path d="M46.21,13.68a2.36,2.36,0,0,0-2.5-2,2,2,0,0,0-2.2,1.84A1.64,1.64,0,0,0,43,15.19l1.84.38c2.25.45,3.46,1.88,3.46,3.68,0,2-1.61,3.87-4.52,3.87-3.24,0-4.74-2.09-4.94-3.93l2-.57a2.74,2.74,0,0,0,2.92,2.55c1.53,0,2.32-.77,2.32-1.76,0-.83-.61-1.5-1.71-1.73l-1.8-.38a3.62,3.62,0,0,1-3.24-3.58,4.17,4.17,0,0,1,4.34-3.91c3,0,4.18,1.84,4.46,3.26Z" transform="translate(-2.07 -0.12)" style="fill:#231f20"/><path d="M52.51,14.08h1.82v1.85H52.51V20c0,.78.34,1.1,1.11,1.1a4.27,4.27,0,0,0,.72-.07v1.73a3.29,3.29,0,0,1-1.27.2,2.43,2.43,0,0,1-2.63-2.62V15.93H48.82V14.08h.45a1.25,1.25,0,0,0,1.35-1.37V11.4h1.89Z" transform="translate(-2.07 -0.12)" style="fill:#231f20"/><path d="M61,16.15a4.15,4.15,0,0,0-.69,0c-1.62,0-2.35.93-2.35,2.57v4.18H55.84V14.08h2v1.4A2.67,2.67,0,0,1,60.41,14,4.17,4.17,0,0,1,61,14Z" transform="translate(-2.07 -0.12)" style="fill:#231f20"/><path d="M70.56,18.45a4.55,4.55,0,1,1-9.09,0,4.55,4.55,0,1,1,9.09,0Zm-2.1,0a2.47,2.47,0,1,0-4.9,0,2.47,2.47,0,1,0,4.9,0Z" transform="translate(-2.07 -0.12)" style="fill:#231f20"/><path d="M74.2,22.85H72.11V14.08h2v1.17a2.91,2.91,0,0,1,2.6-1.42c2.14,0,3.16,1.54,3.16,3.47v5.55H77.82V17.66c0-1.08-.49-1.94-1.8-1.94a1.84,1.84,0,0,0-1.82,2.07Z" transform="translate(-2.07 -0.12)" style="fill:#231f20"/><path d="M83.27,22.83a2.13,2.13,0,0,0,2.2,1.89c1.65,0,2.48-.85,2.48-2.63v-.92a2.79,2.79,0,0,1-2.54,1.28,4,4,0,0,1-4-4.27,4.06,4.06,0,0,1,4-4.26A2.71,2.71,0,0,1,88,15.19V14.08h2V22c0,2.34-1.21,4.52-4.5,4.52a4,4,0,0,1-4.18-3.21ZM88,18.18a2.27,2.27,0,1,0-4.53,0,2.28,2.28,0,1,0,4.53,0Z" transform="translate(-2.07 -0.12)" style="fill:#231f20"/><path d="M101.29,12.12V22.85H99.13V12.12H95v-2h10.46v2Z" transform="translate(-2.07 -0.12)" style="fill:#231f20"/><path d="M112.61,20.34a4,4,0,0,1-4,2.78,4.42,4.42,0,0,1-4.48-4.7,4.4,4.4,0,0,1,4.26-4.61c2.7,0,4.29,1.78,4.29,4.55a2.81,2.81,0,0,1-.06.67h-6.41a2.36,2.36,0,0,0,2.4,2.29,2.13,2.13,0,0,0,2.2-1.53Zm-2-2.84a2,2,0,0,0-2.16-1.94,2.1,2.1,0,0,0-2.14,1.94Z" transform="translate(-2.07 -0.12)" style="fill:#231f20"/><path d="M115.29,20a1.64,1.64,0,0,0,1.78,1.49c.87,0,1.32-.47,1.32-1s-.33-.83-1-1l-1.3-.29a2.64,2.64,0,0,1-2.35-2.55,3,3,0,0,1,3.22-2.83,3.08,3.08,0,0,1,3.38,2.45l-1.76.5a1.5,1.5,0,0,0-1.62-1.31,1.14,1.14,0,0,0-1.26,1,1,1,0,0,0,.88.91l1.33.27c1.66.36,2.52,1.37,2.52,2.67s-1.08,2.81-3.31,2.81c-2.54,0-3.51-1.66-3.62-2.65Z" transform="translate(-2.07 -0.12)" style="fill:#231f20"/><path d="M124.65,14.08h1.82v1.85h-1.82V20c0,.78.34,1.1,1.12,1.1a4.27,4.27,0,0,0,.72-.07v1.73a3.42,3.42,0,0,1-1.28.2,2.43,2.43,0,0,1-2.63-2.62V15.93H121V14.08h.45a1.24,1.24,0,0,0,1.35-1.37V11.4h1.89Z" transform="translate(-2.07 -0.12)" style="fill:#231f20"/><path d="M129.17,9.63A1.37,1.37,0,0,1,130.54,11a1.36,1.36,0,1,1-1.37-1.37Zm-1,13.22V14.08h2.07v8.77Z" transform="translate(-2.07 -0.12)" style="fill:#231f20"/><path d="M132.44,22.85V14.08h2v1.11a3,3,0,0,1,2.6-1.36,2.73,2.73,0,0,1,2.62,1.54,3.08,3.08,0,0,1,2.85-1.54,3,3,0,0,1,3.1,3.33v5.69h-2V17.5a1.6,1.6,0,0,0-1.69-1.8,1.82,1.82,0,0,0-1.82,1.94v5.21H138V17.5a1.6,1.6,0,0,0-1.7-1.8,1.8,1.8,0,0,0-1.82,1.94v5.21Z" transform="translate(-2.07 -0.12)" style="fill:#231f20"/><path d="M156.1,18.45a4.55,4.55,0,1,1-9.09,0,4.55,4.55,0,1,1,9.09,0Zm-2.11,0a2.47,2.47,0,1,0-4.9,0,2.47,2.47,0,1,0,4.9,0Z" transform="translate(-2.07 -0.12)" style="fill:#231f20"/><path d="M159.73,22.85h-2.09V14.08h2v1.17a2.9,2.9,0,0,1,2.59-1.42c2.14,0,3.17,1.54,3.17,3.47v5.55h-2.09V17.66c0-1.08-.49-1.94-1.8-1.94a1.84,1.84,0,0,0-1.82,2.07Z" transform="translate(-2.07 -0.12)" style="fill:#231f20"/><path d="M168.53,9.63A1.37,1.37,0,0,1,169.9,11a1.36,1.36,0,0,1-2.72,0A1.37,1.37,0,0,1,168.53,9.63Zm-1,13.22V14.08h2.07v8.77Z" transform="translate(-2.07 -0.12)" style="fill:#231f20"/><path d="M173.92,17.82l2.25-.34c.5-.07.65-.32.65-.63,0-.74-.51-1.33-1.66-1.33a1.69,1.69,0,0,0-1.8,1.58l-1.91-.43a3.43,3.43,0,0,1,3.69-2.86c2.7,0,3.73,1.53,3.73,3.28v4.35a7.76,7.76,0,0,0,.11,1.41H177a4.86,4.86,0,0,1-.09-1.12,3.05,3.05,0,0,1-2.7,1.39,2.75,2.75,0,0,1-3-2.65C171.27,18.9,172.42,18,173.92,17.82Zm2.9,1.39v-.4l-2.29.35c-.65.1-1.17.46-1.17,1.18a1.16,1.16,0,0,0,1.28,1.14A2,2,0,0,0,176.82,19.21Z" transform="translate(-2.07 -0.12)" style="fill:#231f20"/><path d="M180.92,22.85v-13H183v13Z" transform="translate(-2.07 -0.12)" style="fill:#231f20"/><path d="M186.28,20a1.64,1.64,0,0,0,1.78,1.49c.87,0,1.32-.47,1.32-1s-.32-.83-1-1l-1.29-.29a2.65,2.65,0,0,1-2.36-2.55,3,3,0,0,1,3.22-2.83,3.1,3.1,0,0,1,3.39,2.45l-1.77.5a1.5,1.5,0,0,0-1.62-1.31,1.14,1.14,0,0,0-1.26,1,1,1,0,0,0,.88.91l1.34.27c1.65.36,2.52,1.37,2.52,2.67s-1.08,2.81-3.32,2.81c-2.54,0-3.51-1.66-3.62-2.65Z" transform="translate(-2.07 -0.12)" style="fill:#231f20"/><path d="M194.31,20a1.49,1.49,0,0,1,1.48,1.48A1.47,1.47,0,0,1,194.31,23a1.46,1.46,0,0,1-1.46-1.46A1.47,1.47,0,0,1,194.31,20Z" transform="translate(-2.07 -0.12)" style="fill:#5654a4"/><rect x="1" y="1" width="28.89" height="28.89" rx="7.1" style="fill:none;stroke:#fbc557;stroke-miterlimit:10;stroke-width:2px"/><path d="M13.81,18.09C11.53,18,10.17,17,9.75,15.15A3.52,3.52,0,0,1,11,11.47a3.48,3.48,0,0,1,3.9-.54,3.46,3.46,0,0,1,2.2,3.19,8,8,0,0,1-2.54,6.17.74.74,0,0,1-1.06.09c-.5-.28-.14-.55-.07-.83s.13-.39.18-.59S13.74,18.41,13.81,18.09Z" transform="translate(-2.07 -0.12)" style="fill:#020202"/><path d="M15.86,14.66c0,.46,0,1.41-.35,1.53a5.74,5.74,0,0,1-2.2.62,2.48,2.48,0,0,1,.13-5A2.57,2.57,0,0,1,15.86,14.66Z" transform="translate(-2.07 -0.12)" style="fill:#fff"/><path d="M22.1,18.09C19.82,18,18.45,17,18,15.15a3.55,3.55,0,0,1,1.25-3.68,3.5,3.5,0,0,1,3.91-.54,3.49,3.49,0,0,1,2.2,3.19,8,8,0,0,1-2.54,6.17.74.74,0,0,1-1.06.09c-.5-.28-.15-.55-.08-.83s.13-.39.18-.59S22,18.41,22.1,18.09Z" transform="translate(-2.07 -0.12)" style="fill:#020202"/><path d="M24.15,14.66c-.06.46,0,1.41-.35,1.53a5.79,5.79,0,0,1-2.21.62,2.48,2.48,0,0,1,.14-5A2.58,2.58,0,0,1,24.15,14.66Z" transform="translate(-2.07 -0.12)" style="fill:#fff"/></svg>