<svg viewBox="0 0 1323.7 357" xmlns="http://www.w3.org/2000/svg"><path d="m164.1 0c8.5 16.9 17 33.8 25.6 50.6 13.4 26.4 26.9 52.7 39.9 79.7-41.8-23.3-83.6-46.7-125.4-70.1.3-1.9 1.7-2.6 2.7-3.5 17.7-17.7 35.4-35.4 53.1-53 1.1-1.1 2.6-2 3.1-3.7h1z" fill="#27be92"/><path d="m589 153.7c-6.6 9.9-13.2 19.8-19.7 29.7-8.2 12.3-16.4 24.7-24.4 37.1-2.1 3.3-3.2 3.2-5.3-.1-13.6-20.9-27.4-41.7-41.1-62.5-.8-1.2-1.2-2.7-3.3-3.5v5.4c0 32.2-.1 64.3.1 96.5 0 3.5-.5 4.9-4.5 4.7-9.5-.4-19-.2-28.5-.1-2.6 0-3.3-.7-3.3-3.3.1-53.5.1-107 0-160.4 0-2.9.8-3.6 3.6-3.5 10.8.2 21.7.2 32.5 0 2.9 0 4.4.9 5.9 3.3 13.7 22.2 27.5 44.3 41.4 66.6 1.9-.8 2.4-2.6 3.3-4.1 12.9-20.6 25.7-41.2 38.4-61.8 1.7-2.8 3.5-4.2 7-4.1 10.3.3 20.7.2 31 0 3.3-.1 4.6.6 4.6 4.3-.1 53-.1 106 0 158.9 0 3.3-.9 4.2-4.2 4.1-9.5-.2-19-.3-28.5 0-3.7.1-4.2-1.3-4.2-4.5.1-34.2.1-68.3.1-102.5-.3.1-.6-.1-.9-.2zm324.9-6.3c0-18.6.1-37.3-.1-55.9 0-3.5.5-4.9 4.5-4.8 9.3.4 18.7.2 28 .1 2.8 0 4 .3 4 3.7-.1 55.7-.1 111.3 0 167 0 2.8-.6 3.7-3.5 3.6-9.8-.2-19.7-.2-29.5 0-3.2.1-3.9-1-3.8-4 .2-4.2.1-8.5.1-13.9-2.7 2.9-4.6 4.9-6.5 6.9-19.8 20.3-54 14.7-70.8-1.2-17.2-16.3-22.1-36.9-20.5-59.7 1.2-17.8 7.7-33.2 20.9-45.5 16.5-15.5 51.5-22 73.7 1.5.9.9 1.5 2.1 2.2 3.2.4-.4.9-.7 1.3-1zm.2 48.4c.3-2.8-.2-6.3-1.1-9.7-3.6-12.5-10.7-21.8-24.2-24.4-12.3-2.4-22.3 2-29.7 11.9-9.6 12.6-9.5 33.1 0 45.8 11.7 15.7 34.3 16.8 46.6 2 6-7.2 8.6-15.6 8.4-25.6z" fill="#2c2e34"/><path d="m238.3 220.4c11.3-6.9 22.6-13.9 33.9-20.8 5.5-3.4 11.1-6.7 16.5-10.3 2.2-1.4 2.9-1.1 3.5 1.5 6.4 25.3 13 50.6 19.6 75.8.6 2.2 1 3.7-2.4 3.5-46.7-2.1-93.5-4.1-140.2-6.1-.2 0-.3-.1-.5-.2.5-1.7 2.1-2 3.3-2.7 20-12.3 39.9-24.7 60-36.8 3.4-2.1 5.1-3.7 4.8-8.5-1.4-21.3-1.8-42.6-2.6-63.9-.9-24.1-1.8-48.3-2.8-72.4-.2-6.1-.2-6.1 5.5-4.6 23.8 6.2 47.6 12.5 71.5 18.5 3.9 1 4.2 1.9 2.1 5.4-23.4 38.5-46.7 77.1-70 115.7l-3 5.1c.2.3.5.5.8.8z" fill="#27be92"/><path d="m726.7 264c-33.9 0-60.3-20.1-68-51.1-9.4-37.8 16.7-76.4 55.3-82 31.8-4.6 59.2 7.9 73.6 33.5 22.4 39.9-2.6 91.4-47.9 98.6-4.5.7-9.2 1.3-13 1zm-33.6-67.4c0 19.9 14.5 35.2 33.6 35.2 19.4 0 33.4-14.5 33.3-34.7-.1-19.7-14.9-35-34-35-19.1.1-32.9 14.5-32.9 34.5zm586.1-8.7c1.2-14-6.8-24-24.6-24.7-11.8-.4-23.2 1.4-34.2 5.7-3.2 1.3-4.2.4-5.1-2.6-2.1-7.2-4.5-14.3-6.8-21.4-.7-2-1.2-3.6 1.6-4.7 22.4-9.3 45.6-12.5 69.3-6.7 20.8 5 33 20.6 34.7 42.9 1.4 18.3.3 36.6.5 54.9.1 8.7-.1 17.3.1 26 0 2.7-.5 3.7-3.5 3.7-9.5-.2-19-.2-28.5 0-3 .1-3.7-1.1-3.5-3.7.2-2.9 0-5.9 0-8.9-1.9-.1-2.4 1.4-3.3 2.2-15.3 13.7-41.8 16.8-59.9 7.1-14.4-7.8-21-21.6-19.1-40.1 1.5-15.1 11.8-26.9 28-31.5 16.4-4.7 32.9-4.3 49.3.3 1.6.4 3.2.9 5 1.5zm-27 49.9h2.5c14.3-.6 24.3-8.9 25.2-20.7.6-7.6.6-7.9-6.9-9.8-11.1-2.8-22.3-4-33.1 1.5-6.2 3.2-8.4 8.7-7.8 15.4.5 6.2 4.2 9.9 9.8 12 3.3 1.3 6.8 1.8 10.3 1.6zm-188.9 5.2c-7.9 9.6-16 16.5-27.1 19-30 6.6-53.4-11.9-53.8-43.1-.4-27.5 0-55-.1-82.5 0-2.7.6-3.8 3.6-3.7 9.8.2 19.7.2 29.5 0 3.3-.1 3.8 1.1 3.8 4-.1 22-.1 44-.1 66 0 1.8 0 3.7.1 5.5.9 13.7 8.8 21.6 21.7 21.6 13 0 21.7-8.2 22.2-21.8.5-14 .2-28 .2-42 0-9.7.1-19.3-.1-29-.1-3.1.6-4.4 4-4.3 9.7.3 19.3.2 29 0 3.2-.1 3.8 1.1 3.8 4-.1 40.2-.1 80.3 0 120.5 0 3.1-.9 3.9-3.9 3.9-9.7-.2-19.3-.2-29 0-3 .1-4.2-.6-3.9-3.8.3-4.3.1-8.6.1-14.3zm106-69c0 27.5-.1 55 .1 82.5 0 3.7-.7 4.8-4.6 4.7-9.3-.3-18.7-.2-28 0-2.9.1-4-.4-4-3.7.1-55.6.1-111.3 0-166.9 0-2.7.6-3.7 3.5-3.6 9.7.2 19.3.3 29 0 3.6-.1 3.9 1.3 3.9 4.3 0 27.4.1 55 .1 82.7z" fill="#2c2e34"/><path d="m8.8 84c48 2.6 95.8 5.1 143.9 7.7-.9 2-2.5 2.3-3.7 3.1-38.6 23.2-77.3 46.4-115.9 69.6-3 1.8-4.3 2.6-5.4-1.9-5.9-24.9-12.2-49.7-18.3-74.6-.3-1.2-.4-2.4-.6-3.9zm144.8 273c-23.2-43.7-45.9-86.6-69.2-130.5 2.3 1.2 3.5 1.8 4.7 2.4 39.8 21.5 79.5 43.1 119.3 64.5 3.2 1.7 4.1 2.5 1 5.6-17.7 17.8-35.2 35.9-52.8 53.9-.9 1.1-1.7 2.4-3 4.1zm-152.7-94.8c26.6-40.5 53.1-80.8 79.7-121.3 1.3 1.3.9 2.5.9 3.6 0 46-.1 92-.1 137.9 0 3.1-.2 4.5-4 3.3-24.9-7.7-49.9-15.2-74.9-22.8-.5 0-.8-.3-1.6-.7z" fill="#27be92"/></svg>