<svg enable-background="new 0 0 2046 96" viewBox="0 0 2046 96" xmlns="http://www.w3.org/2000/svg"><path d="m1932.3 96c-36.6 0-55.6-18.7-70.9-33.8-13.1-12.9-22.6-22.2-42.8-22.2s-29.7 9.3-42.8 22.2c-15.3 15-34.3 33.8-70.9 33.8s-55.6-18.7-70.9-33.8c-13-12.9-22.5-22.2-42.7-22.2s-29.7 9.3-42.8 22.2c-15.3 15-34.3 33.8-70.9 33.8s-55.6-18.7-70.9-33.8c-13-12.9-22.5-22.2-42.7-22.2s-29.7 9.3-42.8 22.2c-15.3 15-34.3 33.8-70.9 33.8s-55.6-18.7-70.9-33.8c-13.1-12.9-22.6-22.2-42.8-22.2s-29.7 9.3-42.8 22.2c-15.3 15-34.3 33.8-70.9 33.8s-55.6-18.7-70.9-33.8c-13-12.9-22.5-22.2-42.7-22.2s-29.7 9.3-42.8 22.2c-15.3 15-34.3 33.8-70.9 33.8s-55.6-18.7-70.8-33.8c-13.1-12.9-22.6-22.2-42.8-22.2s-29.7 9.3-42.8 22.2c-15.3 15-34.3 33.8-70.9 33.8s-55.6-18.7-70.9-33.8c-13.1-12.9-22.5-22.2-42.7-22.2s-29.7 9.3-42.8 22.2c-15.3 15.1-34.3 33.8-70.9 33.8s-55.6-18.7-70.9-33.8c-13.1-12.9-22.6-22.2-42.8-22.2s-29.7 9.3-42.8 22.2c-15.3 15-34.3 33.8-70.9 33.8s-55.5-18.7-70.8-33.8c-13.1-12.9-22.6-22.2-42.8-22.2v-40c36.6 0 55.6 18.7 70.9 33.8 13.1 12.9 22.5 22.2 42.8 22.2s29.7-9.3 42.8-22.2c15.2-15.1 34.2-33.8 70.8-33.8s55.6 18.7 70.9 33.8c13.1 12.9 22.6 22.2 42.8 22.2s29.7-9.3 42.8-22.2c15.2-15.1 34.2-33.8 70.9-33.8s55.6 18.7 70.9 33.8c13 12.9 22.5 22.2 42.7 22.2s29.7-9.3 42.8-22.2c15.3-15.1 34.3-33.8 70.9-33.8s55.6 18.7 70.9 33.8c13.1 12.9 22.5 22.2 42.8 22.2 20.2 0 29.7-9.3 42.8-22.2 15.2-15.1 34.2-33.8 70.8-33.8s55.6 18.7 70.9 33.8c13.1 12.9 22.6 22.2 42.8 22.2s29.7-9.3 42.8-22.2c15.2-15.1 34.2-33.8 70.9-33.8 36.6 0 55.6 18.7 70.9 33.8 13.1 12.9 22.6 22.2 42.8 22.2s29.7-9.3 42.8-22.2c15.3-15 34.3-33.8 70.9-33.8s55.6 18.7 70.9 33.8c13.1 12.9 22.6 22.2 42.8 22.2s29.7-9.3 42.8-22.2c15.3-15 34.3-33.8 70.9-33.8s55.6 18.7 70.9 33.8c13.1 12.9 22.6 22.2 42.8 22.2s29.7-9.3 42.8-22.2c15-15.1 34-33.8 70.7-33.8 36.6 0 55.6 18.7 70.9 33.8 13.1 12.9 22.6 22.2 42.8 22.2s29.7-9.3 42.8-22.2c15.3-15 34.3-33.8 70.9-33.8v40c-20.2 0-29.7 9.3-42.8 22.2-15.4 15.1-34.4 33.8-71 33.8z" fill="#8165ba"/></svg>