<svg viewBox="0 0 63 61.04" xmlns="http://www.w3.org/2000/svg"><g fill-rule="evenodd"><path d="m63 53a8 8 0 0 1 -8 8h-41a8 8 0 0 1 -8-8v-41a8 8 0 0 1 8-8h41a8 8 0 0 1 8 8z" fill="#53ecf4"/><path d="m50.5 60h-41a9.52 9.52 0 0 1 -9.5-9.47v-41.03a9.51 9.51 0 0 1 9.5-9.5h41a9.51 9.51 0 0 1 9.5 9.5v41a9.52 9.52 0 0 1 -9.5 9.5zm-41-57a6.51 6.51 0 0 0 -6.5 6.5v41a6.51 6.51 0 0 0 6.5 6.5h41a6.51 6.51 0 0 0 6.5-6.47v-41.03a6.51 6.51 0 0 0 -6.5-6.5z"/><path d="m58 44h-56a1.5 1.5 0 0 1 0-3h56a1.5 1.5 0 0 1 0 3z"/><path d="m58 22h-56a1.5 1.5 0 0 1 0-3h56a1.5 1.5 0 0 1 0 3z"/><path d="m40.5 59.54a1.5 1.5 0 0 1 -1.5-1.54v-56a1.5 1.5 0 0 1 3 0v56a1.5 1.5 0 0 1 -1.5 1.5z"/><path d="m19.5 59.54a1.5 1.5 0 0 1 -1.5-1.54v-56a1.5 1.5 0 0 1 3 0v56a1.5 1.5 0 0 1 -1.5 1.5z"/></g></svg>