<svg viewBox="0 0 58 65" xmlns="http://www.w3.org/2000/svg"><g fill-rule="evenodd"><path d="m58 57a8 8 0 0 1 -8 8h-36a8 8 0 0 1 -8-8v-44a8 8 0 0 1 8-8h36a8 8 0 0 1 8 8z" fill="#e56a77"/><path d="m45.5 63h-36a9.51 9.51 0 0 1 -9.5-9.5v-44a9.51 9.51 0 0 1 9.5-9.5h36a9.51 9.51 0 0 1 9.5 9.5v44a9.51 9.51 0 0 1 -9.5 9.5zm-36-60a6.5 6.5 0 0 0 -6.5 6.5v44a6.5 6.5 0 0 0 6.5 6.5h36a6.51 6.51 0 0 0 6.5-6.5v-44a6.51 6.51 0 0 0 -6.5-6.5z"/><path d="m5 20h-2a1.5 1.5 0 0 1 0-3h2a1.5 1.5 0 0 1 0 3z"/><path d="m52 20h-47a1.5 1.5 0 0 1 0-3h47a1.5 1.5 0 0 1 0 3z"/><path d="m54 20h-2a1.5 1.5 0 0 1 0-3h2a1.5 1.5 0 0 1 0 3z"/><path d="m17.23 11.14a2.56 2.56 0 1 1 -5.11 0 2.56 2.56 0 0 1 5.11 0z"/><path d="m26.43 11.14a2.56 2.56 0 1 1 -5.11 0 2.56 2.56 0 0 1 5.11 0z"/><path d="m34.61 11.14a2.56 2.56 0 1 1 -5.11 0 2.56 2.56 0 0 1 5.11 0z"/><g fill="#edc951"><path d="m37.9 45.42a1.5 1.5 0 0 1 -.85-2.74l7.65-5.2-7.48-3.83a1.5 1.5 0 1 1 1.36-2.65l7.74 4a2.84 2.84 0 0 1 .39 4.81l-8 5.41a1.49 1.49 0 0 1 -.81.2z"/><path d="m20.71 49.42a1.47 1.47 0 0 1 -.85-.26l-7.92-5.38a2.85 2.85 0 0 1 -1.19-2.55 2.8 2.8 0 0 1 1.53-2.29l7.72-3.94a1.5 1.5 0 0 1 1.37 2.67l-7.47 3.81 7.65 5.2a1.5 1.5 0 0 1 -.84 2.74z"/><path d="m26.43 52.31a1.48 1.48 0 0 1 -1.5-1.49 1.37 1.37 0 0 1 .07-.45l6.58-21.12a1.48 1.48 0 0 1 1.87-1 1.48 1.48 0 0 1 1 1.87l-6.59 21.14a1.48 1.48 0 0 1 -1.43 1.05z"/></g></g></svg>