<svg viewBox="0 0 66 64.04" xmlns="http://www.w3.org/2000/svg"><g fill-rule="evenodd" transform="translate(0 .01)"><path d="m43 56a8 8 0 0 1 -8 8h-21a8 8 0 0 1 -8-8v-21a8 8 0 0 1 8-8h21a8 8 0 0 1 8 8z" fill="#53ecf4"/><path d="m66 43a8 8 0 0 1 -8 8h-31a8 8 0 0 1 -8-8v-31a8 8 0 0 1 8-8h31a8 8 0 0 1 8 8z" fill="#e56a77"/><path d="m53.5 50h-31a9.52 9.52 0 0 1 -9.5-9.48v-31.02a9.52 9.52 0 0 1 9.5-9.5h31a9.52 9.52 0 0 1 9.5 9.5v31a9.52 9.52 0 0 1 -9.5 9.5zm-31-47a6.51 6.51 0 0 0 -6.5 6.5v31a6.51 6.51 0 0 0 6.5 6.5h31a6.51 6.51 0 0 0 6.5-6.5v-31a6.51 6.51 0 0 0 -6.5-6.5z"/><path d="m30.5 63h-21a9.52 9.52 0 0 1 -9.5-9.47v-21a9.51 9.51 0 0 1 9.5-9.53h21a9.51 9.51 0 0 1 9.5 9.5v21a9.52 9.52 0 0 1 -9.5 9.5zm-21-37a6.51 6.51 0 0 0 -6.5 6.51v21a6.51 6.51 0 0 0 6.5 6.49h21a6.51 6.51 0 0 0 6.5-6.5v-21a6.51 6.51 0 0 0 -6.5-6.5z"/><path d="m56.2 23.35a2.36 2.36 0 0 0 .21-1v-10.52a1.92 1.92 0 0 0 -1.91-1.92h-10.5a2.65 2.65 0 0 0 -1 .22 1.94 1.94 0 0 0 -.55 3.12l3.94 3.95-6.61 6.62a1.8 1.8 0 1 0 2.54 2.55l6.62-6.62 4.16 4.15a1.93 1.93 0 0 0 3.1-.55z" fill="#fff"/></g></svg>