<svg viewBox="0 0 53 63" xmlns="http://www.w3.org/2000/svg"><path d="m53 55a8 8 0 0 1 -8 8h-31a8 8 0 0 1 -8-8v-44a8 8 0 0 1 8-8h31a8 8 0 0 1 8 8z" fill="#53ecf4" fill-rule="evenodd"/><circle cx="30" cy="47" fill="#fff" r="11"/><path d="m29.11 30.9a9.9 9.9 0 1 1 9.89-9.9 9.9 9.9 0 0 1 -9.89 9.9z" fill="#fff" fill-rule="evenodd"/><path d="m40.5 63h-31a9.51 9.51 0 0 1 -9.5-9.5v-44a9.51 9.51 0 0 1 9.5-9.5h31a9.51 9.51 0 0 1 9.5 9.5v44a9.51 9.51 0 0 1 -9.5 9.5zm-31-60a6.5 6.5 0 0 0 -6.5 6.5v44a6.51 6.51 0 0 0 6.5 6.5h31a6.51 6.51 0 0 0 6.5-6.5v-44a6.51 6.51 0 0 0 -6.5-6.5z" fill-rule="evenodd"/><circle cx="30" cy="45" r="3"/><circle cx="21" cy="45" r="3"/><g fill-rule="evenodd"><path d="m25.11 55.86a11.4 11.4 0 1 1 11.4-11.4 11.41 11.41 0 0 1 -11.4 11.4zm0-19.8a8.4 8.4 0 1 0 8.4 8.4 8.41 8.41 0 0 0 -8.4-8.4z"/><path d="m25.11 30.4a11.4 11.4 0 1 1 11.4-11.4 11.41 11.41 0 0 1 -11.4 11.4zm0-19.8a8.4 8.4 0 1 0 8.4 8.4 8.41 8.41 0 0 0 -8.4-8.4z"/><path d="m29.68 21.17a2.29 2.29 0 1 1 0-4.57 2.29 2.29 0 0 1 0 4.57z"/><path d="m20.54 21.17a2.29 2.29 0 1 1 0-4.57 2.29 2.29 0 0 1 0 4.57z"/></g></svg>