<svg viewBox="0 0 66 55.02" xmlns="http://www.w3.org/2000/svg"><g fill-rule="evenodd" transform="translate(0 -.01)"><path d="m66 47a8 8 0 0 1 -8 8h-44a8 8 0 0 1 -8-8v-27a8 8 0 0 1 8-8h44a8 8 0 0 1 8 8z" fill="#edc951"/><path d="m26 5h19v7h-19z" fill="#e56a77"/><path d="m47.82 33.82a11.37 11.37 0 1 1 -11.36-11.36 11.37 11.37 0 0 1 11.36 11.36z" fill="#e56a77"/><path d="m53.5 53h-44a9.51 9.51 0 0 1 -9.5-9.48v-27a9.51 9.51 0 0 1 9.5-9.52h44a9.51 9.51 0 0 1 9.5 9.5v27a9.51 9.51 0 0 1 -9.5 9.5zm-44-43a6.5 6.5 0 0 0 -6.5 6.51v27a6.5 6.5 0 0 0 6.5 6.49h44a6.51 6.51 0 0 0 6.5-6.5v-27a6.5 6.5 0 0 0 -6.5-6.5z"/><path d="m31.45 43.69a12.87 12.87 0 1 1 12.87-12.87 12.88 12.88 0 0 1 -12.87 12.87zm0-22.73a9.87 9.87 0 1 0 9.87 9.86 9.87 9.87 0 0 0 -9.87-9.82z"/><path d="m13.57 16.86a2.76 2.76 0 1 1 -5.52 0 2.76 2.76 0 0 1 5.52 0z"/><path d="m54.5 52.52a1.5 1.5 0 0 1 -1.5-1.52v-47h-5v4a1.5 1.5 0 0 1 -3 0v-5.49a1.5 1.5 0 0 1 1.5-1.51h8a1.5 1.5 0 0 1 1.5 1.51v48.49a1.5 1.5 0 0 1 -1.5 1.52z"/><path d="m40.5 10h-19a1.5 1.5 0 0 1 -1.5-1.49v-7a1.5 1.5 0 0 1 1.5-1.51h19a1.5 1.5 0 0 1 1.5 1.51v7a1.5 1.5 0 0 1 -1.5 1.49zm-17.5-3h16v-4h-16z"/></g></svg>