<svg id="ac370e99-250f-4203-ae2c-c306a69114f3" xmlns="http://www.w3.org/2000/svg" xmlns:xlink="http://www.w3.org/1999/xlink" viewBox="0 0 1144 665.8"><defs><style>.cls-1,.cls-4{fill:#5333ed;}.cls-1,.cls-5{opacity:0.1;isolation:isolate;}.cls-2{opacity:0.2;}.cls-3{fill:#3f3d56;}.cls-6{fill:#fff;}.cls-7{opacity:0.5;}.cls-8{fill:url(#linear-gradient);}.cls-9{fill:url(#linear-gradient-2);}.cls-10{fill:#f5f5f5;}.cls-11{fill:url(#linear-gradient-3);}.cls-12{fill:url(#linear-gradient-4);}.cls-13{fill:url(#linear-gradient-5);}.cls-14{fill:url(#linear-gradient-6);}.cls-15{fill:#dbdbdb;}.cls-16{fill:#ebe8fa;}.cls-17{fill:url(#linear-gradient-7);}.cls-18{fill:#fda57d;}.cls-19{fill:#333;}.cls-20{fill:#4d8af0;}.cls-21{fill:#fdb797;}.cls-22{fill:#be7c5e;}.cls-23{fill:#f55f44;}</style><linearGradient id="linear-gradient" x1="804.2" y1="709.06" x2="968.16" y2="321.88" gradientTransform="translate(-140.75 -155.73) rotate(-0.14)" gradientUnits="userSpaceOnUse"><stop offset="0" stop-color="gray" stop-opacity="0.25"/><stop offset="0.54" stop-color="gray" stop-opacity="0.12"/><stop offset="1" stop-color="gray" stop-opacity="0.1"/></linearGradient><linearGradient id="linear-gradient-2" x1="875.12" y1="482.99" x2="875.12" y2="365.09" gradientTransform="translate(-127.12 -154.99)" xlink:href="#linear-gradient"/><linearGradient id="linear-gradient-3" x1="506.3" y1="708.24" x2="670.31" y2="320.96" gradientTransform="matrix(-1, 0, 0, 1, 998.51, -157.03)" xlink:href="#linear-gradient"/><linearGradient id="linear-gradient-4" x1="576.08" y1="482.99" x2="576.08" y2="365.09" gradientTransform="matrix(-1, 0, 0, 1, 984.88, -154.99)" xlink:href="#linear-gradient"/><linearGradient id="linear-gradient-5" x1="635.22" y1="780.05" x2="799.19" y2="392.87" xlink:href="#linear-gradient"/><linearGradient id="linear-gradient-6" x1="706.32" y1="554.49" x2="706.32" y2="436.59" gradientTransform="translate(-127.12 -154.99)" xlink:href="#linear-gradient"/><linearGradient id="linear-gradient-7" x1="576.1" y1="696.5" x2="576.1" y2="634.3" gradientTransform="translate(0 -92)" xlink:href="#linear-gradient"/></defs><title>illustration-3</title><path class="cls-1" d="M1144,415.3a180.65,180.65,0,0,1-26.1,93.9c0,34.6-16.1,66-42.3,88.9a151.26,151.26,0,0,1-21.1,15.3,4.05,4.05,0,0,1-.9.5c-.6.3-1.1.7-1.7,1l-.5.3h0A164.35,164.35,0,0,1,970.3,636H217.2c-6,0-11.9-.2-17.8-.7a211.34,211.34,0,0,1-61.1-14.1c-3.8-1.5-7.6-3.1-11.2-4.9-1.7-.8-3.5-1.7-5.2-2.5-1.1-.5-2.1-1.1-3.2-1.7a187.08,187.08,0,0,1-34.5-23.4c-34-29.2-55.1-69.6-55.1-114.2A180.23,180.23,0,0,1,0,375.8c0-99.1,79.2-179.5,177-179.5q4.5,0,9,.3a5.7,5.7,0,0,1,1.3.1c16.5-28.1,38.5-53.9,65-76.6,72.2-62,177.8-101,295.4-101,98.8,0,189.2,27.6,258.3,73.1a173.63,173.63,0,0,1,86-22.5c97.7,0,177,80.4,177,179.5a169.15,169.15,0,0,1-1,18.8A179.5,179.5,0,0,1,1144,415.3Z" transform="translate(0)"/><g class="cls-2"><path class="cls-3" d="M138.4,619.8c0,.5-.1.9-.1,1.3-3.8-1.5-7.6-3.1-11.2-4.9a9.1,9.1,0,0,1-5.2-2.5c-1.1-.5-2.1-1.1-3.2-1.7a10.93,10.93,0,0,1,.8-1.5c2.1-3.3,5.2-5.3,8.6-5.2s6.4,2.3,8.3,5.7A18.29,18.29,0,0,1,138.4,619.8Z" transform="translate(0)"/><path class="cls-3" d="M138.9,602.7a17.15,17.15,0,0,1-2.5,8.5c-2.1,3.3-5.2,5.3-8.6,5.2h-.7a9.1,9.1,0,0,1-5.2-2.5,11.76,11.76,0,0,1-2.4-3.1,17.63,17.63,0,0,1,.5-17.1c2.1-3.3,5.2-5.3,8.6-5.2s6.4,2.3,8.3,5.7A15.51,15.51,0,0,1,138.9,602.7Z" transform="translate(0)"/><ellipse class="cls-3" cx="128.72" cy="585.2" rx="14" ry="10.7" transform="translate(-460.26 695.37) rotate(-88.19)"/><ellipse class="cls-3" cx="129.27" cy="568.12" rx="14" ry="10.7" transform="translate(-442.64 679.38) rotate(-88.19)"/><ellipse class="cls-3" cx="129.95" cy="549.9" rx="14" ry="10.7" transform="translate(-423.59 663.3) rotate(-88.28)"/><path class="cls-4" d="M93.5,432.5a46.71,46.71,0,0,1-3.8-6l28.3-3.7-30.4-.7a51.16,51.16,0,0,1,.3-40.6L128,404,91.2,375.1a51.28,51.28,0,1,1,87.2,54,52.4,52.4,0,0,1-4.4,6.1,60.7,60.7,0,0,1,5.6,9.5l-37.1,17.8,39.3-11.8a51.57,51.57,0,0,1-9.8,47.9A51.28,51.28,0,1,1,91.4,496a51.4,51.4,0,0,1,2.1-63.5Z" transform="translate(0)"/><path class="cls-5" d="M184,467.1a51.33,51.33,0,0,1-12,31.3,51.28,51.28,0,1,1-80.6-2.6C84.9,487,184.2,461.4,184,467.1Z" transform="translate(0)"/></g><path class="cls-6" d="M958,138.4V617.6A18.35,18.35,0,0,1,939.6,636H204.4a17.92,17.92,0,0,1-5.1-.7A18.42,18.42,0,0,1,186,617.6v-421a5.7,5.7,0,0,1,1.3.1c16.5-28.1,38.5-53.9,65-76.6H939.6A18.2,18.2,0,0,1,958,138.4Z" transform="translate(0)"/><circle class="cls-1" cx="70.5" cy="141.2" r="21.6"/><circle class="cls-1" cx="160.7" cy="21.6" r="21.6"/><circle class="cls-1" cx="153.3" cy="103.8" r="36.3"/><circle class="cls-6" cx="746.1" cy="318.7" r="6.7"/><ellipse class="cls-4" cx="977" cy="659.3" rx="34" ry="6.5"/><ellipse class="cls-3" cx="977.6" cy="656.6" rx="4" ry="5.2"/><ellipse class="cls-3" cx="977.6" cy="650.3" rx="4" ry="5.2"/><ellipse class="cls-3" cx="977.6" cy="643.9" rx="4" ry="5.2"/><ellipse class="cls-3" cx="977.6" cy="637.6" rx="4" ry="5.2"/><ellipse class="cls-3" cx="977.6" cy="631.3" rx="4" ry="5.2"/><ellipse class="cls-3" cx="977.6" cy="625" rx="4" ry="5.2"/><ellipse class="cls-3" cx="977.6" cy="618.6" rx="4" ry="5.2"/><path class="cls-4" d="M962.8,575.3c-.5-.7-1-1.4-1.5-2.2l10.4-1.7-11.2.1a19.07,19.07,0,0,1-.4-15l15.1,7.8-13.9-10.2A19,19,0,1,1,994.2,573c-.5.8-1,1.6-1.6,2.4a20.71,20.71,0,0,1,2.2,3.5l-13.5,7,14.4-4.8a18.15,18.15,0,0,1,1,6.1,18.54,18.54,0,0,1-4.1,11.7,18.94,18.94,0,1,1-29.8,0,19.21,19.21,0,0,1,0-23.6Z" transform="translate(0)"/><path class="cls-5" d="M996.6,587a18.54,18.54,0,0,1-4.1,11.7,18.94,18.94,0,1,1-29.8,0C960.3,595.5,996.6,584.9,996.6,587Z" transform="translate(0)"/><ellipse class="cls-4" cx="1043.2" cy="586.8" rx="22.8" ry="4.4"/><ellipse class="cls-3" cx="1043.6" cy="585" rx="2.7" ry="3.5"/><ellipse class="cls-3" cx="1043.6" cy="580.7" rx="2.7" ry="3.5"/><ellipse class="cls-3" cx="1043.6" cy="576.5" rx="2.7" ry="3.5"/><ellipse class="cls-3" cx="1043.6" cy="572.2" rx="2.7" ry="3.5"/><ellipse class="cls-3" cx="1043.6" cy="568" rx="2.7" ry="3.5"/><ellipse class="cls-3" cx="1043.6" cy="563.7" rx="2.7" ry="3.5"/><ellipse class="cls-3" cx="1043.6" cy="559.5" rx="2.7" ry="3.5"/><path class="cls-4" d="M1033.6,530.4a7.84,7.84,0,0,1-1-1.5l7-1.2-7.6.1a12.42,12.42,0,0,1-1.2-5.3,13.19,13.19,0,0,1,.9-4.8l10.1,5.3-9.3-6.9a12.76,12.76,0,0,1,22.2,12.6,9.91,9.91,0,0,1-1.1,1.7,7.89,7.89,0,0,1,1.4,2.3l-9.1,4.7,9.7-3.3a12.67,12.67,0,0,1-2.1,12,12.74,12.74,0,1,1-20,0,12.9,12.9,0,0,1,.1-15.7Z" transform="translate(0)"/><path class="cls-5" d="M1056.3,538.2a13.23,13.23,0,0,1-2.7,7.9,12.74,12.74,0,1,1-20,0C1031.9,543.9,1056.3,536.8,1056.3,538.2Z" transform="translate(0)"/><g class="cls-7"><path class="cls-8" d="M842.1,170.3l-191.6.5a7.92,7.92,0,0,0-7.9,7.9h0l.8,358.3a7.77,7.77,0,0,0,7.9,7.8h0l191.6-.5a7.92,7.92,0,0,0,7.9-7.9h0L850,178.1A7.9,7.9,0,0,0,842.1,170.3Z" transform="translate(0)"/></g><path class="cls-6" d="M653.3,175.6l186-.5a7.9,7.9,0,0,1,7.9,7.8l.9,348.3a7.9,7.9,0,0,1-7.8,7.9l-186,.5a7.9,7.9,0,0,1-7.9-7.8l-.9-348.3A7.9,7.9,0,0,1,653.3,175.6Z" transform="translate(0)"/><g class="cls-7"><path class="cls-9" d="M806.8,268.9a58.8,58.8,0,1,0-91.6,48.8v.3a19.48,19.48,0,0,0,6.7,4.2l.1-.3c2.7,2.4,14.3,6.1,27.7,6.1h.3c8.4,0,17.6-1.5,25.6-5.8l.2-.4a20.8,20.8,0,0,0,5.5-3.8c0-.2.1-.4.1-.7A58.25,58.25,0,0,0,806.8,268.9Z" transform="translate(0)"/></g><circle class="cls-10" cx="748.1" cy="268.9" r="57"/><g class="cls-7"><path class="cls-11" d="M314.8,170.3l191.6.5a7.92,7.92,0,0,1,7.9,7.9h0L513.5,537a7.77,7.77,0,0,1-7.9,7.8h0L314,544.3a7.92,7.92,0,0,1-7.9-7.9h0l.9-358.3A7.68,7.68,0,0,1,314.8,170.3Z" transform="translate(0)"/></g><path class="cls-6" d="M502.6,539.7l-186-.5a7.83,7.83,0,0,1-7.8-7.9l.9-348.3a7.83,7.83,0,0,1,7.9-7.8l186,.5a7.83,7.83,0,0,1,7.8,7.9l-.9,348.3A7.83,7.83,0,0,1,502.6,539.7Z" transform="translate(0)"/><g class="cls-7"><path class="cls-12" d="M350,268.9a58.8,58.8,0,1,1,91.6,48.8v.3a19.48,19.48,0,0,1-6.7,4.2l-.1-.3c-2.7,2.4-14.3,6.1-27.7,6.1h-.3c-8.4,0-17.6-1.5-25.6-5.8l-.2-.4a20.8,20.8,0,0,1-5.5-3.8c0-.2-.1-.4-.1-.7A58.75,58.75,0,0,1,350,268.9Z" transform="translate(0)"/></g><circle class="cls-10" cx="408.8" cy="268.9" r="57"/><g class="cls-7"><path class="cls-13" d="M673.3,241.7l-191.6.5a7.92,7.92,0,0,0-7.9,7.9h0l.8,358.3a7.77,7.77,0,0,0,7.9,7.8h0l191.6-.5a7.92,7.92,0,0,0,7.9-7.9h0l-.9-358.3A7.75,7.75,0,0,0,673.3,241.7Z" transform="translate(0)"/></g><path class="cls-6" d="M484.5,247.1l186-.5a7.9,7.9,0,0,1,7.9,7.8l.9,348.3a7.9,7.9,0,0,1-7.8,7.9l-186,.5a7.9,7.9,0,0,1-7.9-7.8L476.7,255A7.83,7.83,0,0,1,484.5,247.1Z" transform="translate(0)"/><g class="cls-7"><path class="cls-14" d="M638,340.4a58.8,58.8,0,1,0-91.6,48.8v.3a19.48,19.48,0,0,0,6.7,4.2l.1-.3c2.7,2.4,14.3,6.1,27.7,6.1h.3c8.4,0,17.6-1.5,25.6-5.8l.2-.4a20.8,20.8,0,0,0,5.5-3.8c0-.2.1-.4.1-.7A58.38,58.38,0,0,0,638,340.4Z" transform="translate(0)"/></g><circle class="cls-10" cx="579.3" cy="340.4" r="57"/><rect class="cls-15" x="529.2" y="446.3" width="93.3" height="10.4"/><rect class="cls-15" x="508.4" y="467" width="134.8" height="10.4"/><path class="cls-16" d="M554.2,563.1v25.6H417.4v8.5a1.79,1.79,0,0,1-1.8,1.8,1.88,1.88,0,0,1-.8-.2L375.2,579a2,2,0,0,1-.9-2.7,2,2,0,0,1,.8-.8l40.3-22.7a1.33,1.33,0,0,1,1.8.5,1.42,1.42,0,0,1,.2.6l-.1,8.9Z" transform="translate(0)"/><path class="cls-16" d="M598.1,563.1v25.6H734.8v8.5a1.79,1.79,0,0,0,1.8,1.8,1.88,1.88,0,0,0,.8-.2L777,579a2,2,0,0,0,.9-2.7,2,2,0,0,0-.8-.8l-40.3-22.7a1.33,1.33,0,0,0-1.8.5,1.42,1.42,0,0,0-.2.6l.1,8.9Z" transform="translate(0)"/><g class="cls-7"><circle class="cls-17" cx="576.1" cy="573.4" r="31.1"/></g><circle class="cls-4" cx="576.1" cy="573.4" r="25.9"/><path class="cls-18" d="M557.5,363.8s-13.6,1.1-10,25.9a19.34,19.34,0,0,0,6.5,4.1l7.6-25.9Z" transform="translate(0)"/><path class="cls-18" d="M601.6,363.8s13.6,1.1,10,25.9a19.34,19.34,0,0,1-6.5,4.1l-7.6-25.9Z" transform="translate(0)"/><path class="cls-19" d="M558.1,323.3s-6.5,18.8-10,17c0,0,34,29.4,64.1,0a89.77,89.77,0,0,0-12.9-17Z" transform="translate(0)"/><circle class="cls-19" cx="579.9" cy="321.5" r="25.3"/><path class="cls-5" d="M601.3,363.8H557.2l-4.1,17.6s-2.4,8.2.6,11.8,31.1,11.8,51.7.6a23.14,23.14,0,0,0,.6-14.7c-2.4-8.2-.6-.6-.6-.6Z" transform="translate(0)"/><path class="cls-5" d="M601.9,363.8H557.8l-4.1,17.6s-2.4,8.2.6,11.8,31.1,11.8,51.7.6a23.14,23.14,0,0,0,.6-14.7c-2.4-8.2-.6-.6-.6-.6Z" transform="translate(0)"/><path class="cls-4" d="M601.6,363.8H557.5l-4.1,17.6s-2.4,8.2.6,11.8,31.1,11.8,51.7.6a23.14,23.14,0,0,0,.6-14.7c-2.4-8.2-.6-.6-.6-.6Z" transform="translate(0)"/><path class="cls-5" d="M571,349.2h17.6v14.1a8.75,8.75,0,0,1-8.8,8.8h0a8.75,8.75,0,0,1-8.8-8.8h0V349.2Z" transform="translate(0)"/><path class="cls-18" d="M571,348.5h17.6v14.1a8.75,8.75,0,0,1-8.8,8.8h0a8.75,8.75,0,0,1-8.8-8.8V348.5Z" transform="translate(0)"/><path class="cls-5" d="M571.1,351.1a25.37,25.37,0,0,0,17.6,0V349H571.1Z" transform="translate(0)"/><circle class="cls-18" cx="579.9" cy="327" r="25.3"/><path class="cls-19" d="M555.7,317.4h48.2s-4.1-19.5-22.3-18.2S555.7,317.4,555.7,317.4Z" transform="translate(0)"/><ellipse class="cls-18" cx="555.2" cy="325.9" rx="2.4" ry="4.4"/><ellipse class="cls-18" cx="604.5" cy="325.9" rx="2.4" ry="4.4"/><path class="cls-5" d="M555.7,318.1h48.2s-4.1-19.5-22.3-18.2S555.7,318.1,555.7,318.1Z" transform="translate(0)"/><path class="cls-20" d="M723.4,291.2s-13.6,1.1-10,25.9a19.34,19.34,0,0,0,6.5,4.1l7.6-25.9Z" transform="translate(0)"/><path class="cls-20" d="M767.5,291.2s13.6,1.1,10,25.9a19.34,19.34,0,0,1-6.5,4.1l-7.6-25.9Z" transform="translate(0)"/><circle class="cls-19" cx="745.8" cy="248.9" r="25.3"/><path class="cls-20" d="M767.2,291.2H723.1L719,308.8s-2.4,8.2.6,11.8,31.1,11.8,51.7.6a23.14,23.14,0,0,0,.6-14.7c-2.4-8.2-.6-.6-.6-.6Z" transform="translate(0)"/><path class="cls-20" d="M767.8,291.2H723.7l-4.1,17.6s-2.4,8.2.6,11.8,31.1,11.8,51.7.6a23.14,23.14,0,0,0,.6-14.7c-2.4-8.2-.6-.6-.6-.6Z" transform="translate(0)"/><path class="cls-20" d="M767.5,291.2H723.4l-4.1,17.6s-2.4,8.2.6,11.8,31.1,11.8,51.7.6a23.14,23.14,0,0,0,.6-14.7c-2.4-8.2-.6-.6-.6-.6Z" transform="translate(0)"/><path class="cls-5" d="M736.9,276.6h17.6v14.1a8.75,8.75,0,0,1-8.8,8.8h0a8.75,8.75,0,0,1-8.8-8.8V276.6Z" transform="translate(0)"/><path class="cls-21" d="M736.9,276h17.6v14.1a8.75,8.75,0,0,1-8.8,8.8h0a8.75,8.75,0,0,1-8.8-8.8V276Z" transform="translate(0)"/><path class="cls-5" d="M737,278.5a25.37,25.37,0,0,0,17.6,0v-2.2H737Z" transform="translate(0)"/><circle class="cls-21" cx="745.8" cy="254.4" r="25.3"/><path class="cls-5" d="M721.7,245.5h48.2s-4.1-19.5-22.3-18.2S721.7,245.5,721.7,245.5Z" transform="translate(0)"/><path class="cls-19" d="M721.7,244.8h48.2s-4.1-19.5-22.3-18.2S721.7,244.8,721.7,244.8Z" transform="translate(0)"/><ellipse class="cls-21" cx="721.1" cy="253.3" rx="2.4" ry="4.4"/><ellipse class="cls-21" cx="770.4" cy="253.3" rx="2.4" ry="4.4"/><path class="cls-19" d="M725.4,231.9a9.32,9.32,0,0,1,3.2-4.8,15,15,0,0,1,4.1-1.8,27.66,27.66,0,0,0,6-2.9,42.43,42.43,0,0,1,6.5-3.8c4-1.5,8.6-.7,12.8.4a10.83,10.83,0,0,1,3,1.1,13.26,13.26,0,0,1,2.7,2.6l6.6,8A19.52,19.52,0,0,1,772,233a7.86,7.86,0,0,1,.8,2.6,6.08,6.08,0,0,1-6.4,7.3,20.74,20.74,0,0,1-6.5-1.2,127.31,127.31,0,0,0-21-4.7,54.5,54.5,0,0,0-10.7-.3c-1.1.1-2.6.6-3.3-.6C724.3,235.2,725.1,232.9,725.4,231.9Z" transform="translate(0)"/><path class="cls-22" d="M386.4,290.7s-13.6,1.1-10,25.9a19.34,19.34,0,0,0,6.5,4.1l7.6-25.9Z" transform="translate(0)"/><path class="cls-22" d="M430.5,290.7s13.6,1.1,10,25.9a19.34,19.34,0,0,1-6.5,4.1l-7.6-25.9Z" transform="translate(0)"/><path class="cls-19" d="M387,250.1s-1,3-2.5,6.6c-3.2,7.7.5,37.3,8.2,40.4,8.7,3.5,20.1,5.8,32,1.5,10.3-3.8,13.5-37.4,6.2-45.6a35.69,35.69,0,0,0-2.7-2.8Z" transform="translate(0)"/><circle class="cls-19" cx="408.8" cy="248.3" r="25.3"/><path class="cls-5" d="M430.2,290.7H386.1L382,308.3s-2.4,8.2.6,11.8,31.1,11.8,51.7.6a23.14,23.14,0,0,0,.6-14.7c-2.4-8.2-.6-.6-.6-.6Z" transform="translate(0)"/><path class="cls-5" d="M430.8,290.7H386.7l-4.1,17.6s-2.4,8.2.6,11.8,31.1,11.8,51.7.6a23.14,23.14,0,0,0,.6-14.7c-2.4-8.2-.6-.6-.6-.6Z" transform="translate(0)"/><path class="cls-23" d="M430.5,290.7H386.4l-4.1,17.6s-2.4,8.2.6,11.8,31.1,11.8,51.7.6a23.14,23.14,0,0,0,.6-14.7c-2.4-8.2-.6-.6-.6-.6Z" transform="translate(0)"/><path class="cls-5" d="M399.9,276h17.6v14.1a8.75,8.75,0,0,1-8.8,8.8h0a8.75,8.75,0,0,1-8.8-8.8h0V276Z" transform="translate(0)"/><path class="cls-22" d="M399.9,275.4h17.6v14.1a8.75,8.75,0,0,1-8.8,8.8h0a8.75,8.75,0,0,1-8.8-8.8h0V275.4Z" transform="translate(0)"/><path class="cls-5" d="M400,277.9a25.37,25.37,0,0,0,17.6,0v-2.2H400Z" transform="translate(0)"/><circle class="cls-22" cx="408.8" cy="253.8" r="25.3"/><path class="cls-19" d="M384.6,244.2h48.2s-4.1-19.5-22.3-18.2S384.6,244.2,384.6,244.2Z" transform="translate(0)"/><ellipse class="cls-22" cx="384.1" cy="252.8" rx="2.4" ry="4.4"/><ellipse class="cls-22" cx="433.4" cy="252.8" rx="2.4" ry="4.4"/><path class="cls-5" d="M384.6,244.9h48.2s-4.1-19.5-22.3-18.2S384.6,244.9,384.6,244.9Z" transform="translate(0)"/><path class="cls-15" d="M569.8,419.5a6.7,6.7,0,1,1-6.7,6.7v-1a13.4,13.4,0,0,1,13.4-13.4v3.8a9.52,9.52,0,0,0-6.8,2.8,11,11,0,0,0-1,1.1A4.05,4.05,0,0,0,569.8,419.5Zm17.3,0a6.7,6.7,0,1,1-6.7,6.7v-1a13.4,13.4,0,0,1,13.4-13.4v3.8a9.52,9.52,0,0,0-6.8,2.8,11,11,0,0,0-1,1.1A4.05,4.05,0,0,0,587.1,419.5Z" transform="translate(0)"/><rect class="cls-15" x="530.2" y="488.3" width="93.3" height="10.4"/><rect class="cls-15" x="685.3" y="390.7" width="114.7" height="10.4"/><rect class="cls-15" x="696" y="370" width="93.3" height="10.4"/><path class="cls-15" d="M736.6,343.3a6.7,6.7,0,1,1-6.7,6.7v-1a13.4,13.4,0,0,1,13.4-13.4v3.8a9.52,9.52,0,0,0-6.8,2.8,11,11,0,0,0-1,1.1Zm17.3,0a6.7,6.7,0,1,1-6.7,6.7v-1a13.4,13.4,0,0,1,13.4-13.4v3.8a9.52,9.52,0,0,0-6.8,2.8,11,11,0,0,0-1,1.1Z" transform="translate(0)"/><rect class="cls-15" x="697" y="412" width="93.3" height="10.4"/><rect class="cls-15" x="359.5" y="372.6" width="93.3" height="10.4"/><rect class="cls-15" x="351.8" y="393.4" width="108.2" height="10.4"/><path class="cls-15" d="M400.2,345.9a6.7,6.7,0,1,1-6.7,6.7v-1a13.4,13.4,0,0,1,13.4-13.4V342a9.52,9.52,0,0,0-6.8,2.8,11,11,0,0,0-1,1.1A4.05,4.05,0,0,0,400.2,345.9Zm17.2,0a6.7,6.7,0,1,1-6.7,6.7v-1a13.4,13.4,0,0,1,13.4-13.4V342a9.52,9.52,0,0,0-6.8,2.8,11,11,0,0,0-1,1.1A4,4,0,0,0,417.4,345.9Z" transform="translate(0)"/><rect class="cls-15" x="360.5" y="414.6" width="93.3" height="10.4"/></svg>