<svg id="Layer_1" data-name="Layer 1" xmlns="http://www.w3.org/2000/svg" xmlns:xlink="http://www.w3.org/1999/xlink" viewBox="0 0 678.3 733"><defs><style>.cls-1{fill:url(#linear-gradient);}.cls-2{fill:#f5f5f5;}.cls-3{fill:url(#linear-gradient-2);}.cls-4{fill:url(#linear-gradient-3);}.cls-5{fill:#fafafa;}.cls-6{fill:url(#linear-gradient-4);}.cls-7{fill:url(#linear-gradient-5);}.cls-23,.cls-8{fill:#fff;}.cls-9{fill:#69f0ae;}.cls-10{fill:url(#linear-gradient-6);}.cls-11{fill:url(#linear-gradient-7);}.cls-12{fill:url(#linear-gradient-8);}.cls-13{fill:url(#linear-gradient-9);}.cls-14{fill:url(#linear-gradient-10);}.cls-15{fill:url(#linear-gradient-11);}.cls-16{fill:url(#linear-gradient-12);}.cls-17,.cls-18,.cls-19,.cls-20{fill:#5333ed;}.cls-18{opacity:0.7;}.cls-18,.cls-19,.cls-20,.cls-21,.cls-23{isolation:isolate;}.cls-19{opacity:0.5;}.cls-20{opacity:0.3;}.cls-21,.cls-23{opacity:0.2;}.cls-22{fill:url(#linear-gradient-13);}.cls-24{fill:url(#linear-gradient-14);}.cls-25{fill:url(#linear-gradient-15);}</style><linearGradient id="linear-gradient" x1="585.48" y1="1" x2="585.48" y2="60.37" gradientTransform="matrix(1, 0, 0, -1, 0, 734)" gradientUnits="userSpaceOnUse"><stop offset="0" stop-color="gray" stop-opacity="0.25"/><stop offset="0.54" stop-color="gray" stop-opacity="0.12"/><stop offset="1" stop-color="gray" stop-opacity="0.1"/></linearGradient><linearGradient id="linear-gradient-2" x1="93.98" y1="1" x2="93.98" y2="60.37" xlink:href="#linear-gradient"/><linearGradient id="linear-gradient-3" x1="339.15" y1="52.2" x2="339.15" y2="734" xlink:href="#linear-gradient"/><linearGradient id="linear-gradient-4" x1="339.15" y1="164.86" x2="339.15" y2="622.51" xlink:href="#linear-gradient"/><linearGradient id="linear-gradient-5" x1="800.62" y1="315.64" x2="800.62" y2="389.19" gradientTransform="matrix(1, 0, 0, -1, -254.97, 634.84)" xlink:href="#linear-gradient"/><linearGradient id="linear-gradient-6" x1="792.1" y1="221.64" x2="792.1" y2="295.19" gradientTransform="matrix(0, 1, 1, 0, 284.22, -401.76)" xlink:href="#linear-gradient"/><linearGradient id="linear-gradient-7" x1="565.48" y1="357.74" x2="565.48" y2="431.29" xlink:href="#linear-gradient"/><linearGradient id="linear-gradient-8" x1="339.15" y1="310.79" x2="339.15" y2="478.91" xlink:href="#linear-gradient"/><linearGradient id="linear-gradient-9" x1="290.12" y1="208.65" x2="290.12" y2="234.33" xlink:href="#linear-gradient"/><linearGradient id="linear-gradient-10" x1="322.81" y1="208.65" x2="322.81" y2="234.33" xlink:href="#linear-gradient"/><linearGradient id="linear-gradient-11" x1="355.49" y1="208.65" x2="355.49" y2="234.33" xlink:href="#linear-gradient"/><linearGradient id="linear-gradient-12" x1="388.18" y1="208.65" x2="388.18" y2="234.33" xlink:href="#linear-gradient"/><linearGradient id="linear-gradient-13" x1="339.15" y1="344.07" x2="339.15" y2="445.63" xlink:href="#linear-gradient"/><linearGradient id="linear-gradient-14" x1="377.61" y1="353.46" x2="377.61" y2="450.36" gradientTransform="matrix(1, 0, 0, -1, -260.85, 650)" xlink:href="#linear-gradient"/><linearGradient id="linear-gradient-15" x1="377.6" y1="170.17" x2="377.6" y2="267.07" gradientTransform="matrix(1, 0, 0, -1, -260.85, 650)" xlink:href="#linear-gradient"/></defs><title>illustration-8</title><rect class="cls-1" x="560.38" y="673.63" width="50.2" height="59.37"/><rect class="cls-2" x="561.55" y="673.62" width="47.87" height="57.21"/><rect class="cls-3" x="68.88" y="673.63" width="50.2" height="59.37"/><rect class="cls-2" x="70.05" y="673.63" width="47.87" height="57.21"/><rect class="cls-4" width="678.3" height="681.8" rx="14.86"/><rect class="cls-5" x="4.67" y="3.5" width="670.12" height="670.12" rx="14.86"/><rect class="cls-6" x="112.66" y="111.49" width="452.98" height="457.65"/><rect class="cls-7" x="470.35" y="245.64" width="150.6" height="73.55" transform="translate(-54.18 149.38) rotate(-14.86)"/><rect class="cls-8" x="471.51" y="246.81" width="148.27" height="71.22" transform="translate(-54.18 149.38) rotate(-14.86)"/><rect class="cls-9" x="476.37" y="249.14" width="138.55" height="66.55" transform="translate(-54.18 149.38) rotate(-14.86)"/><ellipse class="cls-8" cx="544.92" cy="282.01" rx="25.68" ry="14.01" transform="translate(-54.1 149.18) rotate(-14.86)"/><rect class="cls-10" x="505.86" y="315.05" width="73.55" height="150.6" transform="translate(-2.84 776.71) rotate(-71.04)"/><rect class="cls-8" x="507.02" y="316.21" width="71.22" height="148.27" transform="translate(-2.84 776.71) rotate(-71.04)"/><rect class="cls-9" x="509.37" y="321.08" width="66.55" height="138.55" transform="translate(-2.84 776.72) rotate(-71.04)"/><ellipse class="cls-8" cx="542.28" cy="389.6" rx="14.01" ry="25.68" transform="translate(-2.38 775.87) rotate(-71.04)"/><rect class="cls-11" x="490.18" y="302.71" width="150.6" height="73.55"/><rect class="cls-8" x="491.35" y="303.88" width="148.27" height="71.22"/><rect class="cls-9" x="496.21" y="306.21" width="138.55" height="66.55"/><ellipse class="cls-8" cx="564.9" cy="338.9" rx="25.68" ry="14.01"/><rect class="cls-8" x="116.16" y="116.16" width="445.97" height="445.97"/><circle class="cls-12" cx="339.15" cy="339.15" r="84.06"/><circle class="cls-5" cx="339.15" cy="339.15" r="80.56"/><rect class="cls-13" x="277.86" y="499.67" width="24.52" height="25.68"/><rect class="cls-14" x="310.55" y="499.67" width="24.52" height="25.68"/><rect class="cls-15" x="343.23" y="499.67" width="24.52" height="25.68"/><rect class="cls-16" x="375.92" y="499.67" width="24.52" height="25.68"/><rect class="cls-17" x="278.44" y="500.84" width="23.35" height="23.35"/><rect class="cls-18" x="311.13" y="500.84" width="23.35" height="23.35"/><rect class="cls-19" x="343.82" y="500.84" width="23.35" height="23.35"/><rect class="cls-20" x="376.51" y="500.84" width="23.35" height="23.35"/><rect class="cls-17" x="361.93" y="293.63" width="16.34" height="4.67" transform="translate(-84.62 429.37) rotate(-55)"/><rect class="cls-17" x="380" y="361.92" width="4.67" height="16.34" transform="translate(-140.13 471) rotate(-55)"/><rect class="cls-17" x="300.03" y="379.99" width="16.34" height="4.67" transform="translate(-181.76 415.49) rotate(-55)"/><rect class="cls-17" x="293.64" y="300.03" width="4.67" height="16.34" transform="translate(-126.25 373.87) rotate(-55)"/><rect class="cls-21" x="361.89" y="293.5" width="16.34" height="4.67" transform="translate(-84.53 429.28) rotate(-55)"/><rect class="cls-21" x="379.96" y="361.79" width="4.67" height="16.34" transform="translate(-140.03 470.92) rotate(-55)"/><rect class="cls-21" x="300" y="379.85" width="16.34" height="4.67" transform="translate(-181.66 415.41) rotate(-55)"/><rect class="cls-21" x="293.6" y="299.89" width="4.67" height="16.34" transform="translate(-126.16 373.78) rotate(-55)"/><circle class="cls-22" cx="339.15" cy="339.15" r="50.78"/><circle class="cls-17" cx="339.15" cy="339.15" r="47.87"/><path class="cls-23" d="M300,345.57A47.86,47.86,0,0,1,371.71,304a47.86,47.86,0,1,0-57,76A47.7,47.7,0,0,1,300,345.57Z"/><path class="cls-24" d="M135.43,296.54H98.07V203.26a3.63,3.63,0,0,1,3.63-3.62h30.11a3.64,3.64,0,0,1,3.63,3.63h0Z"/><path class="cls-25" d="M131.62,479.83H101.88A3.82,3.82,0,0,1,98.07,476V382.93h37.36V476a3.82,3.82,0,0,1-3.79,3.83Z"/><path class="cls-5" d="M102.4,200.8h28.69a3.17,3.17,0,0,1,3.17,3.17V294.2h-35V204a3.17,3.17,0,0,1,3.14-3.2Z"/><path class="cls-5" d="M99.23,384.1h35v92.33a1.05,1.05,0,0,1-1.06,1.06H100.3a1.05,1.05,0,0,1-1.06-1.06V384.1Z"/></svg>