<svg id="Layer_1" data-name="Layer 1" xmlns="http://www.w3.org/2000/svg" viewBox="0 0 106.5 29.9"><defs><style>.cls-1{fill:#231f20;}.cls-2{fill:#5654a4;}</style></defs><title>logo</title><path class="cls-1" d="M8,5.9A2.29,2.29,0,0,0,5.5,4,2,2,0,0,0,3.3,5.8,1.61,1.61,0,0,0,4.8,7.4l1.8.4c2.3.5,3.5,1.9,3.5,3.7,0,2-1.6,3.9-4.5,3.9C2.4,15.4.9,13.3.7,11.5l2-.6a2.79,2.79,0,0,0,2.9,2.6c1.5,0,2.3-.8,2.3-1.8A1.81,1.81,0,0,0,6.2,10L4.4,9.5C2.4,9.1,1.1,7.9,1.1,6A4.2,4.2,0,0,1,5.4,2.1c3,0,4.2,1.8,4.5,3.3Z" transform="translate(-0.2 -2.1)"/><path class="cls-1" d="M14.7,6.3h1.8V8.2H14.7v4.1c0,.8.3,1.1,1.1,1.1a5.64,5.64,0,0,0,.7-.1V15a2.44,2.44,0,0,1-1.3.2,2.42,2.42,0,0,1-2.6-2.6V8.2H11V6.3h.5a1.31,1.31,0,0,0,1.4-1.4V3.6h1.9V6.3Z" transform="translate(-0.2 -2.1)"/><path class="cls-1" d="M23.7,8.4c-.2,0-.5-.1-.7-.1-1.6,0-2.4.9-2.4,2.6v4.2H18.5V6.3h2V7.7A2.55,2.55,0,0,1,23,6.2c.3,0,.5,0,.6.1V8.4Z" transform="translate(-0.2 -2.1)"/><path class="cls-1" d="M33.7,10.7a4.55,4.55,0,1,1-9.1,0A4.55,4.55,0,0,1,29.2,6,4.47,4.47,0,0,1,33.7,10.7Zm-2.1,0a2.55,2.55,0,0,0-2.4-2.8c-1.3,0-2.4.9-2.4,2.8a2.55,2.55,0,0,0,2.4,2.8C30.5,13.5,31.6,12.5,31.6,10.7Z" transform="translate(-0.2 -2.1)"/><path class="cls-1" d="M37.8,15.1H35.7V6.3h2V7.5a2.91,2.91,0,0,1,2.6-1.4c2.1,0,3.2,1.5,3.2,3.5v5.5H41.4V9.9A1.55,1.55,0,0,0,39.7,8c-1.2,0-1.8.9-1.8,2.1v5Z" transform="translate(-0.2 -2.1)"/><path class="cls-1" d="M47.4,15.1A2.11,2.11,0,0,0,49.6,17c1.7,0,2.5-.8,2.5-2.6v-.9a2.83,2.83,0,0,1-2.5,1.3,4.1,4.1,0,0,1-4.1-4.3,4.1,4.1,0,0,1,4.1-4.3,2.78,2.78,0,0,1,2.6,1.3V6.3h2v7.9c0,2.3-1.2,4.5-4.5,4.5a4,4,0,0,1-4.2-3.2Zm4.7-4.7a2.31,2.31,0,1,0-4.6,0,2.31,2.31,0,1,0,4.6,0Z" transform="translate(-0.2 -2.1)"/><path class="cls-1" d="M6.5,21V31.7H4.4V21H.2V19H10.7v2Z" transform="translate(-0.2 -2.1)"/><path class="cls-1" d="M18.3,29.2a4.09,4.09,0,0,1-4,2.8,4.41,4.41,0,0,1-4.5-4.7,4.4,4.4,0,0,1,4.3-4.6c2.7,0,4.3,1.8,4.3,4.6,0,.3,0,.6-.1.7H12a2.41,2.41,0,0,0,2.4,2.3,2.14,2.14,0,0,0,2.2-1.5Zm-2-2.9a1.93,1.93,0,0,0-2.2-1.9A2,2,0,0,0,12,26.3Z" transform="translate(-0.2 -2.1)"/><path class="cls-1" d="M21.5,28.8a1.69,1.69,0,0,0,1.8,1.5c.9,0,1.3-.5,1.3-1s-.3-.8-1-1L22.2,28a2.75,2.75,0,0,1-2.4-2.6A3,3,0,0,1,23,22.6,3.23,3.23,0,0,1,26.4,25l-1.8.5A1.55,1.55,0,0,0,23,24.2a1.23,1.23,0,0,0-1.3,1q0,.75.9.9l1.3.3c1.7.4,2.5,1.4,2.5,2.7a3,3,0,0,1-3.3,2.8,3.35,3.35,0,0,1-3.6-2.6Z" transform="translate(-0.2 -2.1)"/><path class="cls-1" d="M31.3,22.9h1.8v1.9H31.3v4.1c0,.8.3,1.1,1.1,1.1a5.64,5.64,0,0,0,.7-.1v1.7a2.44,2.44,0,0,1-1.3.2,2.42,2.42,0,0,1-2.6-2.6V24.8H27.6V22.9h.5a1.31,1.31,0,0,0,1.4-1.4V20.2h1.9v2.7Z" transform="translate(-0.2 -2.1)"/><path class="cls-1" d="M36.3,18.5a1.4,1.4,0,0,1,0,2.8,1.43,1.43,0,0,1-1.4-1.4A1.37,1.37,0,0,1,36.3,18.5Zm-1,13.2V22.9h2.1v8.8Z" transform="translate(-0.2 -2.1)"/><path class="cls-1" d="M40,31.7V22.9h2V24a3,3,0,0,1,2.6-1.4,2.61,2.61,0,0,1,2.6,1.5A2.93,2.93,0,0,1,50,22.6a3,3,0,0,1,3.1,3.3v5.7h-2V26.3a1.6,1.6,0,0,0-1.7-1.8,1.81,1.81,0,0,0-1.8,1.9v5.2H45.5V26.3a1.6,1.6,0,0,0-1.7-1.8A1.76,1.76,0,0,0,42,26.4v5.2H40Z" transform="translate(-0.2 -2.1)"/><path class="cls-1" d="M64.2,27.3a4.55,4.55,0,1,1-9.1,0,4.55,4.55,0,1,1,9.1,0Zm-2.2,0a2.55,2.55,0,0,0-2.4-2.8c-1.3,0-2.4.9-2.4,2.8a2.55,2.55,0,0,0,2.4,2.8C60.9,30.1,62,29.1,62,27.3Z" transform="translate(-0.2 -2.1)"/><path class="cls-1" d="M68.3,31.7H66.2V22.9h2v1.2a2.91,2.91,0,0,1,2.6-1.4c2.1,0,3.2,1.5,3.2,3.5v5.5H71.9V26.5a1.66,1.66,0,0,0-1.8-1.9c-1.2,0-1.8.9-1.8,2.1Z" transform="translate(-0.2 -2.1)"/><path class="cls-1" d="M77.5,18.5a1.4,1.4,0,1,1,0,2.8,1.43,1.43,0,0,1-1.4-1.4A1.5,1.5,0,0,1,77.5,18.5Zm-1,13.2V22.9h2.1v8.8Z" transform="translate(-0.2 -2.1)"/><path class="cls-1" d="M83.4,26.7l2.3-.3c.5-.1.6-.3.6-.6,0-.7-.5-1.3-1.7-1.3a1.69,1.69,0,0,0-1.8,1.6l-1.9-.4a3.48,3.48,0,0,1,3.7-2.9c2.7,0,3.7,1.5,3.7,3.3v4.4a11.35,11.35,0,0,0,.1,1.4H86.5a6.27,6.27,0,0,1-.1-1.1A3.79,3.79,0,0,1,83.7,32a2.82,2.82,0,0,1-3-2.6C80.7,27.7,81.9,26.9,83.4,26.7Zm2.9,1.4v-.4L84,28a1.29,1.29,0,0,0-1.2,1.2,1.17,1.17,0,0,0,1.3,1.1A2,2,0,0,0,86.3,28.1Z" transform="translate(-0.2 -2.1)"/><path class="cls-1" d="M90.8,31.7v-13h2.1v13Z" transform="translate(-0.2 -2.1)"/><path class="cls-1" d="M96.7,28.8a1.69,1.69,0,0,0,1.8,1.5c.9,0,1.3-.5,1.3-1s-.3-.8-1-1L97.5,28a2.75,2.75,0,0,1-2.4-2.6,3,3,0,0,1,3.2-2.8,3.23,3.23,0,0,1,3.4,2.4l-1.8.5a1.55,1.55,0,0,0-1.6-1.3,1.23,1.23,0,0,0-1.3,1q0,.75.9.9l1.3.3c1.7.4,2.5,1.4,2.5,2.7a3,3,0,0,1-3.3,2.8,3.35,3.35,0,0,1-3.6-2.6Z" transform="translate(-0.2 -2.1)"/><path class="cls-2" d="M105.2,28.9a1.5,1.5,0,0,1,0,3,1.5,1.5,0,0,1,0-3Z" transform="translate(-0.2 -2.1)"/></svg>