<?xml version="1.0" encoding="utf-8"?>
<!-- Generator: Adobe Illustrator 23.0.3, SVG Export Plug-In . SVG Version: 6.00 Build 0)  -->
<svg version="1.1" id="Layer_1" xmlns="http://www.w3.org/2000/svg" xmlns:xlink="http://www.w3.org/1999/xlink" x="0px" y="0px"
	 viewBox="0 0 142.9 33" style="enable-background:new 0 0 142.9 33;" xml:space="preserve">
<style type="text/css">
	.st0{fill:#231F20;}
	.st1{fill:#5654A4;}
	.st2{fill:#782A16;}
	.st3{opacity:0.5;fill:#782A16;}
	.st4{fill:#F8991E;}
	.st5{opacity:0.5;}
	.st6{fill:#C87229;}
	.st7{fill:#573321;}
	.st8{fill:#010101;}
	.st9{fill:#FFFFFF;}
	.st10{opacity:0.5;fill:#C87229;}
	.st11{fill:#762E16;}
	.st12{fill:#FFD57A;}
	.st13{fill:#D16127;}
	.st14{opacity:0.5;fill:#FFFFFF;}
	.st15{opacity:0.5;fill:#F8991E;}
	.st16{fill:none;}
</style>
<g>
	<path class="st0" d="M43.4,5.9c-0.1-0.8-0.8-2-2.5-2c-1.3,0-2.2,0.9-2.2,1.8c0,0.8,0.5,1.4,1.5,1.6L42,7.8c2.3,0.5,3.5,1.9,3.5,3.7
		c0,2-1.6,3.9-4.5,3.9c-3.2,0-4.7-2.1-4.9-3.9l2-0.6c0.1,1.3,1.1,2.6,2.9,2.6c1.5,0,2.3-0.8,2.3-1.8c0-0.8-0.6-1.5-1.7-1.7l-1.8-0.4
		c-1.9-0.4-3.2-1.7-3.2-3.6c0-2.1,2-3.9,4.3-3.9c3,0,4.2,1.8,4.5,3.3L43.4,5.9z"/>
	<path class="st0" d="M50.1,6.3H52v1.9h-1.8v4.1c0,0.8,0.3,1.1,1.1,1.1c0.3,0,0.6-0.1,0.7-0.1V15c-0.1,0.1-0.5,0.2-1.3,0.2
		c-1.6,0-2.6-1-2.6-2.6V8.2h-1.6V6.3h0.5c0.9,0,1.4-0.6,1.4-1.4V3.6h1.9V6.3z"/>
	<path class="st0" d="M59.1,8.4c-0.2,0-0.5-0.1-0.7-0.1c-1.6,0-2.4,0.9-2.4,2.6v4.2h-2.1V6.3h2v1.4c0.4-1,1.4-1.5,2.5-1.5
		c0.3,0,0.5,0,0.6,0.1V8.4z"/>
	<path class="st0" d="M69.1,10.7c0,2.7-1.9,4.7-4.6,4.7c-2.6,0-4.5-2-4.5-4.7C60,8,62,6,64.6,6C67.2,6,69.1,8,69.1,10.7z M67,10.7
		c0-1.8-1.2-2.8-2.4-2.8c-1.3,0-2.4,0.9-2.4,2.8c0,1.8,1.2,2.8,2.4,2.8C65.9,13.5,67,12.5,67,10.7z"/>
	<path class="st0" d="M73.2,15.1h-2.1V6.3h2v1.2c0.6-1,1.6-1.4,2.6-1.4c2.1,0,3.2,1.5,3.2,3.5v5.5h-2.1V9.9c0-1.1-0.5-1.9-1.8-1.9
		c-1.2,0-1.8,0.9-1.8,2.1V15.1z"/>
	<path class="st0" d="M82.8,15.1c0.1,1.1,1,1.9,2.2,1.9c1.7,0,2.5-0.8,2.5-2.6v-0.9c-0.4,0.7-1.3,1.3-2.5,1.3
		c-2.3,0-4.1-1.8-4.1-4.3c0-2.3,1.6-4.3,4.1-4.3c1.4,0,2.2,0.6,2.6,1.3V6.3h2v7.9c0,2.3-1.2,4.5-4.5,4.5c-2.3,0-3.9-1.4-4.2-3.2
		L82.8,15.1z M87.5,10.4c0-1.5-1-2.5-2.3-2.5c-1.3,0-2.3,1-2.3,2.5c0,1.5,0.9,2.5,2.3,2.5C86.6,12.9,87.5,11.9,87.5,10.4z"/>
	<path class="st0" d="M41.9,21v10.7h-2.2V21h-4.1v-2h10.5v2H41.9z"/>
	<path class="st0" d="M53.7,29.2c-0.5,1.5-1.9,2.8-4,2.8c-2.4,0-4.5-1.7-4.5-4.7c0-2.8,2.1-4.6,4.3-4.6c2.7,0,4.3,1.8,4.3,4.6
		c0,0.3,0,0.6-0.1,0.7h-6.4c0.1,1.3,1.1,2.3,2.4,2.3c1.3,0,1.9-0.7,2.2-1.5L53.7,29.2z M51.7,26.3c0-1-0.7-1.9-2.2-1.9
		c-1.3,0-2.1,1-2.1,1.9H51.7z"/>
	<path class="st0" d="M56.9,28.8c0.1,0.8,0.7,1.5,1.8,1.5c0.9,0,1.3-0.5,1.3-1c0-0.5-0.3-0.8-1-1L57.7,28c-1.5-0.3-2.4-1.4-2.4-2.6
		c0-1.5,1.4-2.8,3.2-2.8c2.4,0,3.2,1.6,3.4,2.4l-1.8,0.5c-0.1-0.5-0.5-1.3-1.6-1.3c-0.7,0-1.3,0.5-1.3,1c0,0.5,0.3,0.8,0.9,0.9
		l1.3,0.3c1.7,0.4,2.5,1.4,2.5,2.7c0,1.3-1.1,2.8-3.3,2.8c-2.5,0-3.5-1.7-3.6-2.6L56.9,28.8z"/>
	<path class="st0" d="M66.7,22.9h1.8v1.9h-1.8v4.1c0,0.8,0.3,1.1,1.1,1.1c0.3,0,0.6-0.1,0.7-0.1v1.7c-0.1,0.1-0.5,0.2-1.3,0.2
		c-1.6,0-2.6-1-2.6-2.6v-4.4H63v-1.9h0.5c0.9,0,1.4-0.6,1.4-1.4v-1.3h1.9V22.9z"/>
	<path class="st0" d="M71.7,18.5c0.8,0,1.4,0.6,1.4,1.4c0,0.8-0.6,1.4-1.4,1.4c-0.7,0-1.4-0.6-1.4-1.4C70.3,19.1,71,18.5,71.7,18.5z
		 M70.7,31.7v-8.8h2.1v8.8H70.7z"/>
	<path class="st0" d="M75.4,31.7v-8.8h2V24c0.5-0.9,1.6-1.4,2.6-1.4c1.2,0,2.2,0.5,2.6,1.5c0.7-1.2,1.7-1.5,2.8-1.5
		c1.6,0,3.1,1,3.1,3.3v5.7h-2v-5.3c0-1-0.5-1.8-1.7-1.8c-1.1,0-1.8,0.9-1.8,1.9v5.2H81v-5.3c0-1-0.5-1.8-1.7-1.8
		c-1.1,0-1.8,0.8-1.8,1.9v5.2H75.4z"/>
	<path class="st0" d="M99.6,27.3c0,2.7-1.9,4.7-4.6,4.7c-2.6,0-4.5-2-4.5-4.7c0-2.7,1.9-4.6,4.5-4.6C97.6,22.6,99.6,24.6,99.6,27.3z
		 M97.5,27.3c0-1.8-1.2-2.8-2.4-2.8c-1.3,0-2.4,0.9-2.4,2.8c0,1.8,1.2,2.8,2.4,2.8C96.3,30.1,97.5,29.1,97.5,27.3z"/>
	<path class="st0" d="M103.7,31.7h-2.1v-8.8h2v1.2c0.6-1,1.6-1.4,2.6-1.4c2.1,0,3.2,1.5,3.2,3.5v5.5h-2.1v-5.2
		c0-1.1-0.5-1.9-1.8-1.9c-1.2,0-1.8,0.9-1.8,2.1V31.7z"/>
	<path class="st0" d="M112.9,18.5c0.8,0,1.4,0.6,1.4,1.4c0,0.8-0.6,1.4-1.4,1.4c-0.7,0-1.4-0.6-1.4-1.4
		C111.6,19.1,112.2,18.5,112.9,18.5z M111.9,31.7v-8.8h2.1v8.8H111.9z"/>
	<path class="st0" d="M118.8,26.7l2.3-0.3c0.5-0.1,0.6-0.3,0.6-0.6c0-0.7-0.5-1.3-1.7-1.3c-1.1,0-1.7,0.7-1.8,1.6l-1.9-0.4
		c0.2-1.5,1.5-2.9,3.7-2.9c2.7,0,3.7,1.5,3.7,3.3v4.4c0,0.8,0.1,1.3,0.1,1.4h-1.9c0-0.1-0.1-0.4-0.1-1.1c-0.4,0.7-1.3,1.4-2.7,1.4
		c-1.8,0-3-1.3-3-2.6C116.1,27.7,117.3,26.9,118.8,26.7z M121.7,28.1v-0.4l-2.3,0.3c-0.6,0.1-1.2,0.5-1.2,1.2c0,0.6,0.5,1.1,1.3,1.1
		C120.7,30.3,121.7,29.8,121.7,28.1z"/>
	<path class="st0" d="M126.3,31.7v-13h2.1v13H126.3z"/>
	<path class="st0" d="M132.1,28.8c0.1,0.8,0.7,1.5,1.8,1.5c0.9,0,1.3-0.5,1.3-1c0-0.5-0.3-0.8-1-1l-1.3-0.3
		c-1.5-0.3-2.4-1.4-2.4-2.6c0-1.5,1.4-2.8,3.2-2.8c2.4,0,3.2,1.6,3.4,2.4l-1.8,0.5c-0.1-0.5-0.5-1.3-1.6-1.3c-0.7,0-1.3,0.5-1.3,1
		c0,0.5,0.3,0.8,0.9,0.9l1.3,0.3c1.7,0.4,2.5,1.4,2.5,2.7c0,1.3-1.1,2.8-3.3,2.8c-2.5,0-3.5-1.7-3.6-2.6L132.1,28.8z"/>
	<path class="st1" d="M140.6,28.9c0.8,0,1.5,0.7,1.5,1.5c0,0.8-0.7,1.5-1.5,1.5c-0.8,0-1.5-0.6-1.5-1.5
		C139.1,29.5,139.8,28.9,140.6,28.9z"/>
</g>
<g>
	<path class="st2" d="M22.4,29.4c-0.1,1.3-3.2,1.7-4.3,2.1c-1.2,0.4-0.6,1-1.6,1.6c0-2.5-2.9-1.7-5.7-1.7c-2.8,0-2-1.7-2-1.7
		s-0.2,0.5-1.1,0.7c0.6-0.3,0.4-1-1-1.3c-1.4-0.3-1.9-1.6-1.5-3.3c-0.3,0.4-0.7,0.9-1.4,0.6c1.1-0.8,0.3-1.4-1-2
		c-2.1-0.9-1.9-2.5-0.4-4.5c-0.6,0.3-1.2-0.3-1.2-0.3c0.3,0.2,1.5-0.3,0.5-1.4c-0.9-1-2-1.2-2-3.3C0.1,12,3.6,8.8,7.8,6.1
		c4.3-2.7,4.6-3.7,4.6-3.7s0.3,0.2,0.4,0.9c0.7-0.7,0.6-1.5,0.6-1.5s0.5,0.1,0.7,1.3c0.6-2,2.8-2.9,2.8-2.9s-0.5,1.9,0.5,2.6
		c0.1-0.3,0.2-0.5,0.2-0.5s-0.3,0.2,1.9,1.4C21.9,5,34.7,11.3,31,16.1c-0.9,1.5-0.3,1.8,1.2,1.7c-0.5,0.9-1.5,1-1.5,1
		s1.5,1.7-0.3,3.1c-1.8,1.5-5.3,2.6-3.2,3.8c-0.9,0.5-1.1,0.1-1.1,0.1s1,2.3-1.1,2.8c-1.7,0.3-2.2,0.6-1.7,1.4
		C23,30.2,22.6,29.6,22.4,29.4z"/>
	<g>
		<path class="st2" d="M28.2,15.3C28.1,15.3,28.1,15.3,28.2,15.3C28.1,15.3,28.1,15.3,28.2,15.3z"/>
		<path class="st2" d="M17.7,2.4C17.7,2.4,17.7,2.3,17.7,2.4C17.7,2.3,17.7,2.4,17.7,2.4z"/>
		<path class="st2" d="M8.9,29.6C8.9,29.6,8.9,29.6,8.9,29.6C8.9,29.6,8.9,29.6,8.9,29.6z"/>
		<path class="st3" d="M32.2,17.8c-1.5,0.1-2.1-0.3-1.2-1.7C34.7,11.3,21.9,5,19.6,3.8c-1.7-0.9-2-1.3-2-1.4c0,0.1-0.1,0.2-0.2,0.5
			c-1-0.7-0.5-2.6-0.5-2.6s0,0,0,0c-1.3,1.6,0.2,3.5,1.2,3.8c-0.7-0.5-0.3-1-0.3-1s0.4,0.4,1.9,1.3C22.8,6,21.1,8,21.1,8
			s0.9-0.5,0.8-0.1c-0.1,0.4,0.5,1.6,0.9,1c0.4-0.5,0.8-0.6,0.5,0c-0.3,0.6-0.4,1,1.1,0.8c4.9-0.4,6.1,4.1,5.4,4.9
			c-0.7,0.8-0.7,2.1,0.4,3.1c-1.2,0-2-2.2-2.2-2.5c0.1,0.2,0.4,1.2-0.2,2.3c0.4-1-1.4-2.5-2.8-1.9c-1.3,0.7-11.4,2.8-15.2,1.9
			C6.3,16.8,4.8,18.5,5,20c-0.7-0.6-0.5-2.1-0.5-2.1s-0.4,0.7-1.6,1.3c0.5-0.4,1.2-1.5-0.4-2.7c-2.4-1.6-0.9-5.3,1.9-5.6
			c2.8-0.3,3.2,0.1,3.1-0.5c-0.1-0.7-0.4-1.5,0.4-1c0.8,0.4,0.5,0,0.4-1.9C8.2,6.7,8.4,6,8.8,5.5c-0.3,0.2-0.6,0.4-1,0.6
			C3.6,8.8,0.1,12,0,14.8c0,2.1,1,2.2,2,3.3c0.9,1-0.2,1.6-0.5,1.4c0,0,0.6,0.7,1.2,0.3c-1.5,2-1.7,3.6,0.4,4.5c1.3,0.6,2.1,1.1,1,2
			c0.7,0.3,1.1-0.2,1.4-0.6c-0.4,1.8,0.1,3,1.5,3.3c1.4,0.3,1.6,0.9,1,1.3c0.8-0.1,1-0.5,1.1-0.7c0,0,0,0,0,0s0,0,0,0
			c-0.1,0.2-0.6,1.7,2,1.7c2.8,0,5.6-0.8,5.7,1.7c0.9-0.6,0.4-1.2,1.6-1.6c1.2-0.4,4.2-0.8,4.3-2.1c0.1,0.2,0.6,0.8,0.8,0.6
			c-0.4-0.8,0.1-1.1,1.7-1.4c2.1-0.5,1.1-2.8,1.1-2.8s0.2,0.4,1.1-0.1c-2.1-1.1,1.4-2.3,3.2-3.8c1.8-1.5,0.3-3.1,0.3-3.1
			S31.7,18.7,32.2,17.8z"/>
	</g>
	<path class="st3" d="M10.3,8c0,0-1.1,2.6-3.7,4.6c-0.5,0.4,1.7,0.7,2.8,2.2c-0.8-0.2-1.1-0.1-1.1-0.1s0.9,0.4,1.3,0.9
		c0,0-3-0.6-3.9,1.3c-0.5,1,0.7,3.3,3.3,4.7c2.6,1.5,3.9,2,4.1,2.9c0.3,0.9-1,0.8-1,0.8c0.9,0.5,1.6,0.5,2.1,0.3
		c-0.1,0.8,0.4,1.4,0.4,1.4s0.5-1,1-1c0.3-0.1-0.5,0.8-0.5,0.8s1.7,0.3,2.7-0.6c0,0.7,1,0.2,1.3-0.7c1.4,0.2,2.6-0.7,2.6-0.7
		s-1.1-0.5-1-0.9c0.2-0.4,1-2.5,3.6-4c2.6-1.5,4-2.7,2.5-4.3c-1.5-1.6-3.4-1.5-3.9-1.3c0.9-0.5,1.2-0.7,1.2-0.7s-1.1-0.3-2.4,0.3
		c1.9-1.7,1.9-1.5,1.3-2.8c-0.6-1.3-3.3-4.2-3.6-4.2c-0.3,0-2.7,1.7-3,3.7c-0.5-1.4-0.9-1.3-1.6,1.7c-0.7-0.6-1.5-2.5-1.5-2.5
		s-0.3,0.4-0.3,1.1C12.2,9.5,10.7,8.1,10.3,8z"/>
	<path class="st4" d="M10.8,8.8c0,0-1,2.4-3.4,4.3C7,13.4,9,13.7,10,15.1C9.2,14.9,9,15,9,15s0.8,0.3,1.2,0.8c0,0-2.8-0.5-3.6,1.2
		c-0.5,1,0.7,3,3.1,4.3c2.4,1.3,3.6,1.8,3.8,2.6c0.2,0.8-1,0.7-1,0.7c0.8,0.4,1.5,0.4,1.9,0.3c-0.1,0.7,0.4,1.3,0.4,1.3
		s0.5-0.9,0.9-1c0.3-0.1-0.4,0.7-0.4,0.7s1.6,0.3,2.5-0.5c0,0.6,0.9,0.2,1.2-0.6c1.3,0.1,2.4-0.6,2.4-0.6s-1-0.5-0.9-0.8
		c0.1-0.4,0.9-2.3,3.3-3.6c2.4-1.3,3.7-2.5,2.3-3.9c-1.4-1.5-3.2-1.4-3.6-1.2c0.8-0.5,1.1-0.6,1.1-0.6s-1-0.3-2.2,0.3
		c1.8-1.6,1.7-1.4,1.2-2.6c-0.6-1.2-3-3.9-3.3-3.9c-0.3,0-2.5,1.5-2.8,3.4c-0.4-1.3-0.8-1.2-1.5,1.6c-0.6-0.6-1.4-2.3-1.4-2.3
		s-0.3,0.4-0.3,1.1C12.6,10.1,11.2,8.8,10.8,8.8z"/>
	<g class="st5">
		<path class="st6" d="M26,15.8c-1.4-1.5-3.2-1.4-3.6-1.2c0.8-0.5,1.1-0.6,1.1-0.6s-1-0.3-2.2,0.3c1.8-1.6,1.7-1.4,1.2-2.6
			c-0.6-1.2-3-3.9-3.3-3.9c-0.3,0-2.5,1.5-2.8,3.4c-0.4-1.2-0.7-1.2-1.3,1l0,0c0,0,0.5-0.8,0.8-0.9c0.3,0,0.4,1.1,0.4,1.1
			s1.1-3.2,2.7-3.6c1.6-0.3,3.7,3.1,2.7,4.4c-1,1.3-1.6,2.7-2.9,2.3c-1.1-0.3-1.3-0.3-1.3-0.3s1.9,0.5,2.5,0.9
			c0.7-1,1.5-1.3,1.5-1.3s-0.5,0.6-0.4,1c1.2-0.8,2.7-1.4,3.8-0.4c1.1,0.9,0.8,2.2-0.3,2.8c-1.4,0.7-3.8,1.9-4.1,1
			c-0.8-2.5-2.7-3.3-2.7-3.3s1.6,1.5,1.4,2.1c-1.5-0.6-4.8-0.8-6.7,0.5c0.3-1.1,1.5-2.4,1.5-2.4s-1.1,0.9-1.9,2.2
			c-0.8,1.3-1.2,2.7-2.5,1.9c-1.3-0.8-3-2.6-1.5-3.6c1.4-0.9,2.6-0.2,2.6-0.2s0-0.4-0.1-0.5c0.5,0.1,0.6,0.8,0.6,0.8
			s0.6-0.4,1.8-0.8c-1.3,0.3-1.4,0.3-1.9-0.7c-0.6-0.8-3-2-2.4-2.7c1-1.1,1.9-2.4,2.6-2.7c0.8-0.3,2.4,2.8,2.4,2.8s-0.1-1.1,0.1-1.1
			c0.1,0,0.7,0.7,0.7,0.7l0,0c-0.5-0.7-0.9-1.7-0.9-1.7s-0.3,0.4-0.3,1.1c-0.6-1.5-2-2.8-2.4-2.8c0,0-1,2.4-3.4,4.3
			C7,13.4,9,13.7,10,15.1C9.2,14.9,9,15,9,15s0.8,0.3,1.2,0.8c0,0-2.8-0.5-3.6,1.2c-0.5,1,0.7,3,3.1,4.3c2.4,1.3,3.6,1.8,3.8,2.6
			c0.2,0.8-1,0.7-1,0.7c0.8,0.4,1.5,0.4,1.9,0.3c-0.1,0.7,0.4,1.3,0.4,1.3s0.5-0.9,0.9-1c0.3-0.1-0.4,0.7-0.4,0.7s1.6,0.3,2.5-0.5
			c0,0.6,0.9,0.2,1.2-0.6c1.3,0.1,2.4-0.6,2.4-0.6s-1-0.5-0.9-0.8c0.1-0.4,0.9-2.3,3.3-3.6C26.1,18.4,27.4,17.3,26,15.8z M20.4,24.1
			c-1.2,0.5-1.6-0.1-1.6-0.1s-0.6,1.4-0.8,1.2c-0.2-0.2,0-0.9,0-0.9s-0.9,1.1-2.1,1.3c0.4-0.6,0.3-1.2,0.3-1.2s-1.2,0-1.5,1
			C14.7,25,15,24.3,15,24.3s-0.3,0.4-1.4,0.3c0.6-0.2,0.4-0.8,0.4-0.8c1.2,0.6,2,0.1,3.4-0.1c1.4-0.2,2-0.4,2.9-1
			C19.8,23.2,19.6,23.9,20.4,24.1z"/>
	</g>
	<path class="st7" d="M15.2,18.2c0,0,2.3-0.4,3.8,0.2c1.5,0.7,1.1,1.9-1,3c-2.1,1.2-3.2,1.1-4.7,0.2C11.5,20.6,10.7,19.1,15.2,18.2z
		"/>
	<path class="st7" d="M14.5,21.4c0,0-0.6-1.1-1.6-1.2c-0.7-0.1-0.7,0.3,0,0.5C13.6,20.9,14.2,20.9,14.5,21.4z"/>
	<path class="st7" d="M16.7,21.1c0,0,0.5-0.9,1.2-0.8c0.7,0,1.1-0.2,0.9-0.4c-0.2-0.2-1.3-0.3-1.8,0.5
		C16.5,21.1,16.7,21.1,16.7,21.1z"/>
	<g>
		<path class="st8" d="M12.8,15.2c0,0.4-0.2,0.7-0.3,0.7c-0.2,0-0.3-0.3-0.3-0.7c0-0.4,0.2-0.7,0.3-0.7
			C12.7,14.5,12.8,14.8,12.8,15.2z"/>
		<path class="st9" d="M12.7,15c0,0.2,0,0.3-0.1,0.3c-0.1,0-0.1-0.1-0.1-0.3c0-0.2,0-0.3,0.1-0.3C12.7,14.7,12.7,14.8,12.7,15z"/>
	</g>
	<g>
		<path class="st8" d="M18.3,14.5c0,0.4-0.2,0.8-0.3,0.8c-0.2,0-0.3-0.4-0.3-0.8c0-0.4,0.2-0.8,0.3-0.8
			C18.2,13.7,18.3,14.1,18.3,14.5z"/>
		<path class="st9" d="M18.2,14.2c0,0.2-0.1,0.3-0.1,0.3c-0.1,0-0.1-0.1-0.2-0.3c0-0.2,0.1-0.3,0.1-0.3
			C18.1,13.9,18.2,14.1,18.2,14.2z"/>
	</g>
	<path class="st10" d="M13.1,14.5c0,0-1.4-1.6-1.7-1.3c-0.3,0.3-0.8,1.1-0.3,1.2C11.5,14.4,13.2,14.6,13.1,14.5z"/>
	<path class="st10" d="M16.6,13.5c0,0,0.5-1,0.9-1.5c0.4-0.5,0.7-0.8,1.1-0.5c0.4,0.3,1.2,1.2,1.1,1.4c-0.1,0.2-0.7-0.2-1.3-0.3
		C17.7,12.3,16.6,13.8,16.6,13.5z"/>
	<path class="st11" d="M13,14.2c0,0-1.4-1.6-1.7-1.3C11,13.3,10.6,14,11,14.1C11.5,14.1,13.2,14.3,13,14.2z"/>
	<path class="st11" d="M16.5,13.2c0,0,0.5-1,0.9-1.5c0.4-0.5,0.7-0.8,1.1-0.5c0.4,0.3,1.2,1.2,1.1,1.4c-0.1,0.2-0.7-0.2-1.3-0.3
		C17.7,12.1,16.5,13.6,16.5,13.2z"/>
	<path class="st6" d="M11.1,16.8c0,0,4.1-2.6,8.8-0.6C16.5,14.6,13.8,15.2,11.1,16.8z"/>
	<path class="st12" d="M12.9,21.4c0,0-1,1.3,0.2,1.8c1.3,0.5,2.5,0.7,3.2,0.4c0.7-0.4,2.2-0.1,3.1-1c0.9-1,1.2-1.8,0.4-2.5
		C19.3,20.6,15.9,23.9,12.9,21.4z"/>
	<path class="st12" d="M13.3,22c0,0,0.7,0.4,1.6,0.5c0.9,0.1,0.7,0.8,0,0.9c-0.7,0.1-1.7-0.5-1.9-1C12.8,21.9,13.1,21.9,13.3,22z"/>
	<path class="st12" d="M16.7,22.3c0,0,1.5-0.5,2.4-1.3c0.5-0.6,0.9,1.3-0.9,1.9C16.8,23.2,16.3,22.6,16.7,22.3z"/>
	<path class="st7" d="M15.8,22.3c0,0,0,0.4,0.3,0.8c-0.2,0.1-0.6,0.7-1,0.7c0.6,0,0.8-0.1,1-0.1c0.2-0.1,0.7-0.2,1.3-0.3
		c0.3-0.1,0.4-0.1,0.4-0.1s-0.8,0.1-1.4-0.2C16.1,22.9,15.8,22.3,15.8,22.3z"/>
	<g>
		<path class="st8" d="M13.7,22.7c0,0-0.1,0-0.2,0.1c-0.1,0-0.1,0.1-0.2,0.1c0,0-0.1,0-0.1,0c-0.1,0-0.1,0-0.2,0
			c-0.1,0-0.2,0-0.4,0.1c-0.1,0-0.3,0-0.4,0c-0.1,0-0.1,0-0.2,0c-0.1,0-0.1,0-0.2,0l-0.1,0l-0.1,0c-0.1,0-0.2,0-0.2,0
			c-0.2,0-0.3-0.1-0.5-0.1c-0.1,0-0.3-0.1-0.4-0.1c-0.1,0-0.3-0.1-0.4-0.1c-0.1,0-0.2-0.1-0.3-0.1c-0.1,0-0.2-0.1-0.3-0.1
			c-0.1,0-0.2-0.1-0.2-0.1C9.1,22.2,9,22.2,9,22.2s0.1,0,0.2,0.1c0.1,0,0.1,0.1,0.2,0.1c0.1,0,0.2,0.1,0.3,0.1
			c0.1,0,0.2,0.1,0.3,0.1c0.1,0,0.3,0.1,0.4,0.1c0.1,0,0.3,0.1,0.4,0.1c0.1,0,0.3,0.1,0.4,0.1c0.1,0,0.2,0,0.2,0l0.1,0l0.1,0
			c0.1,0,0.1,0,0.2,0c0.1,0,0.1,0,0.2,0c0.1,0,0.3,0,0.4,0c0.1,0,0.3,0,0.4,0c0.1,0,0.2,0,0.3-0.1c0.1,0,0.2,0,0.2-0.1
			C13.6,22.7,13.7,22.7,13.7,22.7z"/>
		<path class="st8" d="M13.8,22.9c0,0-0.1,0-0.2,0c-0.1,0-0.2,0.1-0.4,0.1c-0.3,0.1-0.8,0.2-1.2,0.3c-0.2,0.1-0.4,0.1-0.7,0.2
			c-0.1,0-0.2,0.1-0.3,0.1c-0.1,0-0.2,0.1-0.3,0.1c-0.1,0-0.2,0.1-0.2,0.1c-0.1,0-0.1,0-0.2,0.1c-0.1,0-0.2,0-0.2,0s0.1,0,0.1-0.1
			c0,0,0.1,0,0.2-0.1c0.1,0,0.1-0.1,0.2-0.1c0.1,0,0.2-0.1,0.3-0.1c0.1,0,0.2-0.1,0.3-0.1c0.2-0.1,0.4-0.1,0.7-0.2
			c0.1,0,0.2-0.1,0.3-0.1c0.1,0,0.2,0,0.3-0.1c0.2,0,0.4-0.1,0.6-0.1c0.2,0,0.3,0,0.4-0.1C13.7,22.9,13.8,22.9,13.8,22.9z"/>
		<path class="st8" d="M14,23.2c0,0-0.1,0-0.2,0.1c-0.1,0-0.3,0.1-0.5,0.2c-0.1,0-0.2,0.1-0.3,0.1c-0.1,0.1-0.2,0.1-0.3,0.2
			c-0.1,0.1-0.2,0.1-0.4,0.2c-0.1,0.1-0.2,0.1-0.4,0.2c-0.1,0.1-0.2,0.1-0.4,0.2c-0.1,0-0.1,0.1-0.2,0.1c-0.1,0-0.1,0.1-0.2,0.1
			c-0.1,0-0.1,0.1-0.2,0.1c-0.1,0-0.1,0.1-0.1,0.1c-0.1,0.1-0.2,0.1-0.3,0.2c-0.1,0.1-0.2,0.1-0.2,0.2c-0.1,0.1-0.1,0.1-0.2,0.2
			c-0.1,0.1-0.1,0.1-0.1,0.1s0-0.1,0.1-0.1c0,0,0.1-0.1,0.1-0.2c0.1-0.1,0.1-0.1,0.2-0.2c0.1-0.1,0.2-0.1,0.3-0.2
			c0,0,0.1-0.1,0.1-0.1c0.1,0,0.1-0.1,0.2-0.1c0.1,0,0.1-0.1,0.2-0.1c0.1,0,0.1-0.1,0.2-0.1c0.1-0.1,0.2-0.2,0.4-0.2
			c0.1-0.1,0.2-0.1,0.4-0.2c0.1-0.1,0.2-0.1,0.4-0.2c0.1-0.1,0.2-0.1,0.3-0.2c0.1,0,0.2-0.1,0.3-0.1c0.2-0.1,0.4-0.1,0.5-0.2
			C13.9,23.2,14,23.2,14,23.2z"/>
		<path class="st8" d="M17.8,21.9c0,0,0.3-0.1,0.7-0.3c0.2-0.1,0.4-0.2,0.7-0.3c0.2-0.1,0.5-0.2,0.8-0.3c0.1-0.1,0.3-0.1,0.4-0.2
			c0.1-0.1,0.2-0.1,0.4-0.2c0.1-0.1,0.2-0.1,0.3-0.2c0.1-0.1,0.2-0.1,0.3-0.2c0.1-0.1,0.2-0.1,0.2-0.2c0.1-0.1,0.1-0.1,0.2-0.1
			c0.1-0.1,0.1-0.1,0.1-0.1s0,0.1-0.1,0.2c0,0-0.1,0.1-0.2,0.2c-0.1,0.1-0.1,0.1-0.2,0.2c-0.1,0.1-0.2,0.1-0.3,0.2
			c-0.1,0.1-0.2,0.1-0.3,0.2c-0.2,0.1-0.5,0.3-0.7,0.4c-0.3,0.1-0.5,0.2-0.8,0.3c-0.2,0.1-0.5,0.2-0.7,0.3c-0.2,0.1-0.4,0.1-0.5,0.2
			C17.9,21.9,17.8,21.9,17.8,21.9z"/>
		<path class="st8" d="M17.8,22.3c0,0,0.1,0,0.2-0.1c0.1,0,0.3-0.1,0.5-0.1c0.2-0.1,0.5-0.1,0.8-0.2c0.1,0,0.3-0.1,0.4-0.1
			c0.1,0,0.3,0,0.5-0.1c0.2,0,0.3,0,0.5-0.1c0.2,0,0.3,0,0.4,0c0.1,0,0.3,0,0.4,0c0.1,0,0.3,0,0.4,0c0.1,0,0.1,0,0.2,0
			c0.1,0,0.1,0,0.1,0c0.1,0,0.2,0,0.2,0c0.1,0,0.2,0.1,0.2,0.1s-0.1,0-0.2,0c-0.1,0-0.1,0-0.2,0c-0.1,0-0.2,0-0.3,0
			c-0.1,0-0.2,0-0.4,0c-0.1,0-0.3,0-0.4,0c-0.1,0-0.3,0-0.4,0c-0.1,0-0.3,0-0.5,0.1c-0.3,0-0.6,0.1-0.9,0.1c-0.1,0-0.3,0-0.4,0.1
			c-0.1,0-0.3,0-0.4,0.1C18.1,22.2,17.8,22.3,17.8,22.3z"/>
		<path class="st8" d="M18,22.6c0,0,0.1,0,0.2,0c0.1,0,0.3-0.1,0.6-0.1c0.2,0,0.5-0.1,0.8-0.1c0.3,0,0.6-0.1,0.9-0.1
			c0.2,0,0.3,0,0.5,0c0.2,0,0.3,0,0.5,0c0.2,0,0.3,0,0.4,0c0.1,0,0.3,0,0.4,0c0.1,0,0.2,0,0.3,0.1c0,0,0.1,0,0.1,0c0,0,0.1,0,0.1,0
			c0.1,0,0.2,0.1,0.2,0.1s-0.1,0-0.2,0c0,0-0.1,0-0.1,0c0,0-0.1,0-0.1,0c-0.1,0-0.2,0-0.3,0c-0.1,0-0.2,0-0.4,0c-0.1,0-0.3,0-0.4,0
			c-0.1,0-0.3,0-0.5,0c-0.2,0-0.3,0-0.5,0c-0.3,0-0.6,0-0.9,0.1c-0.3,0-0.6,0-0.8,0.1C18.3,22.6,18,22.6,18,22.6z"/>
	</g>
	<g>
		<path class="st4" d="M7.8,8.7c0,0-0.3-1-0.1-2.6c0.2-1.6-2-2-3.4-0.2c-1.1,1.5-1.7,4-0.3,4.3c1.4,0.3,2.2-0.3,2.2-0.3l0.6-0.3
			L6.6,8.1C6.6,8.1,7.2,8.4,7.8,8.7z"/>
		<path class="st13" d="M4.7,7.1c0.2-0.3,0.5-0.6,0.8-0.6c0.9-0.3,1.8,1.5,1.1,1.7c0.2,1-1.4,1.7-2,0.9C4.2,8.5,4.3,7.6,4.7,7.1z"/>
		<g>
			<path class="st13" d="M5.5,6.4C5.2,6.5,4.9,6.8,4.7,7.1c0,0,0,0,0,0C5.1,6.9,5.5,6.7,6,7c0.9,0.5,0.6,2.5-1.2,2.2
				c0.7,0.6,2.1-0.1,1.9-1C7.3,7.9,6.4,6.2,5.5,6.4z"/>
		</g>
		<g class="st5">
			<path class="st6" d="M7.8,8.7c0,0-0.3-1-0.1-2.6C7.9,5,7,4.5,6,4.8c2.2-0.3,1.4,2.7,0.8,1.8c-0.5-1-1.8-1-2.6,0.6
				c-0.8,1.7,0.9,3-0.3,2.4C3.1,9.1,3.5,7.7,3.8,6.9C3.2,8.3,3,10,4.1,10.2c1.4,0.3,2.2-0.3,2.2-0.3l0.6-0.3L6.6,8.1
				C6.6,8.1,7.2,8.4,7.8,8.7z"/>
		</g>
		<path class="st14" d="M5.9,5.6c0,0-1.4,0.1-2,2.3C3.6,8.6,3.3,7.4,4.6,5.9C5.9,4.4,7,5.3,5.9,5.6z"/>
	</g>
	<g>
		<path class="st4" d="M22,7.1c0,0,0.3-1,0.1-2.2c-0.3-1.2,1-2.9,3.4-1.8c2.4,1.1,3,3.1,2.4,4.1c-0.5,0.8-1.5,1.2-2.3,1.3
			c-0.8,0-0.9,0.3-0.9,0.3l-0.7,0l0.7-0.6l-1.1,0L24,7.5l-1.2,0.3c0,0-0.1-0.8-0.4-1.3C22.3,6.8,22,7.1,22,7.1z"/>
		<path class="st13" d="M23,6.8c-0.1-0.5-0.2-1.5,0-2c0.8-1.8,4.1,0.5,3.9,1.9c-0.1,0.7-2.2,1.4-3.4,1.4C24.1,7.6,24,7.5,24,7.5
			l-0.7,0.1C23.2,7.6,23.1,7.4,23,6.8z"/>
		<g>
			<path class="st6" d="M24.3,5.3c0.8-0.6,1.8,0.1,2.5,0.8c-0.6-1.3-3.1-2.8-3.8-1.3c-0.2,0.5-0.2,1.5,0,2c0.1,0.5,0.3,0.7,0.3,0.7
				L24,7.5c0,0,0.1,0.1-0.4,0.7c0.8,0,2.1-0.3,2.8-0.8c0,0,0,0,0,0C24.5,8.4,23,6.3,24.3,5.3z"/>
		</g>
		<g class="st5">
			<path class="st6" d="M26.8,7.5c0.6-0.4,1-1.1-0.1-2.3c-1.9-2.2-4-0.9-3.5-1.8c0.4-0.6,1.3-0.5,2.2-0.3c-2.4-1.1-3.6,0.5-3.4,1.8
				C22.3,6.1,22,7.1,22,7.1s0.3-0.3,0.4-0.6c0.3,0.5,0.4,1.3,0.4,1.3L24,7.5l-0.4,0.7l1.1,0L24,8.8l0.7,0c0,0,0.1-0.2,0.9-0.3
				c0.8,0,1.8-0.4,2.3-1.3c0.3-0.5,0.3-1.3-0.1-2.1c0,0,0,0.1,0.1,0.2C28.7,7.5,26.2,8,26.8,7.5z"/>
		</g>
		<path class="st14" d="M25.2,3.5c0,0,1.8,0.7,2.4,2.3c0.4,0.9,0.3-0.8-1-1.8C25.4,2.9,24.3,3.1,25.2,3.5z"/>
	</g>
	<path class="st15" d="M14.1,17.8c0,0,1.7-0.4,3.3-0.2c1.6,0.2-0.9-2.3-1.8-2.2C14.7,15.4,13.4,17.7,14.1,17.8z"/>
	<path class="st14" d="M15.4,17.7c0,0,0.9-0.2,1.3-0.1c0.4,0.1-0.8-2.1-1.1-2.2C15.3,15.3,15.4,17.7,15.4,17.7z"/>
	<path class="st9" d="M13,15.9c0,0,2.2-1,4.8-0.4C16,14.8,14.7,15,13,15.9z"/>
	<g class="st5">
		<path class="st7" d="M19.6,18.9c0.1,0.3,0,0.5-0.4,0.5c-1,0.1-2.2-0.3-3,1c-0.8,1.3-1.2-0.1-3-0.3c-0.6-0.1-1-0.2-1.3-0.4
			c-0.3,0.7,0.4,1.4,1.3,2c1.5,0.9,2.6,1,4.7-0.2C19.7,20.6,20.2,19.6,19.6,18.9z"/>
	</g>
	<g>
		<path class="st9" d="M18.5,18.5c0,0.1-0.2,0.1-0.4,0.1c-0.2,0-0.4-0.1-0.3-0.2c0-0.1,0.2-0.1,0.4-0.1
			C18.4,18.4,18.5,18.5,18.5,18.5z"/>
		<path class="st9" d="M12.4,19.4c0,0,2.3-1.2,4.8-1C18.1,18.6,15.9,17.4,12.4,19.4z"/>
	</g>
	<g>
		<path class="st16" d="M8.9,29.6C8.9,29.6,8.9,29.6,8.9,29.6C8.9,29.6,8.9,29.6,8.9,29.6z"/>
		<path class="st3" d="M30.2,18.4c1,1.6,0.3,3.4-2.7,4.2c-3,0.8-1.6,2.5-1.6,2.5s-0.3,0.1-1.1-0.1c1.9,1.5,0.4,2.4-1.3,2.5
			c-1.7,0.2-0.6,1.6-0.6,1.6s0,0-0.9-1.1c-0.1,2-4,1.6-5.1,3.3c-0.2-1.1-0.7-3.3-2.7-2.3c-2,1-4.1,0.7-3.9-1.6
			c-0.4,1.3-1.6,1.1-1.6,1.1s1.7-1.7-0.7-1.1c-2.4,0.6-2-3.5-2-3.5c-0.3,1.5-1.1,1.2-1.1,1.2s1.3-2-1.1-2.5
			c-1.2-0.2-1.8-0.8-2.1-1.3c-0.5,1.3-0.3,2.3,1.3,3c1.3,0.6,2.1,1.1,1,2c0.7,0.3,1.1-0.2,1.4-0.6c-0.4,1.8,0.1,3,1.5,3.3
			c1.4,0.3,1.6,0.9,1,1.3c0.8-0.1,1-0.5,1.1-0.7c0,0,0,0,0,0s0,0,0,0c-0.1,0.2-0.6,1.7,2,1.7c2.8,0,5.6-0.8,5.7,1.7
			c0.9-0.6,0.4-1.2,1.6-1.6c1.2-0.4,4.2-0.8,4.3-2.1c0.1,0.2,0.6,0.8,0.8,0.6c-0.4-0.8,0.1-1.1,1.7-1.4c2.1-0.5,1.1-2.8,1.1-2.8
			s0.2,0.4,1.1-0.1c-2.1-1.1,1.4-2.3,3.2-3.8c1.8-1.5,0.3-3.1,0.3-3.1s0.8,0,1.4-0.8C31.5,18.3,30.9,18.5,30.2,18.4z"/>
	</g>
	<path class="st2" d="M16.2,1.2c0,0-2.3,2-1.4,4.2C14.2,4.7,13.5,2.7,16.2,1.2z"/>
	<path class="st2" d="M13.5,2.3c0,0,0,1.7-1.3,2.3C13.5,5,14.3,3.4,13.5,2.3z"/>
	<path class="st2" d="M12.2,3.2c0,0-0.4,1.1-2.5,2C11.7,5.3,12.3,3.9,12.2,3.2z"/>
</g>
</svg>
