<svg viewBox="0 0 57 63.03" xmlns="http://www.w3.org/2000/svg"><g fill-rule="evenodd" transform="translate(0 .03)"><path d="m6 47v16h51v-16h-9v8h-33v-8z" fill="#2dbf91"/><path d="m52.5 62h-51a1.5 1.5 0 0 1 -1.5-1.5v-16a1.5 1.5 0 0 1 1.5-1.5h9a1.5 1.5 0 0 1 1.5 1.5v6.5h30v-6.5a1.5 1.5 0 0 1 1.5-1.5h9a1.5 1.5 0 0 1 1.5 1.5v16a1.5 1.5 0 0 1 -1.5 1.5zm-49.5-3h48v-13h-6v6.5a1.5 1.5 0 0 1 -1.5 1.5h-33a1.5 1.5 0 0 1 -1.5-1.5v-6.5h-6z"/><path d="m32.44 46.53-11.44-17.01a2.9 2.9 0 0 1 2.41-4.52h3.59v-17.79a4.06 4.06 0 0 1 3.67-3.72 4 4 0 0 1 4.33 3.59v17.92h6.48a2.9 2.9 0 0 1 2.38 4.52z" fill="#2dbf91"/><path d="m27.44 46a1.51 1.51 0 0 1 -1.25-.68l-11.42-17.23a4.59 4.59 0 0 1 -.17-4.72 4.3 4.3 0 0 1 3.81-2.37h2.59v-15.79a5.54 5.54 0 0 1 5-5.21 5.47 5.47 0 0 1 6 5.08v15.92h4.48a4.28 4.28 0 0 1 3.8 2.37 4.58 4.58 0 0 1 -.18 4.73l-11.41 17.25a1.5 1.5 0 0 1 -1.25.65zm-9-22a1.33 1.33 0 0 0 -1.16.78 1.6 1.6 0 0 0 0 1.65l10.16 15.38 10.17-15.37a1.62 1.62 0 0 0 0-1.66 1.36 1.36 0 0 0 -1.13-.78h-6a1.5 1.5 0 0 1 -1.48-1.5v-17.42a2.47 2.47 0 0 0 -2.69-2.08 2.61 2.61 0 0 0 -2.31 2.21v17.29a1.5 1.5 0 0 1 -1.5 1.5z"/></g></svg>