<svg viewBox="0 0 65.44 64.49" xmlns="http://www.w3.org/2000/svg"><g fill-rule="evenodd" transform="translate(.01)"><path d="m65.43 34.4a30.09 30.09 0 1 1 -30.09-30.08 30.09 30.09 0 0 1 30.09 30.08z" fill="#2dbf91"/><path d="m45.63 23.3a3.64 3.64 0 1 1 -3.63-3.64 3.64 3.64 0 0 1 3.63 3.64z"/><path d="m24.7 23.3a3.64 3.64 0 1 1 -3.64-3.64 3.64 3.64 0 0 1 3.64 3.64z"/><path d="m34.36 50.26h-5.06a11.55 11.55 0 0 1 -11.61-11.47 1.5 1.5 0 0 1 3 0 8.45 8.45 0 0 0 8.61 8.47h5.06a8.38 8.38 0 0 0 8.64-8.33 1.5 1.5 0 0 1 3 0 11.35 11.35 0 0 1 -11.64 11.33z"/><path d="m31.58 63.17a31.59 31.59 0 1 1 31.59-31.59 31.62 31.62 0 0 1 -31.59 31.59zm0-60.17a28.59 28.59 0 1 0 28.59 28.58 28.62 28.62 0 0 0 -28.59-28.58z"/></g></svg>