<svg viewBox="0 0 63 58" xmlns="http://www.w3.org/2000/svg"><g fill-rule="evenodd"><path d="m40.5 27.4c15-7.9 17.9-23.4 17.9-23.4h-42.8s.9 15.5 14.9 23.4v15.6h-6.7c-2.1 0-4.3 1.5-4.3 3.6v6.8c0 2.1 2.2 4.6 4.3 4.6h25.1c2.1 0 2.6-2.5 2.6-4.6v-6.8c0-2.1-.4-3.6-2.6-3.6h-8.4z" fill="#2dbf91"/><path d="m43.9 57h-25.1a5.53 5.53 0 0 1 -5.3-5.6v-6.8a5.47 5.47 0 0 1 5.3-5.6h5.7v-12.7c-13.8-8.4-15.4-24-15.4-24.7a1.5 1.5 0 0 1 .4-1.1 1.29 1.29 0 0 1 1.1-.5h42.8a1.43 1.43 0 0 1 1.1.5 1.68 1.68 0 0 1 .3 1.2 35.6 35.6 0 0 1 -17.3 24.6v12.7h6.4c2.7 0 4.6 2.3 4.6 5.6v6.8c0 3.4-1.9 5.6-4.6 5.6zm-25.1-15a2.61 2.61 0 0 0 -2.3 2.6v6.8a2.54 2.54 0 0 0 2.3 2.6h25.1c1.5 0 1.6-2 1.6-2.6v-6.8c0-.4-.1-2.6-1.6-2.6h-7.9a1.54 1.54 0 0 1 -1.5-1.5v-15.1a1.34 1.34 0 0 1 .8-1.3c11.3-6 15.1-16.9 16.2-21.1h-39.2c.8 4.1 3.8 15.1 14.4 21.1a1.56 1.56 0 0 1 .8 1.3v15.1a1.54 1.54 0 0 1 -1.5 1.5z"/><path d="m54.1 19.9a1.56 1.56 0 0 1 -1.3-.8 1.49 1.49 0 0 1 .6-2 12.82 12.82 0 0 0 6-7.1h-8a1.45 1.45 0 0 1 -1.4-1.5 1.47 1.47 0 0 1 1.5-1.5h10a1.85 1.85 0 0 1 1.2.5 2.77 2.77 0 0 1 .3 1.3 16.83 16.83 0 0 1 -8.1 10.9 2.35 2.35 0 0 1 -.8.2z"/><path d="m8.3 19.9a1.85 1.85 0 0 1 -.7-.2 15.23 15.23 0 0 1 -7.6-11 1.92 1.92 0 0 1 .4-1.2 1.43 1.43 0 0 1 1.1-.5h9a1.5 1.5 0 0 1 0 3h-7.2a12.27 12.27 0 0 0 5.7 7.1 1.49 1.49 0 0 1 .6 2 1.44 1.44 0 0 1 -1.3.8z"/><path d="m40.5 51h-18a1.5 1.5 0 0 1 0-3h18a1.5 1.5 0 0 1 0 3z"/><path d="m37.5 46h-12a1.5 1.5 0 0 1 0-3h12a1.5 1.5 0 0 1 0 3z"/></g></svg>