<svg id="Layer_1" data-name="Layer 1" xmlns="http://www.w3.org/2000/svg" viewBox="0 0 179.83 17.46"><title>logo2</title><path d="M42.21,4.87a2.36,2.36,0,0,0-2.5-2,2,2,0,0,0-2.2,1.84A1.65,1.65,0,0,0,39,6.38l1.84.38c2.25.45,3.46,1.87,3.46,3.67,0,2-1.61,3.87-4.52,3.87-3.24,0-4.74-2.09-4.94-3.92l2-.58a2.75,2.75,0,0,0,2.92,2.56c1.53,0,2.32-.78,2.32-1.77,0-.82-.61-1.49-1.71-1.73l-1.8-.37A3.64,3.64,0,0,1,35.35,4.9,4.16,4.16,0,0,1,39.69,1c3,0,4.18,1.83,4.46,3.26Z" transform="translate(-11.96 -0.54)" style="fill:#231f20"/><path d="M48.51,5.26h1.82V7.12H48.51v4.07c0,.77.34,1.1,1.11,1.1a4,4,0,0,0,.72-.08v1.73a3.09,3.09,0,0,1-1.27.2,2.42,2.42,0,0,1-2.63-2.61V7.12H44.82V5.26h.45A1.24,1.24,0,0,0,46.62,3.9V2.58h1.89Z" transform="translate(-11.96 -0.54)" style="fill:#231f20"/><path d="M57,7.33a5.6,5.6,0,0,0-.69,0c-1.62,0-2.35.94-2.35,2.58V14H51.84V5.26h2V6.67a2.65,2.65,0,0,1,2.54-1.51,3,3,0,0,1,.56,0Z" transform="translate(-11.96 -0.54)" style="fill:#231f20"/><path d="M66.56,9.64a4.55,4.55,0,1,1-9.09,0,4.55,4.55,0,1,1,9.09,0Zm-2.1,0a2.47,2.47,0,1,0-4.9,0,2.47,2.47,0,1,0,4.9,0Z" transform="translate(-11.96 -0.54)" style="fill:#231f20"/><path d="M70.2,14H68.11V5.26h2V6.43A2.93,2.93,0,0,1,72.74,5c2.14,0,3.16,1.55,3.16,3.48V14H73.82V8.85c0-1.08-.49-1.95-1.8-1.95A1.84,1.84,0,0,0,70.2,9Z" transform="translate(-11.96 -0.54)" style="fill:#231f20"/><path d="M79.27,14a2.13,2.13,0,0,0,2.2,1.89c1.65,0,2.48-.84,2.48-2.62v-.92a2.81,2.81,0,0,1-2.54,1.28,4,4,0,0,1-4-4.27,4.07,4.07,0,0,1,4-4.27A2.71,2.71,0,0,1,84,6.38V5.26h2V13.2c0,2.35-1.21,4.52-4.5,4.52a4,4,0,0,1-4.18-3.2ZM84,9.37a2.27,2.27,0,1,0-4.53,0,2.27,2.27,0,1,0,4.53,0Z" transform="translate(-11.96 -0.54)" style="fill:#231f20"/><path d="M97.29,3.3V14H95.13V3.3H91v-2h10.46v2Z" transform="translate(-11.96 -0.54)" style="fill:#231f20"/><path d="M108.61,11.53a4,4,0,0,1-4,2.77,4.42,4.42,0,0,1-4.48-4.7A4.4,4.4,0,0,1,104.43,5c2.7,0,4.29,1.79,4.29,4.56a2.69,2.69,0,0,1-.06.66h-6.41a2.35,2.35,0,0,0,2.4,2.29,2.12,2.12,0,0,0,2.2-1.53Zm-2-2.85a2,2,0,0,0-2.16-1.94,2.11,2.11,0,0,0-2.14,1.94Z" transform="translate(-11.96 -0.54)" style="fill:#231f20"/><path d="M111.29,11.15a1.65,1.65,0,0,0,1.78,1.5c.87,0,1.32-.47,1.32-1s-.33-.83-1-1l-1.3-.29a2.65,2.65,0,0,1-2.35-2.56A3,3,0,0,1,112.93,5a3.09,3.09,0,0,1,3.38,2.45L114.55,8a1.5,1.5,0,0,0-1.62-1.32,1.14,1.14,0,0,0-1.26,1,1,1,0,0,0,.88.92l1.33.27c1.66.36,2.52,1.37,2.52,2.66s-1.08,2.81-3.31,2.81c-2.54,0-3.51-1.65-3.62-2.64Z" transform="translate(-11.96 -0.54)" style="fill:#231f20"/><path d="M120.65,5.26h1.82V7.12h-1.82v4.07c0,.77.34,1.1,1.12,1.1a4,4,0,0,0,.72-.08v1.73a3.21,3.21,0,0,1-1.28.2,2.42,2.42,0,0,1-2.63-2.61V7.12H117V5.26h.45a1.24,1.24,0,0,0,1.35-1.36V2.58h1.89Z" transform="translate(-11.96 -0.54)" style="fill:#231f20"/><path d="M125.17.82a1.36,1.36,0,1,1,0,2.72,1.36,1.36,0,0,1,0-2.72Zm-1,13.21V5.26h2.07V14Z" transform="translate(-11.96 -0.54)" style="fill:#231f20"/><path d="M128.44,14V5.26h2V6.38A3,3,0,0,1,133,5a2.73,2.73,0,0,1,2.62,1.55A3.09,3.09,0,0,1,138.51,5a3,3,0,0,1,3.1,3.33V14h-2V8.68a1.6,1.6,0,0,0-1.69-1.8,1.83,1.83,0,0,0-1.82,2V14H134V8.68a1.61,1.61,0,0,0-1.7-1.8,1.8,1.8,0,0,0-1.82,2V14Z" transform="translate(-11.96 -0.54)" style="fill:#231f20"/><path d="M152.1,9.64a4.55,4.55,0,1,1-9.09,0,4.55,4.55,0,1,1,9.09,0Zm-2.11,0a2.47,2.47,0,1,0-4.9,0,2.47,2.47,0,1,0,4.9,0Z" transform="translate(-11.96 -0.54)" style="fill:#231f20"/><path d="M155.73,14h-2.09V5.26h2V6.43A2.92,2.92,0,0,1,158.27,5c2.14,0,3.17,1.55,3.17,3.48V14h-2.09V8.85c0-1.08-.49-1.95-1.8-1.95A1.84,1.84,0,0,0,155.73,9Z" transform="translate(-11.96 -0.54)" style="fill:#231f20"/><path d="M164.53.82a1.36,1.36,0,1,1-1.35,1.36A1.36,1.36,0,0,1,164.53.82Zm-1,13.21V5.26h2.07V14Z" transform="translate(-11.96 -0.54)" style="fill:#231f20"/><path d="M169.92,9l2.25-.34c.5-.08.65-.33.65-.63,0-.74-.51-1.34-1.66-1.34a1.69,1.69,0,0,0-1.8,1.59l-1.91-.43A3.43,3.43,0,0,1,171.14,5c2.7,0,3.73,1.53,3.73,3.28v4.36A7.59,7.59,0,0,0,175,14H173a4.64,4.64,0,0,1-.09-1.11,3.07,3.07,0,0,1-2.7,1.38,2.75,2.75,0,0,1-3-2.64A2.69,2.69,0,0,1,169.92,9Zm2.9,1.39V10l-2.29.34c-.65.11-1.17.47-1.17,1.19a1.16,1.16,0,0,0,1.28,1.13A2,2,0,0,0,172.82,10.4Z" transform="translate(-11.96 -0.54)" style="fill:#231f20"/><path d="M176.92,14V1H179V14Z" transform="translate(-11.96 -0.54)" style="fill:#231f20"/><path d="M182.28,11.15a1.65,1.65,0,0,0,1.78,1.5c.87,0,1.32-.47,1.32-1s-.32-.83-1-1l-1.29-.29a2.65,2.65,0,0,1-2.36-2.56A3,3,0,0,1,183.92,5a3.11,3.11,0,0,1,3.39,2.45L185.54,8a1.5,1.5,0,0,0-1.62-1.32,1.14,1.14,0,0,0-1.26,1,1,1,0,0,0,.88.92l1.34.27c1.65.36,2.52,1.37,2.52,2.66s-1.08,2.81-3.32,2.81c-2.54,0-3.51-1.65-3.62-2.64Z" transform="translate(-11.96 -0.54)" style="fill:#231f20"/><path d="M190.31,11.21a1.47,1.47,0,1,1,0,2.93,1.47,1.47,0,0,1,0-2.93Z" transform="translate(-11.96 -0.54)" style="fill:#5654a4"/><rect width="17.46" height="17.46" rx="5.11" style="fill:#fbc557"/><path d="M18.5,10.66a7.46,7.46,0,0,1-.81-.1,2.07,2.07,0,1,1,2.62-2,4.42,4.42,0,0,1-1.43,3.31c-.22.21-.38.14-.59,0s-.07-.3,0-.43A3,3,0,0,0,18.5,10.66Z" transform="translate(-11.96 -0.54)" style="fill:#010101"/><path d="M23.41,10.66a7.46,7.46,0,0,1-.81-.1,2.07,2.07,0,1,1,2.62-2,4.42,4.42,0,0,1-1.43,3.31c-.22.21-.38.14-.59,0s-.07-.3,0-.43A3,3,0,0,0,23.41,10.66Z" transform="translate(-11.96 -0.54)" style="fill:#010101"/></svg>