<?xml version="1.0" encoding="utf-8"?>
<!-- Generator: Adobe Illustrator 20.1.0, SVG Export Plug-In . SVG Version: 6.00 Build 0)  -->
<svg version="1.1" id="_x32_7b24c83-6930-4149-a780-3773eb0b718f"
	 xmlns="http://www.w3.org/2000/svg" xmlns:xlink="http://www.w3.org/1999/xlink" x="0px" y="0px" viewBox="0 0 1952.9 747.9"
	 style="enable-background:new 0 0 1952.9 747.9;" xml:space="preserve">
<style type="text/css">
	.st0{opacity:0.1;}
	.st1{fill:#5333ED;}
	.st2{fill:#E0E0E0;}
	.st3{opacity:0.5;}
	.st4{fill:url(#SVGID_1_);}
	.st5{fill:#FFFFFF;}
	.st6{fill:url(#SVGID_2_);}
	.st7{fill:#F5F5F5;}
	.st8{fill:#FDD835;}
	.st9{opacity:0.1;enable-background:new    ;}
	.st10{fill:#FDB797;}
	.st11{fill:url(#SVGID_3_);}
	.st12{fill:url(#SVGID_4_);}
	.st13{fill:#333333;}
	.st14{fill:url(#SVGID_5_);}
	.st15{fill:url(#SVGID_6_);}
	.st16{fill:#F55F44;}
	.st17{fill:#FDA57D;}
	.st18{fill:url(#SVGID_7_);}
	.st19{fill:url(#SVGID_8_);}
	.st20{fill:#DBDBDB;}
</style>
<g class="st0">
	<path class="st1" d="M596.8,66.4c10.2,17.8,4.6,40.8-6.5,58s-26.8,30.9-39.1,47.3c-24.4,32.8-30.7,84.5,0.1,111.4
		c6.6,5.8,14.8,10.4,18.9,18.2c5.6,10.8,1.5,23.8-2.8,35.2l-0.3,0.9c-15.9,43.1,7.5,90.9,51.5,104.5c24.3,7.5,46.3,19.6,62.5,39.3
		c14.2,17.2,22.4,38.3,31.8,58.5c16.9,36.5,38.8,71.4,68.9,98s69.6,44.2,109.8,42.7c91.8-3.3,159.4-100,251.2-105.1
		c6.6-0.4,13.7-0.1,19.2,3.5c7.8,5.1,10.2,15.2,13.5,24c17.4,46.4,69.7,67.8,116.5,84.1l88,30.6c47.8,16.6,98,33.5,148,25.8
		s98.8-48.8,96.7-99.3c-1.8-41.5-36.2-78.1-31.7-119.4c3.1-28.6,24.5-52.6,28.1-81.1c3.7-29.7-12.5-58.2-31.2-81.5
		c-53.7-67.2-130.3-111.6-205-154.3c-52.6-30.1-105.5-60.4-162.2-82c-139.7-53.2-293.2-50.9-442-65.4c-25.6-2.5-52.3-5.4-75.8-16.8
		c-18-8.7-32.1-28.8-51.8-33c-15.1-3.2-37.3,3.4-50.5,10.8C578.3,34.6,584.9,45.8,596.8,66.4z"/>
</g>
<title>hiring</title>
<g>
	
		<rect x="1080.2" y="251" transform="matrix(0.1492 -0.9888 0.9888 0.1492 586.2349 1369.0896)" class="st2" width="16.9" height="185.8"/>
	
		<rect x="1021.7" y="374" transform="matrix(0.1492 -0.9888 0.9888 0.1492 460.7445 1376.3715)" class="st1" width="16.9" height="92.9"/>
	<g class="st3">
		
			<linearGradient id="SVGID_1_" gradientUnits="userSpaceOnUse" x1="1000.6283" y1="124.4399" x2="1000.6283" y2="671.8099" gradientTransform="matrix(1 0 0 -1 0 750)">
			<stop  offset="0" style="stop-color:#808080;stop-opacity:0.25"/>
			<stop  offset="0.54" style="stop-color:#808080;stop-opacity:0.12"/>
			<stop  offset="1" style="stop-color:#808080;stop-opacity:0.1"/>
		</linearGradient>
		<path class="st4" d="M826.8,78.2h347.8c13.4,0,24.2,10.8,24.2,24.2v499c0,13.4-10.8,24.2-24.2,24.2H826.8
			c-13.4,0-24.2-10.8-24.2-24.2v-499C802.5,89,813.4,78.2,826.8,78.2z"/>
	</g>
	<path class="st5" d="M831.7,82.2h337.8c13.3,0,24.1,10.8,24.1,24.1v487c0,13.3-10.8,24.1-24.1,24.1H831.7
		c-13.3,0-24.1-10.8-24.1-24.1v-487C807.6,93,818.4,82.2,831.7,82.2z"/>
	<rect x="994.2" y="179.2" class="st2" width="143.5" height="16.9"/>
	<rect x="1006.8" y="221.4" class="st1" width="118.2" height="16.9"/>
	<rect x="859.1" y="398.8" class="st2" width="244.9" height="16.9"/>
	<rect x="859.1" y="441" class="st2" width="211.1" height="16.9"/>
	<rect x="859.1" y="483.2" class="st2" width="185.8" height="16.9"/>
	<rect x="859.1" y="525.4" class="st2" width="236.4" height="16.9"/>
	<rect x="859.1" y="567.7" class="st1" width="92.9" height="16.9"/>
</g>
<g>
	<g class="st3">
		
			<linearGradient id="SVGID_2_" gradientUnits="userSpaceOnUse" x1="920.9083" y1="480.0776" x2="920.9083" y2="603.7576" gradientTransform="matrix(1 0 0 -1 0 750)">
			<stop  offset="0" style="stop-color:#808080;stop-opacity:0.25"/>
			<stop  offset="0.54" style="stop-color:#808080;stop-opacity:0.12"/>
			<stop  offset="1" style="stop-color:#808080;stop-opacity:0.1"/>
		</linearGradient>
		<circle class="st6" cx="920.9" cy="208.1" r="61.8"/>
	</g>
	<circle class="st7" cx="920.9" cy="207.7" r="60.5"/>
	<path class="st8" d="M954.4,213.2c0,22.3-14.5,47.1-32.5,47.1c-17.9,0-32.5-24.8-32.5-47.1s14.5-33.6,32.5-33.6
		S954.4,190.9,954.4,213.2z"/>
	<path class="st1" d="M921.1,268.5c11.8,0,23.4-3.4,33.3-10c-2.2-12.2-10.7-12.9-10.7-12.9h-46.8c0,0-8,0.7-10.5,11.9
		C896.5,264.7,908.6,268.5,921.1,268.5z"/>
	<path class="st9" d="M911,230.8h18.7l0,0v15c0,5.2-4.2,9.4-9.4,9.4l0,0c-5.2,0-9.4-4.2-9.4-9.4L911,230.8L911,230.8z"/>
	<path class="st10" d="M912.8,230.1H928c1,0,1.8,0.8,1.8,1.8V245c0,5.2-4.2,9.4-9.4,9.4l0,0c-5.2,0-9.4-4.2-9.4-9.4v-13.2
		C911,230.9,911.8,230.1,912.8,230.1z"/>
	<path class="st9" d="M911.1,237.8c6,2.3,12.7,2.3,18.7,0.1v-2.3h-18.7V237.8z"/>
	<circle class="st10" cx="920.4" cy="212.2" r="26.8"/>
	<ellipse class="st10" cx="894.2" cy="211.1" rx="2.5" ry="4.7"/>
	<ellipse class="st10" cx="946.6" cy="211.1" rx="2.5" ry="4.7"/>
	<path class="st9" d="M896.7,197.7c0,0,15.2,20.8,50,13.7c0,0,3.9-4.7-5.6-19.2C931.6,177.6,905.3,180,896.7,197.7z"/>
	<path class="st8" d="M896.7,197.3c0,0,15.2,20.8,50,13.7c0,0,3.9-4.7-5.6-19.2S905.3,179.6,896.7,197.3z"/>
</g>
<g>
	<path class="st1" d="M872.8,342.3c6.3,0,11.4,5.1,11.4,11.4c0,6.3-5.1,11.4-11.4,11.4c-6.3,0-11.4-5.1-11.4-11.4l-0.1-1.6
		c0-12.6,10.2-22.8,22.8-22.8v6.5c-4.3,0-8.4,1.7-11.5,4.8c-0.6,0.6-1.1,1.2-1.6,1.9C871.6,342.3,872.2,342.3,872.8,342.3z
		 M902.1,342.3c6.3,0,11.4,5.1,11.4,11.4c0,6.3-5.1,11.4-11.4,11.4s-11.4-5.1-11.4-11.4l-0.1-1.6c0-12.6,10.2-22.8,22.8-22.8v6.5
		c-4.3,0-8.4,1.7-11.5,4.8c-0.6,0.6-1.1,1.2-1.6,1.9C900.9,342.3,901.5,342.3,902.1,342.3z"/>
</g>
<g>
	<g>
		<g class="st3">
			
				<linearGradient id="SVGID_3_" gradientUnits="userSpaceOnUse" x1="1359.2198" y1="395.0159" x2="1359.2198" y2="624.3634" gradientTransform="matrix(1 0 0 -1 0 750)">
				<stop  offset="0" style="stop-color:#808080;stop-opacity:0.25"/>
				<stop  offset="0.54" style="stop-color:#808080;stop-opacity:0.12"/>
				<stop  offset="1" style="stop-color:#808080;stop-opacity:0.1"/>
			</linearGradient>
			<path class="st11" d="M1185.3,125.6h347.8c13.3,0,24.2,10.8,24.2,24.2v181c0,13.3-10.8,24.2-24.2,24.2h-347.8
				c-13.3,0-24.2-10.8-24.2-24.2v-181C1161.1,136.5,1172,125.6,1185.3,125.6z"/>
		</g>
		<path class="st5" d="M1190.3,129.7h337.8c13.3,0,24.1,10.8,24.1,24.1v167c0,13.3-10.8,24.1-24.1,24.1h-337.8
			c-13.3,0-24.1-10.8-24.1-24.1v-167C1166.2,140.5,1177,129.7,1190.3,129.7z"/>
		<rect x="1352.8" y="261.6" class="st2" width="143.5" height="16.9"/>
		<rect x="1352.8" y="226.2" class="st1" width="118.2" height="16.9"/>
	</g>
	<g class="st3">
		
			<linearGradient id="SVGID_4_" gradientUnits="userSpaceOnUse" x1="1256.2399" y1="457.2583" x2="1256.2399" y2="572.5185" gradientTransform="matrix(1 0 0 -1 0 750)">
			<stop  offset="0" style="stop-color:#808080;stop-opacity:0.25"/>
			<stop  offset="0.54" style="stop-color:#808080;stop-opacity:0.12"/>
			<stop  offset="1" style="stop-color:#808080;stop-opacity:0.1"/>
		</linearGradient>
		<circle class="st12" cx="1256.2" cy="235.1" r="57.6"/>
	</g>
	<circle class="st7" cx="1256.3" cy="234.7" r="56.4"/>
	<path class="st1" d="M1256.4,291.4c11,0,21.8-3.2,31-9.3c-2.1-11.4-10-12-10-12h-43.6c0,0-7.5,0.6-9.8,11.1
		C1233.5,287.8,1244.8,291.4,1256.4,291.4z"/>
	<circle class="st13" cx="1255.8" cy="233.6" r="27.2"/>
	<path class="st9" d="M1247,256.2h17.4l0,0v14c0,4.8-3.9,8.7-8.7,8.7l0,0l0,0c-4.8,0-8.7-3.9-8.7-8.7l0,0L1247,256.2L1247,256.2z"/>
	<path class="st10" d="M1248.7,255.6h14.1c0.9,0,1.7,0.7,1.7,1.7l0,0v12.3c0,4.8-3.9,8.7-8.7,8.7l0,0l0,0c-4.8,0-8.7-3.9-8.7-8.7
		c0,0,0,0,0,0v-12.3C1247,256.3,1247.8,255.6,1248.7,255.6C1248.7,255.6,1248.7,255.6,1248.7,255.6L1248.7,255.6z"/>
	<path class="st9" d="M1247.1,262.8c5.6,2.1,11.8,2.1,17.4,0v-2.2h-17.4V262.8z"/>
	<circle class="st10" cx="1255.8" cy="239" r="25"/>
	<path class="st9" d="M1238,216.2c0,0,10.5,21.4,40.3,9l-6.9-10.9l-12.3-4.4L1238,216.2z"/>
	<path class="st13" d="M1238,215.9c0,0,10.5,21.4,40.3,9l-6.9-10.9l-12.3-4.4L1238,215.9z"/>
	<path class="st13" d="M1237.9,214.5c0.7-2.2,1.9-4.2,3.6-5.8c4.9-4.9,13-5.9,17.1-11.4c0.9,1.6,0.4,3.5-1.2,4.4
		c-0.1,0.1-0.2,0.1-0.3,0.1c4,0,8.6-0.4,10.8-3.6c1.1,2.6,0.6,5.7-1.2,7.8c3.5,0.2,7.3,2.5,7.5,6.1c0.1,2.3-1.3,4.6-3.2,5.9
		s-4.2,2-6.5,2.5C1257.7,221.9,1233.5,228,1237.9,214.5z"/>
	<ellipse class="st10" cx="1230.8" cy="239" rx="2.3" ry="4.4"/>
	<ellipse class="st10" cx="1280.8" cy="239" rx="2.3" ry="4.4"/>
	<g>
		<path class="st1" d="M1367.5,191.4c4.6,0,8.3,3.7,8.3,8.3c0,4.6-3.7,8.3-8.3,8.3s-8.3-3.7-8.3-8.3l0-1.2c0-9.1,7.4-16.5,16.5-16.5
			v4.7c-3.2,0-6.1,1.2-8.3,3.5c-0.4,0.4-0.8,0.9-1.2,1.4C1366.6,191.4,1367.1,191.4,1367.5,191.4z M1388.7,191.4
			c4.6,0,8.3,3.7,8.3,8.3c0,4.6-3.7,8.3-8.3,8.3c-4.6,0-8.3-3.7-8.3-8.3l0-1.2c0-9.1,7.4-16.5,16.5-16.5v4.7c-3.2,0-6.1,1.2-8.3,3.5
			c-0.4,0.4-0.8,0.9-1.2,1.4C1387.9,191.4,1388.3,191.4,1388.7,191.4z"/>
	</g>
</g>
<g>
	<g>
		<g class="st3">
			
				<linearGradient id="SVGID_5_" gradientUnits="userSpaceOnUse" x1="1352.7699" y1="155.7332" x2="1352.7699" y2="385.0808" gradientTransform="matrix(1 0 0 -1 0 750)">
				<stop  offset="0" style="stop-color:#808080;stop-opacity:0.25"/>
				<stop  offset="0.54" style="stop-color:#808080;stop-opacity:0.12"/>
				<stop  offset="1" style="stop-color:#808080;stop-opacity:0.1"/>
			</linearGradient>
			<path class="st14" d="M1178.9,364.9h347.8c13.3,0,24.2,10.8,24.2,24.2v181c0,13.3-10.8,24.2-24.2,24.2h-347.8
				c-13.3,0-24.2-10.8-24.2-24.2v-181C1154.7,375.7,1165.5,364.9,1178.9,364.9z"/>
		</g>
		<path class="st5" d="M1183.9,368.9h337.8c13.3,0,24.1,10.8,24.1,24.1v167c0,13.3-10.8,24.1-24.1,24.1h-337.8
			c-13.3,0-24.1-10.8-24.1-24.1v-167C1159.7,379.8,1170.5,368.9,1183.9,368.9z"/>
		<rect x="1346.3" y="500.9" class="st2" width="143.5" height="16.9"/>
		<rect x="1346.3" y="465.4" class="st1" width="118.2" height="16.9"/>
	</g>
	<g class="st3">
		
			<linearGradient id="SVGID_6_" gradientUnits="userSpaceOnUse" x1="1249.2428" y1="220.0113" x2="1249.2428" y2="332.2246" gradientTransform="matrix(1 0 0 -1 0 750)">
			<stop  offset="0" style="stop-color:#808080;stop-opacity:0.25"/>
			<stop  offset="0.54" style="stop-color:#808080;stop-opacity:0.12"/>
			<stop  offset="1" style="stop-color:#808080;stop-opacity:0.1"/>
		</linearGradient>
		<circle class="st15" cx="1249.2" cy="473.9" r="56.1"/>
	</g>
	<circle class="st7" cx="1249.3" cy="473.5" r="54.9"/>
	<path class="st1" d="M1249.4,528.7c10.7,0,21.2-3.1,30.2-9c-2-11.1-9.7-11.7-9.7-11.7h-42.4c0,0-7.3,0.6-9.5,10.8
		C1227.1,525.2,1238.1,528.7,1249.4,528.7z"/>
	<circle class="st16" cx="1248.8" cy="472.4" r="26.5"/>
	<path class="st9" d="M1240.3,494.4h17l0,0V508c0,4.7-3.8,8.5-8.5,8.5l0,0l0,0c-4.7,0-8.5-3.8-8.5-8.5l0,0L1240.3,494.4
		L1240.3,494.4z"/>
	<path class="st17" d="M1241.9,493.8h13.7c0.9,0,1.6,0.7,1.6,1.6l0,0v12c0,4.7-3.8,8.5-8.5,8.5l0,0l0,0c-4.7,0-8.5-3.8-8.5-8.5l0,0
		v-12C1240.3,494.5,1241,493.8,1241.9,493.8L1241.9,493.8L1241.9,493.8z"/>
	<path class="st9" d="M1240.3,500.9c5.5,2,11.5,2.1,17,0v-2.1h-17V500.9z"/>
	<circle class="st17" cx="1248.8" cy="477.7" r="24.3"/>
	<circle class="st16" cx="1248.8" cy="445.4" r="9.8"/>
	<circle class="st16" cx="1248.8" cy="435.8" r="6.4"/>
	<path class="st16" d="M1244.5,450.8c-4.8-2.1-7-7.7-5.1-12.5c-0.1,0.1-0.1,0.3-0.2,0.4c-2.2,4.9,0,10.7,4.9,13
		c4.9,2.2,10.7,0,13-4.9c0.1-0.1,0.1-0.3,0.2-0.4C1254.9,450.9,1249.3,452.9,1244.5,450.8z"/>
	<path class="st9" d="M1231.5,455.5c0,0,10.3,20.8,39.2,8.7l-6.7-10.6l-11.9-4.3L1231.5,455.5z"/>
	<path class="st16" d="M1231.5,455.2c0,0,10.3,20.8,39.2,8.7l-6.7-10.6l-11.9-4.3L1231.5,455.2z"/>
	<path class="st13" d="M1239.4,447.6c6.3-0.5,12.7-0.5,19,0C1258.4,447.6,1244.3,448.9,1239.4,447.6z"/>
	<path class="st16" d="M1250.3,428.9c-0.5,0-1,0-1.5,0.1h0.4c3.5,0.1,6.3,3.1,6.2,6.6c-0.1,3-2.3,5.6-5.3,6.1c3.6,0,6.5-2.8,6.5-6.4
		C1256.7,431.9,1253.8,429,1250.3,428.9L1250.3,428.9z"/>
	<ellipse class="st17" cx="1224.5" cy="477.6" rx="2.3" ry="4.2"/>
	<ellipse class="st17" cx="1273.2" cy="477.6" rx="2.3" ry="4.2"/>
	<polygon class="st16" points="1229.9,455.8 1234.7,453.4 1235.8,457.3 1232.9,459.3 	"/>
	<g>
		<path class="st1" d="M1364.3,430.3c0.4-0.4,0.5-0.9,0.4-1.4c-0.2-0.5-0.6-0.9-1.1-0.9l-4.7-0.7c-0.2,0-0.4-0.2-0.5-0.3l-2.1-4.2
			c-0.2-0.5-0.7-0.8-1.2-0.8c-0.5,0-1,0.3-1.2,0.8l-2.1,4.2c-0.1,0.2-0.3,0.3-0.5,0.3l-4.7,0.7c-0.5,0.1-1,0.4-1.1,0.9
			c-0.2,0.5,0,1,0.4,1.4l3.4,3.3c0.1,0.1,0.2,0.3,0.2,0.5l-0.8,4.7c-0.1,0.4,0,0.8,0.3,1.1c0.4,0.5,1.1,0.6,1.7,0.3l4.2-2.2
			c0.2-0.1,0.4-0.1,0.6,0l4.2,2.2c0.2,0.1,0.4,0.2,0.6,0.2c0.4,0,0.8-0.2,1.1-0.5c0.3-0.3,0.4-0.7,0.3-1.1l-0.8-4.7
			c0-0.2,0-0.4,0.2-0.5L1364.3,430.3z"/>
		<path class="st1" d="M1393.3,430.3c0.4-0.4,0.5-0.9,0.4-1.4c-0.2-0.5-0.6-0.9-1.1-0.9l-4.7-0.7c-0.2,0-0.4-0.2-0.5-0.3l-2.1-4.2
			c-0.2-0.5-0.7-0.8-1.2-0.8c-0.5,0-1,0.3-1.2,0.8l-2.1,4.2c-0.1,0.2-0.3,0.3-0.5,0.3l-4.7,0.7c-0.5,0.1-1,0.4-1.1,0.9
			c-0.2,0.5,0,1,0.4,1.4l3.4,3.3c0.1,0.1,0.2,0.3,0.2,0.5l-0.8,4.7c-0.1,0.4,0,0.8,0.3,1.1c0.4,0.5,1.1,0.6,1.7,0.3l4.2-2.2
			c0.2-0.1,0.4-0.1,0.6,0l4.2,2.2c0.2,0.1,0.4,0.2,0.6,0.2c0.4,0,0.8-0.2,1.1-0.5c0.3-0.3,0.4-0.7,0.3-1.1l-0.8-4.7
			c0-0.2,0-0.4,0.2-0.5L1393.3,430.3z"/>
		<path class="st1" d="M1423.4,430.3c0.4-0.4,0.5-0.9,0.4-1.4c-0.2-0.5-0.6-0.9-1.1-0.9l-4.7-0.7c-0.2,0-0.4-0.2-0.5-0.3l-2.1-4.2
			c-0.2-0.5-0.7-0.8-1.2-0.8c-0.5,0-1,0.3-1.2,0.8l-2.1,4.2c-0.1,0.2-0.3,0.3-0.5,0.3l-4.7,0.7c-0.5,0.1-1,0.4-1.1,0.9
			c-0.2,0.5,0,1,0.4,1.4l3.4,3.3c0.1,0.1,0.2,0.3,0.2,0.5l-0.8,4.7c-0.1,0.4,0,0.8,0.3,1.1c0.4,0.5,1.1,0.6,1.7,0.3l4.2-2.2
			c0.2-0.1,0.4-0.1,0.6,0l4.2,2.2c0.2,0.1,0.4,0.2,0.6,0.2c0.4,0,0.8-0.2,1.1-0.5c0.3-0.3,0.4-0.7,0.3-1.1l-0.8-4.7
			c0-0.2,0-0.4,0.2-0.5L1423.4,430.3z"/>
		<path class="st1" d="M1452.4,430.3c0.4-0.4,0.5-0.9,0.4-1.4c-0.2-0.5-0.6-0.9-1.1-0.9l-4.7-0.7c-0.2,0-0.4-0.2-0.5-0.3l-2.1-4.2
			c-0.2-0.5-0.7-0.8-1.2-0.8c-0.5,0-1,0.3-1.2,0.8l-2.1,4.2c-0.1,0.2-0.3,0.3-0.5,0.3l-4.7,0.7c-0.5,0.1-1,0.4-1.1,0.9
			c-0.2,0.5,0,1,0.4,1.4l3.4,3.3c0.1,0.1,0.2,0.3,0.2,0.5l-0.8,4.7c-0.1,0.4,0,0.8,0.3,1.1c0.4,0.5,1.1,0.6,1.7,0.3l4.2-2.2
			c0.2-0.1,0.4-0.1,0.6,0l4.2,2.2c0.2,0.1,0.4,0.2,0.6,0.2c0.4,0,0.8-0.2,1.1-0.5c0.3-0.3,0.4-0.7,0.3-1.1l-0.8-4.7
			c0-0.2,0-0.4,0.2-0.5L1452.4,430.3z"/>
		<path class="st1" d="M1483.3,430.3c0.4-0.4,0.5-0.9,0.4-1.4c-0.2-0.5-0.6-0.9-1.1-0.9l-4.7-0.7c-0.2,0-0.4-0.2-0.5-0.3l-2.1-4.2
			c-0.2-0.5-0.7-0.8-1.2-0.8c-0.5,0-1,0.3-1.2,0.8l-2.1,4.2c-0.1,0.2-0.3,0.3-0.5,0.3l-4.7,0.7c-0.5,0.1-1,0.4-1.1,0.9
			c-0.2,0.5,0,1,0.4,1.4l3.4,3.3c0.1,0.1,0.2,0.3,0.2,0.5l-0.8,4.7c-0.1,0.4,0,0.8,0.3,1.1c0.4,0.5,1.1,0.6,1.7,0.3l4.2-2.2
			c0.2-0.1,0.4-0.1,0.6,0l4.2,2.2c0.2,0.1,0.4,0.2,0.6,0.2c0.4,0,0.8-0.2,1.1-0.5c0.3-0.3,0.4-0.7,0.3-1.1l-0.8-4.7
			c0-0.2,0-0.4,0.2-0.5L1483.3,430.3z"/>
	</g>
</g>
<g>
	<g>
		<g class="st3">
			
				<linearGradient id="SVGID_7_" gradientUnits="userSpaceOnUse" x1="708.1988" y1="89.1567" x2="898.2098" y2="537.8428" gradientTransform="matrix(1 -2.443458e-03 -2.443458e-03 -1 -138.8661 686.7021)">
				<stop  offset="0" style="stop-color:#808080;stop-opacity:0.25"/>
				<stop  offset="0.54" style="stop-color:#808080;stop-opacity:0.12"/>
				<stop  offset="1" style="stop-color:#808080;stop-opacity:0.1"/>
			</linearGradient>
			<path class="st18" d="M774.1,154.2l-222,0.5c-5,0-9.1,4.1-9.1,9.1c0,0,0,0,0,0l1,415.3c0,5,4.1,9.1,9.1,9.1c0,0,0,0,0,0l222-0.5
				c5,0,9.1-4.1,9.1-9.1v0l-1-415.3C783.2,158.3,779.1,154.2,774.1,154.2z"/>
		</g>
		<path class="st5" d="M568.8,160.4l188.6-0.5c12.5,0,22.6,10.1,22.7,22.6l0.9,376.8c0,12.5-10.1,22.6-22.6,22.7l-188.6,0.5
			c-12.5,0-22.6-10.1-22.7-22.6L546.2,183C546.2,170.5,556.3,160.4,568.8,160.4z"/>
		<g class="st3">
			
				<linearGradient id="SVGID_8_" gradientUnits="userSpaceOnUse" x1="792.224" y1="349.934" x2="792.224" y2="486.5714" gradientTransform="matrix(1 0 0 -1 -127.12 687.01)">
				<stop  offset="0" style="stop-color:#808080;stop-opacity:0.25"/>
				<stop  offset="0.54" style="stop-color:#808080;stop-opacity:0.12"/>
				<stop  offset="1" style="stop-color:#808080;stop-opacity:0.1"/>
			</linearGradient>
			<path class="st19" d="M733.2,268.5c0-37.6-30.5-68.1-68.1-68.1c-37.6,0-68.1,30.5-68.1,68.1c0,22.7,11.3,43.9,30.1,56.5l0,0.3
				c2.2,2.1,4.9,3.8,7.7,4.9l0.1-0.3c3.2,2.7,16.6,7.1,32.1,7.1h0.3c9.8,0,20.4-1.7,29.7-6.8c0,0,0.1-0.2,0.2-0.5
				c2.4-1.1,4.5-2.6,6.4-4.4c0-0.3,0.1-0.5,0.1-0.8C722.2,311.9,733.2,290.9,733.2,268.5z"/>
		</g>
		<circle class="st7" cx="665.1" cy="268.6" r="66.1"/>
		<path class="st20" d="M636.2,176.2l49.4-0.7c0.7,0,1.3,0.6,1.4,1.3l0,0.6c0,0.7-0.6,1.3-1.3,1.4l-49.4,0.7c-0.7,0-1.3-0.6-1.4-1.3
			l0-0.6C634.9,176.8,635.5,176.2,636.2,176.2z"/>
		
			<ellipse transform="matrix(0.9999 -1.500927e-02 1.500927e-02 0.9999 -2.5709 10.4978)" class="st20" cx="698.1" cy="176.5" rx="2" ry="2"/>
		<rect x="607" y="466.1" class="st2" width="108.2" height="12"/>
		<rect x="583" y="490.1" class="st2" width="156.3" height="12"/>
		<path class="st17" d="M639.9,295.7c0,0-15.7,1.3-11.6,30c2.2,2.1,4.7,3.7,7.5,4.8l8.9-30L639.9,295.7z"/>
		<path class="st17" d="M690.9,295.7c0,0,15.7,1.3,11.6,30c-2.2,2.1-4.7,3.7-7.5,4.8l-8.9-30L690.9,295.7z"/>
		<path class="st13" d="M640.5,248.7c0,0-7.5,21.8-11.6,19.8c0,0,39.4,34.1,74.2,0c0,0-6.1-10.9-15-19.8H640.5z"/>
		<circle class="st13" cx="665.8" cy="246.7" r="29.3"/>
		<path class="st9" d="M690.6,295.7h-51.1l-4.8,20.4c0,0-2.8,9.5,0.7,13.6s36,13.6,59.9,0.7c2.1-5.5,2.3-11.4,0.7-17
			c-2.7-9.5-0.7-0.7-0.7-0.7L690.6,295.7z"/>
		<path class="st9" d="M691.3,295.7h-51.1l-4.8,20.4c0,0-2.8,9.5,0.7,13.6s36,13.6,59.9,0.7c2.1-5.5,2.3-11.4,0.7-17
			c-2.7-9.5-0.7-0.7-0.7-0.7L691.3,295.7z"/>
		<path class="st1" d="M690.9,295.7h-51.1l-4.8,20.4c0,0-2.8,9.5,0.7,13.6c3.5,4.2,36,13.6,59.9,0.7c2.1-5.5,2.3-11.4,0.7-17
			c-2.7-9.5-0.7-0.7-0.7-0.7L690.9,295.7z"/>
		<path class="st9" d="M655.5,278.8h20.4l0,0v16.3c0,5.6-4.6,10.2-10.2,10.2l0,0c-5.6,0-10.2-4.6-10.2-10.2l0,0V278.8L655.5,278.8z"
			/>
		<path class="st17" d="M655.5,278h20.4l0,0v16.3c0,5.6-4.6,10.2-10.2,10.2l0,0c-5.6,0-10.2-4.6-10.2-10.2L655.5,278L655.5,278z"/>
		<path class="st9" d="M655.6,281c6.6,2.5,13.8,2.5,20.4,0.1v-2.5h-20.4V281z"/>
		<circle class="st17" cx="665.8" cy="253" r="29.3"/>
		<path class="st13" d="M637.8,241.9h55.9c0,0-4.8-22.6-25.9-21.1C646.7,222.2,637.8,241.9,637.8,241.9z"/>
		<ellipse class="st17" cx="637.1" cy="251.8" rx="2.7" ry="5.1"/>
		<ellipse class="st17" cx="694.4" cy="251.8" rx="2.7" ry="5.1"/>
		<path class="st9" d="M637.8,242.7h55.9c0,0-4.8-22.6-25.9-21.1C646.7,223,637.8,242.7,637.8,242.7z"/>
	</g>
	<g>
		<path class="st1" d="M649.1,425.8c5.1,0,9.3,4.2,9.3,9.3c0,5.1-4.2,9.3-9.3,9.3s-9.3-4.2-9.3-9.3l0-1.3c0-10.3,8.3-18.6,18.6-18.6
			v5.3c-3.5,0-6.9,1.4-9.4,3.9c-0.5,0.5-0.9,1-1.3,1.5C648.1,425.9,648.6,425.8,649.1,425.8z M672.9,425.8c5.1,0,9.3,4.2,9.3,9.3
			c0,5.1-4.2,9.3-9.3,9.3s-9.3-4.2-9.3-9.3l0-1.3c0-10.3,8.3-18.6,18.6-18.6v5.3c-3.5,0-6.9,1.4-9.4,3.9c-0.5,0.5-0.9,1-1.3,1.5
			C672,425.9,672.4,425.8,672.9,425.8z"/>
	</g>
	<g>
		<path class="st1" d="M610.9,366.7c0.4-0.4,0.5-1,0.4-1.5c-0.2-0.5-0.6-0.9-1.2-1l-4.9-0.7c-0.2,0-0.4-0.2-0.5-0.4l-2.2-4.4
			c-0.2-0.5-0.7-0.8-1.3-0.8c-0.6,0-1.1,0.3-1.3,0.8l-2.2,4.4c-0.1,0.2-0.3,0.3-0.5,0.4l-4.9,0.7c-0.6,0.1-1,0.5-1.2,1
			c-0.2,0.5,0,1.1,0.4,1.5l3.5,3.5c0.2,0.1,0.2,0.4,0.2,0.6l-0.8,4.9c-0.1,0.4,0,0.8,0.3,1.2c0.4,0.5,1.2,0.7,1.8,0.4l4.4-2.3
			c0.2-0.1,0.4-0.1,0.6,0l4.4,2.3c0.2,0.1,0.4,0.2,0.7,0.2c0.4,0,0.8-0.2,1.1-0.5c0.3-0.3,0.4-0.7,0.3-1.2l-0.8-4.9
			c0-0.2,0-0.4,0.2-0.6L610.9,366.7z"/>
		<path class="st1" d="M641.3,366.7c0.4-0.4,0.5-1,0.4-1.5c-0.2-0.5-0.6-0.9-1.2-1l-4.9-0.7c-0.2,0-0.4-0.2-0.5-0.4l-2.2-4.4
			c-0.2-0.5-0.7-0.8-1.3-0.8c-0.6,0-1.1,0.3-1.3,0.8l-2.2,4.4c-0.1,0.2-0.3,0.3-0.5,0.4l-4.9,0.7c-0.6,0.1-1,0.5-1.2,1
			c-0.2,0.5,0,1.1,0.4,1.5l3.5,3.5c0.2,0.1,0.2,0.4,0.2,0.6l-0.8,4.9c-0.1,0.4,0,0.8,0.3,1.2c0.4,0.5,1.2,0.7,1.8,0.4l4.4-2.3
			c0.2-0.1,0.4-0.1,0.6,0l4.4,2.3c0.2,0.1,0.4,0.2,0.7,0.2c0.4,0,0.8-0.2,1.1-0.5c0.3-0.3,0.4-0.7,0.3-1.2l-0.8-4.9
			c0-0.2,0-0.4,0.2-0.6L641.3,366.7z"/>
		<path class="st1" d="M672.8,366.7c0.4-0.4,0.5-1,0.4-1.5c-0.2-0.5-0.6-0.9-1.2-1l-4.9-0.7c-0.2,0-0.4-0.2-0.5-0.4l-2.2-4.4
			c-0.2-0.5-0.7-0.8-1.3-0.8c-0.6,0-1.1,0.3-1.3,0.8l-2.2,4.4c-0.1,0.2-0.3,0.3-0.5,0.4l-4.9,0.7c-0.6,0.1-1,0.5-1.2,1
			c-0.2,0.5,0,1.1,0.4,1.5l3.5,3.5c0.2,0.1,0.2,0.4,0.2,0.6l-0.8,4.9c-0.1,0.4,0,0.8,0.3,1.2c0.4,0.5,1.2,0.7,1.8,0.4l4.4-2.3
			c0.2-0.1,0.4-0.1,0.6,0l4.4,2.3c0.2,0.1,0.4,0.2,0.7,0.2c0.4,0,0.8-0.2,1.1-0.5c0.3-0.3,0.4-0.7,0.3-1.2l-0.8-4.9
			c0-0.2,0-0.4,0.2-0.6L672.8,366.7z"/>
		<path class="st1" d="M703.2,366.7c0.4-0.4,0.5-1,0.4-1.5c-0.2-0.5-0.6-0.9-1.2-1l-4.9-0.7c-0.2,0-0.4-0.2-0.5-0.4l-2.2-4.4
			c-0.2-0.5-0.7-0.8-1.3-0.8c-0.6,0-1.1,0.3-1.3,0.8l-2.2,4.4c-0.1,0.2-0.3,0.3-0.5,0.4l-4.9,0.7c-0.6,0.1-1,0.5-1.2,1
			c-0.2,0.5,0,1.1,0.4,1.5l3.5,3.5c0.2,0.1,0.2,0.4,0.2,0.6l-0.8,4.9c-0.1,0.4,0,0.8,0.3,1.2c0.4,0.5,1.2,0.7,1.8,0.4l4.4-2.3
			c0.2-0.1,0.4-0.1,0.6,0l4.4,2.3c0.2,0.1,0.4,0.2,0.7,0.2c0.4,0,0.8-0.2,1.1-0.5c0.3-0.3,0.4-0.7,0.3-1.2l-0.8-4.9
			c0-0.2,0-0.4,0.2-0.6L703.2,366.7z"/>
		<path class="st1" d="M735.7,366.7c0.4-0.4,0.5-1,0.4-1.5c-0.2-0.5-0.6-0.9-1.2-1l-4.9-0.7c-0.2,0-0.4-0.2-0.5-0.4l-2.2-4.4
			c-0.2-0.5-0.7-0.8-1.3-0.8c-0.6,0-1.1,0.3-1.3,0.8l-2.2,4.4c-0.1,0.2-0.3,0.3-0.5,0.4l-4.9,0.7c-0.6,0.1-1,0.5-1.2,1
			c-0.2,0.5,0,1.1,0.4,1.5l3.5,3.5c0.2,0.1,0.2,0.4,0.2,0.6l-0.8,4.9c-0.1,0.4,0,0.8,0.3,1.2c0.4,0.5,1.2,0.7,1.8,0.4l4.4-2.3
			c0.2-0.1,0.4-0.1,0.6,0l4.4,2.3c0.2,0.1,0.4,0.2,0.7,0.2c0.4,0,0.8-0.2,1.1-0.5c0.3-0.3,0.4-0.7,0.3-1.2l-0.8-4.9
			c0-0.2,0-0.4,0.2-0.6L735.7,366.7z"/>
	</g>
</g>
</svg>
