<svg id="Layer_1" data-name="Layer 1" xmlns="http://www.w3.org/2000/svg" viewBox="0 0 895.1 217.3"><title>colorlib</title><path d="M735,0V79.3c10-17.6,25.9-22.7,43.3-24.1,20.2-1.7,38.8,2.9,54,17.1,12.2,11.4,19,25.9,22.1,42.1,4.4,22.8,3,45.1-7.2,66.2-9.6,19.8-25.6,31.4-47.2,35.3-.8.1-1.7-.1-2,1H774c-2.1-1.8-4.9-1.6-7.3-2.3-12.5-3.5-23.4-9.4-31.7-21.6,0,6.7-.1,12.1,0,17.5.1,2.3-.6,3.3-3.1,3.2-6.7-.1-13.3-.1-20,0-2.2,0-3-.9-2.8-3,.1-1.2,0-2.3,0-3.5V5.8c0-2-.1-4-.2-6C717.7,0,726.3,0,735,0Zm94.4,131.6a67.85,67.85,0,0,0-5.8-26.2c-7.8-17.3-20.9-27-40.3-27.7C762.6,77,747.8,86.1,740,105c-8.8,21-8.6,42.6.6,63.5,8,18.2,24.7,27.1,46.4,25.8,18-1,31.7-12,37.9-30.4C828,155,829.2,145.6,829.4,131.6Z" transform="translate(0.1 0.2)"/><path d="M209,217c-7.9-2.4-16-3.7-23.5-7.5-16.7-8.5-28.2-21.7-34.1-39.2-8.1-24-8.1-48.2,1.5-71.7,11.4-27.7,33.2-41.5,62.6-43.5,14.8-1,29.2.9,42.6,8.1,20.6,11,31.9,28.6,36.5,50.9,3.7,17.7,3.3,35.5-2.2,52.8-8.5,26.9-26.7,43.4-54.5,49-1,.2-2.4-.4-3,1.1Zm60.5-80.4c0-12.3-1.7-21.3-5.5-30.2-14.5-33.1-56.9-39.1-78.7-11.1-16,20.5-16.3,60-.7,80.9,17.7,23.6,52.6,24.8,71.6,2.3C266.4,166.5,269.5,152,269.5,136.6Z" transform="translate(0.1 0.2)"/><path d="M416,217c-.8-1.8-2.6-1.2-3.9-1.5-31.1-7.2-51.3-28.9-56-60.7-3.2-21.8-2-43.3,8.7-63.1,12.3-22.8,32.2-34.4,57.6-36.4,20.2-1.6,39.1,2.1,55.4,15.2,16.6,13.3,24.4,31.3,26.8,51.8,2.3,19.1.8,37.9-7.8,55.5-10.5,21.7-27.9,34.2-51.5,38.3-.9.2-2.1-.3-2.5,1C434,217,425,217,416,217Zm62.2-82.3a64.51,64.51,0,0,0-6.3-29.9c-7.8-16.1-20.3-25.8-38.4-26.9-19.5-1.3-34.7,6.7-43.6,24-11.4,22-11.6,45.1-.7,67.3,14.7,30.1,55.2,34.4,76.3,8.7C475.4,165.9,478.4,151.5,478.2,134.7Z" transform="translate(0.1 0.2)"/><path d="M0,121c2.2-2.9,1.9-6.5,2.7-9.8,8.9-39,39.2-60.8,82.4-55.7,17.3,2,32.5,8.2,43.6,22.4,6.3,8.1,9.5,17.5,11.2,27.4.4,2.5-.5,3.2-2.9,3.2-6.8-.1-13.7-.1-20.5,0-2.1,0-3.1-.6-3.8-2.9-4.4-16-14.4-26.1-31.4-27.7C61.5,76,44.2,81.3,35.1,100.3,23.7,124,23.3,148.7,35,172.6c8.6,17.4,25.6,24.5,46.9,21.2,16.8-2.6,28.3-14.3,31.8-32.7.6-3.3,1.6-4.4,5-4.3,7.3.3,14.6.1,22,.1-2.8,24.7-16.4,53.2-52.8,59-.8.1-1.7-.1-2,1h-28c-.7-1.8-2.6-1.3-3.9-1.6-27.3-5.8-43.5-23-51-49.3-1.1-3.7-.8-7.8-3.1-11.2C0,143.7,0,132.3,0,121Z" transform="translate(0.1 0.2)"/><path d="M339,0c-.1,11-.1,22-.2,33,0,58.4-.1,116.9.1,175.3,0,4.8-1.4,5.9-5.8,5.6a160.66,160.66,0,0,0-17,0c-2.3.1-3.5-.6-3.2-3.1a20.85,20.85,0,0,0,0-2.5V0Z" transform="translate(0.1 0.2)"/><path d="M633,0c-.8,1.9-.4,3.9-.4,5.9,0,67.4-.1,134.9.1,202.3,0,4.5-1.1,6.1-5.7,5.7-5.6-.4-11.3-.2-17-.1-2.4.1-3.4-.7-3.1-3.1a7.52,7.52,0,0,0,0-1.5V2.9c0-1,.1-2,.2-3C615.7,0,624.3,0,633,0Z" transform="translate(0.1 0.2)"/><path d="M895,214c-9.5,0-19-.2-28.5-.1-3.3.1-4.7-.7-4.6-4.4.3-8.3.3-16.7,0-25-.1-3.7,1.3-4.4,4.6-4.4,9.5.1,19-.1,28.5-.2Z" transform="translate(0.1 0.2)"/><path d="M684,0c0,9-.1,17.9.1,26.9,0,2.8-.4,4.2-3.7,4-6.1-.3-12.3-.3-18.4,0-3.2.1-3.8-1.1-3.8-4,.1-9,0-17.9-.1-26.9Z" transform="translate(0.1 0.2)"/><path d="M543.5,89.3c5.2-7.2,9.9-14.4,16.2-20.4,10.9-10.4,24.2-14,38.9-14,1.9,0,2.6.6,2.6,2.6-.1,7.3-.1,14.7,0,22,.1,2.7-1.3,2.8-3.4,2.8-7.7.2-15.3,1.2-22.5,4-16.7,6.4-24.9,19.6-28.3,36.5a116.56,116.56,0,0,0-2.1,22.8c0,21.3-.1,42.6.1,64,0,3.4-.8,4.7-4.4,4.5-6-.3-12-.2-18,0-2.9.1-3.6-1-3.6-3.7q.15-74,0-147.9c0-3.2,1.1-4,4-3.9q8.25.3,16.5,0c3-.1,4.1.8,4,3.9C543.4,71.3,543.5,80.3,543.5,89.3Z" transform="translate(0.1 0.2)"/><path d="M658.2,136c0-24.3.1-48.6-.1-72.9,0-3.8,1.1-4.9,4.8-4.7,5.8.3,11.7.2,17.5,0,2.7-.1,3.8.5,3.8,3.5q-.15,74.1,0,148.3c0,2.8-.8,3.7-3.6,3.6-6-.2-12-.3-18,0-3.6.2-4.4-1.2-4.4-4.5Z" transform="translate(0.1 0.2)"/></svg>