<svg id="Layer_1" data-name="Layer 1" xmlns="http://www.w3.org/2000/svg" viewBox="0 0 314.62 62.25"><title>winning-wp</title><path d="M217,17c-2,12.48-4.73,24.82-7.75,37.08-1.17,4.72-4.3,7.83-9.53,8.15-3.64.22-6.62-.8-8-4.51-1.31-3.49.18-6.11,2.77-8.35.71-.61,1.9-.73,2.16-2.17-3.06,0-6.11-.28-7.85-3.11-1.18-1.92-1.88-1.55-3.19-.17-3.05,3.19-6.79,4.41-10.85,2.25C170.32,43.8,171,39.71,172,35.65c.73-3.08,1.45-6.16,2-9.28.3-1.89.92-4.39-1.76-5-2.41-.57-3.54,1.52-4.29,3.43-2,5.48-2.71,11.3-4,17-1.12,5.11-4,7.54-8.1,4.9-3.34-2.17-5.06-.48-7.53.14-1.8.45-4.23,1.09-5.28-.23-3.42-4.32-6.16-1.58-9.58-.06-5.82,2.57-11-1.39-10.24-7.75.49-4.27,1.68-8.47,2.51-12.71.36-1.86.51-3.95-1.66-4.66s-3.39,1.16-4.12,2.82c-2.4,5.37-2.81,11.26-4.1,16.92-1.35,5.92-3.45,7.46-9.23,5.56a7.65,7.65,0,0,0-5,0c-6.57,1.83-10.8-2-9.74-8.8.61-3.94,1.6-7.82,2.22-11.76.28-1.73.76-4.08-1.51-4.73s-3.64,1.3-4.29,3.21C87,28.27,86.2,32,85.31,35.71c-.47,1.94-.8,3.91-1.2,5.86-1.26,6.15-4.63,7.47-10,3.68-1.53-1.08-2,.31-2.84.66-3.17,1.34-6.42,2.19-9.42-.19s-3-5.68-2.19-9.14c1.25-5.68,2.35-11.4,3.55-17.09.72-3.43,5.92-5.62,8.83-3.79,1.43.91.57,2.05.36,3.1C71.25,24.5,70,30.19,68.85,35.9c-.37,1.86-1.45,4.28,1.33,5,2.37.63,4.34-.94,5.12-3.08a83.74,83.74,0,0,0,2.58-9.59c.62-2.59,1-5.23,1.61-7.83,1.15-5.2,5.18-7,9.51-3.67,1.83,1.4,2.2-.14,3.07-.49,6.69-2.72,11.62.63,10.83,7.78-.45,4.1-1.72,8.12-2.57,12.18-.37,1.8-.9,3.89,1.43,4.69,2,.7,3.51-.61,4.47-2.33,3.1-5.49,3.62-11.76,4.62-17.76.78-4.54,2.74-6.3,6.83-5.23,3.3.86,6.23.48,9.49-.15,4.66-.88,8,3.08,7.34,8.26-.55,4.1-1.72,8.12-2.44,12.21-.33,1.86-1.2,4.32,1.58,5,2.28.57,3.71-1.15,4.58-3.07,2.66-5.82,2.94-12.25,4.52-18.35.57-2.2.78-4,3.86-4.09,5.72-.15,6,0,4.83,5.67-1.09,5-2.23,10.07-3.2,15.13-.33,1.7-1.06,3.93,1.33,4.73,2,.65,3.5-.66,4.72-2.12,1.55-1.86,2-4.18,2.51-6.45.86-3.89,1.62-7.81,2.42-11.72,1.12-5.45,5.13-7.26,9.74-3.88,1.63,1.2,1.93,0,2.66-.35,3.1-1.45,6.15-1.79,8.9.53,2.58,2.18,2.79,5.16,2.11,8.26-.82,3.73-1.76,7.44-2.46,11.2-.32,1.73-.84,3.92,1.67,4.54,2.11.52,3.35-1,4.36-2.61.84-1.36.7-2.88.89-4.36.77-5.94,2.81-11.37,7.42-15.37,3.41-3,7.31-4.36,12-2.44,2.55,1.05,5.12-1.54,7.9-.7.91.28,2,0,2.66,1A2.82,2.82,0,0,1,217,17ZM196,34.87c.26,2.55-.56,5.73,2.93,6.11,2.85.31,4.49-1.88,5.14-4.5q1.5-6.27,2.77-12.61c.32-1.58,1-3.46-1.07-4.38s-3.51.3-4.73,1.75c-3.36,4-4.31,8.86-5.06,13.63ZM201,51c.1-1.56-.26-2.38-1.64-1.86-2.4.9-4.49,2.25-4.74,5.09a2.15,2.15,0,0,0,1.76,2.48,2.29,2.29,0,0,0,.64,0c3.21-.6,3.31-3.6,3.95-5.72Z" transform="translate(-0.05 -0.03)"/><path d="M217,17a2.53,2.53,0,0,0,0-.55C220.37,7.11,227.2,2,236.77.27c3.74-.69,5.76-.11,5.58,4.61-.37,10.13-.11,20.28-.11,30.42l1.54.23,4.64-13.32c2.19-6.28,4.49-12.53,6.48-18.88.73-2.34,1.89-3,4.24-3.16,3.81-.28,5.18.79,5,4.89a271.87,271.87,0,0,0,.74,30.61Q268.94,24.35,273,13c1.23-3.44,2.49-6.88,3.6-10.36C277.2.7,278.46-.26,280.3.38c2.51.87.35,2.43.17,3.62-.33,2.08-2.05,3.84-1.49,6.16l.06-.07c-1.34.2-1.07,1.2-1.05,2.09l.06-.08c-5,10.09-8.1,20.94-12.24,31.37-.84,2.11-1.57,3.64-4.45,3.63-6.21,0-6.21.2-6.21-6.17a163.43,163.43,0,0,0-1-22.45c-3.17,8.08-6.32,16.17-9.51,24.24a7.28,7.28,0,0,1-9.39,4.19h0c-2-.83-1.29-2.5-1.3-3.85-.06-11.31,0-22.61-.07-33.92,0-1.35.87-3.32-1-3.94-1.46-.49-2.81.79-4,1.7-3.71,2.89-5,6.85-5,11.42,0,1.24,1.34,3.24-1,3.74-1.76.39-3.08-.8-4.13-2.23C218.14,18.92,218.47,17.41,217,17Z" transform="translate(-0.05 -0.03)"/><path d="M36.15,18.45C32.79,27,29.25,35.29,26.33,43.8c-1.67,4.88-5.27,3.13-8.21,3.11-3.64,0-2.12-3.18-2.14-5q-.21-16.74,0-33.48c0-3.65-1.17-4.12-4-2.28-4.71,3-6.19,7.57-6,12.91,0,1,.83,2.45-.76,3a3.46,3.46,0,0,1-3.58-1.28c-2.08-2.25-1.81-4.87-.93-7.5C3.12,6.15,14.48-.72,22,.11c3.08.32,2.2,2.35,2.27,4,.23,5.32.4,10.64.48,16,.08,5.09,0,10.19,1.13,15.45,3.68-10.6,7.41-21.17,11-31.8.71-2.1,1.42-3.31,4-3.49,4-.28,5.54.67,5.39,5.08a246.29,246.29,0,0,0,.79,30.37q5.4-15.49,10.87-30.87c.39-1.09.73-2.21,1.19-3.28C59.79,0,61.28,0,62.53.4c2,.57.63,2,.31,2.84C57.76,17,52.51,30.62,47.48,44.36c-1.68,4.59-5.3,2.31-8,2.51-3.32.24-2.15-2.74-2.18-4.44-.12-6.83,0-13.66-.08-20.49C37.15,20.8,37.78,19.43,36.15,18.45Z" transform="translate(-0.05 -0.03)"/><path d="M279,10.16C283.92,6,288.7,1.85,295.32.5c10.39-2.11,19.2,3.09,19.35,11.69.14,7.74-6.07,15.25-14.6,16.56-3.45.52-4.33,2.07-4.83,4.88-.61,3.44-1.62,6.81-2.07,10.26-.34,2.65-1.65,3.13-4,3.17-5.9.1-5.85.21-4.59-5.63,2.22-10.23,4.36-20.47,6.53-30.71.66-3.07,6.2-5.87,8.94-4.52,1.64.81.58,2,.38,3-1.11,5.64-2.25,11.28-3.42,17.16,7.94-1.95,13-13.3,9.39-19.8a6.61,6.61,0,0,0-5.16-3.48c-9.63-1.37-17,5-17.37,14.67,0,1.43,1.76,4.12-1.36,4.3-2.74.16-4.11-1.94-4.36-4.53-.18-1.79,0-3.61,0-5.41l-.06.08c1.29-.22,1.5-1,1-2.09Z" transform="translate(-0.05 -0.03)"/><path d="M75.21,7.85c-.46,2.81-2.15,4.56-5.3,4.37a4.54,4.54,0,0,1-4.57-4.51c0-.12,0-.23,0-.35a4.66,4.66,0,0,1,4.38-4.94,3.21,3.21,0,0,1,.62,0C73.28,2.55,75.2,4.41,75.21,7.85Z" transform="translate(-0.05 -0.03)"/><path d="M154.92,7.38c-.57,2.82-1.95,4.91-5.16,4.85A4.47,4.47,0,0,1,145,8.08c0-.14,0-.29,0-.44a4.61,4.61,0,0,1,4-5.18,4.71,4.71,0,0,1,.75,0C152.7,2.28,154.37,4.39,154.92,7.38Z" transform="translate(-0.05 -0.03)"/><path d="M279.09,10.09c.45,1.11.24,1.87-1,2.09C278,11.29,277.75,10.29,279.09,10.09Z" transform="translate(-0.05 -0.03)"/></svg>