<svg id="Layer_1" data-name="Layer 1" xmlns="http://www.w3.org/2000/svg" viewBox="0 0 345.45 184.02"><title>wplift</title><path d="M55.27,127.92c-2.83,9.89-5.94,19.73-8.35,29.73-1,4.36-3,5.61-7.2,5.3a83,83,0,0,0-13,0c-4.5.37-6.65-1-8-5.65-5.8-19.65-12-39.09-18.09-58.65A32.19,32.19,0,0,1,0,95.12H24.38L33,127.3l.93.17c1.41-4.58,2.87-9.15,4.23-13.74,1.66-5.58,3-11.25,5-16.72a6,6,0,0,1,4-3.33c5.93-.75,12-.78,17.91-1.43,3.41-.38,4.66,1,5.44,4.08a295.17,295.17,0,0,0,9.25,30.41c.81-3.07,1.64-6.13,2.42-9.21,2-8.06,3.92-16.15,6.15-24.16.4-1.42,2-3.31,3.3-3.52,6.36-1,12.81-1.58,20.33-2.43-1.32,4.91-2.4,9.13-3.61,13.32-5.34,18.54-10.78,37-16,55.6-.85,3-2.2,4.37-5.49,4.39a155.84,155.84,0,0,0-16.45,1c-3.23.37-4.37-1-5.16-3.8-2.83-10.07-5.84-20.08-8.79-30.12Z" transform="translate(0 0.01)"/><path d="M139.4,152.7c0,6.22,0,11.87,0,17.51-.06,5.92-2.12,9.27-7.69,10.8-5.18,1.43-10.6,2-16.41,3-.13-2.76-.28-4.55-.28-6.33,0-28.32.08-56.64-.12-85,0-4.6,1.09-6.54,6-6.64s9.89-1.37,14.86-1.77c1.51-.12,3.12,1,5.62,1.8a64.06,64.06,0,0,1,7.22-4.62c11.75-5.78,23.83-2,28.8,10,7,17,6.64,34.17-2.34,50.54C169.23,152.59,154.7,160.53,139.4,152.7Zm.15-32.28v11c0,3.49,1.06,6.28,4.78,7.16s6.83-.66,8.22-4a41.18,41.18,0,0,0,.31-31.5,5.71,5.71,0,0,0-7.34-3.36,5.6,5.6,0,0,0-2.5,1.82,16.53,16.53,0,0,0-3.33,8c-.56,3.5-.14,7.22-.14,10.88Z" transform="translate(0 0.01)"/><path d="M281.76,141.58l-24.21,1.48V84.91h-8.07V68.65A26.13,26.13,0,0,1,253.1,68c3.36-.11,4.41-1.72,4.37-5.07a43.67,43.67,0,0,1,1.29-10.86c2.89-11.53,11.05-17.95,24.29-19.56C298,30.7,298.35,31,298.22,45.91c0,1.79-.18,3.58-.27,5.29-14.91,2.16-16.43,3.45-15.61,13.45h11c0,4.84.25,9.63-.2,14.36-.1,1-2.68,2.43-4.23,2.6-7.13.75-7.15.61-7.16,7.86v52.11Z" transform="translate(0 0.01)"/><path d="M305.25,62.25V43.72c7.59-.34,14.83-.79,22.07-.8.82,0,2.26,2.47,2.34,3.85.28,5.1.11,10.22.11,15.9,4.51,0,8.33-.25,12.09.14,1.26.13,3.28,1.79,3.37,2.87.37,4.77.16,9.58.16,14.81H329.78v30.09c0,9.53,3.12,12.28,12.47,11.2.8-.09,1.63,0,3.08,0,0,6.07.13,12-.14,17.93,0,.9-2,2.47-3,2.45-7.25-.14-14.74.4-21.69-1.24-9.77-2.29-14.83-11.34-15.1-24.35-.2-9.48,0-19,0-28.46V81.88l-8.25-.49c0-5.16-.51-10.47.33-15.55C297.7,64.43,301.92,63.65,305.25,62.25Z" transform="translate(0 0.01)"/><path d="M171.29,22.65c2.36-2.88,4.8-5.37,6.65-8.24,2.84-4.4,1.29-7.2-4-7.71-1.63-.16-3.29,0-5.52,0,4.5-3.2,12.5-4.23,16.85-2.52,4,1.58,4.29,5.07,2.54,7.8a129.46,129.46,0,0,1-12.26,16.1c-2.53,2.85-4.89,5.33-6.15,9.2-4.48,13.68-18.09,21-32.55,18.37-2.87-.53-6.08.08-9,.73-7.59,1.67-15,4-22.7,5.31-2.26.39-6.33-1.15-7.1-2.89-1-2.16-.11-6,1.38-8.13,2.75-3.91,6.54-7.09,9.89-10.58l.93.86A74.86,74.86,0,0,0,106,49.09c-1.55,4,0,6,4.2,5,4.65-1,9.16-2.68,14.49-4.28-8.16-8.35-11.38-17.54-8.86-28.25A26.72,26.72,0,0,1,129.29,3.85C145.1-5.1,160.67,1.65,171.29,22.65Z" transform="translate(0 0.01)"/><path d="M188.62,150c-.13-2.37-.29-4-.29-5.61q0-46-.09-92c0-3.87.93-5.67,5.08-6,6.26-.56,12.47-1.77,19.33-2.8.19,2.06.49,3.79.49,5.51,0,31.17-.06,62.33.09,93.5,0,3.92-1.24,5.18-5,5.4C201.79,148.29,195.41,149.21,188.62,150Z" transform="translate(0 0.01)"/><path d="M221.71,146.35c-.14-1.93-.34-3.39-.34-4.84,0-21.49.06-43-.1-64.47,0-3.91,1-5.64,5.14-5.92,6.45-.41,12.84-1.51,19.79-2.39.1,2.07.25,3.68.25,5.3,0,21.65-.09,43.31.08,65,0,4-1,5.62-5.24,5.72C235,144.89,228.72,145.73,221.71,146.35Z" transform="translate(0 0.01)"/><path d="M233.45,63.65a11.4,11.4,0,0,1-11.78-11c0-.19,0-.37,0-.56,0-6.76,5.45-11.68,12.89-11.71a11.7,11.7,0,0,1,11.89,11.51V52C246.4,58.59,240.83,63.65,233.45,63.65Z" transform="translate(0 0.01)"/></svg>